<svg width="1369" height="501" viewBox="0 0 1369 501" xmlns="http://www.w3.org/2000/svg"><title>Stars</title><defs><filter x="-50%" y="-50%" width="200%" height="200%" filterUnits="objectBoundingBox" id="a"><feGaussianBlur stdDeviation="1.114" in="SourceGraphic" result="blur"/></filter><filter x="-50%" y="-50%" width="200%" height="200%" filterUnits="objectBoundingBox" id="b"><feGaussianBlur stdDeviation="1.114" in="SourceGraphic" result="blur"/></filter><filter x="-50%" y="-50%" width="200%" height="200%" filterUnits="objectBoundingBox" id="c"><feGaussianBlur stdDeviation="1.114" in="SourceGraphic" result="blur"/></filter><filter x="-50%" y="-50%" width="200%" height="200%" filterUnits="objectBoundingBox" id="d"><feGaussianBlur stdDeviation="1.114" in="SourceGraphic" result="blur"/></filter></defs><g transform="translate(-541 -89)" fill="none" fill-rule="evenodd"><circle fill="#FFFBE4" cx="1644" cy="111" r="3"/><circle fill="#FFFBE4" cx="1824" cy="191" r="3"/><circle fill="#FFFBE4" cx="1871.5" cy="140.5" r=".5"/><circle fill="#FFFBE4" cx="1772.5" cy="121.5" r="1.5"/><circle fill="#FFFBE4" cx="1681.5" cy="230.5" r=".5"/><circle fill="#FFFBE4" cx="1731.5" cy="180.5" r="1.5"/><circle fill="#FFFBE4" cx="1581.5" cy="140.5" r="1.5"/><circle fill="#FFFBE4" cx="1324" cy="231" r="3"/><circle fill="#FFFBE4" cx="1452.5" cy="241.5" r="1.5"/><circle fill="#FFFBE4" cx="1410.5" cy="299.5" r=".5"/><circle fill="#FFFBE4" cx="1261.5" cy="260.5" r="1.5"/><circle fill="#FFFBE4" cx="1442.5" cy="111.5" r="1.5"/><circle fill="#FFFBE4" cx="1401.5" cy="170.5" r="1.5"/><circle fill="#FFFBE4" cx="1280.5" cy="109.5" r=".5"/><circle fill="#FFFBE4" cx="1240.5" cy="149.5" r=".5"/><circle fill="#FFFBE4" cx="1310.5" cy="299.5" r=".5"/><circle fill="#FFFBE4" cx="1600.5" cy="299.5" r=".5"/><circle fill="#FFFBE4" cx="1520.5" cy="169.5" r=".5"/><circle fill="#FFFBE4" cx="1040.5" cy="119.5" r=".5"/><circle fill="#FFFBE4" cx="990.5" cy="169.5" r=".5"/><circle fill="#FFFBE4" cx="680.5" cy="309.5" r=".5"/><circle fill="#FFFBE4" cx="1224" cy="321" r="3"/><circle fill="#FFFBE4" cx="914" cy="271" r="3"/><circle fill="#FFFBE4" cx="1094" cy="351" r="3"/><circle fill="#FFFBE4" cx="1464" cy="411" r="3"/><circle fill="#FFFBE4" cx="1154" cy="361" r="3"/><circle fill="#FFFBE4" cx="1334" cy="441" r="3"/><circle fill="#FFFBE4" cx="1381.5" cy="390.5" r=".5"/><circle fill="#FFFBE4" cx="1282.5" cy="371.5" r="1.5"/><circle fill="#FFFBE4" cx="1191.5" cy="480.5" r=".5"/><circle fill="#FFFBE4" cx="1241.5" cy="430.5" r="1.5"/><circle fill="#FFFBE4" cx="1091.5" cy="390.5" r="1.5"/><circle fill="#FFFBE4" cx="834" cy="481" r="3"/><circle fill="#FFFBE4" cx="772.5" cy="191.5" r="1.5"/><circle fill="#FFFBE4" cx="730.5" cy="249.5" r=".5"/><circle fill="#FFFBE4" cx="581.5" cy="210.5" r="1.5"/><circle fill="#FFFBE4" cx="721.5" cy="120.5" r="1.5"/><circle fill="#FFFBE4" cx="560.5" cy="99.5" r=".5"/><circle fill="#FFFBE4" cx="630.5" cy="249.5" r=".5"/><circle fill="#FFFBE4" cx="920.5" cy="249.5" r=".5"/><circle fill="#FFFBE4" cx="840.5" cy="119.5" r=".5"/><circle fill="#FFFBE4" cx="872.5" cy="371.5" r="1.5"/><circle fill="#FFFBE4" cx="831.5" cy="430.5" r="1.5"/><circle fill="#FFFBE4" cx="710.5" cy="369.5" r=".5"/><circle fill="#FFFBE4" cx="670.5" cy="409.5" r=".5"/><circle fill="#FFFBE4" cx="740.5" cy="559.5" r=".5"/><circle fill="#FFFBE4" cx="1030.5" cy="559.5" r=".5"/><circle fill="#FFFBE4" cx="950.5" cy="429.5" r=".5"/><circle fill="#FFFBE4" cx="544" cy="271" r="3"/><circle fill="#FFFBE4" cx="1397.5" cy="589.5" r=".5"/><circle fill="#FFFBE4" cx="917.5" cy="539.5" r=".5"/><circle fill="#FFFBE4" cx="867.5" cy="589.5" r=".5"/><circle fill="#FFFBE4" cx="991" cy="431" r="3"/><circle fill="#FFFBE4" cx="681" cy="381" r="3"/><circle fill="#FFFBE4" cx="1041.5" cy="280.5" r=".5"/><circle fill="#FFFBE4" cx="557" cy="433" r="3"/><circle fill="#FFFBE4" cx="965.5" cy="163.5" r="1.5"/><circle fill="#FFFBE4" cx="864.5" cy="142.5" r=".5"/><circle fill="#FFFBE4" cx="1152.5" cy="451.5" r="1.5"/><circle fill="#FFFBE4" cx="1051.5" cy="430.5" r=".5"/><circle fill="#FFFBE4" cx="1001.5" cy="340.5" r="1.5"/><circle fill="#FFFBE4" cx="851.5" cy="300.5" r="1.5"/><circle fill="#FFFBE4" cx="1544" cy="261" r="3"/><circle fill="#FFFBE4" cx="1582.5" cy="381.5" r="1.5"/><circle fill="#FFFBE4" cx="1841.5" cy="400.5" r=".5"/><circle fill="#FFFBE4" cx="1791.5" cy="310.5" r="1.5"/><circle fill="#FFFBE4" cx="1641.5" cy="270.5" r="1.5"/><circle fill="#FFFBE4" cx="1631.5" cy="330.5" r="1.5"/><circle fill="#FFFBE4" cx="1481.5" cy="290.5" r="1.5"/><circle fill="#FFFBE4" cx="1450.5" cy="459.5" r=".5"/><circle fill="#FFFBE4" cx="1350.5" cy="459.5" r=".5"/><circle fill="#FFFBE4" cx="1521.5" cy="450.5" r="1.5"/><circle fill="#FFFBE4" cx="1300.5" cy="369.5" r=".5"/><circle fill="#FFFBE4" cx="1200.5" cy="369.5" r=".5"/><circle fill="#FFFBE4" cx="1381.5" cy="310.5" r="1.5"/><circle fill="#FFFBE4" cx="1194" cy="121" r="3"/><circle fill="#FFFBE4" cx="1232.5" cy="241.5" r="1.5"/><circle fill="#FFFBE4" cx="1281.5" cy="190.5" r="1.5"/><circle fill="#FFFBE4" cx="1131.5" cy="150.5" r="1.5"/><circle fill="#FFFBE4" cx="1501.5" cy="90.5" r="1.5"/><circle fill="#FFFBE4" cx="1901.5" cy="320.5" r="1.5"/><path fill="#FFF" filter="url(#a)" d="M1903 256.866l-4.243 2.377 2.377-4.243-2.377-4.243 4.243 2.377 4.243-2.377-2.377 4.243 2.377 4.243"/><path opacity=".606" fill="#FFF" filter="url(#b)" d="M981 225.866l-4.243 2.377 2.377-4.243-2.377-4.243 4.243 2.377 4.243-2.377-2.377 4.243 2.377 4.243"/><path opacity=".606" fill="#FFF" filter="url(#c)" d="M1373 99.866l-4.243 2.377 2.377-4.243-2.377-4.243 4.243 2.377 4.243-2.377-2.377 4.243 2.377 4.243"/><path opacity=".606" fill="#FFF" filter="url(#d)" d="M1053 379.866l-4.243 2.377 2.377-4.243-2.377-4.243 4.243 2.377 4.243-2.377-2.377 4.243 2.377 4.243"/></g></svg>