<svg width="1440" height="77" viewBox="0 0 1440 77" xmlns="http://www.w3.org/2000/svg" xmlns:xlink="http://www.w3.org/1999/xlink"><title>Group</title><defs><path id="a" d="M0 0h1603v126H0z"/></defs><g transform="translate(-61 0)" fill="none" fill-rule="evenodd"><mask id="b" fill="#fff"><use xlink:href="#a"/></mask><use xlink:href="#a"/><g mask="url(#b)" fill="#FFF"><path d="M145.323 14.493C126.53 39.27 105.28 54 87.538 54c-17.386 0-37.52-17.407-54.28-39.507C16.494-7.607 17-39 17-39h141.073s6.04 28.715-12.752 53.493z" id="Rectangle-52"/></g><g mask="url(#b)" fill="#FFF"><path d="M242.323 14.493C223.53 39.27 202.28 54 184.538 54c-17.386 0-37.52-17.407-54.28-39.507C113.494-7.607 114-39 114-39h141.073s6.04 28.715-12.752 53.493z" id="Rectangle-52"/><path d="M142.445-1.753C135.812 10.85 128.5 25 104 25S67.896 7.483 62.437-4.5C56.98-16.483 55-34 55-34h98s-3.92 19.643-10.555 32.247z" id="Rectangle-53"/></g><g mask="url(#b)" fill="#FFF"><path d="M457-23.396c0 8.01-5.61 17.758-12.836 21.234C444.164-2.162 437.5 4 418 4s-26.185-6.172-26.185-6.172C384.737-5.882 379-15.372 379-23.396V-25h78v1.604z" id="Rectangle-54"/><path d="M399.323 28.493C380.53 53.27 359.28 68 341.538 68c-17.386 0-37.52-17.407-54.28-39.507C270.494 6.393 271-25 271-25h141.073s6.04 28.715-12.752 53.493z" id="Rectangle-52"/><path d="M299.445 12.247C292.812 24.85 285.5 39 261 39s-36.104-17.517-41.563-29.5C213.98-2.483 212-20 212-20h98s-3.92 19.643-10.555 32.247z" id="Rectangle-53"/></g><g mask="url(#b)" fill="#FFF"><path d="M546.323 23.493C527.53 48.27 506.28 63 488.538 63c-17.386 0-37.52-17.407-54.28-39.507C417.494 1.393 418-30 418-30h141.073s6.04 28.715-12.752 53.493z" id="Rectangle-52"/><path d="M446.445 7.247C439.812 19.85 432.5 34 408 34s-36.104-17.517-41.563-29.5C360.98-7.483 359-25 359-25h98s-3.92 19.643-10.555 32.247z" id="Rectangle-53"/></g><g mask="url(#b)" fill="#FFF"><path d="M753.323 18.493C734.53 43.27 713.28 58 695.538 58c-17.386 0-37.52-17.407-54.28-39.507C624.494-3.607 625-35 625-35h141.073s6.04 28.715-12.752 53.493z" id="Rectangle-52"/><path d="M653.445 2.247C646.812 14.85 639.5 29 615 29S578.896 11.483 573.437-.5C567.98-12.483 566-30 566-30h98s-3.92 19.643-10.555 32.247z" id="Rectangle-53"/></g><g mask="url(#b)" fill="#FFF"><path d="M607.323 4.493C588.53 29.27 567.28 44 549.538 44c-17.386 0-37.52-17.407-54.28-39.507C478.494-17.607 479-49 479-49h141.073s6.04 28.715-12.752 53.493z" id="Rectangle-52"/><path d="M507.445-11.753C500.812.85 493.5 15 469 15s-36.104-17.517-41.563-29.5C421.98-26.483 420-44 420-44h98s-3.92 19.643-10.555 32.247z" id="Rectangle-53"/></g><g mask="url(#b)" fill="#FFF"><path d="M998-15.396c0 8.01-5.61 17.758-12.836 21.234 0 0-6.664 6.162-26.164 6.162s-26.185-6.172-26.185-6.172C925.737 2.118 920-7.372 920-15.396V-17h78v1.604z" id="Rectangle-54"/><path d="M940.323 36.493C921.53 61.27 900.28 76 882.538 76c-17.386 0-37.52-17.407-54.28-39.507C811.494 14.393 812-17 812-17h141.073s6.04 28.715-12.752 53.493z" id="Rectangle-52"/><path d="M840.445 20.247C833.812 32.85 826.5 47 802 47s-36.104-17.517-41.563-29.5C754.98 5.517 753-12 753-12h98s-3.92 19.643-10.555 32.247z" id="Rectangle-53"/></g><g mask="url(#b)" fill="#FFF"><path d="M1032.323 8.493C1013.53 33.27 992.28 48 974.538 48c-17.386 0-37.52-17.407-54.28-39.507C903.494-13.607 904-45 904-45h141.073s6.04 28.715-12.752 53.493z" id="Rectangle-52"/><path d="M932.445-7.753C925.812 4.85 918.5 19 894 19s-36.104-17.517-41.563-29.5C846.98-22.483 845-40 845-40h98s-3.92 19.643-10.555 32.247z" id="Rectangle-53"/></g><g mask="url(#b)" fill="#FFF"><path d="M1187-25.396c0 8.01-5.61 17.758-12.836 21.234 0 0-6.664 6.162-26.164 6.162s-26.185-6.172-26.185-6.172c-7.078-3.71-12.815-13.2-12.815-21.224V-27h78v1.604z" id="Rectangle-54"/><path d="M1129.323 26.493C1110.53 51.27 1089.28 66 1071.538 66c-17.386 0-37.52-17.407-54.28-39.507C1000.494 4.393 1001-27 1001-27h141.073s6.04 28.715-12.752 53.493z" id="Rectangle-52"/><path d="M1029.445 10.247C1022.812 22.85 1015.5 37 991 37s-36.104-17.517-41.563-29.5C943.98-4.483 942-22 942-22h98s-3.92 19.643-10.555 32.247z" id="Rectangle-53"/></g><g mask="url(#b)" fill="#FFF"><path d="M1233.323 18.493C1214.53 43.27 1193.28 58 1175.538 58c-17.386 0-37.52-17.407-54.28-39.507C1104.494-3.607 1105-35 1105-35h141.073s6.04 28.715-12.752 53.493z" id="Rectangle-52"/><path d="M1133.445 2.247C1126.812 14.85 1119.5 29 1095 29s-36.104-17.517-41.563-29.5C1047.98-12.483 1046-30 1046-30h98s-3.92 19.643-10.555 32.247z" id="Rectangle-53"/></g><g mask="url(#b)" fill="#FFF"><path d="M1293.823 4.493C1275.03 29.27 1253.78 44 1236.038 44c-17.386 0-37.52-17.407-54.28-39.507C1164.994-17.607 1165.5-49 1165.5-49h141.073s6.04 28.715-12.752 53.493z" id="Rectangle-52"/><path d="M1193.945-11.753C1187.312.85 1180 15 1155.5 15s-36.104-17.517-41.563-29.5C1108.48-26.483 1106.5-44 1106.5-44h98s-3.92 19.643-10.555 32.247z" id="Rectangle-53"/></g><g mask="url(#b)" fill="#FFF"><path d="M1485.5-23.396c0 8.01-5.61 17.758-12.836 21.234 0 0-6.664 6.162-26.164 6.162s-26.185-6.172-26.185-6.172c-7.078-3.71-12.815-13.2-12.815-21.224V-25h78v1.604z"/><path d="M1427.823 28.493C1409.03 53.27 1387.78 68 1370.038 68c-17.386 0-37.52-17.407-54.28-39.507C1298.994 6.393 1299.5-25 1299.5-25h141.073s6.04 28.715-12.752 53.493z" id="Rectangle-52"/><path d="M1327.945 12.247C1321.312 24.85 1314 39 1289.5 39s-36.104-17.517-41.563-29.5C1242.48-2.483 1240.5-20 1240.5-20h98s-3.92 19.643-10.555 32.247z" id="Rectangle-53"/></g><g mask="url(#b)" fill="#FFF"><path d="M1589.823 50.993C1571.03 75.77 1549.78 90.5 1532.038 90.5c-17.386 0-37.52-17.407-54.28-39.507C1460.994 28.893 1461.5-2.5 1461.5-2.5h141.073s6.04 28.715-12.752 53.493z"/><path d="M1489.945 34.747C1483.312 47.35 1476 61.5 1451.5 61.5s-36.104-17.517-41.563-29.5c-5.458-11.983-7.437-29.5-7.437-29.5h98s-3.92 19.643-10.555 32.247z"/></g></g></svg>