
<svg width="1578px" height="91px" viewBox="0 0 1578 91" version="1.1" xmlns="http://www.w3.org/2000/svg" xmlns:xlink="http://www.w3.org/1999/xlink">
    <defs>
        <polygon id="path-1" points="0 0 1603 0 1603 126 0 126"></polygon>
        <polygon id="path-3" points="0 0 1603 0 1603 126 0 126"></polygon>
        <polygon id="path-5" points="0 0 1603 0 1603 126 0 126"></polygon>
        <polygon id="path-7" points="0 0 1603 0 1603 126 0 126"></polygon>
        <polygon id="path-9" points="0 0 1603 0 1603 126 0 126"></polygon>
        <polygon id="path-11" points="0 0 1603 0 1603 126 0 126"></polygon>
        <polygon id="path-13" points="0 0 1603 0 1603 126 0 126"></polygon>
        <polygon id="path-15" points="0 0 1603 0 1603 126 0 126"></polygon>
        <polygon id="path-17" points="0 0 1603 0 1603 126 0 126"></polygon>
        <polygon id="path-19" points="0 0 1603 0 1603 126 0 126"></polygon>
        <polygon id="path-21" points="0 0 1603 0 1603 126 0 126"></polygon>
        <polygon id="path-23" points="0 0 1603 0 1603 126 0 126"></polygon>
        <polygon id="path-25" points="0 0 1603 0 1603 126 0 126"></polygon>
    </defs>
    <g id="Page-1" stroke="none" stroke-width="1" fill="none" fill-rule="evenodd">
        <g id="top-skyline-dark" transform="translate(-25.000000, 0.000000)">
            <g id="Clipped">
                <mask id="mask-2" fill="white">
                    <use xlink:href="#path-1"></use>
                </mask>
                <g id="a"></g>
                <g id="Group" mask="url(#mask-2)" fill="#212937" fill-rule="nonzero">
                    <g transform="translate(16.000000, -39.000000)" id="Rectangle-52">
                        <path d="M129.323,53.493 C110.53,78.27 89.28,93 71.538,93 C54.152,93 34.018,75.593 17.258,53.493 C0.494,31.393 1,0 1,0 L142.073,0 C142.073,0 148.113,28.715 129.321,53.493 L129.323,53.493 Z"></path>
                    </g>
                </g>
            </g>
            <g id="Clipped">
                <mask id="mask-4" fill="white">
                    <use xlink:href="#path-3"></use>
                </mask>
                <g id="a"></g>
                <g id="Group" mask="url(#mask-4)" fill="#212937" fill-rule="nonzero">
                    <g transform="translate(55.000000, -39.000000)">
                        <path d="M187.323,53.493 C168.53,78.27 147.28,93 129.538,93 C112.152,93 92.018,75.593 75.258,53.493 C58.494,31.393 59,0 59,0 L200.073,0 C200.073,0 206.113,28.715 187.321,53.493 L187.323,53.493 Z" id="Rectangle-52"></path>
                        <path d="M87.445,37.247 C80.812,49.85 73.5,64 49,64 C24.5,64 12.896,46.483 7.437,34.5 C1.98,22.517 0,5 0,5 L98,5 C98,5 94.08,24.643 87.445,37.247 Z" id="Rectangle-53"></path>
                    </g>
                </g>
            </g>
            <g id="Clipped">
                <mask id="mask-6" fill="white">
                    <use xlink:href="#path-5"></use>
                </mask>
                <g id="a"></g>
                <g id="Group" mask="url(#mask-6)" fill="#212937" fill-rule="nonzero">
                    <g transform="translate(212.000000, -25.000000)">
                        <path d="M245,1.604 C245,9.614 239.39,19.362 232.164,22.838 C232.164,22.838 225.5,29 206,29 C186.5,29 179.815,22.828 179.815,22.828 C172.737,19.118 167,9.628 167,1.604 L167,0 L245,0 L245,1.604 Z" id="Rectangle-54"></path>
                        <path d="M187.323,53.493 C168.53,78.27 147.28,93 129.538,93 C112.152,93 92.018,75.593 75.258,53.493 C58.494,31.393 59,0 59,0 L200.073,0 C200.073,0 206.113,28.715 187.321,53.493 L187.323,53.493 Z" id="Rectangle-52"></path>
                        <path d="M87.445,37.247 C80.812,49.85 73.5,64 49,64 C24.5,64 12.896,46.483 7.437,34.5 C1.98,22.517 0,5 0,5 L98,5 C98,5 94.08,24.643 87.445,37.247 Z" id="Rectangle-53"></path>
                    </g>
                </g>
            </g>
            <g id="Clipped">
                <mask id="mask-8" fill="white">
                    <use xlink:href="#path-7"></use>
                </mask>
                <g id="a"></g>
                <g id="Group" mask="url(#mask-8)" fill="#212937" fill-rule="nonzero">
                    <g transform="translate(359.000000, -30.000000)">
                        <path d="M187.323,53.493 C168.53,78.27 147.28,93 129.538,93 C112.152,93 92.018,75.593 75.258,53.493 C58.494,31.393 59,0 59,0 L200.073,0 C200.073,0 206.113,28.715 187.321,53.493 L187.323,53.493 Z" id="Rectangle-52"></path>
                        <path d="M87.445,37.247 C80.812,49.85 73.5,64 49,64 C24.5,64 12.896,46.483 7.437,34.5 C1.98,22.517 0,5 0,5 L98,5 C98,5 94.08,24.643 87.445,37.247 Z" id="Rectangle-53"></path>
                    </g>
                </g>
            </g>
            <g id="Clipped">
                <mask id="mask-10" fill="white">
                    <use xlink:href="#path-9"></use>
                </mask>
                <g id="a"></g>
                <g id="Group" mask="url(#mask-10)" fill="#212937" fill-rule="nonzero">
                    <g transform="translate(566.000000, -35.000000)">
                        <path d="M187.323,53.493 C168.53,78.27 147.28,93 129.538,93 C112.152,93 92.018,75.593 75.258,53.493 C58.494,31.393 59,0 59,0 L200.073,0 C200.073,0 206.113,28.715 187.321,53.493 L187.323,53.493 Z" id="Rectangle-52"></path>
                        <path d="M87.445,37.247 C80.812,49.85 73.5,64 49,64 C24.5,64 12.896,46.483 7.437,34.5 C1.98,22.517 0,5 0,5 L98,5 C98,5 94.08,24.643 87.445,37.247 Z" id="Rectangle-53"></path>
                    </g>
                </g>
            </g>
            <g id="Clipped">
                <mask id="mask-12" fill="white">
                    <use xlink:href="#path-11"></use>
                </mask>
                <g id="a"></g>
                <g id="Group" mask="url(#mask-12)" fill="#212937" fill-rule="nonzero">
                    <g transform="translate(420.000000, -49.000000)">
                        <path d="M187.323,53.493 C168.53,78.27 147.28,93 129.538,93 C112.152,93 92.018,75.593 75.258,53.493 C58.494,31.393 59,0 59,0 L200.073,0 C200.073,0 206.113,28.715 187.321,53.493 L187.323,53.493 Z" id="Rectangle-52"></path>
                        <path d="M87.445,37.247 C80.812,49.85 73.5,64 49,64 C24.5,64 12.896,46.483 7.437,34.5 C1.98,22.517 0,5 0,5 L98,5 C98,5 94.08,24.643 87.445,37.247 Z" id="Rectangle-53"></path>
                    </g>
                </g>
            </g>
            <g id="Clipped">
                <mask id="mask-14" fill="white">
                    <use xlink:href="#path-13"></use>
                </mask>
                <g id="a"></g>
                <g id="Group" mask="url(#mask-14)" fill="#212937" fill-rule="nonzero">
                    <g transform="translate(753.000000, -17.000000)">
                        <path d="M245,1.604 C245,9.614 239.39,19.362 232.164,22.838 C232.164,22.838 225.5,29 206,29 C186.5,29 179.815,22.828 179.815,22.828 C172.737,19.118 167,9.628 167,1.604 L167,0 L245,0 L245,1.604 Z" id="Rectangle-54"></path>
                        <path d="M187.323,53.493 C168.53,78.27 147.28,93 129.538,93 C112.152,93 92.018,75.593 75.258,53.493 C58.494,31.393 59,0 59,0 L200.073,0 C200.073,0 206.113,28.715 187.321,53.493 L187.323,53.493 Z" id="Rectangle-52"></path>
                        <path d="M87.445,37.247 C80.812,49.85 73.5,64 49,64 C24.5,64 12.896,46.483 7.437,34.5 C1.98,22.517 0,5 0,5 L98,5 C98,5 94.08,24.643 87.445,37.247 Z" id="Rectangle-53"></path>
                    </g>
                </g>
            </g>
            <g id="Clipped">
                <mask id="mask-16" fill="white">
                    <use xlink:href="#path-15"></use>
                </mask>
                <g id="a"></g>
                <g id="Group" mask="url(#mask-16)" fill="#212937" fill-rule="nonzero">
                    <g transform="translate(845.000000, -45.000000)">
                        <path d="M187.323,53.493 C168.53,78.27 147.28,93 129.538,93 C112.152,93 92.018,75.593 75.258,53.493 C58.494,31.393 59,0 59,0 L200.073,0 C200.073,0 206.113,28.715 187.321,53.493 L187.323,53.493 Z" id="Rectangle-52"></path>
                        <path d="M87.445,37.247 C80.812,49.85 73.5,64 49,64 C24.5,64 12.896,46.483 7.437,34.5 C1.98,22.517 0,5 0,5 L98,5 C98,5 94.08,24.643 87.445,37.247 Z" id="Rectangle-53"></path>
                    </g>
                </g>
            </g>
            <g id="Clipped">
                <mask id="mask-18" fill="white">
                    <use xlink:href="#path-17"></use>
                </mask>
                <g id="a"></g>
                <g id="Group" mask="url(#mask-18)" fill="#212937" fill-rule="nonzero">
                    <g transform="translate(942.000000, -27.000000)">
                        <path d="M245,1.604 C245,9.614 239.39,19.362 232.164,22.838 C232.164,22.838 225.5,29 206,29 C186.5,29 179.815,22.828 179.815,22.828 C172.737,19.118 167,9.628 167,1.604 L167,0 L245,0 L245,1.604 Z" id="Rectangle-54"></path>
                        <path d="M187.323,53.493 C168.53,78.27 147.28,93 129.538,93 C112.152,93 92.018,75.593 75.258,53.493 C58.494,31.393 59,0 59,0 L200.073,0 C200.073,0 206.113,28.715 187.321,53.493 L187.323,53.493 Z" id="Rectangle-52"></path>
                        <path d="M87.445,37.247 C80.812,49.85 73.5,64 49,64 C24.5,64 12.896,46.483 7.437,34.5 C1.98,22.517 0,5 0,5 L98,5 C98,5 94.08,24.643 87.445,37.247 Z" id="Rectangle-53"></path>
                    </g>
                </g>
            </g>
            <g id="Clipped">
                <mask id="mask-20" fill="white">
                    <use xlink:href="#path-19"></use>
                </mask>
                <g id="a"></g>
                <g id="Group" mask="url(#mask-20)" fill="#212937" fill-rule="nonzero">
                    <g transform="translate(1046.000000, -35.000000)">
                        <path d="M187.323,53.493 C168.53,78.27 147.28,93 129.538,93 C112.152,93 92.018,75.593 75.258,53.493 C58.494,31.393 59,0 59,0 L200.073,0 C200.073,0 206.113,28.715 187.321,53.493 L187.323,53.493 Z" id="Rectangle-52"></path>
                        <path d="M87.445,37.247 C80.812,49.85 73.5,64 49,64 C24.5,64 12.896,46.483 7.437,34.5 C1.98,22.517 0,5 0,5 L98,5 C98,5 94.08,24.643 87.445,37.247 Z" id="Rectangle-53"></path>
                    </g>
                </g>
            </g>
            <g id="Clipped">
                <mask id="mask-22" fill="white">
                    <use xlink:href="#path-21"></use>
                </mask>
                <g id="a"></g>
                <g id="Group" mask="url(#mask-22)" fill="#212937" fill-rule="nonzero">
                    <g transform="translate(1106.000000, -49.000000)">
                        <path d="M187.823,53.493 C169.03,78.27 147.78,93 130.038,93 C112.652,93 92.518,75.593 75.758,53.493 C58.994,31.393 59.5,0 59.5,0 L200.573,0 C200.573,0 206.613,28.715 187.821,53.493 L187.823,53.493 Z" id="Rectangle-52"></path>
                        <path d="M87.945,37.247 C81.312,49.85 74,64 49.5,64 C25,64 13.396,46.483 7.937,34.5 C2.48,22.517 0.5,5 0.5,5 L98.5,5 C98.5,5 94.58,24.643 87.945,37.247 Z" id="Rectangle-53"></path>
                    </g>
                </g>
            </g>
            <g id="Clipped">
                <mask id="mask-24" fill="white">
                    <use xlink:href="#path-23"></use>
                </mask>
                <g id="a"></g>
                <g id="Group" mask="url(#mask-24)" fill="#212937" fill-rule="nonzero">
                    <g transform="translate(1240.000000, -25.000000)">
                        <path d="M245.5,1.604 C245.5,9.614 239.89,19.362 232.664,22.838 C232.664,22.838 226,29 206.5,29 C187,29 180.315,22.828 180.315,22.828 C173.237,19.118 167.5,9.628 167.5,1.604 L167.5,0 L245.5,0 L245.5,1.604 Z" id="Path"></path>
                        <path d="M187.823,53.493 C169.03,78.27 147.78,93 130.038,93 C112.652,93 92.518,75.593 75.758,53.493 C58.994,31.393 59.5,0 59.5,0 L200.573,0 C200.573,0 206.613,28.715 187.821,53.493 L187.823,53.493 Z" id="Rectangle-52"></path>
                        <path d="M87.945,37.247 C81.312,49.85 74,64 49.5,64 C25,64 13.396,46.483 7.937,34.5 C2.48,22.517 0.5,5 0.5,5 L98.5,5 C98.5,5 94.58,24.643 87.945,37.247 Z" id="Rectangle-53"></path>
                    </g>
                </g>
            </g>
            <g id="Clipped">
                <mask id="mask-26" fill="white">
                    <use xlink:href="#path-25"></use>
                </mask>
                <g id="a"></g>
                <g id="Group" mask="url(#mask-26)" fill="#212937" fill-rule="nonzero">
                    <g transform="translate(1402.000000, -3.000000)" id="Path">
                        <path d="M187.823,53.993 C169.03,78.77 147.78,93.5 130.038,93.5 C112.652,93.5 92.518,76.093 75.758,53.993 C58.994,31.893 59.5,0.5 59.5,0.5 L200.573,0.5 C200.573,0.5 206.613,29.215 187.821,53.993 L187.823,53.993 Z"></path>
                        <path d="M87.945,37.747 C81.312,50.35 74,64.5 49.5,64.5 C25,64.5 13.396,46.983 7.937,35 C2.479,23.017 0.5,5.5 0.5,5.5 L98.5,5.5 C98.5,5.5 94.58,25.143 87.945,37.747 Z"></path>
                    </g>
                </g>
            </g>
        </g>
    </g>
</svg>