<svg width="360" height="164" viewBox="0 0 360 164" fill="none" xmlns="http://www.w3.org/2000/svg">
<path fill-rule="evenodd" clip-rule="evenodd" d="M96.2816 44.6807V58.7135H82.4853V72.9363C82.4853 75.079 82.7998 76.5035 83.4318 77.2128C84.0594 77.9221 85.052 78.2752 86.4065 78.2752C87.4466 78.2752 88.8783 78.0393 90.7061 77.5674L94.8648 89.333C93.0369 90.4993 91.0518 91.4119 88.9109 92.0737C86.77 92.7355 84.0461 93.0664 80.7361 93.0664C78.4053 93.0664 76.3267 92.7518 74.5003 92.1211C72.6755 91.4905 71.0435 90.5067 69.6103 89.1683C68.1771 87.8283 67.0821 86.0017 66.327 83.6869C65.5703 81.3706 65.1935 78.6225 65.1935 75.4411V58.7135H53.854V44.6807H96.2816ZM120.991 43.6877C125.905 43.6877 130.001 45.5781 133.275 49.359H133.416V44.6804H150.756V92.0734H134.361V87.6322H134.219C131.385 91.2543 127.321 93.0661 122.031 93.0661C118.819 93.0661 115.85 92.4607 113.126 91.2469C110.399 90.0345 108.077 88.3563 106.154 86.2151C104.235 84.0724 102.73 81.4653 101.643 78.3937C100.557 75.3236 100.014 71.976 100.014 68.3524C100.014 64.7926 100.549 61.4717 101.619 58.3838C102.692 55.2959 104.165 52.6813 106.037 50.5401C107.911 48.3974 110.139 46.7207 112.722 45.5069C115.305 44.2946 118.061 43.6877 120.991 43.6877ZM202.113 43.6886C204.631 43.6886 206.971 43.9245 209.129 44.3964C211.287 44.8697 213.255 45.5226 215.034 46.358C216.815 47.1934 218.681 48.3034 220.633 49.6893L212.649 61.1714C211.137 59.6593 209.482 58.4708 207.687 57.6042C205.892 56.7376 204.223 56.3043 202.68 56.3043C201.861 56.3043 201.159 56.4705 200.578 56.8014C199.995 57.1323 199.704 57.6116 199.704 58.2423C199.704 58.7468 200.113 59.2424 200.932 59.7306C201.751 60.2188 203.294 60.8257 205.561 61.5498C207.892 62.3065 209.837 63.0054 211.396 63.6509C212.956 64.2964 214.429 65.0606 215.815 65.9435C217.2 66.8249 218.286 67.7864 219.074 68.8251C219.862 69.8653 220.476 71.094 220.917 72.511C221.357 73.9296 221.579 75.5515 221.579 77.3781C221.579 79.7092 221.16 81.8282 220.326 83.7335C219.491 85.6402 218.263 87.2933 216.641 88.6955C215.019 90.0978 212.924 91.1765 210.358 91.9318C207.79 92.6886 204.868 93.067 201.592 93.067C194.002 93.067 187.545 90.7032 182.222 85.9786L190.065 75.2992C194.191 78.8902 198.144 80.6856 201.923 80.6856C204.254 80.6856 205.42 80.0402 205.42 78.7492C205.42 78.307 205.294 77.9375 205.042 77.6378C204.79 77.3395 204.183 76.9686 203.223 76.5279C202.263 76.0871 200.837 75.599 198.947 75.0633C197.247 74.5588 195.695 74.0157 194.293 73.4325C192.892 72.8494 191.529 72.1178 190.207 71.2349C188.884 70.3535 187.774 69.3771 186.876 68.3058C185.979 67.2344 185.262 65.9583 184.726 64.4789C184.191 62.998 183.922 61.3762 183.922 59.6119C183.922 57.0923 184.403 54.8086 185.364 52.7609C186.324 50.7131 187.64 49.0364 189.309 47.7291C190.978 46.4203 192.907 45.4202 195.097 44.7273C197.285 44.0343 199.624 43.6886 202.113 43.6886ZM249.926 43.6883C253.297 43.6883 256.463 44.2952 259.424 45.5075C262.384 46.7198 264.91 48.3817 267.005 50.4932C269.1 52.6033 270.753 55.1778 271.967 58.2182C273.179 61.2586 273.784 64.5261 273.784 68.0221C273.784 69.8175 273.627 71.3459 273.312 72.6057H242.224C242.604 74.8107 243.681 76.4964 245.461 77.6612C247.242 78.8275 249.438 79.4107 252.052 79.4107C255.989 79.4107 259.627 77.6612 262.965 74.1653L271.895 83.9943C269.755 86.6712 266.801 88.8525 263.037 90.5382C259.273 92.2238 254.997 93.0667 250.211 93.0667C245.518 93.0667 241.279 92.0354 237.5 89.9713C233.72 87.9088 230.751 84.9856 228.594 81.2062C226.437 77.4253 225.358 73.1414 225.358 68.353C225.358 63.6284 226.406 59.3919 228.499 55.6437C230.594 51.894 233.517 48.9649 237.263 46.8548C241.012 44.7433 245.233 43.6883 249.926 43.6883ZM304.069 43.6877C308.132 43.6877 312.017 44.5305 315.717 46.2162C319.419 47.9003 322.433 50.319 324.764 53.4693L313.282 63.2494C310.891 60.4152 307.959 58.9981 304.495 58.9981C301.787 58.9981 299.604 59.8632 297.952 61.5964C296.299 63.328 295.471 65.5494 295.471 68.2574C295.471 71.0307 296.329 73.2981 298.047 75.0624C299.763 76.8267 301.977 77.7081 304.683 77.7081C308.149 77.7081 311 76.4172 313.236 73.8338L325 84.0872C322.828 86.7656 319.843 88.932 316.046 90.5851C312.253 92.2396 307.88 93.0661 302.935 93.0661C298.243 93.0661 294.008 92.0348 290.228 89.9707C286.446 87.9067 283.477 84.9939 281.32 81.2293C279.164 77.4648 278.084 73.1883 278.084 68.3999C278.084 63.5803 279.181 59.2964 281.368 55.5482C283.559 51.7999 286.627 48.8871 290.581 46.8067C294.533 44.7278 299.032 43.6877 304.069 43.6877ZM176.741 28V92.0745H159.497V29.7955L176.741 28ZM125.859 58.9032C123.402 58.9032 121.384 59.7861 119.811 61.5504C118.234 63.3132 117.446 65.5969 117.446 68.3999C117.446 71.2667 118.234 73.5741 119.811 75.3236C121.384 77.0715 123.402 77.9455 125.859 77.9455C128.221 77.9455 130.197 77.0626 131.786 75.2998C133.376 73.5355 134.171 71.2355 134.171 68.3999C134.171 65.628 133.376 63.3518 131.786 61.5741C130.197 59.7935 128.221 58.9032 125.859 58.9032ZM249.831 56.8723C247.909 56.8723 246.266 57.4303 244.895 58.5491C243.524 59.6679 242.65 61.2186 242.272 63.2025H257.013C256.792 62.2276 256.469 61.3447 256.044 60.5568C255.618 59.7703 255.107 59.1011 254.509 58.5491C253.909 57.9986 253.209 57.5802 252.406 57.2967C251.602 57.0133 250.745 56.8723 249.831 56.8723Z" fill="url(#paint0_linear_2_19)"/>
<path fill-rule="evenodd" clip-rule="evenodd" d="M37.764 90.349C35.9213 88.5372 35 86.3411 35 83.7577C35 81.2366 35.9288 79.0717 37.7878 77.2599C39.6453 75.4481 41.8663 74.5429 44.4493 74.5429C47.0323 74.5429 49.2444 75.4481 51.0871 77.2599C52.9298 79.0717 53.8512 81.2366 53.8512 83.7577C53.8512 86.3411 52.9298 88.5372 51.0871 90.349C49.2444 92.1608 47.0323 93.066 44.4493 93.066C41.8351 93.066 39.6067 92.1608 37.764 90.349Z" fill="url(#paint1_linear_2_19)"/>
<path d="M44.028 115.592H56.222V118.452H47.304V123.132H55.754V125.888H47.304V131.088H56.69V134H44.028V115.592ZM57.5645 121.52H60.9705L64.2465 130.62H64.2985L67.6005 121.52H70.9025L65.9365 134H62.6085L57.5645 121.52ZM72.8185 121.52H75.9385V134H72.8185V121.52ZM72.3765 117.282C72.3765 116.779 72.5585 116.346 72.9225 115.982C73.3039 115.601 73.7805 115.41 74.3525 115.41C74.9245 115.41 75.4012 115.592 75.7825 115.956C76.1812 116.303 76.3805 116.745 76.3805 117.282C76.3805 117.819 76.1812 118.27 75.7825 118.634C75.4012 118.981 74.9245 119.154 74.3525 119.154C73.7805 119.154 73.3039 118.972 72.9225 118.608C72.5585 118.227 72.3765 117.785 72.3765 117.282ZM92.4116 134H89.4476V132.128H89.3956C88.9622 132.856 88.3556 133.411 87.5756 133.792C86.8129 134.173 85.9896 134.364 85.1056 134.364C84.1522 134.364 83.2942 134.191 82.5316 133.844C81.7862 133.48 81.1449 133.003 80.6076 132.414C80.0876 131.807 79.6802 131.105 79.3856 130.308C79.1082 129.493 78.9696 128.627 78.9696 127.708C78.9696 126.789 79.1169 125.931 79.4116 125.134C79.7062 124.337 80.1222 123.643 80.6596 123.054C81.1969 122.465 81.8382 122.005 82.5836 121.676C83.3289 121.329 84.1436 121.156 85.0276 121.156C85.5996 121.156 86.1109 121.225 86.5616 121.364C87.0122 121.485 87.4022 121.641 87.7316 121.832C88.0782 122.023 88.3729 122.231 88.6156 122.456C88.8582 122.681 89.0576 122.898 89.2136 123.106H89.2916V114.344H92.4116V134ZM82.1416 127.708C82.1416 128.193 82.2109 128.679 82.3496 129.164C82.5056 129.649 82.7309 130.083 83.0256 130.464C83.3202 130.845 83.6929 131.157 84.1436 131.4C84.5942 131.643 85.1229 131.764 85.7296 131.764C86.3016 131.764 86.8129 131.651 87.2636 131.426C87.7142 131.183 88.0956 130.871 88.4076 130.49C88.7369 130.109 88.9796 129.684 89.1356 129.216C89.3089 128.731 89.3956 128.245 89.3956 127.76C89.3956 127.275 89.3089 126.789 89.1356 126.304C88.9796 125.819 88.7369 125.385 88.4076 125.004C88.0956 124.623 87.7142 124.311 87.2636 124.068C86.8129 123.825 86.3016 123.704 85.7296 123.704C85.1229 123.704 84.5942 123.825 84.1436 124.068C83.6929 124.293 83.3202 124.597 83.0256 124.978C82.7309 125.359 82.5056 125.793 82.3496 126.278C82.2109 126.746 82.1416 127.223 82.1416 127.708ZM104.99 126.512C104.99 126.113 104.929 125.732 104.808 125.368C104.704 125.004 104.531 124.683 104.288 124.406C104.045 124.129 103.733 123.912 103.352 123.756C102.988 123.583 102.555 123.496 102.052 123.496C101.116 123.496 100.319 123.782 99.6601 124.354C99.0187 124.909 98.6634 125.628 98.5941 126.512H104.99ZM108.11 127.916C108.11 128.055 108.11 128.193 108.11 128.332C108.11 128.471 108.101 128.609 108.084 128.748H98.5941C98.6287 129.199 98.7414 129.615 98.9321 129.996C99.1401 130.36 99.4087 130.681 99.7381 130.958C100.067 131.218 100.44 131.426 100.856 131.582C101.272 131.738 101.705 131.816 102.156 131.816C102.936 131.816 103.595 131.677 104.132 131.4C104.669 131.105 105.111 130.707 105.458 130.204L107.538 131.868C106.307 133.532 104.522 134.364 102.182 134.364C101.211 134.364 100.319 134.217 99.5041 133.922C98.6894 133.61 97.9787 133.177 97.3721 132.622C96.7827 132.067 96.3147 131.391 95.9681 130.594C95.6387 129.779 95.4741 128.861 95.4741 127.838C95.4741 126.833 95.6387 125.923 95.9681 125.108C96.3147 124.276 96.7827 123.574 97.3721 123.002C97.9614 122.413 98.6547 121.962 99.4521 121.65C100.267 121.321 101.142 121.156 102.078 121.156C102.945 121.156 103.742 121.303 104.47 121.598C105.215 121.875 105.857 122.3 106.394 122.872C106.931 123.427 107.347 124.129 107.642 124.978C107.954 125.81 108.11 126.789 108.11 127.916ZM111.132 121.52H114.096V123.522H114.148C114.425 122.898 114.902 122.352 115.578 121.884C116.271 121.399 117.086 121.156 118.022 121.156C118.836 121.156 119.53 121.303 120.102 121.598C120.691 121.875 121.168 122.248 121.532 122.716C121.913 123.184 122.19 123.721 122.364 124.328C122.537 124.935 122.624 125.559 122.624 126.2V134H119.504V127.084C119.504 126.72 119.478 126.339 119.426 125.94C119.374 125.541 119.261 125.186 119.088 124.874C118.914 124.545 118.672 124.276 118.36 124.068C118.065 123.86 117.666 123.756 117.164 123.756C116.661 123.756 116.228 123.86 115.864 124.068C115.5 124.259 115.196 124.51 114.954 124.822C114.728 125.134 114.555 125.498 114.434 125.914C114.312 126.313 114.252 126.72 114.252 127.136V134H111.132V121.52ZM134.793 124.978C134.55 124.631 134.186 124.345 133.701 124.12C133.215 123.877 132.721 123.756 132.219 123.756C131.647 123.756 131.144 123.877 130.711 124.12C130.277 124.345 129.913 124.649 129.619 125.03C129.341 125.411 129.133 125.845 128.995 126.33C128.856 126.798 128.787 127.275 128.787 127.76C128.787 128.245 128.856 128.731 128.995 129.216C129.151 129.684 129.376 130.109 129.671 130.49C129.965 130.871 130.329 131.183 130.763 131.426C131.213 131.651 131.733 131.764 132.323 131.764C132.808 131.764 133.293 131.669 133.779 131.478C134.264 131.287 134.654 131.01 134.949 130.646L136.899 132.622C136.379 133.177 135.711 133.61 134.897 133.922C134.099 134.217 133.233 134.364 132.297 134.364C131.378 134.364 130.503 134.217 129.671 133.922C128.856 133.627 128.137 133.194 127.513 132.622C126.906 132.05 126.421 131.357 126.057 130.542C125.71 129.727 125.537 128.8 125.537 127.76C125.537 126.755 125.71 125.845 126.057 125.03C126.421 124.215 126.906 123.522 127.513 122.95C128.119 122.378 128.821 121.936 129.619 121.624C130.433 121.312 131.3 121.156 132.219 121.156C133.137 121.156 134.021 121.329 134.871 121.676C135.737 122.023 136.422 122.499 136.925 123.106L134.793 124.978ZM147.748 126.512C147.748 126.113 147.687 125.732 147.566 125.368C147.462 125.004 147.289 124.683 147.046 124.406C146.803 124.129 146.491 123.912 146.11 123.756C145.746 123.583 145.313 123.496 144.81 123.496C143.874 123.496 143.077 123.782 142.418 124.354C141.777 124.909 141.421 125.628 141.352 126.512H147.748ZM150.868 127.916C150.868 128.055 150.868 128.193 150.868 128.332C150.868 128.471 150.859 128.609 150.842 128.748H141.352C141.387 129.199 141.499 129.615 141.69 129.996C141.898 130.36 142.167 130.681 142.496 130.958C142.825 131.218 143.198 131.426 143.614 131.582C144.03 131.738 144.463 131.816 144.914 131.816C145.694 131.816 146.353 131.677 146.89 131.4C147.427 131.105 147.869 130.707 148.216 130.204L150.296 131.868C149.065 133.532 147.28 134.364 144.94 134.364C143.969 134.364 143.077 134.217 142.262 133.922C141.447 133.61 140.737 133.177 140.13 132.622C139.541 132.067 139.073 131.391 138.726 130.594C138.397 129.779 138.232 128.861 138.232 127.838C138.232 126.833 138.397 125.923 138.726 125.108C139.073 124.276 139.541 123.574 140.13 123.002C140.719 122.413 141.413 121.962 142.21 121.65C143.025 121.321 143.9 121.156 144.836 121.156C145.703 121.156 146.5 121.303 147.228 121.598C147.973 121.875 148.615 122.3 149.152 122.872C149.689 123.427 150.105 124.129 150.4 124.978C150.712 125.81 150.868 126.789 150.868 127.916ZM159.662 127.708C159.662 126.72 159.835 125.827 160.182 125.03C160.546 124.215 161.031 123.522 161.638 122.95C162.244 122.378 162.964 121.936 163.796 121.624C164.628 121.312 165.512 121.156 166.448 121.156C167.384 121.156 168.268 121.312 169.1 121.624C169.932 121.936 170.651 122.378 171.258 122.95C171.864 123.522 172.341 124.215 172.688 125.03C173.052 125.827 173.234 126.72 173.234 127.708C173.234 128.696 173.052 129.597 172.688 130.412C172.341 131.227 171.864 131.929 171.258 132.518C170.651 133.09 169.932 133.541 169.1 133.87C168.268 134.199 167.384 134.364 166.448 134.364C165.512 134.364 164.628 134.199 163.796 133.87C162.964 133.541 162.244 133.09 161.638 132.518C161.031 131.929 160.546 131.227 160.182 130.412C159.835 129.597 159.662 128.696 159.662 127.708ZM162.834 127.708C162.834 128.193 162.903 128.679 163.042 129.164C163.198 129.649 163.423 130.083 163.718 130.464C164.012 130.845 164.385 131.157 164.836 131.4C165.286 131.643 165.824 131.764 166.448 131.764C167.072 131.764 167.609 131.643 168.06 131.4C168.51 131.157 168.883 130.845 169.178 130.464C169.472 130.083 169.689 129.649 169.828 129.164C169.984 128.679 170.062 128.193 170.062 127.708C170.062 127.223 169.984 126.746 169.828 126.278C169.689 125.793 169.472 125.359 169.178 124.978C168.883 124.597 168.51 124.293 168.06 124.068C167.609 123.825 167.072 123.704 166.448 123.704C165.824 123.704 165.286 123.825 164.836 124.068C164.385 124.293 164.012 124.597 163.718 124.978C163.423 125.359 163.198 125.793 163.042 126.278C162.903 126.746 162.834 127.223 162.834 127.708ZM176.753 124.016H174.387V121.52H176.753V119.674C176.753 118.929 176.831 118.218 176.987 117.542C177.16 116.849 177.437 116.242 177.819 115.722C178.217 115.202 178.737 114.795 179.379 114.5C180.02 114.188 180.826 114.032 181.797 114.032C182.143 114.032 182.429 114.049 182.655 114.084C182.897 114.101 183.14 114.145 183.383 114.214L183.175 116.866C183.001 116.814 182.811 116.771 182.603 116.736C182.412 116.701 182.204 116.684 181.979 116.684C181.528 116.684 181.164 116.771 180.887 116.944C180.609 117.117 180.393 117.343 180.237 117.62C180.098 117.897 180.003 118.201 179.951 118.53C179.899 118.859 179.873 119.18 179.873 119.492V121.52H182.759V124.016H179.873V134H176.753V124.016ZM197.294 115.592H200.128L208.058 134H204.314L202.598 129.788H194.616L192.952 134H189.286L197.294 115.592ZM201.454 126.98L198.62 119.492L195.734 126.98H201.454ZM212.714 121.52V123.262H212.792C212.948 123.019 213.147 122.777 213.39 122.534C213.65 122.274 213.962 122.049 214.326 121.858C214.69 121.65 215.097 121.485 215.548 121.364C216.016 121.225 216.536 121.156 217.108 121.156C217.992 121.156 218.806 121.329 219.552 121.676C220.297 122.005 220.938 122.465 221.476 123.054C222.013 123.643 222.429 124.337 222.724 125.134C223.018 125.931 223.166 126.789 223.166 127.708C223.166 128.627 223.018 129.493 222.724 130.308C222.446 131.105 222.039 131.807 221.502 132.414C220.982 133.003 220.34 133.48 219.578 133.844C218.832 134.191 217.983 134.364 217.03 134.364C216.146 134.364 215.331 134.182 214.586 133.818C213.858 133.454 213.294 132.96 212.896 132.336H212.844V140.24H209.724V121.52H212.714ZM219.994 127.708C219.994 127.223 219.916 126.746 219.76 126.278C219.621 125.793 219.404 125.359 219.11 124.978C218.815 124.597 218.442 124.293 217.992 124.068C217.541 123.825 217.012 123.704 216.406 123.704C215.834 123.704 215.322 123.825 214.872 124.068C214.421 124.311 214.031 124.623 213.702 125.004C213.39 125.385 213.147 125.819 212.974 126.304C212.818 126.789 212.74 127.275 212.74 127.76C212.74 128.245 212.818 128.731 212.974 129.216C213.147 129.684 213.39 130.109 213.702 130.49C214.031 130.871 214.421 131.183 214.872 131.426C215.322 131.651 215.834 131.764 216.406 131.764C217.012 131.764 217.541 131.643 217.992 131.4C218.442 131.157 218.815 130.845 219.11 130.464C219.404 130.083 219.621 129.649 219.76 129.164C219.916 128.679 219.994 128.193 219.994 127.708ZM229.167 121.52V123.262H229.245C229.401 123.019 229.6 122.777 229.843 122.534C230.103 122.274 230.415 122.049 230.779 121.858C231.143 121.65 231.55 121.485 232.001 121.364C232.469 121.225 232.989 121.156 233.561 121.156C234.445 121.156 235.259 121.329 236.005 121.676C236.75 122.005 237.391 122.465 237.929 123.054C238.466 123.643 238.882 124.337 239.177 125.134C239.471 125.931 239.619 126.789 239.619 127.708C239.619 128.627 239.471 129.493 239.177 130.308C238.899 131.105 238.492 131.807 237.955 132.414C237.435 133.003 236.793 133.48 236.031 133.844C235.285 134.191 234.436 134.364 233.483 134.364C232.599 134.364 231.784 134.182 231.039 133.818C230.311 133.454 229.747 132.96 229.349 132.336H229.297V140.24H226.177V121.52H229.167ZM236.447 127.708C236.447 127.223 236.369 126.746 236.213 126.278C236.074 125.793 235.857 125.359 235.563 124.978C235.268 124.597 234.895 124.293 234.445 124.068C233.994 123.825 233.465 123.704 232.859 123.704C232.287 123.704 231.775 123.825 231.325 124.068C230.874 124.311 230.484 124.623 230.155 125.004C229.843 125.385 229.6 125.819 229.427 126.304C229.271 126.789 229.193 127.275 229.193 127.76C229.193 128.245 229.271 128.731 229.427 129.216C229.6 129.684 229.843 130.109 230.155 130.49C230.484 130.871 230.874 131.183 231.325 131.426C231.775 131.651 232.287 131.764 232.859 131.764C233.465 131.764 233.994 131.643 234.445 131.4C234.895 131.157 235.268 130.845 235.563 130.464C235.857 130.083 236.074 129.649 236.213 129.164C236.369 128.679 236.447 128.193 236.447 127.708ZM258.672 119.44C258.325 118.989 257.831 118.617 257.19 118.322C256.566 118.01 255.933 117.854 255.292 117.854C254.91 117.854 254.529 117.906 254.148 118.01C253.766 118.097 253.42 118.244 253.108 118.452C252.796 118.643 252.536 118.903 252.328 119.232C252.137 119.544 252.042 119.925 252.042 120.376C252.042 120.792 252.128 121.147 252.302 121.442C252.475 121.737 252.709 121.988 253.004 122.196C253.316 122.404 253.688 122.586 254.122 122.742C254.555 122.898 255.032 123.054 255.552 123.21C256.141 123.401 256.748 123.617 257.372 123.86C258.013 124.103 258.594 124.423 259.114 124.822C259.651 125.221 260.084 125.723 260.414 126.33C260.76 126.937 260.934 127.691 260.934 128.592C260.934 129.58 260.752 130.447 260.388 131.192C260.024 131.92 259.538 132.527 258.932 133.012C258.325 133.497 257.614 133.861 256.8 134.104C255.985 134.347 255.127 134.468 254.226 134.468C253.03 134.468 251.86 134.251 250.716 133.818C249.572 133.367 248.636 132.709 247.908 131.842L250.248 129.658C250.698 130.282 251.296 130.776 252.042 131.14C252.804 131.504 253.55 131.686 254.278 131.686C254.659 131.686 255.049 131.643 255.448 131.556C255.846 131.452 256.202 131.287 256.514 131.062C256.843 130.837 257.103 130.559 257.294 130.23C257.502 129.883 257.606 129.459 257.606 128.956C257.606 128.471 257.493 128.072 257.268 127.76C257.042 127.431 256.739 127.153 256.358 126.928C255.976 126.685 255.526 126.477 255.006 126.304C254.486 126.131 253.94 125.949 253.368 125.758C252.813 125.585 252.258 125.377 251.704 125.134C251.149 124.891 250.646 124.571 250.196 124.172C249.762 123.773 249.407 123.288 249.13 122.716C248.852 122.127 248.714 121.399 248.714 120.532C248.714 119.596 248.904 118.79 249.286 118.114C249.684 117.438 250.196 116.883 250.82 116.45C251.461 115.999 252.18 115.67 252.978 115.462C253.792 115.237 254.616 115.124 255.448 115.124C256.384 115.124 257.328 115.289 258.282 115.618C259.252 115.947 260.093 116.441 260.804 117.1L258.672 119.44ZM271.808 132.414H271.73C271.418 132.969 270.915 133.428 270.222 133.792C269.528 134.139 268.74 134.312 267.856 134.312C267.353 134.312 266.824 134.243 266.27 134.104C265.732 133.983 265.23 133.775 264.762 133.48C264.311 133.168 263.93 132.769 263.618 132.284C263.323 131.781 263.176 131.166 263.176 130.438C263.176 129.502 263.436 128.757 263.956 128.202C264.493 127.647 265.178 127.223 266.009 126.928C266.842 126.633 267.76 126.443 268.766 126.356C269.788 126.252 270.785 126.2 271.756 126.2V125.888C271.756 125.108 271.47 124.536 270.898 124.172C270.343 123.791 269.676 123.6 268.896 123.6C268.237 123.6 267.604 123.739 266.998 124.016C266.391 124.293 265.888 124.631 265.49 125.03L263.878 123.132C264.588 122.473 265.403 121.979 266.322 121.65C267.258 121.321 268.202 121.156 269.156 121.156C270.265 121.156 271.175 121.312 271.886 121.624C272.614 121.936 273.186 122.343 273.602 122.846C274.018 123.349 274.304 123.912 274.46 124.536C274.633 125.16 274.72 125.784 274.72 126.408V134H271.808V132.414ZM271.756 128.306H271.054C270.551 128.306 270.022 128.332 269.468 128.384C268.913 128.419 268.402 128.514 267.934 128.67C267.466 128.809 267.076 129.017 266.764 129.294C266.452 129.554 266.296 129.918 266.296 130.386C266.296 130.681 266.356 130.932 266.478 131.14C266.616 131.331 266.79 131.487 266.998 131.608C267.206 131.729 267.44 131.816 267.7 131.868C267.96 131.92 268.22 131.946 268.48 131.946C269.554 131.946 270.369 131.66 270.924 131.088C271.478 130.516 271.756 129.736 271.756 128.748V128.306ZM278.848 124.016H276.482V121.52H278.848V119.674C278.848 118.929 278.926 118.218 279.082 117.542C279.256 116.849 279.533 116.242 279.914 115.722C280.313 115.202 280.833 114.795 281.474 114.5C282.116 114.188 282.922 114.032 283.892 114.032C284.239 114.032 284.525 114.049 284.75 114.084C284.993 114.101 285.236 114.145 285.478 114.214L285.27 116.866C285.097 116.814 284.906 116.771 284.698 116.736C284.508 116.701 284.3 116.684 284.074 116.684C283.624 116.684 283.26 116.771 282.982 116.944C282.705 117.117 282.488 117.343 282.332 117.62C282.194 117.897 282.098 118.201 282.046 118.53C281.994 118.859 281.968 119.18 281.968 119.492V121.52H284.854V124.016H281.968V134H278.848V124.016ZM295.572 126.512C295.572 126.113 295.511 125.732 295.39 125.368C295.286 125.004 295.113 124.683 294.87 124.406C294.627 124.129 294.315 123.912 293.934 123.756C293.57 123.583 293.137 123.496 292.634 123.496C291.698 123.496 290.901 123.782 290.242 124.354C289.601 124.909 289.245 125.628 289.176 126.512H295.572ZM298.692 127.916C298.692 128.055 298.692 128.193 298.692 128.332C298.692 128.471 298.683 128.609 298.666 128.748H289.176C289.211 129.199 289.323 129.615 289.514 129.996C289.722 130.36 289.991 130.681 290.32 130.958C290.649 131.218 291.022 131.426 291.438 131.582C291.854 131.738 292.287 131.816 292.738 131.816C293.518 131.816 294.177 131.677 294.714 131.4C295.251 131.105 295.693 130.707 296.04 130.204L298.12 131.868C296.889 133.532 295.104 134.364 292.764 134.364C291.793 134.364 290.901 134.217 290.086 133.922C289.271 133.61 288.561 133.177 287.954 132.622C287.365 132.067 286.897 131.391 286.55 130.594C286.221 129.779 286.056 128.861 286.056 127.838C286.056 126.833 286.221 125.923 286.55 125.108C286.897 124.276 287.365 123.574 287.954 123.002C288.543 122.413 289.237 121.962 290.034 121.65C290.849 121.321 291.724 121.156 292.66 121.156C293.527 121.156 294.324 121.303 295.052 121.598C295.797 121.875 296.439 122.3 296.976 122.872C297.513 123.427 297.929 124.129 298.224 124.978C298.536 125.81 298.692 126.789 298.692 127.916ZM299.92 124.016V121.52H302.104V117.906H305.172V121.52H308.292V124.016H305.172V129.814C305.172 130.369 305.267 130.828 305.458 131.192C305.666 131.556 306.116 131.738 306.81 131.738C307.018 131.738 307.243 131.721 307.486 131.686C307.728 131.634 307.945 131.565 308.136 131.478L308.24 133.922C307.962 134.026 307.633 134.104 307.252 134.156C306.87 134.225 306.506 134.26 306.16 134.26C305.328 134.26 304.652 134.147 304.132 133.922C303.612 133.679 303.196 133.359 302.884 132.96C302.589 132.544 302.381 132.076 302.26 131.556C302.156 131.019 302.104 130.447 302.104 129.84V124.016H299.92ZM308.678 121.52H312.136L315.62 130.594H315.672L318.766 121.52H322.016L316.114 136.678C315.888 137.25 315.646 137.753 315.386 138.186C315.126 138.637 314.814 139.009 314.45 139.304C314.086 139.616 313.652 139.85 313.15 140.006C312.664 140.162 312.075 140.24 311.382 140.24C311.122 140.24 310.853 140.223 310.576 140.188C310.316 140.171 310.047 140.127 309.77 140.058L310.03 137.354C310.238 137.423 310.437 137.467 310.628 137.484C310.836 137.519 311.026 137.536 311.2 137.536C311.529 137.536 311.806 137.493 312.032 137.406C312.257 137.337 312.448 137.215 312.604 137.042C312.76 136.886 312.898 136.687 313.02 136.444C313.141 136.201 313.271 135.915 313.41 135.586L314.034 134L308.678 121.52Z" fill="url(#paint2_linear_2_19)"/>
<defs>
<linearGradient id="paint0_linear_2_19" x1="95.8816" y1="38.0854" x2="116.305" y2="123.194" gradientUnits="userSpaceOnUse">
<stop stop-color="#242D43"/>
<stop offset="1" stop-color="#191B24"/>
</linearGradient>
<linearGradient id="paint1_linear_2_19" x1="35" y1="72.3479" x2="54.364" y2="93.0833" gradientUnits="userSpaceOnUse">
<stop stop-color="#1DFEEF"/>
<stop offset="1" stop-color="#FDED52"/>
</linearGradient>
<linearGradient id="paint2_linear_2_19" x1="85.555" y1="113.58" x2="91.832" y2="162.576" gradientUnits="userSpaceOnUse">
<stop stop-color="#242D43"/>
<stop offset="1" stop-color="#191B24"/>
</linearGradient>
</defs>
</svg>
