<svg id="Layer_1" data-name="Layer 1" xmlns="http://www.w3.org/2000/svg" viewBox="0 0 385.08 63.18"><path d="M122.54,36.06l-.22.27a11.68,11.68,0,0,1-2.19,2.14,7.29,7.29,0,0,1-2.86,1.3,6.12,6.12,0,0,1-2.66,0,4.2,4.2,0,0,1-2.72-2,6.33,6.33,0,0,1-.83-2.28,13.42,13.42,0,0,1-.12-3.35,19.1,19.1,0,0,1,4.3-10.77,12.64,12.64,0,0,1,3.41-2.9,8.76,8.76,0,0,1,2.88-1.05,5.84,5.84,0,0,1,2.53.09,5,5,0,0,1,2.18,1.29l.24.24c.1-.37.2-.72.3-1.07h3.51a1.36,1.36,0,0,0,0,.17c-.92,3.2-1.71,6.44-2.46,9.68-.39,1.68-.77,3.35-1.22,5-.09.36-.18.72-.28,1.07a11.78,11.78,0,0,0-.36,1.88,19.24,19.24,0,0,0-.2,3.31,7.85,7.85,0,0,0,.56,2.7,3.86,3.86,0,0,0,.77,1.19,2.17,2.17,0,0,0,1.47.65,4.08,4.08,0,0,0,1.91-.4,7,7,0,0,0,1.72-1.09c.33-.28.66-.56,1-.82a4.36,4.36,0,0,1,2.21-.85,2.94,2.94,0,0,1,1.62.32,12.79,12.79,0,0,0,1.58.65,7.88,7.88,0,0,0,3,.39,4.84,4.84,0,0,0,2.28-.71,3.69,3.69,0,0,0,.4-.29,1.83,1.83,0,0,0,.65-1.94c0-.24-.16-.47-.23-.71s-.17-.58-.23-.87a.76.76,0,0,1,.19-.7c.19-.22.4-.44.62-.65a3.18,3.18,0,0,0,.64-.82,1.34,1.34,0,0,0,.17-.78.68.68,0,0,0-.37-.57,1.4,1.4,0,0,0-.7-.17h-.62l-.28,0v0l.18,0a8.06,8.06,0,0,0,.88-.18,2.59,2.59,0,0,0,1.24-.81.76.76,0,0,0,.12-.86,1.52,1.52,0,0,0-.36-.52c-.13-.14-.28-.27-.41-.41a.88.88,0,0,1,0-1.32,6.05,6.05,0,0,1,.73-.61c.32-.25.66-.48,1-.73a3.47,3.47,0,0,0,.68-.7.91.91,0,0,0,0-1.2,7.6,7.6,0,0,0-.68-.71,14.13,14.13,0,0,1-1.72-1.82,7.47,7.47,0,0,1-1.08-1.88,5.82,5.82,0,0,1-.32-1.75,18.93,18.93,0,0,1,.05-2.13,5.93,5.93,0,0,0-.34-2.29,7.88,7.88,0,0,0-2.39-3.49,10.82,10.82,0,0,0-3.32-1.93A23.25,23.25,0,0,0,133.43,9a31.09,31.09,0,0,0-5.54-.28,30.2,30.2,0,0,0-9.16,1.78A27.85,27.85,0,0,0,111,14.75a17.64,17.64,0,0,0-1.68,1.56,24.38,24.38,0,0,0-3.68,4.83,21.35,21.35,0,0,0-2.16,5.18c-.15.54-.3,1.08-.4,1.64a20.8,20.8,0,0,0-.33,4.92,18.49,18.49,0,0,0,1.61,6.67,18.83,18.83,0,0,0,5.57,7.06,23.6,23.6,0,0,0,4.79,3,24.35,24.35,0,0,0,6.25,1.87,24.94,24.94,0,0,0,4.65.28,25.79,25.79,0,0,0,3.82-.41,27.51,27.51,0,0,0,4.82-1.24c.62-.22,1.22-.49,1.82-.74l.13,0,.77,2.2-.1.06a29.6,29.6,0,0,1-8.2,3.24,27.94,27.94,0,0,1-4.05.63,27.12,27.12,0,0,1-4.13,0,25,25,0,0,1-12.89-4.54,22.56,22.56,0,0,1-7.28-8.55,24.72,24.72,0,0,1-1.91-5.06,23.82,23.82,0,0,1-.67-7.38,25.72,25.72,0,0,1,1.48-7c.33-.91.66-1.82,1.06-2.7a24.65,24.65,0,0,1,6-8,28.94,28.94,0,0,1,9.5-5.66,30.91,30.91,0,0,1,6.55-1.62,36.68,36.68,0,0,1,6.1-.37,28.3,28.3,0,0,1,6.71,1.07,23.73,23.73,0,0,1,4.1,1.52,15.83,15.83,0,0,1,4.5,3.28,9.41,9.41,0,0,1,2.47,4.84,8.22,8.22,0,0,1,0,2.71,9.5,9.5,0,0,0-.14,1.92,5.3,5.3,0,0,0,1.36,3.43c.5.57,1,1.12,1.53,1.68l.79.85a.87.87,0,0,1,.21.87,2.49,2.49,0,0,1-.37.83,6.14,6.14,0,0,1-1.3,1.39,11.64,11.64,0,0,1-1,.71.49.49,0,0,0-.12.78,2.84,2.84,0,0,1,.45.64,1.72,1.72,0,0,1,.06,1.42,2.37,2.37,0,0,1-.44.73l-.3.34a.24.24,0,0,0,0,.28c.06.12.11.24.16.36a1.39,1.39,0,0,1,.05,1,2.69,2.69,0,0,1-.73,1.12l-.3.31a1.68,1.68,0,0,0-.38.82,1.16,1.16,0,0,0,.1.64c.07.18.15.36.23.53a3.76,3.76,0,0,1,.34,1.23,2.48,2.48,0,0,1-1.13,2.41,6.85,6.85,0,0,1-2.77,1.09,11.25,11.25,0,0,1-3,.09,20.39,20.39,0,0,1-2.47-.35,3.69,3.69,0,0,0-2.72.58,6.93,6.93,0,0,0-1.39,1.14,10.82,10.82,0,0,1-1.43,1.27,6.85,6.85,0,0,1-2.58,1.2A4.37,4.37,0,0,1,126,47a5.16,5.16,0,0,1-1.68-1.33,7.42,7.42,0,0,1-1.42-2.85,16,16,0,0,1-.58-4.67,9.14,9.14,0,0,1,.25-1.95A.68.68,0,0,0,122.54,36.06Zm-7.69-1.6a8.82,8.82,0,0,0,.18,1.85,3.82,3.82,0,0,0,.63,1.48,1.68,1.68,0,0,0,1.7.67,3.85,3.85,0,0,0,1.49-.59,7.87,7.87,0,0,0,1.53-1.29A11.36,11.36,0,0,0,122.62,33a45.58,45.58,0,0,0,2.72-9.72,7.79,7.79,0,0,0,0-2.26,3.71,3.71,0,0,0-.45-1.46,2.08,2.08,0,0,0-1.45-1.06,3,3,0,0,0-1.16,0,4.47,4.47,0,0,0-1.88.89,8.46,8.46,0,0,0-1.58,1.64,15.87,15.87,0,0,0-2,3.51,27.09,27.09,0,0,0-1.61,5.5,23.76,23.76,0,0,0-.46,4.38Z" style="fill:#f05e3e"/><path d="M33.69,11.92a2,2,0,0,1,.57,1.46,2,2,0,0,1-2,2H23.1V42.26a2.21,2.21,0,0,1-3.77,1.57,2.1,2.1,0,0,1-.64-1.57V15.42H9.53a2,2,0,0,1-1.46-.58,2,2,0,0,1,1.46-3.49H32.22A2,2,0,0,1,33.69,11.92Z" class="dark"/><path d="M54.45,22.33A9.06,9.06,0,0,1,58.1,26a12.33,12.33,0,0,1,1.31,5.88V42.35a2.14,2.14,0,0,1-.61,1.55,2.12,2.12,0,0,1-1.55.61,2.09,2.09,0,0,1-1.55-.61,2.11,2.11,0,0,1-.62-1.55V31.92a6.86,6.86,0,0,0-1.84-5.2A6.81,6.81,0,0,0,48.34,25a7.2,7.2,0,0,0-3.24.72,5.8,5.8,0,0,0-2.3,1.95A4.84,4.84,0,0,0,42,30.39v12a2.13,2.13,0,0,1-.6,1.55,2.29,2.29,0,0,1-3.11,0,2.11,2.11,0,0,1-.62-1.55V13.51a2.22,2.22,0,0,1,3.73-1.57,2.12,2.12,0,0,1,.6,1.57V23.9a9.56,9.56,0,0,1,3.22-2.1,11.35,11.35,0,0,1,9.25.53Z" class="dark"/><path d="M85.83,33.85a1.93,1.93,0,0,1-1.4.53H68.32A7.49,7.49,0,0,0,71,39.17a8.66,8.66,0,0,0,8.1,1.36,7.89,7.89,0,0,0,2.27-1.15,2.21,2.21,0,0,1,1.4-.47,1.82,1.82,0,0,1,1.27.43,1.84,1.84,0,0,1,.77,1.44,1.54,1.54,0,0,1-.68,1.27,11.57,11.57,0,0,1-3.59,1.87,12.84,12.84,0,0,1-4.09.72,12.68,12.68,0,0,1-6.23-1.51A10.88,10.88,0,0,1,65.92,39a11.94,11.94,0,0,1-1.55-6.07,12.63,12.63,0,0,1,1.46-6.09,10.61,10.61,0,0,1,4.08-4.19,11.55,11.55,0,0,1,5.91-1.51,10.65,10.65,0,0,1,5.64,1.44,9.51,9.51,0,0,1,3.65,4,13.3,13.3,0,0,1,1.28,5.94A1.79,1.79,0,0,1,85.83,33.85Zm-15-7.41A7.65,7.65,0,0,0,68.36,31H82.48a7.53,7.53,0,0,0-2.12-4.54,6.22,6.22,0,0,0-4.54-1.69A7.31,7.31,0,0,0,70.8,26.44Z" class="dark"/><path d="M181.18,11.91a16.74,16.74,0,0,1,4.78,2.8,1.9,1.9,0,0,1,.67.78,2.35,2.35,0,0,1,.17,1,1.81,1.81,0,0,1-.61,1.4,2.09,2.09,0,0,1-1.42.55,2.37,2.37,0,0,1-1.49-.55,12.45,12.45,0,0,0-3.39-2.15,11.93,11.93,0,0,0-4.28-.65,11.24,11.24,0,0,0-6.09,1.74,12.61,12.61,0,0,0-4.41,4.72,13.88,13.88,0,0,0,0,13.05,12.55,12.55,0,0,0,4.41,4.7A11.24,11.24,0,0,0,175.61,41a12.81,12.81,0,0,0,7.8-2.8,2.42,2.42,0,0,1,1.4-.5,1.76,1.76,0,0,1,1.34.57,2.13,2.13,0,0,1,.53,1.5,2.15,2.15,0,0,1-.68,1.57A16.14,16.14,0,0,1,175.61,45a16,16,0,0,1-8.3-2.24,16.17,16.17,0,0,1-5.91-6.15A17.53,17.53,0,0,1,159.23,28a17.31,17.31,0,0,1,2.17-8.55,16.32,16.32,0,0,1,5.91-6.15,15.78,15.78,0,0,1,8.3-2.27A16.35,16.35,0,0,1,181.18,11.91Z" class="dark"/><path d="M207.06,22.74a10.89,10.89,0,0,1,4.15,4.18A12.17,12.17,0,0,1,212.72,33a12.32,12.32,0,0,1-1.49,6.07,10.55,10.55,0,0,1-4.13,4.17,12.9,12.9,0,0,1-12.11,0,10.63,10.63,0,0,1-4.16-4.17A12.32,12.32,0,0,1,189.35,33a12.36,12.36,0,0,1,1.48-6.11A10.72,10.72,0,0,1,195,22.74a12.16,12.16,0,0,1,6.06-1.5A12,12,0,0,1,207.06,22.74Zm-9.89,3.33a7.18,7.18,0,0,0-2.69,2.85,8.54,8.54,0,0,0-1,4.11,8.44,8.44,0,0,0,1,4.09,7.16,7.16,0,0,0,2.69,2.82,7.91,7.91,0,0,0,7.77,0,7,7,0,0,0,2.67-2.82,8.66,8.66,0,0,0,.95-4.09,8.77,8.77,0,0,0-.95-4.11,7.06,7.06,0,0,0-2.67-2.85,8,8,0,0,0-7.77,0Z" class="dark"/><path d="M248.45,23.61a9.5,9.5,0,0,1,2.27,6.75V42.49a2.17,2.17,0,0,1-.59,1.55,2.17,2.17,0,0,1-3.73-1.55V30.36a5.46,5.46,0,0,0-1.3-3.93,4.58,4.58,0,0,0-3.46-1.33A4.71,4.71,0,0,0,238,26.63a5.46,5.46,0,0,0-1.42,3.9v12A2.13,2.13,0,0,1,236,44a2.29,2.29,0,0,1-3.11,0,2.11,2.11,0,0,1-.62-1.55V30.36A5.46,5.46,0,0,0,231,26.43a4.61,4.61,0,0,0-3.46-1.33,4.78,4.78,0,0,0-3.67,1.53,5.46,5.46,0,0,0-1.42,3.9v12a2.17,2.17,0,0,1-.59,1.55,2.3,2.3,0,0,1-3.12,0,2.11,2.11,0,0,1-.62-1.55V23.61a2.09,2.09,0,0,1,.62-1.57,2.17,2.17,0,0,1,1.55-.59,2.13,2.13,0,0,1,1.53.57,2.2,2.2,0,0,1,.63,1.51,7.74,7.74,0,0,1,2.63-1.72,8.78,8.78,0,0,1,3.31-.61,8.48,8.48,0,0,1,3.88.87,7.32,7.32,0,0,1,2.82,2.48,8.79,8.79,0,0,1,3.18-2.46,9.82,9.82,0,0,1,4.24-.89A7.79,7.79,0,0,1,248.45,23.61Z" class="dark"/><path d="M274.45,22.79A11.09,11.09,0,0,1,278.67,27a11.9,11.9,0,0,1,1.53,6,12.59,12.59,0,0,1-1.42,6,10.74,10.74,0,0,1-3.9,4.22,10.6,10.6,0,0,1-13.73-2.33V52.37a2.21,2.21,0,0,1-3.71,1.57,2.09,2.09,0,0,1-.61-1.57V33a11.72,11.72,0,0,1,1.55-6,11.32,11.32,0,0,1,4.2-4.24,11.49,11.49,0,0,1,5.91-1.55A11.75,11.75,0,0,1,274.45,22.79Zm-2.12,17.13a7.5,7.5,0,0,0,2.72-2.84,8.26,8.26,0,0,0,1-4,8.37,8.37,0,0,0-1-4.07,7.42,7.42,0,0,0-2.72-2.86,7.61,7.61,0,0,0-7.68,0A7.27,7.27,0,0,0,262,29,8.47,8.47,0,0,0,261,33a8.37,8.37,0,0,0,1,4,7.35,7.35,0,0,0,2.69,2.84,7.61,7.61,0,0,0,7.68,0Z" class="dark"/><path d="M302,22.79a11.32,11.32,0,0,1,4.2,4.24,11.82,11.82,0,0,1,1.55,6v9.46a2.11,2.11,0,0,1-.62,1.55,2.26,2.26,0,0,1-3.09,0,2.11,2.11,0,0,1-.62-1.55V40.92a10.37,10.37,0,0,1-3.6,2.84,10.48,10.48,0,0,1-4.58,1,10.36,10.36,0,0,1-5.54-1.53,10.74,10.74,0,0,1-3.9-4.22,12.59,12.59,0,0,1-1.42-6,12,12,0,0,1,1.52-6,11.16,11.16,0,0,1,4.22-4.24,11.8,11.8,0,0,1,6-1.55A11.55,11.55,0,0,1,302,22.79Zm-2.08,17.13a7.3,7.3,0,0,0,2.7-2.84,8.36,8.36,0,0,0,1-4,8.47,8.47,0,0,0-1-4.07,7.48,7.48,0,0,0-10.37-2.86A7.42,7.42,0,0,0,289.55,29a8.37,8.37,0,0,0-1,4.07,8.27,8.27,0,0,0,1,4,7.5,7.5,0,0,0,2.72,2.84,7.59,7.59,0,0,0,7.67,0Z" class="dark"/><path d="M330,22.47a9,9,0,0,1,3.65,3.71,12.29,12.29,0,0,1,1.31,5.87V42.49a2.16,2.16,0,1,1-4.32,0V32.05a6.84,6.84,0,0,0-1.85-5.19,6.81,6.81,0,0,0-4.9-1.76,7.2,7.2,0,0,0-3.24.72,5.71,5.71,0,0,0-2.29,1.95,4.85,4.85,0,0,0-.83,2.76v12a2.17,2.17,0,0,1-.59,1.55,2.3,2.3,0,0,1-3.12,0,2.11,2.11,0,0,1-.62-1.55V23.57a2.09,2.09,0,0,1,.62-1.57,2.15,2.15,0,0,1,3.71,1.57V24a9.26,9.26,0,0,1,3.22-2.1,10.64,10.64,0,0,1,4-.74A10.8,10.8,0,0,1,330,22.47Z" class="dark"/><path d="M360.06,23.27a2.6,2.6,0,0,1-.25,1l-13,29.18a1.74,1.74,0,0,1-1.66,1.32,2.64,2.64,0,0,1-1-.26,1.77,1.77,0,0,1-1.27-1.65,2.26,2.26,0,0,1,.25-1l4.24-9.54-9.54-18.11a1.83,1.83,0,0,1-.21-.89,1.72,1.72,0,0,1,.33-1,2.29,2.29,0,0,1,.9-.72,2.07,2.07,0,0,1,.84-.17,1.9,1.9,0,0,1,1.79,1.19L349.25,38l6.83-15.39a1.76,1.76,0,0,1,1.65-1.23,2.45,2.45,0,0,1,1,.21A1.74,1.74,0,0,1,360.06,23.27Z" class="dark"/></svg>