<svg width="1440" height="793" viewBox="0 0 1440 793" xmlns="http://www.w3.org/2000/svg" xmlns:xlink="http://www.w3.org/1999/xlink"><title>background-mountains 2</title><defs><path id="a" d="M0 0h1500v968H0z"/></defs><g transform="translate(-49 -60)" fill="none" fill-rule="evenodd"><mask id="b" fill="#fff"><use xlink:href="#a"/></mask><use xlink:href="#a"/><g mask="url(#b)"><path d="M811 638.874L940 528.09l154.797-217.043 66.98-116.204 54.325-42.43 73.187-91.645 100.58 61.568 62.086 90.492 103.89 64.628 63.016 71.022 152.977 233.117L1593 698.757l-280 36.928-304-14.97-198-81.84z" fill="#495450"/><path d="M1420.77 167.018l-48.33-7.43-30.1-11.583-31.914 30.56-44.258 5.147-60.082 22.23-44.31-11.1 54.326-42.428 73.187-91.646 100.58 61.568 30.9 44.682z" fill="#9EA1A0"/><path d="M312.205 537.445l213.797-98.66 66.98-116.203 54.325-42.43 73.187-91.645 100.582 61.568 62.086 90.492 103.89 64.628 63.016 71.022 152.977 233.116-490.563 88.72-237.277-69.846-163-190.762z" fill="#495450"/><path d="M834.648 270.172l-13.572 19.117-40.787-19.12-38.71 14.71-28.136-19.717-24.222 14.647-32.88-9.638 15.974-21.338 48.177-60.327 100.582 61.568 13.572 20.097z" fill="#9EA1A0"/><path d="M-212.795 555.682l213.797-98.66 66.98-116.203 54.325-42.43 73.187-91.647 100.582 61.568 62.086 90.49 103.89 64.63 63.016 71.023L678.045 727.57l-490.563 88.718-237.277-69.844-163-190.762z" fill="#495450"/><path d="M309.648 288.41l-13.572 19.115-40.787-19.116-38.71 14.71-28.136-19.72-24.222 14.647-32.88-9.64 15.974-21.337 48.177-60.326 100.582 61.568 13.572 20.097z" fill="#9EA1A0"/><path d="M1368.134 281.12C1494.54 281.12 1597 1047 1597 1047h-453s97.728-765.883 224.134-765.883zM165.777 331.948C309 421.218 306.813 418.31 312 352.353c5.188-65.957 72.424-193.623 113.866-193.623 155.65 0 237.134 887.274 237.134 887.274H-35.23s38.948-815.07 201.007-714.056z" fill="#586C5F"/><path d="M697.648 332.072c92.094-30.32 131.528 174.953 156.22 130.68 24.69-44.273 34.364-298.316 149.964-215.49 115.6 82.823 276.168 799.88 276.168 799.88H563.714s21.965-678.21 133.934-715.07z" fill="#586C5F"/><path d="M712.845 325.737c53.176 0 89.932 80.222 89.932 80.222s-37.265 16.912-59.058-5.205c-21.795-22.117-47.037-39.51-59.755-21.38-31.915 45.493-50.305 64.01-50.305 64.01s26.01-117.65 79.185-117.65zm247.615-97.37c53.177 0 77.867 59.627 77.867 59.627s-16.242 8.378-16.242 46.854-52.018-10.49-73.36-23.83c-27.945-17.465-65.448 36.993-65.448 36.993S907.285 228.37 960.46 228.37zm-539.688-72.63c63.455 0 90.228 97.81 90.228 97.81s-27.952-59.936-58.59-36.926c-30.638 23.01-21.34 10.408-59.41 23.95-38.07 13.546-64 47.91-64 47.91s28.317-132.743 91.772-132.743zm945.584 125.383c51.534 0 74.644 79.218 74.644 79.218s-25.174-9.575-49.917-12.844c-19.548-2.582-18.52 12.024-30.26 10.094-2.142-.353-21.463-21.777-23.66-20.942-29.482 11.21-54.163 55.63-54.163 55.63s31.823-111.157 83.356-111.157zM127.128 318.617c53.176 0 124.044 66.637 124.044 66.637s-33.075-9.288-54.375-7.813c-21.3 1.478-31.176 34.9-40.844 25.09-21.793-22.117-44.986-48.404-57.705-30.273C66.334 417.75 54 438 54 438s19.953-119.383 73.128-119.383z" fill="#9EA9A2"/></g></g></svg>