<?xml version="1.0" encoding="UTF-8"?>
<svg width="977px" height="927px" viewBox="0 0 977 927" version="1.1" xmlns="http://www.w3.org/2000/svg" xmlns:xlink="http://www.w3.org/1999/xlink">
    <defs>
        <linearGradient x1="64.0124785%" y1="79.5579408%" x2="27.8163841%" y2="-6.07999224%" id="linearGradient-1">
            <stop stop-color="#000000" stop-opacity="0" offset="0%"></stop>
            <stop stop-color="#000000" stop-opacity="0.4" offset="100%"></stop>
        </linearGradient>
    </defs>
    <g id="Artboard" stroke="none" stroke-width="1" fill="none" fill-rule="evenodd">
        <g id="Group" transform="translate(-4.000000, 0.000000)" fill-rule="nonzero">
            <g transform="translate(125.000000, 15.000000)" id="Path">
                <path d="M392.09,163.01 L578.4,349.33 L63.64,864.09 C40.32,887.41 0.46,870.89 0.46,837.92 L0.46,519.46 C0.46,509.64 4.36,500.23 11.3,493.29 L341.58,163.01 C355.53,149.07 378.14,149.07 392.09,163.01 Z" fill="#505050"></path>
                <path d="M340.67,163.93 L155.27,349.33 L670.03,864.09 C693.35,887.41 733.21,870.89 733.21,837.92 L733.21,519.46 C733.21,509.64 729.31,500.23 722.37,493.29 L393.01,163.93 C378.55,149.47 355.12,149.47 340.67,163.93 Z" fill="#A9A9A9"></path>
                <polygon fill="url(#linearGradient-1)" points="366.84 560.89 155.27 349.33 289.4 638.33"></polygon>
                <path d="M603.91,0.38 C603.91,0.38 663.76,179.43 589.14,244.04 C589.14,244.04 675.64,292.3 697.49,355.12 C697.48,355.12 823.58,185.61 603.91,0.38 Z" fill="#A9A9A9"></path>
                <path d="M661.55,420.26 C661.55,420.26 713.15,392.68 688.17,347.86 C663.19,303.04 584.76,240.61 571.21,245.81 C557.66,251.01 516.31,274.09 516.31,274.09 C516.31,274.09 628.29,344.19 661.55,420.26 Z" fill="#505050"></path>
                <path d="M129.66,0.38 C129.66,0.38 69.81,179.43 144.43,244.04 C144.43,244.04 57.93,292.3 36.08,355.12 C36.08,355.12 -90.02,185.61 129.66,0.38 Z" fill="#505050"></path>
                <path d="M72.02,420.26 C72.02,420.26 20.42,392.68 45.4,347.86 C70.38,303.04 148.81,240.61 162.36,245.81 C175.91,251.01 217.26,274.09 217.26,274.09 C217.26,274.09 105.28,344.19 72.02,420.26 Z" fill="#A9A9A9"></path>
            </g>
        </g>
    </g>
</svg>