<svg width="2078px" height="780px" viewBox="0 0 2078 780" version="1.1" xmlns="http://www.w3.org/2000/svg" xmlns:xlink="http://www.w3.org/1999/xlink">
    <defs>
        <radialGradient cx="50.0880813%" cy="49.9199655%" fx="50.0880813%" fy="49.9199655%" r="65.9544093%" gradientTransform="translate(0.500881,0.499200),scale(1.000000,0.635094),rotate(-86.462622),translate(-0.500881,-0.499200)" id="radialGradient-1">
            <stop stop-color="#FFFFFF" offset="0%"></stop>
            <stop stop-color="#FFFFFF" stop-opacity="0" offset="100%"></stop>
        </radialGradient>
        <radialGradient cx="50.0385764%" cy="49.9305413%" fx="50.0385764%" fy="49.9305413%" r="65.9544093%" gradientTransform="translate(0.500386,0.499305),scale(1.000000,0.635094),rotate(-86.462622),translate(-0.500386,-0.499305)" id="radialGradient-2">
            <stop stop-color="#FFFFFF" offset="0%"></stop>
            <stop stop-color="#FFFFFF" stop-opacity="0" offset="100%"></stop>
        </radialGradient>
        <radialGradient cx="50.0601166%" cy="49.8957344%" fx="50.0601166%" fy="49.8957344%" r="65.9544093%" gradientTransform="translate(0.500601,0.498957),scale(1.000000,0.635094),rotate(-86.462622),translate(-0.500601,-0.498957)" id="radialGradient-3">
            <stop stop-color="#FFFFFF" offset="0%"></stop>
            <stop stop-color="#FFFFFF" stop-opacity="0" offset="100%"></stop>
        </radialGradient>
        <radialGradient cx="50.0427887%" cy="49.9326243%" fx="50.0427887%" fy="49.9326243%" r="65.9544093%" gradientTransform="translate(0.500428,0.499326),scale(1.000000,0.635076),rotate(-86.462622),translate(-0.500428,-0.499326)" id="radialGradient-4">
            <stop stop-color="#FFFFFF" offset="0%"></stop>
            <stop stop-color="#FFFFFF" stop-opacity="0" offset="100%"></stop>
        </radialGradient>
        <radialGradient cx="50.096938%" cy="49.9246417%" fx="50.096938%" fy="49.9246417%" r="65.9544093%" gradientTransform="translate(0.500969,0.499246),scale(1.000000,0.635076),rotate(-86.462622),translate(-0.500969,-0.499246)" id="radialGradient-5">
            <stop stop-color="#FFFFFF" offset="0%"></stop>
            <stop stop-color="#FFFFFF" stop-opacity="0" offset="100%"></stop>
        </radialGradient>
        <radialGradient cx="50.0784565%" cy="49.9185087%" fx="50.0784565%" fy="49.9185087%" r="65.9544093%" gradientTransform="translate(0.500785,0.499185),scale(1.000000,0.635094),rotate(-86.462622),translate(-0.500785,-0.499185)" id="radialGradient-6">
            <stop stop-color="#FFFFFF" offset="0%"></stop>
            <stop stop-color="#FFFFFF" stop-opacity="0" offset="100%"></stop>
        </radialGradient>
        <radialGradient cx="50.0604515%" cy="49.9105259%" fx="50.0604515%" fy="49.9105259%" r="65.9544093%" gradientTransform="translate(0.500605,0.499105),scale(1.000000,0.635094),rotate(-86.462622),translate(-0.500605,-0.499105)" id="radialGradient-7">
            <stop stop-color="#FFFFFF" offset="0%"></stop>
            <stop stop-color="#FFFFFF" stop-opacity="0" offset="100%"></stop>
        </radialGradient>
        <radialGradient cx="50.0707271%" cy="49.9057231%" fx="50.0707271%" fy="49.9057231%" r="65.9544093%" gradientTransform="translate(0.500707,0.499057),scale(1.000000,0.635094),rotate(-86.462622),translate(-0.500707,-0.499057)" id="radialGradient-8">
            <stop stop-color="#FFFFFF" offset="0%"></stop>
            <stop stop-color="#FFFFFF" stop-opacity="0" offset="100%"></stop>
        </radialGradient>
        <radialGradient cx="50.0814793%" cy="49.9004798%" fx="50.0814793%" fy="49.9004798%" r="65.9544093%" gradientTransform="translate(0.500815,0.499005),scale(1.000000,0.635094),rotate(-86.462622),translate(-0.500815,-0.499005)" id="radialGradient-9">
            <stop stop-color="#FFFFFF" offset="0%"></stop>
            <stop stop-color="#FFFFFF" stop-opacity="0" offset="100%"></stop>
        </radialGradient>
        <radialGradient cx="50.092187%" cy="49.8956939%" fx="50.092187%" fy="49.8956939%" r="65.9544093%" gradientTransform="translate(0.500922,0.498957),scale(1.000000,0.635094),rotate(-86.462622),translate(-0.500922,-0.498957)" id="radialGradient-10">
            <stop stop-color="#FFFFFF" offset="0%"></stop>
            <stop stop-color="#FFFFFF" stop-opacity="0" offset="100%"></stop>
        </radialGradient>
        <radialGradient cx="50.1013118%" cy="49.9129552%" fx="50.1013118%" fy="49.9129552%" r="65.9544093%" gradientTransform="translate(0.501013,0.499130),scale(1.000000,0.635076),rotate(-86.462622),translate(-0.501013,-0.499130)" id="radialGradient-11">
            <stop stop-color="#FFFFFF" offset="0%"></stop>
            <stop stop-color="#FFFFFF" stop-opacity="0" offset="100%"></stop>
        </radialGradient>
        <radialGradient cx="50.037335%" cy="49.891079%" fx="50.037335%" fy="49.891079%" r="65.9544093%" gradientTransform="translate(0.500373,0.498911),scale(1.000000,0.635094),rotate(-86.462622),translate(-0.500373,-0.498911)" id="radialGradient-12">
            <stop stop-color="#FFFFFF" offset="0%"></stop>
            <stop stop-color="#FFFFFF" stop-opacity="0" offset="100%"></stop>
        </radialGradient>
        <radialGradient cx="50.0462785%" cy="49.9122105%" fx="50.0462785%" fy="49.9122105%" r="65.9544093%" gradientTransform="translate(0.500463,0.499122),scale(1.000000,0.635076),rotate(-86.462622),translate(-0.500463,-0.499122)" id="radialGradient-13">
            <stop stop-color="#FFFFFF" offset="0%"></stop>
            <stop stop-color="#FFFFFF" stop-opacity="0" offset="100%"></stop>
        </radialGradient>
        <radialGradient cx="50.0541666%" cy="49.8898929%" fx="50.0541666%" fy="49.8898929%" r="65.9544093%" gradientTransform="translate(0.500542,0.498899),scale(1.000000,0.635094),rotate(-86.462622),translate(-0.500542,-0.498899)" id="radialGradient-14">
            <stop stop-color="#FFFFFF" offset="0%"></stop>
            <stop stop-color="#FFFFFF" stop-opacity="0" offset="100%"></stop>
        </radialGradient>
        <radialGradient cx="50.0278876%" cy="49.8696384%" fx="50.0278876%" fy="49.8696384%" r="65.9544093%" gradientTransform="translate(0.500279,0.498696),scale(1.000000,0.635094),rotate(-86.462622),translate(-0.500279,-0.498696)" id="radialGradient-15">
            <stop stop-color="#FFFFFF" offset="0%"></stop>
            <stop stop-color="#FFFFFF" stop-opacity="0" offset="100%"></stop>
        </radialGradient>
        <radialGradient cx="50.0335794%" cy="49.8736795%" fx="50.0335794%" fy="49.8736795%" r="65.9544093%" gradientTransform="translate(0.500336,0.498737),scale(1.000000,0.635094),rotate(-86.462622),translate(-0.500336,-0.498737)" id="radialGradient-16">
            <stop stop-color="#FFFFFF" offset="0%"></stop>
            <stop stop-color="#FFFFFF" stop-opacity="0" offset="100%"></stop>
        </radialGradient>
        <radialGradient cx="50.0396172%" cy="49.9002755%" fx="50.0396172%" fy="49.9002755%" r="65.9544093%" gradientTransform="translate(0.500396,0.499003),scale(1.000000,0.635076),rotate(-86.462622),translate(-0.500396,-0.499003)" id="radialGradient-17">
            <stop stop-color="#FFFFFF" offset="0%"></stop>
            <stop stop-color="#FFFFFF" stop-opacity="0" offset="100%"></stop>
        </radialGradient>
        <radialGradient cx="50.0448352%" cy="49.8847475%" fx="50.0448352%" fy="49.8847475%" r="65.9544093%" gradientTransform="translate(0.500448,0.498847),scale(1.000000,0.635094),rotate(-86.462622),translate(-0.500448,-0.498847)" id="radialGradient-18">
            <stop stop-color="#FFFFFF" offset="0%"></stop>
            <stop stop-color="#FFFFFF" stop-opacity="0" offset="100%"></stop>
        </radialGradient>
        <radialGradient cx="50.0504439%" cy="49.891317%" fx="50.0504439%" fy="49.891317%" r="65.9544093%" gradientTransform="translate(0.500504,0.498913),scale(1.000000,0.635094),rotate(-86.462622),translate(-0.500504,-0.498913)" id="radialGradient-19">
            <stop stop-color="#FFFFFF" offset="0%"></stop>
            <stop stop-color="#FFFFFF" stop-opacity="0" offset="100%"></stop>
        </radialGradient>
        <radialGradient cx="50.0161583%" cy="49.8767987%" fx="50.0161583%" fy="49.8767987%" r="65.9544093%" gradientTransform="translate(0.500162,0.498768),scale(1.000000,0.635094),rotate(-86.462622),translate(-0.500162,-0.498768)" id="radialGradient-20">
            <stop stop-color="#FFFFFF" offset="0%"></stop>
            <stop stop-color="#FFFFFF" stop-opacity="0" offset="100%"></stop>
        </radialGradient>
        <linearGradient x1="14.1149361%" y1="72.9357785%" x2="98.1261801%" y2="20.9458547%" id="linearGradient-21">
            <stop stop-color="#999999" stop-opacity="0.4" offset="0%"></stop>
            <stop stop-color="#9B9B9B" stop-opacity="0.3762" offset="6.26%"></stop>
            <stop stop-color="#A6A6A6" stop-opacity="0.2054" offset="51.21%"></stop>
            <stop stop-color="#AAAAAA" stop-opacity="0.02" offset="100%"></stop>
        </linearGradient>
        <linearGradient x1="85.8815384%" y1="72.9379614%" x2="1.8669635%" y2="20.9441139%" id="linearGradient-22">
            <stop stop-color="#999999" stop-opacity="0.4" offset="0%"></stop>
            <stop stop-color="#9B9B9B" stop-opacity="0.3762" offset="6.26%"></stop>
            <stop stop-color="#A6A6A6" stop-opacity="0.2054" offset="51.21%"></stop>
            <stop stop-color="#AAAAAA" stop-opacity="0.02" offset="100%"></stop>
        </linearGradient>
        <linearGradient x1="54.6174762%" y1="67.3485176%" x2="45.9630922%" y2="32.784879%" id="linearGradient-23">
            <stop stop-color="#000000" stop-opacity="0" offset="0%"></stop>
            <stop stop-color="#000000" stop-opacity="0.3" offset="100%"></stop>
        </linearGradient>
        <linearGradient x1="55.0973633%" y1="102.916084%" x2="44.4279403%" y2="-3.60809607%" id="linearGradient-24">
            <stop stop-color="#000000" stop-opacity="0" offset="0%"></stop>
            <stop stop-color="#000000" stop-opacity="0.3" offset="100%"></stop>
        </linearGradient>
    </defs>
    <g id="Page-1" stroke="none" stroke-width="1" fill="none" fill-rule="evenodd">
        <g id="Group-final" transform="translate(-0.374608, -233.787785)">
            <g id="Group-new" transform="translate(0.000000, 251.000000)">
                <g id="dart-bird-1" transform="translate(128.905933, 46.907785)" fill-rule="nonzero">
                    <g id="Group" transform="translate(0.000000, 20.420513)">
                        <path d="M485.938676,580.209487 L485.938676,635.159487 C485.938676,635.159487 438.568676,631.369487 432.888676,654.109487 C427.208676,676.849487 468.888676,654.109487 468.888676,654.109487 C468.888676,654.109487 451.838676,686.319487 463.208676,693.899487 C474.578676,701.479487 485.948676,671.159487 491.628676,657.899487 C497.308676,644.639487 506.788676,674.949487 506.788676,674.949487 C506.788676,674.949487 510.578676,686.319487 521.948676,680.629487 C533.318676,674.949487 521.948676,663.579487 521.948676,663.579487 L499.208676,633.259487 L499.208676,578.309487 L485.948676,572.629487 L485.948676,580.209487 L485.938676,580.209487 Z" id="Path" fill="#6A4A35"></path>
                        <path d="M715.208676,580.209487 L715.208676,635.159487 C715.208676,635.159487 762.578676,631.369487 768.258676,654.109487 C773.938676,676.849487 732.258676,654.109487 732.258676,654.109487 C732.258676,654.109487 749.308676,686.319487 737.938676,693.899487 C726.568676,701.479487 715.198676,671.159487 709.518676,657.899487 C703.838676,644.639487 694.358676,674.949487 694.358676,674.949487 C694.358676,674.949487 690.568676,686.319487 679.198676,680.629487 C667.828676,674.949487 679.198676,663.579487 679.198676,663.579487 L701.938676,633.259487 L701.938676,578.309487 L715.198676,572.629487 L715.198676,580.209487 L715.208676,580.209487 Z" id="Path" fill="#6A4A35"></path>
                        <path d="M335.308676,395.469487 C335.308676,395.469487 323.938676,603.889487 621.408676,590.629487 C918.878676,577.369487 869.618676,395.469487 869.618676,395.469487 C869.618676,395.469487 846.888676,43.0494875 604.368676,46.8394875 C361.848676,50.6294875 335.308676,395.469487 335.308676,395.469487 Z" id="Path" fill="#8ADCF6"></path>
                        <path d="M180.888676,333.899487 C180.888676,333.899487 133.518676,311.159487 133.518676,333.899487 C133.518676,356.639487 124.048676,371.789487 180.888676,428.639487 C237.728676,485.489487 288.888676,504.429487 370.358676,504.429487 C370.358676,504.429487 318.608676,424.349487 350.168676,309.969487 C350.168676,309.969487 296.468676,242.959487 296.468676,224.009487 C296.468676,205.059487 271.838676,152.009487 239.628676,157.689487 C207.418676,163.369487 218.788676,222.109487 218.788676,222.109487 C218.788676,222.109487 188.468676,182.319487 169.528676,193.689487 C150.588676,205.059487 142.998676,282.739487 180.888676,333.899487 Z" id="Path" fill="#3FB7EB"></path>
                        <path d="M247.208676,284.629487 C247.208676,284.629487 232.048676,282.739487 222.578676,324.419487 C222.578676,324.419487 218.788676,369.889487 237.738676,383.159487 C256.688676,396.429487 296.478676,356.629487 290.788676,331.999487 C285.098676,307.369487 262.368676,284.629487 247.208676,284.629487 Z" id="Path" fill="#51C6E5"></path>
                        <path d="M995.628676,451.369487 C995.628676,451.369487 880.048676,314.949487 838.368676,294.109487 C796.688676,273.269487 823.208676,474.109487 849.738676,494.949487 C876.268676,515.789487 878.158676,542.319487 938.788676,542.319487 C938.788676,542.319487 948.258676,563.159487 972.898676,553.689487 C997.528676,544.219487 972.898676,485.479487 972.898676,485.479487 C972.898676,485.479487 1022.14868,498.739487 995.628676,451.369487 Z" id="Path" fill="#40B7EC"></path>
                        <path d="M400.678676,396.419487 C400.678676,396.419487 468.888676,477.889487 603.418676,477.889487 C737.948676,477.889487 804.258676,396.419487 804.258676,396.419487 C804.258676,396.419487 836.708676,458.209487 807.218676,541.949487 C807.218676,541.949487 745.518676,589.679487 603.958676,591.159487 C438.568676,592.879487 400.678676,535.129487 400.678676,535.129487 C400.678676,535.129487 362.788676,470.319487 400.678676,396.419487 Z" id="Path" fill="#E0E2E2"></path>
                        <path d="M769.788676,183.059487 C769.788676,183.059487 816.028676,218.939487 817.458676,259.419487 C818.888676,299.899487 792.238676,360.969487 735.038676,371.339487 C677.848676,381.699487 602.368676,348.989487 606.848676,257.659487 C606.848676,257.659487 605.838676,251.749487 627.748676,209.119487 L769.788676,183.059487 Z" id="Path" fill="#40B7ED"></path>
                        <path d="M444.388676,183.059487 C444.388676,183.059487 398.148676,218.939487 396.718676,259.419487 C395.288676,299.899487 421.938676,360.969487 479.138676,371.339487 C536.328676,381.699487 611.808676,348.989487 607.328676,257.659487 C607.328676,257.659487 608.338676,251.749487 586.428676,209.119487 L444.388676,183.059487 Z" id="Path" fill="#40B7ED"></path>
                        <g transform="translate(459.649647, 227.159487)">
                            <path d="M41.1090287,94.46 C29.3290287,94.46 19.8690287,90.49 12.9990287,82.66 C4.12902873,72.55 0.359028726,56.63 2.65902873,38.97 C5.40902873,17.89 23.5590287,1.99 44.8690287,1.99 C49.1190287,1.99 53.3490287,2.63 57.4590287,3.9 L63.6290287,5.8 C79.5090287,10.69 91.1490287,24.31 93.2990287,40.51 C96.0090287,60.95 90.9190287,86.75 51.2590287,93.55 C47.7390287,94.15 44.3290287,94.46 41.1090287,94.46 Z" id="Path" fill="#000000"></path>
                            <path d="M44.8690287,4 C48.8290287,4 52.8590287,4.58 56.8690287,5.82 L63.0390287,7.72 C78.0690287,12.34 89.2490287,25.19 91.3190287,40.78 C93.9390287,60.55 88.8890287,85.08 50.9190287,91.59 C47.4290287,92.19 44.1590287,92.47 41.1090287,92.47 C10.7990287,92.47 1.32902873,64.6 4.63902873,39.24 C7.34902873,18.5 25.1390287,4 44.8690287,4 M44.8790287,0 L44.8790287,4 L44.8790287,0 C44.8790287,0 44.8690287,0 44.8790287,0 C22.5590287,0 3.55902873,16.65 0.679028726,38.72 C-1.70097127,56.95 2.23902873,73.45 11.4990287,83.98 C18.6690287,92.14 28.9090287,96.46 41.1190287,96.46 C44.4490287,96.46 47.9690287,96.14 51.6090287,95.52 C69.8990287,92.38 82.7390287,84.88 89.7790287,73.22 C95.1590287,64.3 97.0190287,53.21 95.2990287,40.25 C93.0490287,23.28 80.8590287,9.01 64.2390287,3.89 L58.0690287,1.99 C53.7490287,0.67 49.3190287,0 44.8790287,0 L44.8790287,0 Z" id="Shape" fill="#00FFC2"></path>
                        </g>
                        <circle id="Oval" fill="#FFFFFF" cx="494.788676" cy="246.739487" r="9.47"></circle>
                        <circle id="Oval" fill="#FFFFFF" cx="503.998676" cy="272.319487" r="14.21"></circle>
                        <g transform="translate(654.538065, 227.159487)">
                            <path d="M54.8006108,94.46 C51.5906108,94.46 48.1706108,94.15 44.6506108,93.55 C4.99061082,86.75 -0.0993891829,60.95 2.61061082,40.51 C4.76061082,24.31 16.4006108,10.69 32.2806108,5.8 L38.4506108,3.9 C42.5606108,2.64 46.7906108,1.99 51.0406108,1.99 C72.3506108,1.99 90.5006108,17.89 93.2506108,38.97 C95.5506108,56.63 91.7906108,72.55 82.9106108,82.66 C76.0406108,90.49 66.5806108,94.46 54.8006108,94.46 C54.8006108,94.46 54.8006108,94.46 54.8006108,94.46 Z" id="Path" fill="#000000"></path>
                            <path d="M51.0306108,4 C70.7606108,4 88.5506108,18.5 91.2606108,39.24 C94.5706108,64.59 85.1106108,92.47 54.7906108,92.47 C51.7306108,92.47 48.4606108,92.19 44.9806108,91.59 C7.01061082,85.08 1.96061082,60.56 4.58061082,40.78 C6.65061082,25.2 17.8306108,12.34 32.8606108,7.72 L39.0306108,5.82 C43.0406108,4.58 47.0806108,4 51.0306108,4 M51.0306108,0 C46.5806108,0 42.1506108,0.67 37.8506108,1.99 L31.6806108,3.89 C15.0606108,9 2.86061082,23.28 0.620610817,40.25 C-1.09938918,53.21 0.760610817,64.3 6.14061082,73.22 C13.1806108,84.88 26.0206108,92.39 44.3106108,95.52 C47.9406108,96.14 51.4706108,96.46 54.8006108,96.46 C67.0106108,96.46 77.2506108,92.14 84.4206108,83.98 C93.6706108,73.44 97.6206108,56.94 95.2406108,38.72 C92.3506108,16.64 73.3506108,0 51.0306108,0 L51.0306108,0 Z" id="Shape" fill="#00FFC2"></path>
                        </g>
                        <circle id="Oval" fill="#FFFFFF" cx="698.308676" cy="246.739487" r="9.47"></circle>
                        <circle id="Oval" fill="#FFFFFF" cx="712.418676" cy="272.319487" r="14.21"></circle>
                        <path d="M605.098676,280.419487 C605.098676,280.419487 567.208676,286.099487 567.208676,322.099487 L612.678676,509.679487 L644.888676,312.629487 C644.888676,312.629487 635.418676,280.419487 605.098676,280.419487 Z" id="Path" fill="#6A4A35"></path>
                    </g>
                </g>
                <g id="dart-bird-copy" transform="translate(728.905933, 46.907785)" fill-rule="nonzero">
                    <g id="Group" transform="translate(0.000000, 20.420513)">
                        <path d="M485.938676,580.209487 L485.938676,635.159487 C485.938676,635.159487 438.568676,631.369487 432.888676,654.109487 C427.208676,676.849487 468.888676,654.109487 468.888676,654.109487 C468.888676,654.109487 451.838676,686.319487 463.208676,693.899487 C474.578676,701.479487 485.948676,671.159487 491.628676,657.899487 C497.308676,644.639487 506.788676,674.949487 506.788676,674.949487 C506.788676,674.949487 510.578676,686.319487 521.948676,680.629487 C533.318676,674.949487 521.948676,663.579487 521.948676,663.579487 L499.208676,633.259487 L499.208676,578.309487 L485.948676,572.629487 L485.948676,580.209487 L485.938676,580.209487 Z" id="Path" fill="#6A4A35"></path>
                        <path d="M715.208676,580.209487 L715.208676,635.159487 C715.208676,635.159487 762.578676,631.369487 768.258676,654.109487 C773.938676,676.849487 732.258676,654.109487 732.258676,654.109487 C732.258676,654.109487 749.308676,686.319487 737.938676,693.899487 C726.568676,701.479487 715.198676,671.159487 709.518676,657.899487 C703.838676,644.639487 694.358676,674.949487 694.358676,674.949487 C694.358676,674.949487 690.568676,686.319487 679.198676,680.629487 C667.828676,674.949487 679.198676,663.579487 679.198676,663.579487 L701.938676,633.259487 L701.938676,578.309487 L715.198676,572.629487 L715.198676,580.209487 L715.208676,580.209487 Z" id="Path" fill="#6A4A35"></path>
                        <path d="M335.308676,395.469487 C335.308676,395.469487 323.938676,603.889487 621.408676,590.629487 C918.878676,577.369487 869.618676,395.469487 869.618676,395.469487 C869.618676,395.469487 846.888676,43.0494875 604.368676,46.8394875 C361.848676,50.6294875 335.308676,395.469487 335.308676,395.469487 Z" id="Path" fill="#8ADCF6"></path>
                        <path d="M995.628676,451.369487 C995.628676,451.369487 880.048676,314.949487 838.368676,294.109487 C796.688676,273.269487 823.208676,474.109487 849.738676,494.949487 C876.268676,515.789487 878.158676,542.319487 938.788676,542.319487 C938.788676,542.319487 948.258676,563.159487 972.898676,553.689487 C997.528676,544.219487 972.898676,485.479487 972.898676,485.479487 C972.898676,485.479487 1022.14868,498.739487 995.628676,451.369487 Z" id="Path" fill="#40B7EC"></path>
                        <path d="M400.678676,396.419487 C400.678676,396.419487 468.888676,477.889487 603.418676,477.889487 C737.948676,477.889487 804.258676,396.419487 804.258676,396.419487 C804.258676,396.419487 836.708676,458.209487 807.218676,541.949487 C807.218676,541.949487 745.518676,589.679487 603.958676,591.159487 C438.568676,592.879487 400.678676,535.129487 400.678676,535.129487 C400.678676,535.129487 362.788676,470.319487 400.678676,396.419487 Z" id="Path" fill="#E0E2E2"></path>
                        <path d="M769.788676,183.059487 C769.788676,183.059487 816.028676,218.939487 817.458676,259.419487 C818.888676,299.899487 792.238676,360.969487 735.038676,371.339487 C677.848676,381.699487 602.368676,348.989487 606.848676,257.659487 C606.848676,257.659487 605.838676,251.749487 627.748676,209.119487 L769.788676,183.059487 Z" id="Path" fill="#40B7ED"></path>
                        <path d="M444.388676,183.059487 C444.388676,183.059487 398.148676,218.939487 396.718676,259.419487 C395.288676,299.899487 421.938676,360.969487 479.138676,371.339487 C536.328676,381.699487 611.808676,348.989487 607.328676,257.659487 C607.328676,257.659487 608.338676,251.749487 586.428676,209.119487 L444.388676,183.059487 Z" id="Path" fill="#40B7ED"></path>
                        <g transform="translate(459.649647, 227.159487)">
                            <path d="M41.1090287,94.46 C29.3290287,94.46 19.8690287,90.49 12.9990287,82.66 C4.12902873,72.55 0.359028726,56.63 2.65902873,38.97 C5.40902873,17.89 23.5590287,1.99 44.8690287,1.99 C49.1190287,1.99 53.3490287,2.63 57.4590287,3.9 L63.6290287,5.8 C79.5090287,10.69 91.1490287,24.31 93.2990287,40.51 C96.0090287,60.95 90.9190287,86.75 51.2590287,93.55 C47.7390287,94.15 44.3290287,94.46 41.1090287,94.46 Z" id="Path" fill="#000000"></path>
                            <path d="M44.8690287,4 C48.8290287,4 52.8590287,4.58 56.8690287,5.82 L63.0390287,7.72 C78.0690287,12.34 89.2490287,25.19 91.3190287,40.78 C93.9390287,60.55 88.8890287,85.08 50.9190287,91.59 C47.4290287,92.19 44.1590287,92.47 41.1090287,92.47 C10.7990287,92.47 1.32902873,64.6 4.63902873,39.24 C7.34902873,18.5 25.1390287,4 44.8690287,4 M44.8790287,0 L44.8790287,4 L44.8790287,0 C44.8790287,0 44.8690287,0 44.8790287,0 C22.5590287,0 3.55902873,16.65 0.679028726,38.72 C-1.70097127,56.95 2.23902873,73.45 11.4990287,83.98 C18.6690287,92.14 28.9090287,96.46 41.1190287,96.46 C44.4490287,96.46 47.9690287,96.14 51.6090287,95.52 C69.8990287,92.38 82.7390287,84.88 89.7790287,73.22 C95.1590287,64.3 97.0190287,53.21 95.2990287,40.25 C93.0490287,23.28 80.8590287,9.01 64.2390287,3.89 L58.0690287,1.99 C53.7490287,0.67 49.3190287,0 44.8790287,0 L44.8790287,0 Z" id="Shape" fill="#00FFC2"></path>
                        </g>
                        <circle id="Oval" fill="#FFFFFF" cx="506.788676" cy="246.739487" r="9.47"></circle>
                        <circle id="Oval" fill="#FFFFFF" cx="520.998676" cy="272.319487" r="14.21"></circle>
                        <g transform="translate(654.538065, 227.159487)">
                            <path d="M54.8006108,94.46 C51.5906108,94.46 48.1706108,94.15 44.6506108,93.55 C4.99061082,86.75 -0.0993891829,60.95 2.61061082,40.51 C4.76061082,24.31 16.4006108,10.69 32.2806108,5.8 L38.4506108,3.9 C42.5606108,2.64 46.7906108,1.99 51.0406108,1.99 C72.3506108,1.99 90.5006108,17.89 93.2506108,38.97 C95.5506108,56.63 91.7906108,72.55 82.9106108,82.66 C76.0406108,90.49 66.5806108,94.46 54.8006108,94.46 C54.8006108,94.46 54.8006108,94.46 54.8006108,94.46 Z" id="Path" fill="#000000"></path>
                            <path d="M51.0306108,4 C70.7606108,4 88.5506108,18.5 91.2606108,39.24 C94.5706108,64.59 85.1106108,92.47 54.7906108,92.47 C51.7306108,92.47 48.4606108,92.19 44.9806108,91.59 C7.01061082,85.08 1.96061082,60.56 4.58061082,40.78 C6.65061082,25.2 17.8306108,12.34 32.8606108,7.72 L39.0306108,5.82 C43.0406108,4.58 47.0806108,4 51.0306108,4 M51.0306108,0 C46.5806108,0 42.1506108,0.67 37.8506108,1.99 L31.6806108,3.89 C15.0606108,9 2.86061082,23.28 0.620610817,40.25 C-1.09938918,53.21 0.760610817,64.3 6.14061082,73.22 C13.1806108,84.88 26.0206108,92.39 44.3106108,95.52 C47.9406108,96.14 51.4706108,96.46 54.8006108,96.46 C67.0106108,96.46 77.2506108,92.14 84.4206108,83.98 C93.6706108,73.44 97.6206108,56.94 95.2406108,38.72 C92.3506108,16.64 73.3506108,0 51.0306108,0 L51.0306108,0 Z" id="Shape" fill="#00FFC2"></path>
                        </g>
                        <circle id="Oval" fill="#FFFFFF" cx="708.308676" cy="246.739487" r="9.47"></circle>
                        <circle id="Oval" fill="#FFFFFF" cx="724.418676" cy="272.319487" r="14.21"></circle>
                        <path d="M602.098676,288.419487 C602.098676,288.419487 564.208676,294.099487 564.208676,330.099487 L609.678676,517.679487 L641.888676,320.629487 C641.888676,320.629487 632.418676,288.419487 602.098676,288.419487 Z" id="Path" fill="#6A4A35"></path>
                    </g>
                    <g id="Group" transform="translate(296.596487, 148.955117)">
                        <path d="M121.722189,0.0648829155 C121.722189,0.0648829155 77.8721886,-4.36511708 94.8621886,59.9848829 C94.8721886,59.9848829 137.682189,44.6648829 121.722189,0.0648829155 Z" id="Path" fill="#C14000"></path>
                        <path d="M70.5621886,127.014883 C70.5621886,127.014883 26.7121886,122.584883 43.7021886,186.934883 C43.7121886,186.934883 86.5221886,171.614883 70.5621886,127.014883 Z" id="Path" fill="#C14000"></path>
                        <path d="M53.5121886,208.484883 C53.5121886,208.484883 9.66218855,204.054883 26.6521886,268.404883 C26.6521886,268.404883 69.4721886,253.084883 53.5121886,208.484883 Z" id="Path" fill="#C14000"></path>
                        <path d="M112.252189,51.2248829 C112.252189,51.2248829 68.4021886,46.7948829 85.3921886,111.144883 C85.3921886,111.144883 128.212189,95.8248829 112.252189,51.2248829 Z" id="Path" fill="#C14000"></path>
                        <path d="M108.462189,26.5948829 C108.462189,26.5948829 64.6121886,22.1648829 81.6021886,86.5148829 C81.6021886,86.5148829 124.422189,71.1948829 108.462189,26.5948829 Z" id="Path" fill="#8C2400"></path>
                        <path d="M91.4121886,108.064883 C91.4121886,108.064883 47.5621886,103.634883 64.5521886,167.984883 C64.5521886,167.984883 107.362189,152.664883 91.4121886,108.064883 Z" id="Path" fill="#8C2400"></path>
                        <path d="M47.8321886,181.954883 C47.8321886,181.954883 3.98218855,177.524883 20.9721886,241.874883 C20.9721886,241.874883 63.7921886,226.554883 47.8321886,181.954883 Z" id="Path" fill="#8C2400"></path>
                        <path d="M125.512189,15.2248829 C125.512189,15.2248829 81.6621886,10.7948829 98.6521886,75.1448829 C98.6521886,75.1448829 141.472189,59.8248829 125.512189,15.2248829 Z" id="Path" fill="#E24500"></path>
                        <path d="M87.6221886,72.0648829 C87.6221886,72.0648829 43.7721886,67.6348829 60.7621886,131.984883 C60.7621886,131.984883 103.582189,116.664883 87.6221886,72.0648829 Z" id="Path" fill="#E24500"></path>
                        <path d="M74.3521886,159.224883 C74.3521886,159.224883 30.5021886,154.794883 47.4921886,219.144883 C47.5021886,219.144883 90.3121886,203.824883 74.3521886,159.224883 Z" id="Path" fill="#E24500"></path>
                        <path d="M30.7721886,229.324883 C30.7721886,229.324883 -13.0778114,224.894883 3.91218855,289.244883 C3.92218855,289.244883 46.7321886,273.924883 30.7721886,229.324883 Z" id="Path" fill="#E24500"></path>
                    </g>
                    <g id="Group" transform="translate(783.548286, 135.695117)">
                        <path d="M7.35038947,0.0648829155 C7.35038947,0.0648829155 51.2003895,-4.36511708 34.2103895,59.9848829 C34.2103895,59.9848829 -8.59961053,44.6648829 7.35038947,0.0648829155 Z" id="Path" fill="#C14000"></path>
                        <path d="M58.5103895,127.004883 C58.5103895,127.004883 102.360389,122.574883 85.3703895,186.924883 C85.3703895,186.924883 42.5503895,171.604883 58.5103895,127.004883 Z" id="Path" fill="#C14000"></path>
                        <path d="M75.5603895,208.484883 C75.5603895,208.484883 119.410389,204.054883 102.420389,268.404883 C102.420389,268.404883 59.6103895,253.084883 75.5603895,208.484883 Z" id="Path" fill="#C14000"></path>
                        <path d="M16.8303895,51.2148829 C16.8303895,51.2148829 60.6803895,46.7848829 43.6903895,111.134883 C43.6803895,111.134883 0.870389465,95.8148829 16.8303895,51.2148829 Z" id="Path" fill="#C14000"></path>
                        <path d="M20.6203895,26.5848829 C20.6203895,26.5848829 64.4703895,22.1548829 47.4803895,86.5048829 C47.4703895,86.5048829 4.66038947,71.1848829 20.6203895,26.5848829 Z" id="Path" fill="#8C2400"></path>
                        <path d="M37.6703895,108.064883 C37.6703895,108.064883 81.5203895,103.634883 64.5303895,167.984883 C64.5303895,167.984883 21.7103895,152.664883 37.6703895,108.064883 Z" id="Path" fill="#8C2400"></path>
                        <path d="M81.2503895,181.954883 C81.2503895,181.954883 125.100389,177.524883 108.110389,241.874883 C108.100389,241.874883 65.2903895,226.554883 81.2503895,181.954883 Z" id="Path" fill="#8C2400"></path>
                        <path d="M3.56038947,15.2148829 C3.56038947,15.2148829 47.4103895,10.7848829 30.4203895,75.1348829 C30.4203895,75.1348829 -12.3896105,59.8148829 3.56038947,15.2148829 Z" id="Path" fill="#E24500"></path>
                        <path d="M41.4603895,72.0648829 C41.4603895,72.0648829 85.3103895,67.6348829 68.3203895,131.984883 C68.3203895,131.984883 25.5003895,116.664883 41.4603895,72.0648829 Z" id="Path" fill="#E24500"></path>
                        <path d="M54.7203895,159.214883 C54.7203895,159.214883 98.5703895,154.784883 81.5803895,219.134883 C81.5803895,219.134883 38.7603895,203.814883 54.7203895,159.214883 Z" id="Path" fill="#E24500"></path>
                        <path d="M98.3003895,229.324883 C98.3003895,229.324883 142.150389,224.894883 125.160389,289.244883 C125.160389,289.244883 82.3403895,273.924883 98.3003895,229.324883 Z" id="Path" fill="#E24500"></path>
                    </g>
                    <g id="Group" transform="translate(362.088676, 0.000000)">
                        <g transform="translate(17.750000, 0.000000)" id="Path">
                            <path d="M5.68,162.95 C5.68,162.95 229.26,308.84 445.26,155.37 C445.26,155.37 447.15,3.79 229.26,3.79 C11.37,3.79 5.68,162.95 5.68,162.95 Z" fill="#998B77"></path>
                            <path d="M5.68,132.63 C5.68,132.63 11.36,0 223.57,0 C435.78,0 449.04,132.63 449.04,132.63 L426.3,147.79 C426.3,147.79 430.09,20.84 225.46,20.84 C20.83,20.84 20.84,142.11 20.84,142.11 L5.68,132.63 Z" fill="#B7B7B7"></path>
                            <path d="M217.89,20.84 C217.89,20.84 202.73,73.89 204.63,206.52 L240.63,206.52 C240.63,206.52 231.16,54.94 250.1,13.26 L217.89,20.84 Z" fill="#B7B7B7"></path>
                            <path d="M0,128.84 C0,128.84 229.26,295.58 452.84,128.84 C452.84,128.84 464.21,149.68 460.42,164.84 C456.63,180 204.63,325.89 0,164.84 L0,128.84 Z" fill="#A0A0A0"></path>
                        </g>
                        <g transform="translate(23.335404, 143.003872)" id="Path">
                            <path d="M13.8345958,11.2761283 C14.1545958,5.2561283 11.3145958,0.206128303 7.50459583,0.00612830286 C3.69459583,-0.193871697 0.344595831,4.5261283 0.0245958306,10.5461283 C-0.295404169,16.5661283 2.54459583,21.6161283 6.35459583,21.8161283 C10.1745958,22.0161283 13.5245958,17.2961283 13.8345958,11.2761283 Z" fill="url(#radialGradient-1)"></path>
                            <path d="M30.8945958,24.5361283 C31.2145958,18.5161283 28.3745958,13.4661283 24.5645958,13.2661283 C20.7545958,13.0661283 17.4045958,17.7861283 17.0845958,23.8061283 C16.7645958,29.8261283 19.6045958,34.8761283 23.4145958,35.0761283 C27.2245958,35.2761283 30.5745958,30.5561283 30.8945958,24.5361283 Z" fill="url(#radialGradient-2)"></path>
                            <path d="M47.9445958,37.8061283 C48.2645958,31.7861283 45.4245958,26.7361283 41.6145958,26.5361283 C37.8045958,26.3361283 34.4545958,31.0561283 34.1345958,37.0761283 C33.8145958,43.0961283 36.6545958,48.1461283 40.4645958,48.3461283 C44.2745958,48.5461283 47.6245958,43.8261283 47.9445958,37.8061283 Z" fill="url(#radialGradient-3)"></path>
                            <path d="M66.8945958,45.3761283 C67.2145958,39.3561283 64.3745958,34.3061283 60.5645958,34.1061283 C56.7545958,33.9061283 53.4045958,38.6261283 53.0845958,44.6461283 C52.7645958,50.6661283 55.6045958,55.7161283 59.4145958,55.9161283 C63.2245958,56.1261283 66.5745958,51.4061283 66.8945958,45.3761283 Z" fill="url(#radialGradient-4)"></path>
                            <path d="M85.8345958,52.9561283 C86.1545958,46.9361283 83.3145958,41.8861283 79.5045958,41.6861283 C75.6945958,41.4861283 72.3445958,46.2061283 72.0245958,52.2261283 C71.7045958,58.2461283 74.5445958,63.2961283 78.3545958,63.4961283 C82.1745958,63.7061283 85.5245958,58.9861283 85.8345958,52.9561283 Z" fill="url(#radialGradient-5)"></path>
                            <path d="M104.784596,60.5361283 C105.104596,54.5161283 102.264596,49.4661283 98.4545958,49.2661283 C94.6445958,49.0661283 91.2945958,53.7861283 90.9745958,59.8061283 C90.6545958,65.8261283 93.4945958,70.8761283 97.3045958,71.0761283 C101.124596,71.2761283 104.464596,66.5561283 104.784596,60.5361283 Z" fill="url(#radialGradient-6)"></path>
                            <path d="M123.734596,68.1161283 C124.054596,62.0961283 121.214596,57.0461283 117.404596,56.8461283 C113.594596,56.6461283 110.244596,61.3661283 109.924596,67.3861283 C109.604596,73.4061283 112.444596,78.4561283 116.254596,78.6561283 C120.064596,78.8561283 123.414596,74.1361283 123.734596,68.1161283 Z" fill="url(#radialGradient-7)"></path>
                            <path d="M148.364596,71.9061283 C148.684596,65.8861283 145.844596,60.8361283 142.034596,60.6361283 C138.224596,60.4361283 134.874596,65.1561283 134.554596,71.1761283 C134.234596,77.1961283 137.074596,82.2461283 140.884596,82.4461283 C144.704596,82.6461283 148.044596,77.9261283 148.364596,71.9061283 Z" fill="url(#radialGradient-8)"></path>
                            <path d="M172.994596,75.6961283 C173.314596,69.6761283 170.474596,64.6261283 166.664596,64.4261283 C162.854596,64.2261283 159.504596,68.9461283 159.184596,74.9661283 C158.864596,80.9861283 161.704596,86.0361283 165.514596,86.2361283 C169.334596,86.4361283 172.674596,81.7161283 172.994596,75.6961283 Z" fill="url(#radialGradient-9)"></path>
                            <path d="M197.624596,79.4861283 C197.944596,73.4661283 195.104596,68.4161283 191.294596,68.2161283 C187.484596,68.0161283 184.134596,72.7361283 183.814596,78.7561283 C183.494596,84.7761283 186.334596,89.8261283 190.144596,90.0261283 C193.964596,90.2261283 197.314596,85.5061283 197.624596,79.4861283 Z" fill="url(#radialGradient-10)"></path>
                            <path d="M222.254596,81.3761283 C222.574596,75.3561283 219.734596,70.3061283 215.924596,70.1061283 C212.114596,69.9061283 208.764596,74.6261283 208.444596,80.6461283 C208.124596,86.6661283 210.964596,91.7161283 214.774596,91.9161283 C218.594596,92.1261283 221.944596,87.4061283 222.254596,81.3761283 Z" fill="url(#radialGradient-11)"></path>
                            <path d="M246.894596,79.4861283 C247.214596,73.4661283 244.374596,68.4161283 240.564596,68.2161283 C236.754596,68.0161283 233.404596,72.7361283 233.084596,78.7561283 C232.764596,84.7761283 235.604596,89.8261283 239.414596,90.0261283 C243.224596,90.2261283 246.574596,85.5061283 246.894596,79.4861283 Z" fill="url(#radialGradient-12)"></path>
                            <path d="M271.524596,77.5861283 C271.844596,71.5661283 269.004596,66.5161283 265.194596,66.3161283 C261.384596,66.1161283 258.034596,70.8361283 257.714596,76.8561283 C257.394596,82.8761283 260.234596,87.9261283 264.044596,88.1261283 C267.854596,88.3361283 271.204596,83.6161283 271.524596,77.5861283 Z" fill="url(#radialGradient-13)"></path>
                            <path d="M296.154596,75.6961283 C296.474596,69.6761283 293.634596,64.6261283 289.824596,64.4261283 C286.014596,64.2261283 282.664596,68.9461283 282.344596,74.9661283 C282.024596,80.9861283 284.864596,86.0361283 288.674596,86.2361283 C292.484596,86.4361283 295.834596,81.7161283 296.154596,75.6961283 Z" fill="url(#radialGradient-14)"></path>
                            <path d="M318.894596,70.0161283 C319.214596,63.9961283 316.374596,58.9461283 312.564596,58.7461283 C308.754596,58.5461283 305.404596,63.2661283 305.084596,69.2861283 C304.764596,75.3061283 307.604596,80.3561283 311.414596,80.5561283 C315.224596,80.7561283 318.574596,76.0361283 318.894596,70.0161283 Z" fill="url(#radialGradient-15)"></path>
                            <path d="M343.524596,62.4361283 C343.844596,56.4161283 341.004596,51.3661283 337.194596,51.1661283 C333.384596,50.9661283 330.034596,55.6861283 329.714596,61.7061283 C329.394596,67.7261283 332.234596,72.7761283 336.044596,72.9761283 C339.854596,73.1761283 343.204596,68.4561283 343.524596,62.4361283 Z" fill="url(#radialGradient-16)"></path>
                            <path d="M368.154596,52.9561283 C368.474596,46.9361283 365.634596,41.8861283 361.824596,41.6861283 C358.014596,41.4861283 354.664596,46.2061283 354.344596,52.2261283 C354.024596,58.2461283 356.864596,63.2961283 360.674596,63.4961283 C364.484596,63.7061283 367.834596,58.9861283 368.154596,52.9561283 Z" fill="url(#radialGradient-17)"></path>
                            <path d="M392.784596,43.4861283 C393.104596,37.4661283 390.264596,32.4161283 386.454596,32.2161283 C382.644596,32.0161283 379.294596,36.7361283 378.974596,42.7561283 C378.654596,48.7761283 381.494596,53.8261283 385.304596,54.0261283 C389.124596,54.2261283 392.464596,49.5061283 392.784596,43.4861283 Z" fill="url(#radialGradient-18)"></path>
                            <path d="M417.414596,32.1161283 C417.734596,26.0961283 414.894596,21.0461283 411.084596,20.8461283 C407.274596,20.6461283 403.924596,25.3661283 403.604596,31.3861283 C403.284596,37.4061283 406.124596,42.4561283 409.934596,42.6561283 C413.754596,42.8561283 417.094596,38.1361283 417.414596,32.1161283 Z" fill="url(#radialGradient-19)"></path>
                            <path d="M443.944596,18.8561283 C444.264596,12.8361283 441.424596,7.7861283 437.614596,7.5861283 C433.804596,7.3861283 430.454596,12.1061283 430.134596,18.1261283 C429.814596,24.1461283 432.654596,29.1961283 436.464596,29.3961283 C440.274596,29.5961283 443.624596,24.8761283 443.944596,18.8561283 Z" fill="url(#radialGradient-20)"></path>
                        </g>
                        <g transform="translate(0.000000, 9.470000)" id="Path">
                            <path d="M421.33,98.53 C421.33,98.53 476.28,79.58 489.54,3.79 C489.54,3.79 436.49,43.58 387.22,47.37 C387.22,47.37 364.49,85.27 421.33,98.53 Z" fill="#FFE7B3"></path>
                            <path d="M421.33,98.53 C421.33,98.53 476.28,79.58 489.54,3.79 C489.54,3.79 436.49,43.58 387.22,47.37 C387.22,47.37 364.49,85.27 421.33,98.53 Z" fill="url(#linearGradient-21)"></path>
                            <path d="M68.21,94.74 C68.21,94.74 13.26,75.79 0,0 C0,0 53.05,39.79 102.32,43.58 C102.31,43.58 125.05,81.48 68.21,94.74 Z" fill="#FFE7B3"></path>
                            <path d="M68.21,94.74 C68.21,94.74 13.26,75.79 0,0 C0,0 53.05,39.79 102.32,43.58 C102.31,43.58 125.05,81.48 68.21,94.74 Z" fill="url(#linearGradient-22)"></path>
                            <path d="M382.65,47.86 C382.65,47.86 365.06,86.44 414.89,100.21 C414.89,100.21 429.54,102.97 417.82,97.45 C406.1,91.93 382.65,83.67 385.58,50.61 C385.58,50.61 388.52,36.84 382.65,47.86 Z" fill="#A0A0A0"></path>
                            <path d="M104.83,44.07 C104.83,44.07 122.42,82.65 72.59,96.42 C72.59,96.42 57.94,99.18 69.66,93.66 C81.38,88.15 104.83,79.88 101.9,46.82 C101.9,46.82 98.97,33.05 104.83,44.07 Z" fill="#A0A0A0"></path>
                        </g>
                    </g>
                </g>
                <g id="horn-1" transform="translate(0.374608, 0.787785)" fill-rule="nonzero">
                    <g id="Group">
                        <path d="M51.8500251,47.1176949 C60.0538495,61.7774199 72.1775749,81.9694511 88.5408308,105.645771 C134.967019,177.747503 229.084596,297.467852 383.066119,383.098909 C378.591306,391.0516 376.53591,400.87499 375.599218,408.207069 C275.120126,394.881658 135.304406,365.047987 46.6471667,298.68691 C34.2482048,264.247417 11.4967977,173.86425 51.8500251,47.1176949 Z" id="Path" fill="#055799"></path>
                        <path d="M392.490751,409.851689 C393.31646,402.29353 396.80131,394.912688 399.673536,389.916768 C417.435171,398.405843 435.969244,406.491522 455.306831,414.071845 C454.898415,414.568334 454.543271,415.073689 454.214763,415.579044 C436.701729,414.297925 415.730481,412.462689 392.490751,409.851689 Z" id="Path" fill="#055799"></path>
                        <path d="M377.7434,408.348923 C377.818868,407.55986 377.912093,406.69987 378.027515,405.795551 C378.742242,400.187884 380.313754,392.682921 383.732014,386.605363 C384.335758,385.532592 384.988335,384.504151 385.711941,383.53777 C393.542864,373.111501 396.441727,377.45578 392.082335,382.620152 C391.509666,383.298392 390.950314,383.967765 390.493066,384.725798 C389.920397,385.674446 389.07249,387.155048 388.135798,389.008015 C385.938345,393.365593 383.274766,399.802219 382.644386,406.389564 C382.520085,407.701714 382.471253,409.018296 382.524524,410.330446 C382.599993,412.094755 382.99509,413.8369 383.647667,415.477087 C384.384591,417.325622 385.099318,419.927756 382.440178,418.260971 C379.115143,416.173058 377.370498,412.26764 377.7434,408.348923 Z" id="Path" fill="#07C6F9"></path>
                        <path d="M385.090439,410.228488 C385.165907,409.514785 385.259133,408.739021 385.374554,407.923361 C386.089282,402.860946 387.660793,396.078551 391.079054,390.586141 C391.682798,389.619761 392.335375,388.684411 393.058981,387.815555 C400.889904,378.399996 403.788766,382.323145 399.429375,386.986596 C398.856705,387.598341 398.297354,388.205654 397.840106,388.888326 C397.267436,389.743883 396.41953,391.08263 395.482838,392.753848 C393.285385,396.690297 390.621806,402.501878 389.991425,408.455313 C389.867125,409.638908 389.818293,410.831368 389.871564,412.014962 C389.947032,413.61082 390.34213,415.184513 390.994707,416.665114 C391.73163,418.336331 392.446358,420.685788 389.787218,419.183022 C386.457743,417.294591 384.713099,413.765973 385.090439,410.228488 Z" id="Path" fill="#07C6F9"></path>
                        <path d="M24.1044067,0 C24.1044067,0 28.414966,9.94751221 37.3912285,26.8724684 C-2.9619989,160.671827 19.7894082,256.081945 32.1883701,292.436468 C29.4493227,290.273194 26.7413503,288.07889 24.1044067,285.840256 C24.1044067,285.840256 -30.1305084,175.31382 24.1044067,0 Z" id="Path" fill="#055799"></path>
                    </g>
                </g>
                <g id="horn-copy" transform="translate(1603.374608, 106.787785)">
                    <g id="Group">
                        <path d="M423.150944,47.118184 C414.947273,61.7780612 402.823774,81.9703021 386.460824,105.646868 C340.035504,177.749349 245.919686,297.47094 91.9410411,383.102887 C96.4157708,391.05566 98.4711278,400.879151 99.4078023,408.211307 C199.885016,394.885757 339.698123,365.051777 428.353705,298.690011 C440.752435,264.25016 463.503417,173.866055 423.150944,47.118184 Z" id="Path" fill="#07C6F9" fill-rule="nonzero"></path>
                        <path d="M82.5165856,409.855944 C81.6908914,402.297706 78.2061069,394.916788 75.3339342,389.920816 C57.5726311,398.40998 39.0389045,406.495742 19.7016797,414.076144 C20.1100876,414.572638 20.4652249,415.077998 20.7937269,415.583358 C38.3064338,414.302226 59.27729,412.466971 82.5165856,409.855944 Z" id="Path" fill="#07C6F9" fill-rule="nonzero"></path>
                        <g transform="translate(0.000000, 407.442692)"></g>
                        <path d="M97.263661,408.353162 C97.1881944,407.564091 97.0949708,406.704092 96.9795512,405.799763 C96.2648374,400.192039 94.693355,392.686998 91.2751587,386.609377 C90.6714253,385.536595 90.0188606,384.508143 89.2952684,383.541752 C81.4644914,373.115374 78.5656834,377.459698 82.9249935,382.624124 C83.4976523,383.302371 84.0569935,383.971752 84.5142328,384.729792 C85.0868916,385.67845 85.9347819,387.159067 86.8714565,389.012054 C89.0688684,393.369677 91.7323979,399.806369 92.3627666,406.393783 C92.4870647,407.705946 92.535896,409.022543 92.4826254,410.334706 C92.4071588,412.099033 92.0120685,413.841196 91.3595038,415.4814 C90.622594,417.329954 89.9078802,419.932116 92.5669705,418.265314 C95.8919433,416.177378 97.6365552,412.27192 97.263661,408.353162 Z" id="Path" fill="#055799" fill-rule="nonzero"></path>
                        <path d="M89.9167586,410.232747 C89.8412919,409.519037 89.7480684,408.743265 89.6326488,407.927596 C88.917935,402.865128 87.3464526,396.082663 83.9282563,390.590196 C83.3245229,389.623806 82.6719582,388.688446 81.948366,387.819581 C74.117589,378.403924 71.218781,382.327115 75.5780911,386.990613 C76.1507499,387.602365 76.7100911,388.209684 77.1673304,388.892363 C77.7399892,389.747929 78.5878795,391.08669 79.524554,392.757925 C81.7219659,396.694415 84.3854955,402.506056 85.0158642,408.459554 C85.1401622,409.64316 85.1889936,410.835633 85.135723,412.01924 C85.0602564,413.615114 84.6651661,415.188823 84.0126014,416.66944 C83.2756915,418.340674 82.5609778,420.690156 85.2200681,419.187374 C88.5494801,417.298923 90.294092,413.770268 89.9167586,410.232747 Z" id="Path" fill="#055799" fill-rule="nonzero"></path>
                        <path d="M450.896044,0 C450.896044,0 446.585565,9.94761548 437.60947,26.8727474 C477.961944,160.673495 455.210962,256.084604 442.812232,292.439504 C445.551228,290.276207 448.25915,288.081881 450.896044,285.843224 C450.896044,285.843224 505.129945,175.31564 450.896044,0 Z" id="Path" fill="#07C6F9" fill-rule="nonzero"></path>
                    </g>
                </g>
            </g>
            <g id="helmet-1" transform="translate(719.854483, 591.755292) rotate(49.000000) translate(-719.854483, -591.755292) translate(296.374608, 177.787785)" fill-rule="nonzero">
                <g id="Group" transform="translate(0.000000, 0.000000)">
                    <path d="M300.659748,13.7350141 C300.659748,13.7350141 420.959748,38.6350141 400.459748,113.835014 C400.459748,113.835014 460.659748,97.0350141 499.659748,104.435014 C499.659748,104.435014 511.459748,-45.1649859 300.659748,13.7350141 Z" id="Path" fill="#F9CB7A"></path>
                    <path d="M3.25974819,352.735014 C3.25974819,352.735014 47.0597482,464.835014 120.059748,433.435014 C120.059748,433.435014 112.359748,494.135014 125.859748,530.535014 C125.859748,530.535014 -23.7402518,565.035014 3.25974819,352.735014 Z" id="Path" fill="#F9CB7A"></path>
                    <path d="M127.659748,431.335014 C127.659748,431.335014 124.359748,428.635014 120.159748,433.435014 C115.959748,438.235014 116.059748,522.335014 129.259748,533.235014 C142.459748,544.135014 142.359759,544.235014 142.359759,544.235014 C142.359759,544.235014 118.959748,499.635014 127.659748,431.335014 Z" id="Path" fill="#999999"></path>
                    <path d="M194.959748,529.535014 C194.959748,529.535014 157.659748,565.535014 138.959748,541.535014 C120.259748,517.535014 119.059748,441.035014 127.559748,431.335014 C136.059748,421.635014 156.359748,405.035014 156.359748,405.035014 C156.359748,405.035014 164.159748,486.935014 194.959748,529.535014 Z" id="Path" fill="#4C4C4C"></path>
                    <path d="M194.959748,529.535014 C194.959748,529.535014 205.759748,530.135014 207.659748,515.035014 C207.659748,515.035014 159.059748,440.835014 164.859748,395.335014 C164.859748,395.335014 158.259748,389.835014 153.059748,402.235014 C153.159748,402.335014 151.959748,468.435014 194.959748,529.535014 Z" id="Path" fill="#999999"></path>
                    <path d="M179.759748,307.135014 C179.759748,307.135014 127.659748,431.335014 216.659748,530.835014 C216.659748,530.835014 217.259748,497.735014 278.259748,389.335014 L179.759748,307.135014 Z" id="Path" fill="#4C4C4C"></path>
                    <path d="M297.559748,380.235014 C297.559748,380.235014 206.759748,522.535014 218.359748,574.235014 C218.359748,574.235014 218.759748,599.735014 238.059748,590.635014 L253.159748,586.435014 C253.159748,586.435014 277.459748,480.935014 328.459748,422.835014 L379.059748,481.835014 L451.059748,458.035014 L463.759748,443.535014 L197.959748,221.635014 C197.959748,221.635014 161.659748,250.035014 185.959748,287.135014 L297.559748,380.235014 Z" id="Path" fill="#4C4C4C"></path>
                    <path d="M218.359748,574.235014 C218.359748,574.235014 181.259748,551.635014 278.259748,389.335014 L179.759748,307.135014 C179.759748,307.135014 177.459748,296.835014 185.959748,287.135014 L297.559748,380.235014 C297.559748,380.235014 211.959748,510.135014 218.359748,574.235014 Z" id="Path" fill="#999999"></path>
                    <path d="M300.659748,13.7350141 C300.659748,13.7350141 420.959748,38.6350141 400.459748,113.835014 C400.459748,113.835014 460.659748,97.0350141 499.659748,104.435014 C499.659748,104.435014 511.459748,-45.1649859 300.659748,13.7350141 Z" id="Path" fill="url(#linearGradient-23)"></path>
                    <path d="M3.25974819,352.735014 C3.25974819,352.735014 47.0597482,464.835014 120.059748,433.435014 C120.059748,433.435014 112.359748,494.135014 125.859748,530.535014 C125.859748,530.535014 -23.7402518,565.035014 3.25974819,352.735014 Z" id="Path" fill="url(#linearGradient-24)"></path>
                    <path d="M399.459748,121.435014 C399.459748,121.435014 396.159748,118.735014 400.459748,113.835014 C404.659748,109.035014 489.859748,96.1350141 502.959748,107.135014 C516.059748,118.135014 516.059748,118.135014 516.059748,118.135014 C516.059748,118.135014 467.259748,102.535014 399.459748,121.435014 Z" id="Path" fill="#999999"></path>
                    <path d="M509.359748,171.135014 C509.359748,171.135014 540.059748,129.635014 512.859748,115.335014 C485.659748,101.035014 408.059748,111.735014 399.559748,121.435014 C391.059748,131.135014 377.359748,153.235014 377.359748,153.235014 C377.359748,153.235014 461.459748,148.035014 509.359748,171.135014 Z" id="Path" fill="#4C4C4C"></path>
                    <path d="M509.359748,171.135014 C509.359748,171.135014 511.659748,181.435014 496.659748,185.635014 C496.659748,185.635014 414.059748,150.235014 368.859748,162.835014 C368.859748,162.835014 362.259748,157.335014 374.059748,150.435014 C373.959748,150.435014 440.759748,139.135014 509.359748,171.135014 Z" id="Path" fill="#999999"></path>
                    <path d="M281.759748,190.835014 C281.759748,190.835014 399.559748,121.335014 514.059748,191.735014 C514.059748,191.735014 480.659748,197.435014 380.259748,272.935014 L281.759748,190.835014 Z" id="Path" fill="#4C4C4C"></path>
                    <path d="M373.959748,293.035014 C373.959748,293.035014 504.059748,183.535014 558.159748,186.735014 C558.159748,186.735014 584.059748,183.135014 577.859748,203.135014 L575.959748,218.335014 C575.959748,218.335014 472.859748,258.135014 421.859748,316.235014 L489.459748,355.835014 L476.559748,428.935014 L463.859748,443.435014 L197.959748,221.635014 C197.959748,221.635014 221.159748,182.235014 262.459748,199.935014 L373.959748,293.035014 Z" id="Path" fill="#4C4C4C"></path>
                    <path d="M558.159748,186.835014 C558.159748,186.835014 529.559748,154.635014 380.159748,273.135014 L281.659748,190.935014 C281.659748,190.935014 270.859748,190.335014 262.359748,199.935014 L373.959748,293.035014 C373.959748,293.035014 492.359748,190.535014 558.159748,186.835014 Z" id="Path" fill="#999999"></path>
                </g>
            </g>
        </g>
    </g>
</svg>