
<svg width="9526px" height="2370px" viewBox="0 0 9526 2370" version="1.1" xmlns="http://www.w3.org/2000/svg" xmlns:xlink="http://www.w3.org/1999/xlink">
    <g id="Page-1" stroke="none" stroke-width="1" fill="none" fill-rule="evenodd">
        <g id="bouvet" fill="#000000" fill-rule="nonzero">
            <g id="Group" transform="translate(4763.000000, 1184.750000) scale(-1, 1) rotate(-180.000000) translate(-4763.000000, -1184.750000) ">
                <path d="M0,1217.5 L0,65.5 L161.5,65.5 L323,65.5 L323,142.6 L323,219.6 L326.3,216.8 C362.4,186.1 387.5,167.3 419,147.3 C507.2,91.5 607,55.5 710.8,42 C761.5,35.5 828.1,34.7 882.5,40.1 C1090.9,60.6 1278.1,165 1403.4,330.5 C1492.4,448 1546.8,589.1 1561.9,741.5 C1565.3,775.7 1566.2,794.4 1566.2,832 C1566.3,902.2 1559.7,963.1 1544.9,1028.3 C1497.7,1238.2 1369.1,1419 1193,1523.2 C1092.7,1582.5 990.6,1615 869,1626.2 C841.1,1628.7 759.6,1628.8 733.5,1626.2 C643.3,1617.3 564.8,1595.2 486.5,1556.5 C428.9,1528.1 377.7,1493.5 330.5,1451.3 C322.8,1444.4 316.4,1438.8 316.3,1438.9 C316.1,1439.1 313,2268.4 313,2328.3 L313,2369.5 L156.5,2369.5 L0,2369.5 L0,1217.5 Z M809.5,1331.5 C950.3,1321.1 1071.5,1250.5 1150,1133.3 C1200,1058.5 1228.4,973.3 1236,875 C1238.3,844.7 1237.2,795.7 1233.4,763 C1211.8,577.1 1101.8,425.6 943.5,363.6 C892.1,343.5 843.8,334 786.5,332.8 C747.5,332 721.2,334.2 685,341.5 C605.3,357.5 535.5,393.1 473.7,449.2 C433.5,485.7 397.4,534.4 371.5,587 C341.2,648.6 324.8,709.3 317.8,785 C315.9,805.9 316.2,863.6 318.3,885.5 C326.5,968.4 348.5,1040 385.6,1104.7 C462.6,1238.9 595.2,1322.1 747.5,1331.8 C759.9,1332.6 796.8,1332.4 809.5,1331.5 Z" id="Shape"></path>
                <path d="M8742,1981 L8742,1592.5 L8635,1592.5 L8528,1592.5 L8528,1452.5 L8528,1312.5 L8635,1312.5 L8742,1312.5 L8742,689 L8742,65.5 L8902,65.5 L9062.1,65.5 L9061.5,220.3 C9060.6,458.6 9059,1082.7 9059,1204 L9059,1312.5 L9292.5,1312.5 L9526,1312.5 L9526,1452.5 L9526,1592.5 L9292.6,1592.5 L9059.2,1592.5 L9058.6,1606.8 C9058.3,1614.6 9057.6,1752.9 9057,1914 C9056.5,2075.2 9055.7,2243.6 9055.3,2288.3 L9054.7,2369.5 L8898.3,2369.5 L8742,2369.5 L8742,1981 Z" id="Path"></path>
                <path d="M2497.5,1627.5 C2355,1617.8 2226.3,1575 2111,1499 C1927.7,1378.2 1803.2,1182 1772.1,965 C1759.4,876.7 1761.4,791.5 1778,707.5 C1810.1,545.6 1895.9,376.7 2015.6,240 C2033.7,219.3 2071.3,181 2091,163.1 C2162.8,98 2237.5,50.9 2311.7,24 C2369.4,3 2432.4,-4.8 2478.5,3.1 C2527.1,11.4 2573.8,36.1 2606.8,70.9 C2617.6,82.3 2625.5,92.7 2637.9,111.3 C2705.8,213.5 2776.1,293.7 2853.8,357.7 C2918.3,410.9 2998.8,459.6 3086.5,498.4 C3164.5,533 3208.4,560.3 3243,596.1 C3288,642.6 3309.3,696.6 3317.7,785.5 C3319.9,809.1 3320.2,896.4 3318.2,920 C3308.8,1029.4 3283.4,1121.2 3237.5,1212 C3208.2,1269.9 3177.8,1315.6 3135.1,1365.5 C3120.6,1382.5 3086.8,1416.9 3068.6,1433.2 C2976.4,1515.7 2865.7,1574.3 2745,1604.5 C2700.5,1615.6 2661.5,1622 2609.5,1626.6 C2593.8,1627.9 2514.2,1628.6 2497.5,1627.5 Z M2589.5,1271 C2659.3,1263.4 2725,1241.6 2783,1206.7 C2850.8,1165.9 2909.6,1105.9 2949.1,1037.2 C2974.6,992.9 2994,939.5 3003.4,888.4 C3011.6,843.8 3013.3,785.6 3007.5,751.5 C2999.4,704.4 2977.1,669.8 2932.5,635 C2922.2,626.9 2904.3,614.9 2873.8,595.6 C2756.7,521.4 2690.1,452.7 2640.7,355 C2630.1,334.2 2624.3,325.7 2612.1,313.4 C2586.9,288.3 2557.7,276.5 2520.3,276.5 C2414.5,276.5 2292.8,348.4 2198.8,466.5 C2116.7,569.7 2070,689.8 2070,797.5 C2070,929.1 2119.1,1051.7 2206.8,1139.2 C2283.5,1215.7 2388.2,1263 2499.5,1271.5 C2507.2,1272.1 2515.5,1272.7 2518,1272.9 C2527.9,1273.8 2576.3,1272.5 2589.5,1271 Z" id="Shape"></path>
                <path d="M7625,1618.9 C7623.1,1618.7 7614.8,1618.1 7606.5,1617.5 C7575.4,1615.2 7521.1,1607 7483.1,1598.9 C7277,1554.9 7121,1445.4 7016.8,1271.5 C6924.6,1117.7 6883.1,926.8 6901.6,742 C6912,637.9 6930.8,557.4 6962.7,480.6 C7054.7,258.9 7252.7,95.1 7489.6,44.6 C7550.4,31.6 7611.1,26.7 7698.1,27.8 C7775.4,28.7 7834.5,35.5 7903,51.1 C8043.6,83.2 8178,152 8281.5,244.7 C8303.9,264.8 8337.7,299.8 8355.8,321.6 C8357,323.1 8345.8,334.3 8254.8,423.1 C8198.5,477.9 8150,525.2 8147,528.2 L8141.4,533.5 L8110.5,502.7 C8045.6,438.2 8012.3,412.9 7955.5,385 C7885.4,350.5 7810.6,332.4 7717.5,327.4 C7688.4,325.9 7626.6,326.7 7607.5,329 C7526.1,338.4 7452.5,365.5 7393.1,407.9 C7311.2,466.2 7257.3,551.1 7228.6,666.8 C7223.7,686.3 7216,723.9 7216,728 C7216,729.3 7287,729.5 7805.8,729.7 L8395.5,730 L8396.7,743 C8401.2,793.5 8401.1,856.9 8396.4,910.5 C8383.4,1058.8 8335.6,1202.5 8262.5,1313 C8207,1396.8 8136.8,1463.8 8049.5,1516.2 C7967,1565.8 7868.9,1599.8 7770.3,1613 C7733.1,1618 7721.9,1618.7 7674,1619 C7649,1619.2 7626.9,1619.1 7625,1618.9 Z M7704,1339.1 C7799.7,1327.7 7883,1288 7949.2,1222.1 C8003.1,1168.5 8040,1103.5 8058.4,1030 C8062.3,1014.7 8067,988.9 8066.2,988 C8065.5,987.3 7223.5,987.3 7222.8,988 C7222.5,988.4 7223.7,995.8 7225.6,1004.5 C7250.5,1123.8 7312.6,1218.8 7402.7,1275.8 C7463.2,1314 7529.3,1334.4 7613.5,1340.9 C7626.6,1341.9 7691.1,1340.6 7704,1339.1 Z" id="Shape"></path>
                <path d="M3551.3,1152.8 C3551.6,824.3 3551.9,709.6 3552.8,699.5 C3557.4,648 3561.6,616.4 3569,579.5 C3591.7,466 3633.5,369.5 3695.7,287 C3737.2,231.9 3784.2,187.6 3842,149 C3868.7,131.2 3884,122.4 3914.2,107.5 C3999.5,65.3 4093.4,41.7 4205.5,34.4 C4228.7,32.9 4294.3,32.9 4317.5,34.4 C4429.6,41.7 4523.5,65.3 4608.8,107.5 C4639,122.4 4654.3,131.2 4681,149 C4738.8,187.6 4785.8,231.9 4827.3,287 C4913.9,401.9 4961.7,545.5 4971,718.5 C4971.6,730.2 4972,893.9 4972,1164.8 L4972,1592.5 L4811,1592.5 L4650,1592.5 L4650,1183.8 C4650,928.8 4649.6,766.5 4649,752.5 C4642.2,599.7 4596.1,485.5 4511.5,412.6 C4452,361.3 4374.3,333.2 4282,329.6 C4173,325.4 4080.9,353.5 4012,412 C3999.5,422.6 3976.8,446.4 3966.6,459.5 C3915.5,525.2 3885.6,610.7 3876,718.5 C3873.3,749.5 3873,787.3 3873,1182.8 L3873,1592.5 L3712,1592.5 L3551,1592.5 L3551.3,1152.8 Z" id="Path"></path>
                <path d="M5189.5,1584.3 C5191.4,1579.7 5336.5,1236.3 5511.9,821 L5830.8,66 L5995.6,66 L6160.4,66 L6482.2,827.5 C6659.2,1246.3 6804.2,1589.8 6804.6,1590.8 C6805.1,1592.4 6796.8,1592.5 6638.8,1592.5 L6472.5,1592.5 L6242.6,1002.5 C6116.1,678.1 6012.4,412.8 6012.1,413 C6011.8,413.2 5907.3,678.6 5780,1002.9 L5548.5,1592.5 L5367.3,1592.5 L5186.1,1592.5 L5189.5,1584.3 Z" id="Path"></path>
            </g>
        </g>
    </g>
</svg>