<svg height="2370" viewBox="0 0 9526 2370" width="9526" xmlns="http://www.w3.org/2000/svg"><g transform="matrix(1 0 0 -1 0 2369.5)"><path d="m0 1217.5v-1152h161.5 161.5v77.1 77l3.3-2.8c36.1-30.7 61.2-49.5 92.7-69.5 88.2-55.8 188-91.8 291.8-105.3 50.7-6.5 117.3-7.3 171.7-1.9 208.4 20.5 395.6 124.9 520.9 290.4 89 117.5 143.4 258.6 158.5 411 3.4 34.2 4.3 52.9 4.3 90.5.1 70.2-6.5 131.1-21.3 196.3-47.2 209.9-175.8 390.7-351.9 494.9-100.3 59.3-202.4 91.8-324 103-27.9 2.5-109.4 2.6-135.5 0-90.2-8.9-168.7-31-247-69.7-57.6-28.4-108.8-63-156-105.2-7.7-6.9-14.1-12.5-14.2-12.4-.2.2-3.3 829.5-3.3 889.4v41.2h-156.5-156.5zm809.5 114c140.8-10.4 262-81 340.5-198.2 50-74.8 78.4-160 86-258.3 2.3-30.3 1.2-79.3-2.6-112-21.6-185.9-131.6-337.4-289.9-399.4-51.4-20.1-99.7-29.6-157-30.8-39-.8-65.3 1.4-101.5 8.7-79.7 16-149.5 51.6-211.3 107.7-40.2 36.5-76.3 85.2-102.2 137.8-30.3 61.6-46.7 122.3-53.7 198-1.9 20.9-1.6 78.6.5 100.5 8.2 82.9 30.2 154.5 67.3 219.2 77 134.2 209.6 217.4 361.9 227.1 12.4.8 49.3.6 62-.3z"/><path d="m8742 1981v-388.5h-107-107v-140-140h107 107v-623.5-623.5h160 160.1l-.6 154.8c-.9 238.3-2.5 862.4-2.5 983.7v108.5h233.5 233.5v140 140h-233.4-233.4l-.6 14.3c-.3 7.8-1 146.1-1.6 307.2-.5 161.2-1.3 329.6-1.7 374.3l-.6 81.2h-156.4-156.3z"/><path d="m2497.5 1627.5c-142.5-9.7-271.2-52.5-386.5-128.5-183.3-120.8-307.8-317-338.9-534-12.7-88.3-10.7-173.5 5.9-257.5 32.1-161.9 117.9-330.8 237.6-467.5 18.1-20.7 55.7-59 75.4-76.9 71.8-65.1 146.5-112.2 220.7-139.1 57.7-21 120.7-28.8 166.8-20.9 48.6 8.3 95.3 33 128.3 67.8 10.8 11.4 18.7 21.8 31.1 40.4 67.9 102.2 138.2 182.4 215.9 246.4 64.5 53.2 145 101.9 232.7 140.7 78 34.6 121.9 61.9 156.5 97.7 45 46.5 66.3 100.5 74.7 189.4 2.2 23.6 2.5 110.9.5 134.5-9.4 109.4-34.8 201.2-80.7 292-29.3 57.9-59.7 103.6-102.4 153.5-14.5 17-48.3 51.4-66.5 67.7-92.2 82.5-202.9 141.1-323.6 171.3-44.5 11.1-83.5 17.5-135.5 22.1-15.7 1.3-95.3 2-112 .9zm92-356.5c69.8-7.6 135.5-29.4 193.5-64.3 67.8-40.8 126.6-100.8 166.1-169.5 25.5-44.3 44.9-97.7 54.3-148.8 8.2-44.6 9.9-102.8 4.1-136.9-8.1-47.1-30.4-81.7-75-116.5-10.3-8.1-28.2-20.1-58.7-39.4-117.1-74.2-183.7-142.9-233.1-240.6-10.6-20.8-16.4-29.3-28.6-41.6-25.2-25.1-54.4-36.9-91.8-36.9-105.8 0-227.5 71.9-321.5 190-82.1 103.2-128.8 223.3-128.8 331 0 131.6 49.1 254.2 136.8 341.7 76.7 76.5 181.4 123.8 292.7 132.3 7.7.6 16 1.2 18.5 1.4 9.9.9 58.3-.4 71.5-1.9z"/><path d="m7625 1618.9c-1.9-.2-10.2-.8-18.5-1.4-31.1-2.3-85.4-10.5-123.4-18.6-206.1-44-362.1-153.5-466.3-327.4-92.2-153.8-133.7-344.7-115.2-529.5 10.4-104.1 29.2-184.6 61.1-261.4 92-221.7 290-385.5 526.9-436 60.8-13 121.5-17.9 208.5-16.8 77.3.9 136.4 7.7 204.9 23.3 140.6 32.1 275 100.9 378.5 193.6 22.4 20.1 56.2 55.1 74.3 76.9 1.2 1.5-10 12.7-101 101.5-56.3 54.8-104.8 102.1-107.8 105.1l-5.6 5.3-30.9-30.8c-64.9-64.5-98.2-89.8-155-117.7-70.1-34.5-144.9-52.6-238-57.6-29.1-1.5-90.9-.7-110 1.6-81.4 9.4-155 36.5-214.4 78.9-81.9 58.3-135.8 143.2-164.5 258.9-4.9 19.5-12.6 57.1-12.6 61.2 0 1.3 71 1.5 589.8 1.7l589.7.3 1.2 13c4.5 50.5 4.4 113.9-.3 167.5-13 148.3-60.8 292-133.9 402.5-55.5 83.8-125.7 150.8-213 203.2-82.5 49.6-180.6 83.6-279.2 96.8-37.2 5-48.4 5.7-96.3 6-25 .2-47.1.1-49-.1zm79-279.8c95.7-11.4 179-51.1 245.2-117 53.9-53.6 90.8-118.6 109.2-192.1 3.9-15.3 8.6-41.1 7.8-42-.7-.7-842.7-.7-843.4 0-.3.4.9 7.8 2.8 16.5 24.9 119.3 87 214.3 177.1 271.3 60.5 38.2 126.6 58.6 210.8 65.1 13.1 1 77.6-.3 90.5-1.8z"/><path d="m3551.3 1152.8c.3-328.5.6-443.2 1.5-453.3 4.6-51.5 8.8-83.1 16.2-120 22.7-113.5 64.5-210 126.7-292.5 41.5-55.1 88.5-99.4 146.3-138 26.7-17.8 42-26.6 72.2-41.5 85.3-42.2 179.2-65.8 291.3-73.1 23.2-1.5 88.8-1.5 112 0 112.1 7.3 206 30.9 291.3 73.1 30.2 14.9 45.5 23.7 72.2 41.5 57.8 38.6 104.8 82.9 146.3 138 86.6 114.9 134.4 258.5 143.7 431.5.6 11.7 1 175.4 1 446.3v427.7h-161-161v-408.7c0-255-.4-417.3-1-431.3-6.8-152.8-52.9-267-137.5-339.9-59.5-51.3-137.2-79.4-229.5-83-109-4.2-201.1 23.9-270 82.4-12.5 10.6-35.2 34.4-45.4 47.5-51.1 65.7-81 151.2-90.6 259-2.7 31-3 68.8-3 464.3v409.7h-161-161z"/><path d="m5189.5 1584.3c1.9-4.6 147-348 322.4-763.3l318.9-755h164.8 164.8l321.8 761.5c177 418.8 322 762.3 322.4 763.3.5 1.6-7.8 1.7-165.8 1.7h-166.3l-229.9-590c-126.5-324.4-230.2-589.7-230.5-589.5s-104.8 265.6-232.1 589.9l-231.5 589.6h-181.2-181.2z"/></g></svg>