<svg fill="none" height="123" viewBox="0 0 167 123" width="167" xmlns="http://www.w3.org/2000/svg"><path d="m164.037 20.0937h-14.715l-6.913-20.0937h-12.443l-5.037 14.5778h-23.109l-4.9958 14.5778h-23.6444l-4.9379 14.5779h-23.4057l-4.8392 14.5778h-27.751l-12.246 35.755 9.87581 28.8597h124.83019l32.294-94.0659z" fill="#141332"/><path d="m140.04 3.34863 6.815 20.09377h14.714l1.877 5.4174h-22.319l-8.79-25.51117z" fill="#fb525d"/><path d="m126.707 17.9263 1.778 5.1219h-14.913l1.679 4.728h12.542l1.778 5.3189h-12.542l1.777 5.1219h15.505l1.778 5.2205h-23.109l-8.691-25.5112z" fill="#fb525d"/><path d="m101.524 44.7187c3.161 1.182 5.728 3.152 6.518 5.6145 1.482 4.2354-1.777 7.6829-8.2954 7.6829h-15.505l-8.6907-25.5112h14.5174c6.123 0 11.6537 3.0534 13.0357 7.2889.692 1.8715 0 3.6444-1.58 4.9249zm-4.3451 8.4709c2.5677 0 3.8511-1.2805 3.3581-2.9549-.5929-1.773-2.7655-2.955-5.3332-2.955h-7.4069l1.9752 5.8114h7.4068zm-12.8385-15.8583 1.8764 5.4175h6.8143c2.0739 0 3.259-1.0835 2.6664-2.6595-.5925-1.576-2.4689-2.6595-4.5428-2.6595h-6.8143" fill="#fb525d"/><path d="m69.8219 47.0825 1.7776 5.122h-14.9124l1.6788 4.6294h12.5423l1.8764 5.319h-12.5422l1.6788 5.0234h15.6038l1.7777 5.122h-23.1094l-8.7895-25.2158z" fill="#fb525d"/><path d="m39.9958 77.6165 11.1596 9.5543h-9.0857l-9.382-8.2739h-4.5429l2.864 8.2739h-7.6044l-8.7895-25.5111h13.3324c7.4068 0 13.9249 3.6444 15.6038 8.4709 1.0863 3.0534-.4938 5.8114-3.5553 7.4859zm-7.8019-3.4475c3.0615 0 4.5429-1.6745 3.8516-3.6444-.6914-1.97-3.2591-3.6445-6.3206-3.6445h-5.6292l2.469 7.2889z" fill="#fb525d"/><g fill="#fff"><path d="m136.878 78.208c5.135 0 7.901 2.561 6.716 6.0084-1.186 3.4474-5.827 6.4024-11.259 6.4024h-3.555l-1.778 5.2204h-5.333l6.024-17.6312zm-3.16 8.8648c2.074 0 3.95-1.2804 4.444-2.6594.494-1.4775-.494-2.6595-2.568-2.6595h-3.753l-1.777 5.3189z"/><path d="m117.424 78.208c5.135 0 7.9 2.561 6.715 6.0084-1.185 3.4475-5.827 6.4024-11.258 6.4024h-3.556l-1.777 5.2204h-5.333l6.024-17.6312zm-3.161 8.8649c2.074 0 3.951-1.2805 4.444-2.6595.494-1.4775-.493-2.6594-2.567-2.6594h-3.753l-1.778 5.3189z"/><path d="m98.1653 78.208 2.6667 17.6312h-5.7282l-.395-3.5459h-9.1845l-2.864 3.5459h-5.6291l14.7149-17.6312zm-10.172 10.6378h6.518l-.9876-6.5994z"/><path d="m32.5899 99.7793c2.1727 0 4.5429.3937 6.1231.9847l-1.3827 4.039c-1.3826-.788-3.4565-1.379-5.4317-1.379-2.4689 0-4.3453.689-4.7403 1.576-.8889 2.462 11.2584 1.182 9.1845 7.19-1.0864 3.251-5.5305 5.713-10.8634 5.713-3.7528 0-5.8268-.689-7.3081-1.28l1.4813-4.137c1.5802.886 3.4566 1.674 6.4193 1.674 1.7777 0 4.3454-.394 4.7404-1.576.8888-2.462-10.9621-1.28-8.987-7.19 1.0864-3.251 5.4317-5.6147 10.7646-5.6147z"/><path d="m58.07 100.075-1.2839 3.743h-6.3205l-4.7404 13.888h-5.333l4.7404-13.888h-6.2217l1.1851-3.743z"/><path d="m91.7456 100.075c6.7156 0 11.0604 3.447 9.1844 8.865-1.8763 5.516-8.4931 8.766-15.3073 8.766h-7.9006l6.0242-17.631zm-4.8391 13.888c3.8516 0 7.5056-1.674 8.6907-5.122 1.1851-3.349-1.2839-5.023-5.1354-5.023h-2.5677l-3.4565 10.145z"/><path d="m80.4867 100.075-3.4565 10.047c-1.9752 5.713-7.0118 7.978-12.9373 7.978s-9.4808-2.265-7.5056-7.978l3.4565-10.047h5.3329l-3.3577 9.85c-1.1851 3.447.8888 4.531 3.3577 4.531 2.469 0 5.333-1.084 6.4193-4.531l3.3578-9.85z"/><path d="m111.1 100.075-6.024 17.631h-5.3327l6.0247-17.631z"/><path d="m125.716 99.7793c6.815 0 10.864 4.1367 9.086 9.1607-1.778 5.122-8.691 9.16-15.406 9.16-6.814 0-10.864-4.137-9.086-9.16 1.778-5.122 8.691-9.1607 15.406-9.1607zm-4.938 14.4797c3.852 0 7.704-2.364 8.691-5.319.988-2.955-1.185-5.319-5.036-5.319-3.852 0-7.704 2.364-8.691 5.319-.988 2.955 1.185 5.319 5.036 5.319z"/></g></svg>