<svg height="256" viewBox="0 0 720 256" width="720" xmlns="http://www.w3.org/2000/svg" xmlns:xlink="http://www.w3.org/1999/xlink"><linearGradient id="a" x1="19.632334%" x2="80.358313%" y1="58.024592%" y2="41.965126%"><stop offset=".04250693" stop-color="#fbb040"/><stop offset=".4914" stop-color="#fffbcc"/><stop offset="1" stop-color="#fbb040"/></linearGradient><radialGradient id="b" cx="50.00754%" cy="50.118145%" gradientTransform="matrix(.58441919 -.05016729 .02935569 .99874083 .193109 .025718)" r="85.365699%"><stop offset=".2059" stop-color="#fff"/><stop offset="1" stop-color="#fff" stop-opacity="0"/></radialGradient><radialGradient id="c" cx="49.988255%" cy="50.419097%" gradientTransform="matrix(.60820407 -.08161752 .04980628 .99666372 .17074 .042481)" r="82.041862%"><stop offset=".2617" stop-color="#fff"/><stop offset="1" stop-color="#fff" stop-opacity="0"/></radialGradient><g fill="none" transform="translate(-1)"><g transform="translate(.769739 106.882205)"><path d="m76.7819823 62.864736c-2.2281166 5.2519892-5.4111404 9.8673737-9.5490714 13.6869864-4.1379309 3.8196285-8.9124666 7.0026523-14.6419094 9.2307531-5.7294429 2.2281167-11.9363393 3.342175-18.6206893 3.342175h-33.74005226v-86.73728716h33.74005226c6.8435012 0 13.0503976 1.11405833 18.6206893 3.34217499 5.7294428 2.22811666 10.5039785 5.25198927 14.6419094 9.07160187 4.137931 3.8196286 7.3209548 8.4350131 9.5490714 13.6869865 2.2281167 5.2519892 3.342175 10.9814162 3.342175 17.0291614v.3183024c.1591512 6.0477293-1.1140583 11.7771721-3.342175 17.0291455zm-16.5517237-17.0291455c0-3.8196286-.6366048-7.3209548-1.9098143-10.5039627-1.2732095-3.1830238-3.0238726-6.0477452-5.2519893-8.2758618-2.2281166-2.3872679-5.0928381-4.1379151-8.2758619-5.4111246s-6.8435011-1.9098143-10.6631297-1.9098143h-14.8010607v52.2015267h14.8010607c3.8196286 0 7.4801059-.6366048 10.6631297-1.9098143s5.8885941-3.0238726 8.2758619-5.2519893c2.2281167-2.3872678 3.9787798-5.0928221 5.2519893-8.1166947 1.2732095-3.1830238 1.9098143-6.68435 1.9098143-10.5039627z" fill="#fff"/><path d="m89.036624 89.1246505v-86.73728716h65.251988v17.02916146h-46.472148v17.6657502h40.901856v17.0291614h-40.901856v18.1432198h47.108753v17.0291455h-65.888593z" fill="#fff"/><g fill="#808285"><path d="m383.625477 89.1246505-42.015915-55.0662322v55.0662322h-18.77984v-86.73728716h17.665782l40.583554 53.31558496v-53.31558496h18.77984v86.73728716z"/><path d="m477.365528 86.5782314c-6.206897 2.7055703-13.209549 3.9787798-21.167109 3.9787798-6.843501 0-12.891246-1.1140583-18.461538-3.342175-5.570291-2.2281007-10.344827-5.2519734-14.323607-9.2307531-3.97878-3.9787798-7.161803-8.5941483-9.38992-14.16444-2.228117-5.4111245-3.342175-11.4588698-3.342175-17.8249014v-.3183024c0-6.2068964 1.114058-11.9363234 3.342175-17.3474638 2.228117-5.4111246 5.41114-10.1856603 9.549071-14.16444 3.97878-4.137915 8.912467-7.32093884 14.323607-9.70820669 5.570292-2.38726785 11.618037-3.50132618 18.143236-3.50132618 3.819629 0 7.480106.31830238 10.66313.79575595s6.206896 1.27320952 8.912466 2.22811666c2.705571.95490714 5.25199 2.22811666 7.639258 3.66047737 2.387267 1.43236071 4.774535 3.18302379 7.002652 5.09282219l-11.936339 14.4827424c-1.591512-1.4323608-3.342175-2.7055703-4.933687-3.6604615-1.591512-1.1140583-3.342175-1.9098143-5.092838-2.7055702-1.750663-.795756-3.660478-1.2732096-5.729443-1.7506631-2.068966-.4774536-4.297082-.6366048-6.843501-.6366048-3.501326 0-6.68435.795756-9.708223 2.2281167-3.023872 1.4323607-5.729443 3.3421591-7.957559 5.8885781-2.228117 2.3872678-3.97878 5.2519893-5.25199 8.5941643-1.273209 3.342159-1.909814 6.8434852-1.909814 10.5039626v.3183024c0 3.9787638.636605 7.6392412 1.909814 10.9814162 1.27321 3.3421749 3.023873 6.2068804 5.411141 8.7532995 2.387268 2.546419 5.092838 4.4562333 8.275862 5.7294428 3.183024 1.4323607 6.68435 2.0689496 10.663129 2.0689496 7.161804 0 13.050398-1.7506472 17.984085-5.2519734v-12.4137769h-19.257294v-16.5517078h37.718832v37.7187843c-4.774536 3.6604773-10.026525 6.8435011-16.233421 9.5490554z"/><path d="m580.813801 89.1246505v-86.73728716h19.098143v69.54899046h43.289124v17.1882967z"/><path d="m505.216986 89.1246505v-86.73728716h65.251988v17.02916146h-46.472148v17.6657502h40.901856v17.0291614h-40.901856v18.1432198h47.108752v17.0291455h-65.888592z"/><path d="m718.002127 74.9602105c-1.591512 3.342175-3.660478 6.2068964-6.525199 8.4350131-2.864721 2.2281166-6.047745 3.9787638-10.026525 5.2519733-3.819628 1.2732095-6.047745 1.7506631-10.822281 1.7506631-6.68435 0-15.119363-1.1140583-21.48541-3.342175-6.366048-2.2281007-12.095491-5.7294269-17.34748-10.5039626l11.299734-13.5278352c3.97878 3.1830238 7.95756 5.7294428 12.254642 7.6392571 4.137931 1.9098143 8.753315 2.8647055 13.687002 2.8647055 3.97878 0 7.002653-.7957401 9.230769-2.2281008 2.228117-1.4323607 3.342175-3.5013261 3.342175-6.0477452v-.3183024c0-1.2732095-.159151-2.3872678-.636604-3.342175-.477454-.9548912-1.27321-1.9097983-2.54642-2.7055543-1.273209-.7957559-3.023872-1.5915119-5.41114-2.546419-2.228117-.795756-5.251989-1.7506631-8.912467-2.546419-4.456233-1.1140584-8.435013-2.2281167-11.936339-3.6604774-3.501326-1.2732095-6.525199-3.0238567-9.071618-4.933671s-4.456233-4.2970821-5.729443-7.3209547c-1.43236-2.8647055-2.068965-6.5251829-2.068965-10.822265v-.3183024c0-3.9787639.795756-7.48009 2.228117-10.6631138 1.43236-3.1830238 3.501326-5.8885781 6.206896-8.275846 2.70557-2.38726785 5.888594-4.13793094 9.549071-5.25198927 3.660478-1.27320952 7.798409-1.90981428 12.254642-1.90981428 6.366048 0 12.254642.95490714 17.506631 2.86472142s10.185676 4.61538451 14.641909 8.11669473l-9.867373 14.3235912c-3.819629-2.7055543-7.639257-4.7745198-11.458886-6.2068805-3.660477-1.5915119-7.480106-2.2281166-11.140583-2.2281166-3.660478 0-6.525199.7957559-8.435013 2.2281166-1.909815 1.4323607-2.864722 3.1830238-2.864722 5.4111246v.3183024c0 1.4323607.318303 2.546419.795756 3.6604773.477454.9549072 1.432361 1.9098143 2.864722 2.8647215 1.43236.7957559 3.342175 1.5915119 5.729442 2.3872678 2.387268.795756 5.570292 1.5915119 9.230769 2.5464031 4.456234 1.1140584 8.275862 2.3872679 11.777189 3.9787798 3.501326 1.4323607 6.366047 3.1830238 8.753315 5.2519892 2.387268 2.0689655 4.137931 4.4562175 5.41114 7.1617877 1.27321 2.7055702 1.750664 6.0477452 1.750664 9.7082067v.3183023c0 4.4562334-.636605 8.2758619-2.228117 11.618021z"/></g></g><path d="m215.694955 196.484309h-16.870027l-35.013261-87.373892h21.007957l22.599469 61.113977 22.599469-61.113977h20.530503z" fill="#fff"/><path d="m267.25994 109.110433h16.870026l35.013262 87.373892h-21.007957l-22.75862-61.113978-22.599469 61.113978h-20.530504z" fill="#808285"/><g fill="#808285" transform="translate(233.130477 223.062573)"><path d="m1.50346946 26.0939357h5.88859403v6.0477453h-5.88859403z"/><path d="m18.2143444.94809547h5.5702917v26.25989863h16.3925725v4.9336869h-21.9628642z"/><path d="m46.384105 16.7040314c0-8.91245068 6.8435012-16.2333895 16.3925726-16.2333895s16.3925726 7.32093882 16.3925726 16.0742384v.1591511c0 8.7533155-6.8435012 16.2334055-16.3925726 16.2334055-9.5490714-.1591512-16.3925726-7.48009-16.3925726-16.2334055zm27.0557023 0c0-6.2068804-4.4562333-11.29971853-10.6631297-11.29971853s-10.5039785 4.93368693-10.5039785 10.98141623v.1591512c0 6.0477452 4.4562333 11.1405673 10.6631297 11.1405673s10.5039785-4.9336709 10.5039785-10.9814162z"/><path d="m89.6732287.94809547h5.0928381l16.7108752 21.64453003v-21.64453003h5.41114v31.35273673h-4.615384l-17.1883288-22.2811348v22.2811348h-5.4111405z"/><path d="m128.66527.94809547h11.618037c9.867374 0 16.710875 6.68433406 16.710875 15.59678483v.1591511c0 8.7533155-6.843501 15.5968008-16.710875 15.5968008h-11.618037zm11.618037 26.25989863c6.525199 0 10.822281-4.4562174 10.822281-10.5039627v-.1591511c0-6.0477293-4.297082-10.66311386-10.822281-10.66311386h-6.206896v21.32622766z"/><path d="m166.0658 16.7040314c0-8.91245068 6.843501-16.2333895 16.392572-16.2333895 9.549072 0 16.392573 7.32093882 16.392573 16.0742384v.1591511c0 8.7533155-6.843501 16.2334055-16.392573 16.2334055-9.708222-.1591512-16.392572-7.48009-16.392572-16.2334055zm26.896551 0c0-6.2068804-4.456233-11.29971853-10.66313-11.29971853-6.206896 0-10.503978 4.93368693-10.503978 10.98141623v.1591512c0 6.0477452 4.456233 11.1405673 10.663129 11.1405673 6.206897 0 10.503979-4.9336709 10.503979-10.9814162z"/><path d="m209.195772.94809547h5.092838l16.710875 21.64453003v-21.64453003h5.411141v31.35273673h-4.615385l-17.188328-22.2811348v22.2811348h-5.411141z"/></g><path d="m360.522537 5.98058907c-59.681696 0-108.063658 15.27849833-108.063658 34.05830693 0 18.7798245 48.381962 34.0583228 108.063658 34.0583228 59.681697 0 108.063658-15.2784983 108.063658-34.0583228 0-18.7798086-48.381961-34.05830693-108.063658-34.05830693zm0 52.67898023c-51.564985 0-93.262597-10.1856602-93.262597-22.7585883s41.697612-22.7586043 93.262597-22.7586043c51.564986 0 93.262598 10.1856762 93.262598 22.7586043s-41.697612 22.7585883-93.262598 22.7585883z" fill="url(#a)"/><path d="m425.297072 63.5932403c.636605 12.2546257-15.915119 23.0768907-37.082227 24.190949-21.007958 1.1140584-38.67374-8.1166948-39.310344-20.3713205-.636605-12.2546257 15.915119-23.0768907 37.082227-24.190949 21.007957-.9549072 38.673739 8.1166948 39.310344 20.3713205z" fill="url(#b)"/><path d="m345.084872 9.95936882c.477454 6.36603168-7.480106 12.09547448-17.824933 12.89123048-10.344828.7957559-19.257294-3.5013262-19.734748-9.8673738-.477453-6.36603167 7.480106-12.09547451 17.824933-12.89121455 10.344828-.79575595 19.257294 3.66046146 19.734748 9.86735787z" fill="url(#c)"/></g></svg>