<svg fill="none" height="256" viewBox="0 0 669 256" width="669" xmlns="http://www.w3.org/2000/svg"><g fill="#000"><path d="m214.496 202.236v7.374h-37.881v-67.915h7.832v60.541z"/><path d="m266.553 187h-42.092c1.367 9.998 8.707 16.298 18.694 16.298 6.366 0 11.945-2.233 15.949-6.408l4.211 4.467c-4.889 5.433-12.131 8.535-20.751 8.535-15.172 0-25.64-10.573-25.64-25.809 0-15.235 10.567-25.808 25.542-25.808 16.649-.087 24.875 11.364 24.087 28.725zm-6.848-6.203c-.492-9.802-7.143-16.005-17.228-16.005-9.79 0-16.835 6.311-18.016 16.005z"/><path d="m308.942 201.748c-4.113 5.53-10.665 8.241-18.891 8.241-10.666 0-17.524-6.788-17.524-15.626 0-8.925 7.143-14.553 19.285-14.65h16.933v-3.004c0-7.471-4.693-11.939-13.805-11.939-5.677 0-10.96 2.136-16.342 5.823l-3.227-5.53c6.651-4.37 12.24-6.886 21.046-6.886 12.722 0 19.767 6.691 19.865 17.654l.098 33.768h-7.438zm-.098-9.792v-6.116h-16.048c-8.608 0-13.115 2.624-13.115 8.252s4.605 9.315 11.847 9.315c8.707 0 15.368-4.37 17.316-11.451z"/><path d="m377.099 178.075v31.534h-7.635v-29.495c0-9.022-5.48-14.357-14.581-14.357-10.184.097-16.441 6.691-17.327 16.396v27.456h-7.636v-51.139h7.636v11.256c3.62-7.765 10.567-11.451 19.963-11.549 12.339.011 19.58 7.58 19.58 19.898z"/><path d="m447.665 151.389-4.703 5.92c-5.284-5.335-12.722-8.545-20.259-8.545-15.467 0-27.894 11.842-27.894 26.785 0 14.845 12.427 26.784 27.894 26.784 7.537 0 14.877-3.101 20.259-8.154l4.791 5.335c-6.749 6.311-15.96 10.475-25.444 10.475-19.766 0-35.431-15.236-35.431-34.44 0-19.02 15.862-34.061 35.727-34.061 9.396.011 18.497 3.796 25.06 9.901z"/><path d="m504.21 183.996c0 15.334-10.862 25.906-26.133 25.906-15.27 0-26.133-10.572-26.133-25.906 0-15.235 10.863-25.71 26.133-25.71 15.271 0 26.133 10.475 26.133 25.71zm-44.63.098c0 11.256 7.733 19.02 18.497 19.02s18.498-7.764 18.498-19.02c0-11.158-7.734-18.923-18.498-18.923s-18.497 7.765-18.497 18.923z"/><path d="m563.498 209.61h-7.635v-10.964c-3.818 7.179-10.863 11.354-20.062 11.354-14.68 0-24.864-10.768-24.864-26.004 0-15.333 10.184-25.906 24.765-25.906 9.2 0 16.343 4.175 20.161 11.451v-31.924h7.635zm-7.635-25.418c0-11.159-7.734-19.216-18.596-19.216-10.961 0-18.695 8.057-18.695 19.216 0 11.06 7.734 19.02 18.695 19.02 10.862 0 18.596-7.96 18.596-19.02z"/><path d="m623.944 187h-42.093c1.368 9.998 8.718 16.298 18.695 16.298 6.366 0 11.945-2.233 15.948-6.408l4.212 4.467c-4.89 5.433-12.142 8.535-20.751 8.535-15.172 0-25.641-10.573-25.641-25.809 0-15.235 10.567-25.808 25.553-25.808 16.638-.087 24.853 11.364 24.077 28.725zm-6.859-6.203c-.492-9.802-7.143-16.005-17.229-16.005-9.79 0-16.834 6.311-18.016 16.005z"/><path d="m148.94 51.4087v29.6254c0 6.5714.427 9.4558-4.725 14.65-1.477 1.4857-3.041 2.6568-4.693 3.546-2.669 1.0299-5.349.8779-9.418.8779h-7.264-8.051-16.4514c-3.5879 0-6.5305 2.874-6.5305 6.387v38.312c0 3.524 2.9316 6.408 6.5305 6.408h11.2564 18.475 11.53c3.588 0 6.508-2.873 6.508-6.408v-29.626c0-6.571-.437-9.455 4.726-14.65 1.466-1.4853 3.041-2.6564 4.692-3.5456 2.67-1.0302 5.35-.8783 9.419-.8783h7.263 8.04 16.441c3.588 0 6.52-2.8737 6.52-6.3871v-38.3113c0-3.5242-2.932-6.4087-6.52-6.4087h-11.256-18.465-11.518c-3.588 0-6.509 2.8845-6.509 6.4087z"/><path d="m50.6772 160.682h34.1727c3.1504 0 5.7101 2.538 5.7101 5.65v34.375c0 3.112-2.5488 5.639-5.7101 5.639h-34.1727c-3.1394 0-5.6772-2.527-5.6772-5.639v-34.375c0-3.112 2.5269-5.65 5.6772-5.65z"/></g></svg>