
<svg width="253px" height="39px" viewBox="0 0 253 39" version="1.1" xmlns="http://www.w3.org/2000/svg" xmlns:xlink="http://www.w3.org/1999/xlink">
    <g id="Page-1" stroke="none" stroke-width="1" fill="none" fill-rule="evenodd">
        <g id="manning" fill="#333333">
            <g id="text50" transform="translate(59.000000, 27.000000)" fill-rule="nonzero">
                <path d="M1.989689,4.869102 C1.989689,5.37298533 2.05840033,5.82533533 2.195823,6.226152 C2.33324633,6.62315133 2.52792867,6.96098267 2.77987,7.239646 C3.03562933,7.514492 3.34292233,7.72635233 3.701749,7.875227 C4.060575,8.02028433 4.459483,8.092813 4.898473,8.092813 C5.34127967,8.092813 5.74209633,8.02028433 6.100923,7.875227 C6.459749,7.72635233 6.765133,7.514492 7.017075,7.239646 C7.269017,6.96098267 7.46369933,6.62315133 7.601122,6.226152 C7.73854467,5.82533533 7.807256,5.37298533 7.807256,4.869102 C7.807256,4.365218 7.73854467,3.91286767 7.601122,3.512051 C7.46369933,3.11123433 7.269017,2.77340333 7.017075,2.498558 C6.765133,2.21989467 6.459749,2.00612567 6.100923,1.857251 C5.74209633,1.70837633 5.34127967,1.633939 4.898473,1.633939 C4.459483,1.633939 4.060575,1.70837633 3.701749,1.857251 C3.34292233,2.00612567 3.03562933,2.21989467 2.77987,2.498558 C2.52792867,2.77340333 2.33324633,3.11123433 2.195823,3.512051 C2.05840033,3.91286767 1.989689,4.365218 1.989689,4.869102 Z M9.324634,10.663765 L8.408481,10.663765 C8.27105833,10.663765 8.14890467,10.6446783 8.04202,10.606505 C7.935136,10.5683317 7.837795,10.501529 7.749997,10.406097 L6.312783,8.837186 C5.87761033,8.98224333 5.40617367,9.054772 4.898473,9.054772 C4.295339,9.054772 3.74564733,8.95361333 3.249398,8.751296 C2.75314933,8.545162 2.32752033,8.256956 1.972511,7.886678 C1.61750233,7.51639933 1.34265667,7.075501 1.147974,6.563983 C0.953291333,6.048647 0.85595,5.48368633 0.85595,4.869101 C0.85595,4.254515 0.953291333,3.691463 1.147974,3.179945 C1.34265667,2.664609 1.61750233,2.221802 1.972511,1.851524 C2.32752033,1.47742867 2.75314933,1.18731367 3.249398,0.981179 C3.74564733,0.775045 4.295339,0.671978 4.898473,0.671978 C5.50160633,0.671978 6.05129767,0.775045 6.547547,0.981179 C7.04761367,1.18731367 7.47515133,1.47742867 7.83016,1.851524 C8.18516933,2.221802 8.460015,2.664609 8.654697,3.179945 C8.84937967,3.691463 8.946721,4.254515 8.946721,4.869101 C8.946721,5.25464833 8.90663933,5.62110933 8.826476,5.968484 C8.75013,6.315858 8.63751967,6.64032833 8.488645,6.941895 C8.33977033,7.239645 8.15844833,7.51067367 7.944679,7.754981 C7.73091033,7.99928833 7.49042033,8.21114833 7.223209,8.390561 L9.324634,10.663765 Z" id="path962"></path>
                <path d="M14.970065,3.168494 L14.970065,8.968884 L14.363114,8.968884 C14.2180567,8.968884 14.1264413,8.89826367 14.088268,8.757023 L14.008108,8.132895 C13.756166,8.41155767 13.4736857,8.63677833 13.160667,8.808557 C12.8476483,8.97651833 12.488822,9.060499 12.084188,9.060499 C11.767352,9.060499 11.4867803,9.00896533 11.242473,8.905898 C11.001983,8.79901333 10.799666,8.65013867 10.635522,8.459274 C10.471378,8.26840867 10.3473157,8.037462 10.263335,7.766434 C10.1831717,7.49540533 10.14309,7.195747 10.14309,6.867459 L10.14309,3.168494 L11.162309,3.168494 L11.162309,6.867459 C11.162309,7.306449 11.261559,7.646189 11.460059,7.886679 C11.6623757,8.127169 11.9696683,8.247414 12.381937,8.247414 C12.6835037,8.247414 12.9640753,8.17679367 13.223652,8.035553 C13.487046,7.89049567 13.7294447,7.691996 13.950848,7.440054 L13.950848,3.168494 L14.970065,3.168494 Z" id="path964"></path>
                <path d="M19.718492,6.357849 C19.248961,6.37311567 18.8481443,6.41128867 18.516039,6.472368 C18.187751,6.529628 17.9186313,6.605974 17.70868,6.701406 C17.5025453,6.79683867 17.3517617,6.90944933 17.256329,7.039238 C17.1647143,7.169026 17.118907,7.31408333 17.118907,7.47441 C17.118907,7.627102 17.1437203,7.758799 17.193347,7.869501 C17.2429737,7.98020233 17.3097763,8.07181733 17.393755,8.144346 C17.481553,8.213058 17.5827117,8.26459167 17.697231,8.298947 C17.815567,8.329487 17.941538,8.344757 18.075144,8.344757 C18.2545567,8.344757 18.4187007,8.32758033 18.567576,8.293227 C18.7164507,8.25505367 18.855782,8.20161167 18.98557,8.132901 C19.1191753,8.064189 19.2451463,7.982117 19.363483,7.886685 C19.4856363,7.79125233 19.6039727,7.682459 19.718492,7.560305 L19.718492,6.357849 Z M16.426066,3.987305 C16.7467193,3.67810367 17.0921853,3.447157 17.462464,3.294465 C17.832742,3.141773 18.2431017,3.065427 18.693543,3.065427 C19.0180137,3.065427 19.30622,3.11886933 19.558162,3.225754 C19.810104,3.332638 20.0219643,3.48151267 20.193743,3.672378 C20.3655217,3.86324267 20.49531,4.09418933 20.583108,4.365218 C20.670906,4.63624667 20.714805,4.93399633 20.714805,5.258467 L20.714805,8.968884 L20.262454,8.968884 C20.1632047,8.968884 20.0868587,8.953614 20.033416,8.923074 C19.979976,8.88872067 19.9379857,8.82382667 19.907445,8.728392 L19.792926,8.1787 C19.640234,8.31994 19.4913593,8.445911 19.346302,8.556613 C19.2012447,8.66349767 19.0485527,8.755113 18.888226,8.831459 C18.7278993,8.90398767 18.5561207,8.95933833 18.37289,8.997511 C18.1934767,9.03950433 17.9930683,9.060501 17.771665,9.060501 C17.5464443,9.060501 17.3345843,9.02996433 17.136085,8.968891 C16.937585,8.90399767 16.7638977,8.808565 16.615023,8.682593 C16.4699657,8.55662167 16.353538,8.39820367 16.26574,8.207339 C16.1817593,8.01265633 16.139769,7.78361833 16.139769,7.520225 C16.139769,7.29118633 16.2027543,7.07169133 16.328725,6.86174 C16.4546963,6.64797133 16.658922,6.459015 16.941402,6.294871 C17.2238827,6.130727 17.5922523,5.99712133 18.046511,5.894054 C18.5007697,5.78717 19.0580957,5.72609333 19.718489,5.710824 L19.718489,5.258474 C19.718489,4.808032 19.6211477,4.468292 19.426465,4.239254 C19.231783,4.00639867 18.947394,3.889971 18.573298,3.889971 C18.3213567,3.889971 18.1094967,3.92241767 17.937718,3.987311 C17.7697567,4.04838433 17.6227903,4.11900433 17.496819,4.199171 C17.3746657,4.275517 17.2677813,4.34613733 17.176166,4.411032 C17.088368,4.47210533 17.00057,4.502642 16.912772,4.502642 C16.8440607,4.502642 16.7848927,4.48546533 16.735268,4.451112 C16.6856413,4.41293867 16.643651,4.367131 16.609297,4.313689 L16.426066,3.987305 Z" id="path966"></path>
                <polygon id="path968" points="23.309735 0.534556 23.309735 8.968884 22.290516 8.968884 22.290516 0.534556"></polygon>
                <path d="M26.039047,3.168494 L26.039047,8.968884 L25.019827,8.968884 L25.019827,3.168494 L26.039047,3.168494 Z M26.256633,1.347641 C26.256633,1.446891 26.2356397,1.540415 26.193653,1.628213 C26.1554797,1.71219367 26.1020373,1.78853967 26.033326,1.857251 C25.9684327,1.92214433 25.890178,1.973678 25.798562,2.011852 C25.710764,2.05002533 25.61724,2.069112 25.51799,2.069112 C25.41874,2.069112 25.3252163,2.05002533 25.237419,2.011852 C25.1534383,1.97367867 25.0790007,1.922145 25.014106,1.857251 C24.9492127,1.78853967 24.8976793,1.71219367 24.859506,1.628213 C24.8213327,1.540415 24.802246,1.446891 24.802246,1.347641 C24.802246,1.248391 24.8213327,1.15486733 24.859506,1.06707 C24.8976793,0.975454667 24.9492127,0.8972 25.014106,0.832306 C25.0789993,0.763594 25.153437,0.710151667 25.237419,0.671979 C25.3252163,0.633805667 25.41874,0.614719 25.51799,0.614719 C25.61724,0.614719 25.710764,0.633805667 25.798562,0.671979 C25.8901773,0.710152333 25.968432,0.763594667 26.033326,0.832306 C26.1020373,0.897199333 26.1554797,0.975454 26.193653,1.06707 C26.2356397,1.15486733 26.256633,1.248391 26.256633,1.347641 Z" id="path970"></path>
                <path d="M29.49448,9.060499 C29.0364033,9.060499 28.6833027,8.93261933 28.435178,8.67686 C28.1908707,8.42110067 28.068717,8.052731 28.068717,7.571751 L28.068717,4.021661 L27.370151,4.021661 C27.309071,4.021661 27.2575377,4.00448433 27.215551,3.970131 C27.1735577,3.93195767 27.152561,3.87469833 27.152561,3.798353 L27.152561,3.39181 L28.103069,3.271565 L28.337833,1.479342 C28.3492863,1.422082 28.3740997,1.37627433 28.412273,1.341919 C28.4542663,1.30374567 28.5077083,1.284659 28.572599,1.284659 L29.087935,1.284659 L29.087935,3.283016 L30.765639,3.283016 L30.765639,4.021664 L29.087935,4.021664 L29.087935,7.503043 C29.087935,7.74735033 29.147103,7.928672 29.265439,8.047008 C29.3837757,8.16534467 29.536468,8.224513 29.723516,8.224513 C29.8304,8.224513 29.922015,8.211153 29.998361,8.184433 C30.0785243,8.153893 30.147236,8.12144633 30.204496,8.087093 C30.261756,8.05273967 30.309472,8.022203 30.347644,7.995483 C30.3896373,7.964943 30.425902,7.949673 30.456438,7.949673 C30.509878,7.949673 30.557594,7.98211967 30.599586,8.047013 L30.897336,8.533719 C30.72174,8.697863 30.5098797,8.82765133 30.261755,8.923084 C30.0136303,9.01469933 29.7578713,9.060507 29.494478,9.060507 L29.49448,9.060499 Z" id="path972"></path>
                <path d="M36.833719,3.168493 L33.598556,10.680943 C33.5642027,10.757289 33.5203037,10.818366 33.466859,10.864174 C33.4172323,10.9099807 33.3389777,10.932884 33.232095,10.932884 L32.476269,10.932884 L33.53557,8.631051 L31.142122,3.168493 L32.023919,3.168493 C32.111717,3.168493 32.1804283,3.19139633 32.230053,3.237203 C32.283493,3.27919633 32.3197573,3.32691267 32.338846,3.380352 L33.890579,7.03351 C33.951659,7.19383667 34.0031927,7.36179767 34.04518,7.537393 C34.09862,7.35798033 34.1558797,7.18811067 34.216959,7.027784 L35.722884,3.380352 C35.7457907,3.31927867 35.7839637,3.26965367 35.837403,3.231477 C35.894663,3.18949033 35.9576483,3.168497 36.026359,3.168497 L36.833719,3.168493 Z" id="path974"></path>
                <path d="M41.44991,3.168494 L41.44991,8.968884 L40.430689,8.968884 L40.430689,3.168494 L41.44991,3.168494 Z M41.66749,1.347641 C41.66749,1.446891 41.64649,1.540415 41.60449,1.628213 C41.56629,1.71219367 41.5128467,1.78853967 41.44416,1.857251 C41.3792933,1.92214433 41.30104,1.973678 41.2094,2.011852 C41.1216,2.05002533 41.0280757,2.069112 40.928827,2.069112 C40.829577,2.069112 40.7360533,2.05002533 40.648256,2.011852 C40.5642753,1.97367867 40.4898377,1.922145 40.424943,1.857251 C40.3600497,1.78853967 40.3085163,1.71219367 40.270343,1.628213 C40.2321697,1.540415 40.213083,1.446891 40.213083,1.347641 C40.213083,1.248391 40.2321697,1.15486733 40.270343,1.06707 C40.3085163,0.975454667 40.3600497,0.8972 40.424943,0.832306 C40.4898363,0.763594 40.564274,0.710151667 40.648256,0.671979 C40.7360533,0.633805667 40.829577,0.614719 40.928827,0.614719 C41.0280757,0.614719 41.1216,0.633805667 41.2094,0.671979 C41.3010133,0.710152333 41.3792667,0.763594667 41.44416,0.832306 C41.5128733,0.897199333 41.5663167,0.975454 41.60449,1.06707 C41.64649,1.15486733 41.66749,1.248391 41.66749,1.347641 Z" id="path976"></path>
                <path d="M46.50288,4.124728 C46.45708,4.20870867 46.38646,4.250699 46.29102,4.250699 C46.2337533,4.250699 46.16886,4.22970233 46.09634,4.187709 C46.0238133,4.14571567 45.9341067,4.09990833 45.82722,4.050287 C45.7241533,3.996847 45.60009,3.94913067 45.45503,3.907138 C45.3099767,3.86133133 45.1382,3.838428 44.9397,3.838428 C44.76792,3.838428 44.61332,3.86133133 44.4759,3.907138 C44.3384733,3.94912467 44.2201367,4.00829267 44.12089,4.084642 C44.0254567,4.160988 43.9510167,4.25069467 43.89757,4.353762 C43.84797,4.453012 43.82317,4.561805 43.82317,4.680141 C43.82317,4.82901567 43.86516,4.953078 43.94914,5.052328 C44.0369333,5.151578 44.15145,5.23746733 44.29269,5.309996 C44.43393,5.38252467 44.5942567,5.44741867 44.77367,5.504678 C44.9530833,5.558118 45.1363167,5.61728633 45.32337,5.682183 C45.51423,5.743263 45.6993667,5.81197433 45.87878,5.888317 C46.0581933,5.964663 46.21852,6.06009567 46.35976,6.174615 C46.501,6.28913367 46.61361,6.43037367 46.69759,6.598335 C46.78539,6.762479 46.82929,6.96097867 46.82929,7.193834 C46.82929,7.46104533 46.7815733,7.70917 46.68614,7.938208 C46.5907067,8.16342867 46.4494667,8.36001967 46.26242,8.527981 C46.0753733,8.692125 45.8463367,8.82191333 45.57531,8.917346 C45.3042833,9.01277867 44.9912633,9.060495 44.63625,9.060495 C44.2316167,9.060495 43.8651567,8.99560067 43.53687,8.865812 C43.2085833,8.73220667 42.92992,8.562337 42.70088,8.356203 L42.94137,7.966838 C42.9719033,7.91721133 43.0081667,7.87903833 43.05016,7.852319 C43.09216,7.825599 43.1456033,7.812239 43.21049,7.812239 C43.2792033,7.812239 43.3517333,7.838959 43.42808,7.892399 C43.50442,7.945839 43.5960333,8.005007 43.70292,8.069903 C43.81362,8.13479633 43.9472267,8.19396467 44.10374,8.247408 C44.2602467,8.300848 44.45493,8.327568 44.68779,8.327568 C44.8862833,8.327568 45.05997,8.30275467 45.20885,8.253128 C45.3577233,8.199688 45.4817833,8.129068 45.58103,8.041268 C45.6802833,7.95347 45.7528133,7.85231167 45.79862,7.737793 C45.84822,7.62327367 45.87302,7.50112 45.87302,7.371332 C45.87302,7.21100533 45.82912,7.07930833 45.74132,6.976241 C45.65734,6.869357 45.54473,6.77965033 45.40349,6.707121 C45.26225,6.630775 45.1000133,6.565881 44.91678,6.512439 C44.7373667,6.455179 44.55223,6.396011 44.36137,6.334935 C44.1743167,6.273855 43.9891767,6.20514333 43.80595,6.1288 C43.6265367,6.04863667 43.46621,5.949387 43.32497,5.831051 C43.18373,5.71271433 43.06921,5.56765667 42.98141,5.395878 C42.89743,5.22028267 42.85544,5.00842267 42.85544,4.760298 C42.85544,4.538894 42.9012467,4.32703367 42.99286,4.124717 C43.08448,3.918583 43.2180867,3.73916967 43.39368,3.586477 C43.5692733,3.42996767 43.78495,3.30590567 44.04071,3.214291 C44.29647,3.12267567 44.5884933,3.076868 44.91678,3.076868 C45.2985133,3.076868 45.6401633,3.13794467 45.94173,3.260098 C46.2471167,3.37843467 46.51051,3.54257867 46.73191,3.75253 L46.50288,4.124728 Z" id="path978"></path>
                <path d="M51.02012,8.96889 L51.02012,3.168494 L51.6328,3.168494 C51.77786,3.168494 51.8675667,3.239114 51.90192,3.380354 L51.97632,3.975853 C52.1900867,3.71245967 52.4305767,3.49678233 52.69779,3.328821 C52.9649967,3.16085967 53.2741967,3.076879 53.62539,3.076879 C54.0147567,3.076879 54.3296833,3.185672 54.57017,3.403258 C54.8144833,3.620844 54.99008,3.91477633 55.09696,4.285055 C55.18094,4.075103 55.2878267,3.893781 55.41762,3.741089 C55.55122,3.588397 55.7000933,3.462426 55.86424,3.363176 C56.0283867,3.26392667 56.2020733,3.191398 56.3853,3.14559 C56.5723467,3.09978333 56.7613033,3.07688 56.95217,3.07688 C57.2575567,3.07688 57.5285867,3.126505 57.76526,3.225755 C58.0057467,3.321187 58.2080633,3.462427 58.37221,3.649475 C58.54017,3.836523 58.66805,4.06746967 58.75585,4.342315 C58.8436433,4.61334367 58.88754,4.92445367 58.88754,5.275645 L58.88754,8.96889 L57.8626,8.968885 L57.8626,5.275645 C57.8626,4.82138633 57.76335,4.47782933 57.56485,4.244974 C57.36635,4.00830133 57.08005,3.889965 56.70595,3.889965 C56.53799,3.889965 56.3776633,3.920505 56.22497,3.981585 C56.0760967,4.038845 55.9444,4.12473433 55.82988,4.239253 C55.7153667,4.35377233 55.6237533,4.49882967 55.55504,4.674425 C55.4901733,4.84620367 55.45774,5.046612 55.45774,5.27565 L55.45774,8.96889 L54.43279,8.96889 L54.43279,5.27565 C54.43279,4.80993933 54.3392667,4.462565 54.15222,4.233527 C53.9651733,4.004489 53.6922367,3.88997 53.33341,3.88997 C53.08147,3.88997 52.8486133,3.95868133 52.63484,4.096104 C52.4210733,4.22971 52.2244833,4.41294067 52.04507,4.645796 L52.04507,8.96889 L51.02012,8.96889 Z" id="path980"></path>
                <path d="M63.58018,6.357849 C63.1106533,6.37311567 62.7098367,6.41128867 62.37773,6.472368 C62.0494433,6.529628 61.7803233,6.605974 61.57037,6.701406 C61.3642367,6.79683867 61.2134533,6.90944933 61.11802,7.039238 C61.0264067,7.169026 60.9806,7.31408333 60.9806,7.47441 C60.9806,7.627102 61.0054,7.758799 61.055,7.869501 C61.1046,7.98020233 61.1714033,8.07181733 61.25541,8.144346 C61.34321,8.213058 61.44437,8.26459167 61.55889,8.298947 C61.6772233,8.329487 61.8031933,8.344757 61.9368,8.344757 C62.1162133,8.344757 62.2803567,8.32758033 62.42923,8.293227 C62.57811,8.25505367 62.7174433,8.20161167 62.84723,8.132901 C62.9808367,8.064189 63.1068067,7.982117 63.22514,7.886685 C63.3472933,7.79125233 63.46563,7.682459 63.58015,7.560305 L63.58018,6.357849 Z M60.28776,3.987305 C60.6084133,3.67810367 60.9538767,3.447157 61.32415,3.294465 C61.69443,3.141773 62.10479,3.065427 62.55523,3.065427 C62.8797033,3.065427 63.16791,3.11886933 63.41985,3.225754 C63.6717967,3.332638 63.8836567,3.48151267 64.05543,3.672378 C64.22721,3.86324267 64.357,4.09418933 64.4448,4.365218 C64.5326,4.63624667 64.5765,4.93399633 64.5765,5.258467 L64.5765,8.968884 L64.12414,8.968884 C64.0248933,8.968884 63.94855,8.953614 63.89511,8.923074 C63.8416433,8.88872067 63.7996533,8.82382667 63.76914,8.728392 L63.65462,8.1787 C63.5019267,8.31994 63.35305,8.445911 63.20799,8.556613 C63.0629367,8.66349767 62.9102467,8.755113 62.74992,8.831459 C62.5895933,8.90398767 62.4178133,8.95933833 62.23458,8.997511 C62.0551667,9.03950433 61.85476,9.060501 61.63336,9.060501 C61.4081333,9.060501 61.1962733,9.02996433 60.99778,8.968891 C60.79928,8.90399767 60.62559,8.808565 60.47671,8.682593 C60.3316567,8.55662167 60.21523,8.39820367 60.12743,8.207339 C60.04345,8.01265633 60.00146,7.78361833 60.00146,7.520225 C60.00146,7.29118633 60.0644467,7.07169133 60.19042,6.86174 C60.3163867,6.64797133 60.52061,6.459015 60.80309,6.294871 C61.08557,6.130727 61.45394,5.99712133 61.9082,5.894054 C62.36246,5.78717 62.9197867,5.72609333 63.58018,5.710824 L63.58018,5.258474 C63.58018,4.808032 63.48284,4.468292 63.28816,4.239254 C63.0934733,4.00639867 62.8090833,3.889971 62.43499,3.889971 C62.18305,3.889971 61.97119,3.92241767 61.79941,3.987311 C61.63145,4.04838433 61.4844833,4.11900433 61.35851,4.199171 C61.2363567,4.275517 61.1294733,4.34613733 61.03786,4.411032 C60.95006,4.47210533 60.86226,4.502642 60.77446,4.502642 C60.7057533,4.502642 60.6465867,4.48546533 60.59696,4.451112 C60.54736,4.41293867 60.50537,4.367131 60.47099,4.313689 L60.28776,3.987305 Z" id="path982"></path>
                <path d="M67.07981,4.010209 C67.2057833,3.868969 67.33939,3.74108933 67.48063,3.62657 C67.62187,3.51205133 67.7707433,3.41471033 67.92725,3.334547 C68.0875767,3.25056633 68.2555367,3.18758067 68.43113,3.14559 C68.6105433,3.09978333 68.8033167,3.07688 69.00945,3.07688 C69.32629,3.07688 69.6049533,3.130322 69.84544,3.237206 C70.0897467,3.34027333 70.2920633,3.48914833 70.45239,3.683831 C70.6165367,3.87469567 70.7406,4.10564233 70.82458,4.376671 C70.90856,4.647699 70.95055,4.947357 70.95055,5.275645 L70.95055,8.968885 L69.92561,8.968885 L69.92561,5.275645 C69.92561,4.83665567 69.82445,4.496916 69.62213,4.256426 C69.42363,4.01211867 69.1201567,3.889965 68.71171,3.889965 C68.4101433,3.889965 68.12766,3.96249367 67.86426,4.107551 C67.6046867,4.25260833 67.3641967,4.44919933 67.14279,4.697324 L67.14279,8.968885 L66.11785,8.968885 L66.11785,3.168495 L66.73053,3.168495 C66.8755833,3.168495 66.96529,3.239115 66.99965,3.380355 L67.07981,4.010209 Z" id="path984"></path>
                <path d="M77.38509,3.168493 L74.14992,10.680943 C74.1155867,10.757289 74.07169,10.818366 74.01823,10.864174 C73.96863,10.9099807 73.8903733,10.932884 73.78346,10.932884 L73.02764,10.932884 L74.08694,8.631051 L71.69349,3.168493 L72.57529,3.168493 C72.6630833,3.168493 72.7317933,3.19139633 72.78142,3.237203 C72.8348867,3.27919633 72.87115,3.32691267 72.89021,3.380352 L74.44195,7.03351 C74.5030167,7.19383667 74.55455,7.36179767 74.59655,7.537393 C74.6500167,7.35798033 74.7072767,7.18811067 74.76833,7.027784 L76.27425,3.380352 C76.2971833,3.31927867 76.3353567,3.26965367 76.38877,3.231477 C76.4460367,3.18949033 76.5090233,3.168497 76.57773,3.168497 L77.38509,3.168493 Z" id="path986"></path>
                <path d="M84.30311,4.124728 C84.25731,4.20870867 84.18669,4.250699 84.09125,4.250699 C84.0339833,4.250699 83.96909,4.22970233 83.89657,4.187709 C83.8240433,4.14571567 83.7343367,4.09990833 83.62745,4.050287 C83.5243833,3.996847 83.40032,3.94913067 83.25526,3.907138 C83.1102067,3.86133133 82.93843,3.838428 82.73993,3.838428 C82.56815,3.838428 82.41355,3.86133133 82.27613,3.907138 C82.1387033,3.94912467 82.0203667,4.00829267 81.92112,4.084642 C81.8256867,4.160988 81.75125,4.25069467 81.69781,4.353762 C81.64821,4.453012 81.62341,4.561805 81.62341,4.680141 C81.62341,4.82901567 81.6654,4.953078 81.74938,5.052328 C81.83718,5.151578 81.9517,5.23746733 82.09294,5.309996 C82.23418,5.38252467 82.3945067,5.44741867 82.57392,5.504678 C82.7533333,5.558118 82.9365633,5.61728633 83.12361,5.682183 C83.3144767,5.743263 83.4996167,5.81197433 83.67903,5.888317 C83.8584433,5.964663 84.01877,6.06009567 84.16001,6.174615 C84.30125,6.28913367 84.41386,6.43037367 84.49784,6.598335 C84.5856333,6.762479 84.62953,6.96097867 84.62953,7.193834 C84.62953,7.46104533 84.5818133,7.70917 84.48638,7.938208 C84.3909533,8.16342867 84.2497133,8.36001967 84.06266,8.527981 C83.8756133,8.692125 83.6465767,8.82191333 83.37555,8.917346 C83.1045233,9.01277867 82.7915033,9.060495 82.43649,9.060495 C82.0318567,9.060495 81.6653967,8.99560067 81.33711,8.865812 C81.0088233,8.73220667 80.73016,8.562337 80.50112,8.356203 L80.74161,7.966838 C80.7721433,7.91721133 80.8084067,7.87903833 80.8504,7.852319 C80.8924,7.825599 80.9458433,7.812239 81.01073,7.812239 C81.0794433,7.812239 81.1519733,7.838959 81.22832,7.892399 C81.3046667,7.945839 81.39628,8.005007 81.50316,8.069903 C81.6138667,8.13479633 81.7474733,8.19396467 81.90398,8.247408 C82.0604867,8.300848 82.25517,8.327568 82.48803,8.327568 C82.68653,8.327568 82.8602167,8.30275467 83.00909,8.253128 C83.1579633,8.199688 83.2820267,8.129068 83.38128,8.041268 C83.4805267,7.95347 83.5530533,7.85231167 83.59886,7.737793 C83.64846,7.62327367 83.67326,7.50112 83.67326,7.371332 C83.67326,7.21100533 83.62936,7.07930833 83.54156,6.976241 C83.45758,6.869357 83.34497,6.77965033 83.20373,6.707121 C83.06249,6.630775 82.9002567,6.565881 82.71703,6.512439 C82.5376167,6.455179 82.3524767,6.396011 82.16161,6.334935 C81.9745633,6.273855 81.7894233,6.20514333 81.60619,6.1288 C81.4267767,6.04863667 81.26645,5.949387 81.12521,5.831051 C80.98397,5.71271433 80.86945,5.56765667 80.78165,5.395878 C80.69767,5.22028267 80.65568,5.00842267 80.65568,4.760298 C80.65568,4.538894 80.70149,4.32703367 80.79311,4.124717 C80.8847233,3.918583 81.0183267,3.73916967 81.19392,3.586477 C81.36952,3.42996767 81.5851967,3.30590567 81.84095,3.214291 C82.09671,3.12267567 82.3887367,3.076868 82.71703,3.076868 C83.0987567,3.076868 83.4404033,3.13794467 83.74197,3.260098 C84.0473567,3.37843467 84.31075,3.54257867 84.53215,3.75253 L84.30311,4.124728 Z" id="path988"></path>
                <path d="M85.89028,8.96889 L85.89028,3.168494 L86.50296,3.168494 C86.6480133,3.168494 86.73772,3.239114 86.77208,3.380354 L86.84648,3.975853 C87.0602533,3.71245967 87.3007433,3.49678233 87.56795,3.328821 C87.8351633,3.16085967 88.1443667,3.076879 88.49556,3.076879 C88.88492,3.076879 89.1998467,3.185672 89.44034,3.403258 C89.6846467,3.620844 89.8602433,3.91477633 89.96713,4.285055 C90.05111,4.075103 90.1579933,3.893781 90.28778,3.741089 C90.4213867,3.588397 90.57026,3.462426 90.7344,3.363176 C90.8985467,3.26392667 91.0722367,3.191398 91.25547,3.14559 C91.4425167,3.09978333 91.6314733,3.07688 91.82234,3.07688 C92.12772,3.07688 92.3987467,3.126505 92.63542,3.225755 C92.8759133,3.321187 93.07823,3.462427 93.24237,3.649475 C93.41033,3.836523 93.53821,4.06746967 93.62601,4.342315 C93.71381,4.61334367 93.75771,4.92445367 93.75771,5.275645 L93.75771,8.96889 L92.73276,8.968885 L92.73276,5.275645 C92.73276,4.82138633 92.63351,4.47782933 92.43501,4.244974 C92.23651,4.00830133 91.9502133,3.889965 91.57612,3.889965 C91.40816,3.889965 91.2478333,3.920505 91.09514,3.981585 C90.9462667,4.038845 90.81457,4.12473433 90.70005,4.239253 C90.58553,4.35377233 90.4939133,4.49882967 90.4252,4.674425 C90.3603333,4.84620367 90.3279,5.046612 90.3279,5.27565 L90.3279,8.96889 L89.30296,8.96889 L89.30296,5.27565 C89.30296,4.80993933 89.2094367,4.462565 89.02239,4.233527 C88.8353367,4.004489 88.5623967,3.88997 88.20357,3.88997 C87.95163,3.88997 87.7187767,3.95868133 87.50501,4.096104 C87.2912367,4.22971 87.0946433,4.41294067 86.91523,4.645796 L86.91523,8.96889 L85.89028,8.96889 Z" id="path990"></path>
                <path d="M98.45033,6.357849 C97.9808033,6.37311567 97.5799867,6.41128867 97.24788,6.472368 C96.9195933,6.529628 96.6504733,6.605974 96.44052,6.701406 C96.2343867,6.79683867 96.0836033,6.90944933 95.98817,7.039238 C95.8965567,7.169026 95.85075,7.31408333 95.85075,7.47441 C95.85075,7.627102 95.87555,7.758799 95.92515,7.869501 C95.97475,7.98020233 96.04155,8.07181733 96.12555,8.144346 C96.21335,8.213058 96.31451,8.26459167 96.42903,8.298947 C96.5473633,8.329487 96.6733333,8.344757 96.80694,8.344757 C96.9863533,8.344757 97.1504967,8.32758033 97.29937,8.293227 C97.44825,8.25505367 97.5875833,8.20161167 97.71737,8.132901 C97.8509767,8.064189 97.9769467,7.982117 98.09528,7.886685 C98.2174333,7.79125233 98.33577,7.682459 98.45029,7.560305 L98.45033,6.357849 Z M95.15791,3.987305 C95.4785633,3.67810367 95.82403,3.447157 96.19431,3.294465 C96.5645833,3.141773 96.9749433,3.065427 97.42539,3.065427 C97.7498567,3.065427 98.03806,3.11886933 98.29,3.225754 C98.5419467,3.332638 98.7538067,3.48151267 98.92558,3.672378 C99.09736,3.86324267 99.22715,4.09418933 99.31495,4.365218 C99.40275,4.63624667 99.44665,4.93399633 99.44665,5.258467 L99.44665,8.968884 L98.9943,8.968884 C98.8950467,8.968884 98.8187,8.953614 98.76526,8.923074 C98.7117933,8.88872067 98.6698033,8.82382667 98.63929,8.728392 L98.52477,8.1787 C98.3720767,8.31994 98.2232,8.445911 98.07814,8.556613 C97.9330867,8.66349767 97.7803967,8.755113 97.62007,8.831459 C97.4597433,8.90398767 97.2879633,8.95933833 97.10473,8.997511 C96.9253167,9.03950433 96.72491,9.060501 96.50351,9.060501 C96.27829,9.060501 96.06643,9.02996433 95.86793,8.968891 C95.66943,8.90399767 95.49574,8.808565 95.34686,8.682593 C95.2018067,8.55662167 95.08538,8.39820367 94.99758,8.207339 C94.9136,8.01265633 94.87161,7.78361833 94.87161,7.520225 C94.87161,7.29118633 94.9345967,7.07169133 95.06057,6.86174 C95.1865367,6.64797133 95.39076,6.459015 95.67324,6.294871 C95.95572,6.130727 96.32409,5.99712133 96.77835,5.894054 C97.23261,5.78717 97.7899367,5.72609333 98.45033,5.710824 L98.45033,5.258474 C98.45033,4.808032 98.35299,4.468292 98.15831,4.239254 C97.9636233,4.00639867 97.6792333,3.889971 97.30514,3.889971 C97.0532,3.889971 96.84134,3.92241767 96.66956,3.987311 C96.5016,4.04838433 96.3546333,4.11900433 96.22866,4.199171 C96.1065067,4.275517 95.9996233,4.34613733 95.90801,4.411032 C95.82021,4.47210533 95.73241,4.502642 95.64461,4.502642 C95.5759033,4.502642 95.5167367,4.48546533 95.46711,4.451112 C95.41751,4.41293867 95.37552,4.367131 95.34114,4.313689 L95.15791,3.987305 Z" id="path992"></path>
                <polygon id="path994" points="102.04158 0.534556 102.04158 8.968884 101.02236 8.968884 101.02236 0.534556"></polygon>
                <polygon id="path996" points="104.74799 0.534556 104.74799 8.968884 103.72877 8.968884 103.72877 0.534556"></polygon>
                <path d="M111.11166,9.060499 C110.653587,9.060499 110.300487,8.93261933 110.05236,8.67686 C109.808053,8.42110067 109.6859,8.052731 109.6859,7.571751 L109.6859,4.021661 L108.98733,4.021661 C108.926263,4.021661 108.87473,4.00448433 108.83273,3.970131 C108.79073,3.93195767 108.76973,3.87469833 108.76973,3.798353 L108.76973,3.39181 L109.72024,3.271565 L109.955,1.479342 C109.966467,1.422082 109.991267,1.37627433 110.0294,1.341919 C110.0714,1.30374567 110.12484,1.284659 110.18972,1.284659 L110.70506,1.284659 L110.70506,3.283016 L112.38276,3.283016 L112.38276,4.021664 L110.70506,4.021664 L110.70506,7.503043 C110.70506,7.74735033 110.76423,7.928672 110.88257,8.047008 C111.000903,8.16534467 111.153593,8.224513 111.34064,8.224513 C111.447527,8.224513 111.539143,8.211153 111.61549,8.184433 C111.69565,8.153893 111.76436,8.12144633 111.82162,8.087093 C111.878887,8.05273967 111.926603,8.022203 111.96477,7.995483 C112.00677,7.964943 112.043033,7.949673 112.07356,7.949673 C112.127027,7.949673 112.174743,7.98211967 112.21671,8.047013 L112.51446,8.533719 C112.338867,8.697863 112.127007,8.82765133 111.87888,8.923084 C111.630753,9.01469933 111.374993,9.060507 111.1116,9.060507 L111.11166,9.060499 Z" id="path998"></path>
                <path d="M114.47137,3.941498 C114.719497,3.678104 114.994343,3.46815233 115.29591,3.311643 C115.597477,3.15513367 115.94485,3.076879 116.33803,3.076879 C116.654863,3.076879 116.933527,3.130321 117.17402,3.237205 C117.418327,3.34027233 117.620643,3.48914733 117.78097,3.68383 C117.945117,3.87469467 118.06918,4.10564133 118.15316,4.37667 C118.23714,4.647698 118.27913,4.947356 118.27913,5.275644 L118.27913,8.968884 L117.25418,8.968884 L117.25418,5.275644 C117.25418,4.83665467 117.153023,4.496915 116.95071,4.256425 C116.75221,4.01211767 116.448733,3.889964 116.04028,3.889964 C115.738713,3.889964 115.456233,3.96249267 115.19284,4.10755 C114.93326,4.25260733 114.69277,4.44919833 114.47137,4.697323 L114.47137,8.968884 L113.44642,8.968884 L113.44642,0.534556 L114.47137,0.534556 L114.47137,3.941498 Z" id="path1000"></path>
                <path d="M120.91986,3.168494 L120.91986,8.968884 L119.90064,8.968884 L119.90064,3.168494 L120.91986,3.168494 Z M121.13745,1.347641 C121.13745,1.446891 121.11645,1.540415 121.07445,1.628213 C121.03625,1.71219367 120.982807,1.78853967 120.91412,1.857251 C120.849253,1.92214433 120.771,1.973678 120.67936,2.011852 C120.59156,2.05002533 120.498037,2.069112 120.39879,2.069112 C120.299537,2.069112 120.206013,2.05002533 120.11822,2.011852 C120.03424,1.97367867 119.959803,1.922145 119.89491,1.857251 C119.829977,1.78853967 119.77844,1.71219367 119.7403,1.628213 C119.7021,1.540415 119.683,1.446891 119.683,1.347641 C119.683,1.248391 119.7021,1.15486733 119.7403,1.06707 C119.7785,0.975454667 119.830037,0.8972 119.89491,0.832306 C119.959777,0.763594 120.034213,0.710151667 120.11822,0.671979 C120.206013,0.633805667 120.299537,0.614719 120.39879,0.614719 C120.498037,0.614719 120.59156,0.633805667 120.67936,0.671979 C120.770973,0.710152333 120.849227,0.763594667 120.91412,0.832306 C120.982833,0.897199333 121.036277,0.975454 121.07445,1.06707 C121.11645,1.15486733 121.13745,1.248391 121.13745,1.347641 Z" id="path1002"></path>
                <path d="M123.55649,4.010209 C123.682457,3.868969 123.81606,3.74108933 123.9573,3.62657 C124.09854,3.51205133 124.247417,3.41471033 124.40393,3.334547 C124.564257,3.25056633 124.732217,3.18758067 124.90781,3.14559 C125.087223,3.09978333 125.279997,3.07688 125.48613,3.07688 C125.80297,3.07688 126.081633,3.130322 126.32212,3.237206 C126.566427,3.34027333 126.768743,3.48914833 126.92907,3.683831 C127.093217,3.87469567 127.21728,4.10564233 127.30126,4.376671 C127.38524,4.647699 127.42723,4.947357 127.42723,5.275645 L127.42723,8.968885 L126.40228,8.968885 L126.40228,5.275645 C126.40228,4.83665567 126.301123,4.496916 126.09881,4.256426 C125.90031,4.01211867 125.596833,3.889965 125.18838,3.889965 C124.886813,3.889965 124.604333,3.96249367 124.34094,4.107551 C124.081367,4.25260833 123.840877,4.44919933 123.61947,4.697324 L123.61947,8.968885 L122.59453,8.968885 L122.59453,3.168495 L123.2072,3.168495 C123.35226,3.168495 123.441967,3.239115 123.47632,3.380355 L123.55649,4.010209 Z" id="path1004"></path>
                <path d="M131.01275,6.134537 C131.218883,6.134537 131.400207,6.105907 131.55672,6.048647 C131.713227,5.991387 131.844923,5.91122367 131.95181,5.808157 C132.05869,5.70508967 132.138853,5.582936 132.1923,5.441696 C132.245767,5.29663867 132.2725,5.13822067 132.2725,4.966442 C132.2725,4.61143267 132.163707,4.32895233 131.94612,4.119001 C131.732353,3.90904967 131.421243,3.804074 131.01279,3.804074 C130.600523,3.804074 130.285597,3.90904967 130.06801,4.119001 C129.854243,4.32895233 129.74736,4.61143267 129.74736,4.966442 C129.74736,5.13822067 129.774093,5.29663867 129.82756,5.441696 C129.884827,5.582936 129.9669,5.70508967 130.07378,5.808157 C130.18066,5.91122433 130.312357,5.99138767 130.46887,6.048647 C130.625377,6.105907 130.806697,6.134537 131.01283,6.134537 L131.01275,6.134537 Z M132.85078,9.283811 C132.85078,9.142571 132.8107,9.028052 132.73054,8.940254 C132.650373,8.852456 132.54158,8.78374433 132.40416,8.734119 C132.270553,8.68449233 132.114043,8.65013667 131.93463,8.631052 C131.755217,8.608152 131.564353,8.59097533 131.36204,8.579522 C131.16354,8.56806867 130.96122,8.55661533 130.75508,8.545162 C130.548947,8.53370867 130.35045,8.514622 130.15959,8.487902 C129.945817,8.58715133 129.77022,8.713122 129.6328,8.865814 C129.499193,9.01468933 129.43239,9.19028533 129.43239,9.392602 C129.43239,9.52239 129.464823,9.642635 129.52969,9.753337 C129.598403,9.86785633 129.70147,9.96519767 129.83889,10.045361 C129.976317,10.129341 130.148097,10.194235 130.35423,10.240043 C130.564177,10.2896697 130.810393,10.314483 131.09288,10.314483 C131.36772,10.314483 131.613933,10.2896697 131.83152,10.240043 C132.049107,10.1904163 132.232337,10.1197963 132.38121,10.028183 C132.533903,9.93656767 132.650333,9.82777433 132.7305,9.701803 C132.81066,9.57583233 132.85074,9.436501 132.85074,9.283809 L132.85078,9.283811 Z M133.88718,3.397532 L133.88718,3.775445 C133.88718,3.90141567 133.807017,3.981579 133.64669,4.015935 L132.98821,4.101825 C133.117997,4.353767 133.18289,4.63243 133.18289,4.937814 C133.18289,5.22029467 133.12754,5.47796267 133.01684,5.710818 C132.909953,5.939856 132.761077,6.136447 132.57021,6.300591 C132.379343,6.464735 132.150307,6.590706 131.8831,6.678504 C131.615887,6.766302 131.32577,6.810201 131.01275,6.810201 C130.741723,6.810201 130.485963,6.77775433 130.24547,6.712861 C130.123317,6.789207 130.029793,6.871279 129.9649,6.959077 C129.900033,7.04305767 129.8676,7.128947 129.8676,7.216745 C129.8676,7.35416767 129.92295,7.45914367 130.03365,7.531673 C130.14817,7.60038433 130.297047,7.650009 130.48028,7.680547 C130.663507,7.711087 130.87155,7.73017367 131.10441,7.737807 C131.341083,7.74544033 131.581573,7.75880033 131.82588,7.777887 C132.074,7.79315367 132.31449,7.82178367 132.54735,7.863777 C132.784023,7.90577033 132.993973,7.97448167 133.1772,8.069911 C133.360433,8.16534367 133.5074,8.29704067 133.6181,8.465002 C133.73262,8.63296333 133.78988,8.85054933 133.78988,9.11776 C133.78988,9.36588467 133.726893,9.60637467 133.60092,9.83923 C133.478767,10.0720853 133.301263,10.2782197 133.06841,10.457633 C132.835557,10.6408637 132.54926,10.785921 132.20952,10.892805 C131.873593,11.003507 131.49377,11.058858 131.07005,11.058858 C130.64633,11.058858 130.276053,11.0168677 129.95922,10.932887 C129.64238,10.8489063 129.378987,10.736296 129.16904,10.595056 C128.959087,10.453816 128.800667,10.289672 128.69378,10.102624 C128.590713,9.91939333 128.53918,9.72661967 128.53918,9.524303 C128.53918,9.238005 128.628887,8.99560633 128.8083,8.797107 C128.987713,8.598607 129.23393,8.440189 129.54695,8.321853 C129.37517,8.245507 129.237747,8.14434833 129.13468,8.018377 C129.035427,7.888589 128.9858,7.714902 128.9858,7.497316 C128.9858,7.41333533 129.001067,7.327446 129.0316,7.239648 C129.062133,7.14803267 129.107943,7.058326 129.16903,6.970528 C129.233897,6.87891267 129.31215,6.79302333 129.40379,6.71286 C129.495403,6.63269667 129.602287,6.56207667 129.72444,6.501 C129.438147,6.34067333 129.214837,6.128813 129.05451,5.865419 C128.894183,5.59820833 128.81402,5.289007 128.81402,4.937815 C128.81402,4.655335 128.86746,4.399576 128.97434,4.170538 C129.085047,3.93768267 129.23774,3.74109167 129.43242,3.580765 C129.6271,3.416621 129.858047,3.29065 130.12526,3.202852 C130.396287,3.115054 130.692127,3.071155 131.01278,3.071155 C131.26472,3.071155 131.499483,3.099785 131.71707,3.157045 C131.934657,3.210485 132.133157,3.29064833 132.31257,3.397535 L133.88718,3.397532 Z" id="path1006"></path>
                <path d="M138.31942,4.124728 C138.27362,4.20870867 138.203,4.250699 138.10756,4.250699 C138.050293,4.250699 137.9854,4.22970233 137.91288,4.187709 C137.840347,4.14571567 137.75064,4.09990833 137.64376,4.050287 C137.540693,3.996847 137.41663,3.94913067 137.27157,3.907138 C137.12651,3.86133133 136.95473,3.838428 136.75623,3.838428 C136.584457,3.838428 136.429857,3.86133133 136.29243,3.907138 C136.15501,3.94912467 136.036673,4.00829267 135.93742,4.084642 C135.841987,4.160988 135.76755,4.25069467 135.71411,4.353762 C135.66451,4.453012 135.63971,4.561805 135.63971,4.680141 C135.63971,4.82901567 135.6817,4.953078 135.76568,5.052328 C135.85348,5.151578 135.968,5.23746733 136.10924,5.309996 C136.25048,5.38252467 136.410807,5.44741867 136.59022,5.504678 C136.769633,5.558118 136.952863,5.61728633 137.13991,5.682183 C137.330777,5.743263 137.515917,5.81197433 137.69533,5.888317 C137.874743,5.964663 138.03507,6.06009567 138.17631,6.174615 C138.31755,6.28913367 138.43016,6.43037367 138.51414,6.598335 C138.60194,6.762479 138.64584,6.96097867 138.64584,7.193834 C138.64584,7.46104533 138.598123,7.70917 138.50269,7.938208 C138.407257,8.16342867 138.266017,8.36001967 138.07897,8.527981 C137.891923,8.692125 137.662883,8.82191333 137.39185,8.917346 C137.120823,9.01277867 136.807807,9.060495 136.4528,9.060495 C136.048167,9.060495 135.681703,8.99560067 135.35341,8.865812 C135.025123,8.73220667 134.746463,8.562337 134.51743,8.356203 L134.75792,7.966838 C134.788453,7.91721133 134.824717,7.87903833 134.86671,7.852319 C134.90871,7.825599 134.962153,7.812239 135.02704,7.812239 C135.095747,7.812239 135.168273,7.838959 135.24462,7.892399 C135.320967,7.945839 135.412583,8.005007 135.51947,8.069903 C135.63017,8.13479633 135.763773,8.19396467 135.92028,8.247408 C136.076793,8.300848 136.271477,8.327568 136.50433,8.327568 C136.70283,8.327568 136.876517,8.30275467 137.02539,8.253128 C137.17427,8.199688 137.298333,8.129068 137.39758,8.041268 C137.496827,7.95347 137.569357,7.85231167 137.61517,7.737793 C137.66477,7.62327367 137.68957,7.50112 137.68957,7.371332 C137.68957,7.21100533 137.645673,7.07930833 137.55788,6.976241 C137.4739,6.869357 137.36129,6.77965033 137.22005,6.707121 C137.07881,6.630775 136.916573,6.565881 136.73334,6.512439 C136.553927,6.455179 136.368787,6.396011 136.17792,6.334935 C135.990873,6.273855 135.805733,6.20514333 135.6225,6.1288 C135.443087,6.04863667 135.28276,5.949387 135.14152,5.831051 C135.00028,5.71271433 134.885763,5.56765667 134.79797,5.395878 C134.71399,5.22028267 134.672,5.00842267 134.672,4.760298 C134.672,4.538894 134.717807,4.32703367 134.80942,4.124717 C134.901033,3.918583 135.03464,3.73916967 135.21024,3.586477 C135.385833,3.42996767 135.60151,3.30590567 135.85727,3.214291 C136.11303,3.12267567 136.405053,3.076868 136.73334,3.076868 C137.115067,3.076868 137.456713,3.13794467 137.75828,3.260098 C138.063667,3.37843467 138.327063,3.54257867 138.54847,3.75253 L138.31942,4.124728 Z" id="path1008"></path>
                <path d="M146.61579,4.548448 C146.424923,4.29268933 146.21879,4.115185 145.99739,4.015935 C145.775983,3.91286767 145.527857,3.861334 145.25301,3.861334 C144.71477,3.861334 144.300593,4.05410767 144.01048,4.439655 C143.720367,4.825203 143.57531,5.37489467 143.57531,6.08873 C143.57531,6.46664267 143.607743,6.791113 143.67261,7.062141 C143.737477,7.32935233 143.83291,7.550756 143.95891,7.726352 C144.084877,7.89813067 144.239477,8.02410167 144.42271,8.104265 C144.605937,8.18442833 144.81398,8.22451 145.04684,8.22451 C145.38276,8.22451 145.674783,8.148164 145.92291,7.995472 C146.17485,7.84278 146.405797,7.62710233 146.61575,7.348439 L146.61579,4.548448 Z M147.63501,0.534556 L147.63501,8.968884 L147.02806,8.968884 C146.883,8.968884 146.791383,8.89826367 146.75321,8.757023 L146.66161,8.052731 C146.413483,8.35048033 146.131003,8.59097033 145.81417,8.774201 C145.49733,8.95743167 145.130867,9.049047 144.71478,9.049047 C144.382673,9.049047 144.081107,8.98606133 143.81008,8.86009 C143.539053,8.730302 143.308107,8.54134567 143.11724,8.293221 C142.926373,8.04509633 142.779407,7.735895 142.67634,7.365617 C142.573273,6.995339 142.52174,6.56971 142.52174,6.08873 C142.52174,5.661192 142.579,5.26419267 142.69352,4.897732 C142.80804,4.52745333 142.972183,4.2068 143.18595,3.935772 C143.399723,3.66474333 143.66121,3.452883 143.97041,3.300191 C144.28343,3.14368167 144.63462,3.065427 145.02398,3.065427 C145.378993,3.065427 145.68247,3.12650367 145.93441,3.248657 C146.19017,3.36699367 146.4173,3.53304633 146.6158,3.746815 L146.6158,0.534556 L147.63501,0.534556 Z" id="path1010"></path>
                <path d="M151.70097,3.076879 C152.12469,3.076879 152.50642,3.147499 152.84616,3.288739 C153.1859,3.429979 153.476013,3.63038733 153.7165,3.889964 C153.956993,4.14954067 154.140223,4.464468 154.26619,4.834746 C154.395983,5.20120667 154.46088,5.61156667 154.46088,6.065826 C154.46088,6.523902 154.395983,6.93617033 154.26619,7.302631 C154.140223,7.66909233 153.956993,7.98211133 153.7165,8.241688 C153.476013,8.501264 153.1859,8.70167233 152.84616,8.842913 C152.50642,8.98033567 152.12469,9.049047 151.70097,9.049047 C151.27343,9.049047 150.887883,8.98033567 150.54433,8.842913 C150.20459,8.70167233 149.914473,8.501264 149.67398,8.241688 C149.433493,7.98211133 149.248353,7.66909233 149.11856,7.302631 C148.992593,6.93617033 148.92961,6.523902 148.92961,6.065826 C148.92961,5.61156667 148.992593,5.20120667 149.11856,4.834746 C149.248353,4.464468 149.433493,4.14954067 149.67398,3.889964 C149.914473,3.63038733 150.20459,3.429979 150.54433,3.288739 C150.887883,3.147499 151.27343,3.076879 151.70097,3.076879 L151.70097,3.076879 Z M151.70097,8.253139 C152.273563,8.253139 152.7011,8.062274 152.98358,7.680544 C153.26606,7.29499667 153.4073,6.758666 153.4073,6.071552 C153.4073,5.38062 153.26606,4.84238033 152.98358,4.456833 C152.7011,4.07128567 152.273563,3.878512 151.70097,3.878512 C151.410857,3.878512 151.157007,3.928137 150.93942,4.027387 C150.725647,4.126637 150.546233,4.26978567 150.40118,4.456833 C150.25994,4.643881 150.153053,4.87482767 150.08052,5.149673 C150.011813,5.42070167 149.97746,5.72799467 149.97746,6.071552 C149.97746,6.758666 150.1187,7.29499667 150.40118,7.680544 C150.687473,8.062274 151.120737,8.253139 151.70097,8.253139 L151.70097,8.253139 Z" id="path1012"></path>
                <path d="M156.70438,4.010209 C156.830353,3.868969 156.96396,3.74108933 157.1052,3.62657 C157.24644,3.51205133 157.395313,3.41471033 157.55182,3.334547 C157.712147,3.25056633 157.88011,3.18758067 158.05571,3.14559 C158.235123,3.09978333 158.427897,3.07688 158.63403,3.07688 C158.950863,3.07688 159.229527,3.130322 159.47002,3.237206 C159.714327,3.34027333 159.916643,3.48914833 160.07697,3.683831 C160.24111,3.87469567 160.36517,4.10564233 160.44915,4.376671 C160.533137,4.647699 160.57513,4.947357 160.57513,5.275645 L160.57513,8.968885 L159.55018,8.968885 L159.55018,5.275645 C159.55018,4.83665567 159.44902,4.496916 159.2467,4.256426 C159.0482,4.01211867 158.744727,3.889965 158.33628,3.889965 C158.034713,3.889965 157.752233,3.96249367 157.48884,4.107551 C157.22926,4.25260833 156.98877,4.44919933 156.76737,4.697324 L156.76737,8.968885 L155.74242,8.968885 L155.74242,3.168495 L156.3551,3.168495 C156.500153,3.168495 156.58986,3.239115 156.62422,3.380355 L156.70438,4.010209 Z" id="path1014"></path>
                <path d="M166.02157,5.435971 C166.02157,5.19929833 165.987217,4.98362067 165.91851,4.788938 C165.853643,4.59043867 165.7563,4.420569 165.62648,4.279329 C165.500513,4.13427167 165.345913,4.02356967 165.16268,3.947223 C164.979453,3.86705967 164.77141,3.826978 164.53855,3.826978 C164.049937,3.826978 163.66248,3.970127 163.37618,4.256425 C163.0937,4.538905 162.918107,4.932087 162.8494,5.435971 L166.02157,5.435971 Z M166.84611,8.155798 C166.720143,8.30849 166.56936,8.44209567 166.39376,8.556615 C166.218167,8.667317 166.02921,8.75893233 165.82689,8.831461 C165.62839,8.90398967 165.422257,8.95743167 165.20849,8.991787 C164.994723,9.02996033 164.782863,9.049047 164.57291,9.049047 C164.17209,9.049047 163.80181,8.98224433 163.46207,8.848639 C163.12615,8.71121567 162.834127,8.51271567 162.586,8.253139 C162.341693,7.98974567 162.15083,7.66527533 162.01341,7.279728 C161.875983,6.89418 161.80727,6.451373 161.80727,5.951307 C161.80727,5.546673 161.868347,5.16876 161.9905,4.817568 C162.116473,4.46637667 162.295887,4.16290133 162.52874,3.907142 C162.7616,3.64756533 163.04599,3.44524833 163.38191,3.300191 C163.71783,3.15131633 164.095743,3.076879 164.51565,3.076879 C164.863023,3.076879 165.183677,3.136047 165.47761,3.254383 C165.775357,3.36890233 166.031117,3.53686367 166.24489,3.758267 C166.462477,3.975853 166.632347,4.24688133 166.7545,4.571352 C166.876653,4.89200533 166.93773,5.25846633 166.93773,5.670735 C166.93773,5.83106167 166.920563,5.937946 166.88623,5.991388 C166.851897,6.044828 166.787003,6.071548 166.69155,6.071548 L162.81508,6.071548 C162.826547,6.43800867 162.876173,6.75675333 162.96396,7.027782 C163.055573,7.29881 163.181543,7.52593933 163.34187,7.70917 C163.502197,7.88858333 163.69306,8.02409767 163.91446,8.115713 C164.135867,8.203511 164.383993,8.24741 164.65884,8.24741 C164.9146,8.24741 165.134093,8.21878 165.31732,8.16152 C165.504367,8.10044667 165.664693,8.03555267 165.7983,7.966838 C165.931907,7.89812667 166.04261,7.835141 166.13041,7.777881 C166.222023,7.71680767 166.300277,7.686271 166.36517,7.686271 C166.44915,7.686271 166.514043,7.71871767 166.55985,7.783611 L166.84611,8.155798 Z" id="path1016"></path>
                <path d="M172.07624,4.330862 C172.259473,3.93386267 172.484693,3.62466133 172.7519,3.403258 C173.019113,3.17803733 173.345493,3.065427 173.73104,3.065427 C173.853193,3.065427 173.969623,3.078787 174.08033,3.105507 C174.194843,3.132227 174.296,3.174217 174.3838,3.231477 L174.3094,3.993029 C174.286533,4.08846167 174.229273,4.136178 174.13762,4.136178 C174.084153,4.136178 174.0059,4.12472467 173.90286,4.101818 C173.799793,4.07891133 173.683367,4.067458 173.55358,4.067458 C173.370347,4.067458 173.206203,4.094178 173.06115,4.147618 C172.91991,4.201058 172.79203,4.28122133 172.67751,4.388108 C172.566803,4.49117533 172.465643,4.62096367 172.37403,4.777473 C172.28623,4.930165 172.206067,5.10576067 172.13354,5.30426 L172.13354,8.96887 L171.1086,8.96887 L171.1086,3.16848 L171.69264,3.16848 C171.803347,3.16848 171.879693,3.18947333 171.92168,3.23146 C171.96368,3.27345333 171.992313,3.34598233 172.00758,3.449047 L172.07624,4.330862 Z" id="path1018"></path>
                <path d="M176.3453,3.168494 L176.3453,8.968884 L175.32608,8.968884 L175.32608,3.168494 L176.3453,3.168494 Z M176.56288,1.347641 C176.56288,1.446891 176.54188,1.540415 176.49988,1.628213 C176.46168,1.71219367 176.408237,1.78853967 176.33955,1.857251 C176.274683,1.92214433 176.19643,1.973678 176.10479,2.011852 C176.01699,2.05002533 175.923467,2.069112 175.82422,2.069112 C175.724967,2.069112 175.631443,2.05002533 175.54365,2.011852 C175.459663,1.97367867 175.385223,1.922145 175.32033,1.857251 C175.255463,1.78853967 175.20393,1.71219367 175.16573,1.628213 C175.12753,1.540415 175.10843,1.446891 175.10843,1.347641 C175.10843,1.248391 175.12753,1.15486733 175.16573,1.06707 C175.20393,0.975454667 175.255463,0.8972 175.32033,0.832306 C175.385197,0.763594 175.459637,0.710151667 175.54365,0.671979 C175.631443,0.633805667 175.724967,0.614719 175.82422,0.614719 C175.923467,0.614719 176.01699,0.633805667 176.10479,0.671979 C176.196403,0.710152333 176.274657,0.763594667 176.33955,0.832306 C176.408263,0.897199333 176.461707,0.975454 176.49988,1.06707 C176.54188,1.15486733 176.56288,1.248391 176.56288,1.347641 Z" id="path1020"></path>
                <path d="M180.04121,6.134537 C180.247343,6.134537 180.428667,6.105907 180.58518,6.048647 C180.741687,5.991387 180.873383,5.91122367 180.98027,5.808157 C181.08715,5.70508967 181.167313,5.582936 181.22076,5.441696 C181.274227,5.29663867 181.30096,5.13822067 181.30096,4.966442 C181.30096,4.61143267 181.192167,4.32895233 180.97458,4.119001 C180.760813,3.90904967 180.449703,3.804074 180.04125,3.804074 C179.628983,3.804074 179.314057,3.90904967 179.09647,4.119001 C178.882697,4.32895233 178.77581,4.61143267 178.77581,4.966442 C178.77581,5.13822067 178.802543,5.29663867 178.85601,5.441696 C178.913277,5.582936 178.995347,5.70508967 179.10222,5.808157 C179.209107,5.91122433 179.340803,5.99138767 179.49731,6.048647 C179.653823,6.105907 179.835147,6.134537 180.04128,6.134537 L180.04121,6.134537 Z M181.87924,9.283811 C181.87924,9.142571 181.83916,9.028052 181.759,8.940254 C181.678833,8.852456 181.57004,8.78374433 181.43262,8.734119 C181.299013,8.68449233 181.142503,8.65013667 180.96309,8.631052 C180.783677,8.608152 180.59281,8.59097533 180.39049,8.579522 C180.19199,8.56806867 179.989673,8.55661533 179.78354,8.545162 C179.577407,8.53370867 179.378907,8.514622 179.18804,8.487902 C178.974273,8.58715133 178.79868,8.713122 178.66126,8.865814 C178.527653,9.01468933 178.46085,9.19028533 178.46085,9.392602 C178.46085,9.52239 178.493283,9.642635 178.55815,9.753337 C178.626863,9.86785633 178.72993,9.96519767 178.86735,10.045361 C179.00477,10.129341 179.17655,10.194235 179.38269,10.240043 C179.592637,10.2896697 179.83885,10.314483 180.12133,10.314483 C180.396177,10.314483 180.642393,10.2896697 180.85998,10.240043 C181.077567,10.1904163 181.260797,10.1197963 181.40967,10.028183 C181.562363,9.93656767 181.678793,9.82777433 181.75896,9.701803 C181.83912,9.57583233 181.8792,9.436501 181.8792,9.283809 L181.87924,9.283811 Z M182.91564,3.397532 L182.91564,3.775445 C182.91564,3.90141567 182.835477,3.981579 182.67515,4.015935 L182.01666,4.101825 C182.146453,4.353767 182.21135,4.63243 182.21135,4.937814 C182.21135,5.22029467 182.155997,5.47796267 182.04529,5.710818 C181.93841,5.939856 181.789537,6.136447 181.59867,6.300591 C181.407803,6.464735 181.178763,6.590706 180.91155,6.678504 C180.644343,6.766302 180.35423,6.810201 180.04121,6.810201 C179.770183,6.810201 179.514423,6.77775433 179.27393,6.712861 C179.151777,6.789207 179.058253,6.871279 178.99336,6.959077 C178.928493,7.04305767 178.89606,7.128947 178.89606,7.216745 C178.89606,7.35416767 178.95141,7.45914367 179.06211,7.531673 C179.17663,7.60038433 179.325507,7.650009 179.50874,7.680547 C179.691967,7.711087 179.900007,7.73017367 180.13286,7.737807 C180.369533,7.74544033 180.610023,7.75880033 180.85433,7.777887 C181.102457,7.79315367 181.342947,7.82178367 181.5758,7.863777 C181.812473,7.90577033 182.022427,7.97448167 182.20566,8.069911 C182.388893,8.16534367 182.53586,8.29704067 182.64656,8.465002 C182.76108,8.63296333 182.81834,8.85054933 182.81834,9.11776 C182.81834,9.36588467 182.755353,9.60637467 182.62938,9.83923 C182.507227,10.0720853 182.329723,10.2782197 182.09687,10.457633 C181.86401,10.6408637 181.57771,10.785921 181.23797,10.892805 C180.90205,11.003507 180.52223,11.058858 180.09851,11.058858 C179.67479,11.058858 179.30451,11.0168677 178.98767,10.932887 C178.670837,10.8489063 178.407443,10.736296 178.19749,10.595056 C177.987543,10.453816 177.829127,10.289672 177.72224,10.102624 C177.619173,9.91939333 177.56764,9.72661967 177.56764,9.524303 C177.56764,9.238005 177.657347,8.99560633 177.83676,8.797107 C178.016173,8.598607 178.26239,8.440189 178.57541,8.321853 C178.40363,8.245507 178.266207,8.14434833 178.16314,8.018377 C178.063887,7.888589 178.01426,7.714902 178.01426,7.497316 C178.01426,7.41333533 178.029527,7.327446 178.06006,7.239648 C178.090593,7.14803267 178.1364,7.058326 178.19748,6.970528 C178.262347,6.87891267 178.340603,6.79302333 178.43225,6.71286 C178.523863,6.63269667 178.630747,6.56207667 178.7529,6.501 C178.4666,6.34067333 178.243287,6.128813 178.08296,5.865419 C177.922633,5.59820833 177.84247,5.289007 177.84247,4.937815 C177.84247,4.655335 177.895913,4.399576 178.0028,4.170538 C178.1135,3.93768267 178.266193,3.74109167 178.46088,3.580765 C178.65556,3.416621 178.886507,3.29065 179.15372,3.202852 C179.424747,3.115054 179.720587,3.071155 180.04124,3.071155 C180.29318,3.071155 180.527943,3.099785 180.74553,3.157045 C180.963117,3.210485 181.161617,3.29064833 181.34103,3.397535 L182.91564,3.397532 Z" id="path1022"></path>
                <path d="M184.99452,3.941498 C185.242647,3.678104 185.517493,3.46815233 185.81906,3.311643 C186.120627,3.15513367 186.468003,3.076879 186.86119,3.076879 C187.178023,3.076879 187.456683,3.130321 187.69717,3.237205 C187.941483,3.34027233 188.143803,3.48914733 188.30413,3.68383 C188.46827,3.87469467 188.59233,4.10564133 188.67631,4.37667 C188.76029,4.647698 188.80228,4.947356 188.80228,5.275644 L188.80228,8.968884 L187.77734,8.968884 L187.77734,5.275644 C187.77734,4.83665467 187.67618,4.496915 187.47386,4.256425 C187.27536,4.01211767 186.971887,3.889964 186.56344,3.889964 C186.261873,3.889964 185.97939,3.96249267 185.71599,4.10755 C185.456417,4.25260733 185.215927,4.44919833 184.99452,4.697323 L184.99452,8.968884 L183.96958,8.968884 L183.96958,0.534556 L184.99452,0.534556 L184.99452,3.941498 Z" id="path1024"></path>
                <path d="M192.05785,9.060499 C191.59977,9.060499 191.246667,8.93261933 190.99854,8.67686 C190.754233,8.42110067 190.63208,8.052731 190.63208,7.571751 L190.63208,4.021661 L189.93352,4.021661 C189.872453,4.021661 189.82092,4.00448433 189.77892,3.970131 C189.73692,3.93195767 189.71592,3.87469833 189.71592,3.798353 L189.71592,3.39181 L190.66643,3.271565 L190.90119,1.479342 C190.912657,1.422082 190.937457,1.37627433 190.97559,1.341919 C191.01759,1.30374567 191.071033,1.284659 191.13592,1.284659 L191.65125,1.284659 L191.65125,3.283016 L193.32896,3.283016 L193.32896,4.021664 L191.65125,4.021664 L191.65125,7.503043 C191.65125,7.74735033 191.71042,7.928672 191.82876,8.047008 C191.947093,8.16534467 192.099783,8.224513 192.28683,8.224513 C192.393717,8.224513 192.485333,8.211153 192.56168,8.184433 C192.64184,8.153893 192.71055,8.12144633 192.76781,8.087093 C192.825077,8.05273967 192.872793,8.022203 192.91096,7.995483 C192.95296,7.964943 192.989227,7.949673 193.01976,7.949673 C193.073227,7.949673 193.12094,7.98211967 193.1629,8.047013 L193.46065,8.533719 C193.285057,8.697863 193.073197,8.82765133 192.82507,8.923084 C192.57695,9.01469933 192.321193,9.060507 192.0578,9.060507 L192.05785,9.060499 Z" id="path1026"></path>
            </g>
            <path d="M129.99601,0.8791294 C126.3748,0.8791294 124.5636,4.204651 124.5636,10.852875 C124.5636,17.533005 126.47505,20.876507 130.30504,20.876507 C131.48488,20.876507 132.45746,20.636876 133.22775,20.160038 L133.22775,14.816316 C133.22775,11.575963 132.1343,9.957632 129.94612,9.957632 C129.63694,9.957632 129.33911,9.984222 129.04949,10.033852 L129.04949,12.181873 C129.13389,12.165963 129.27991,12.156923 129.48603,12.156923 C129.8938,12.156923 130.18525,12.301255 130.35494,12.589298 C130.57704,12.949143 130.68892,13.617026 130.68892,14.584878 L130.68892,18.675819 C130.62132,18.693619 130.52931,18.702159 130.40759,18.702159 C128.34112,18.702159 127.30751,16.083887 127.30751,10.852875 C127.30751,5.65377 128.37259,3.056255 130.51016,3.056255 C130.83354,3.056255 131.23555,3.107155 131.71442,3.207306 L131.71442,1.111945 C131.16981,0.9568424 130.5948,0.8791274 129.99601,0.8791294 Z M193.37509,0.8805294 C189.7521,0.8805294 187.94129,4.20605 187.94129,10.854273 C187.94129,17.534405 189.7521,20.876523 193.37509,20.876523 C193.85394,20.876523 194.29829,20.816023 194.70963,20.69637 L194.70963,18.60101 C194.33294,18.6666 194.04051,18.702173 193.83794,18.702173 C191.73594,18.702173 190.6866,16.085285 190.6866,10.854273 C190.6866,5.654285 191.72021,3.056267 193.78667,3.056267 C193.93947,3.056267 194.24767,3.098677 194.70963,3.183765 L194.70963,1.060694 C194.29829,0.9419244 193.85394,0.8805414 193.37509,0.8805414 L193.37509,0.8805294 Z M226.56409,0.8805294 C225.23145,0.8805294 224.20591,1.480304 223.48895,2.672394 C222.533,4.272187 222.05463,7.009084 222.05463,10.877834 C222.05463,14.748356 222.533,17.484478 223.48895,19.086043 C224.20591,20.277249 225.23145,20.876523 226.56409,20.876523 C227.89673,20.876523 228.91331,20.277246 229.61427,19.086043 C230.57288,17.484478 231.04998,14.748356 231.04998,10.877834 C231.04998,7.009084 230.57288,4.272187 229.61427,2.672394 C228.91331,1.480304 227.89673,0.8805294 226.56409,0.8805294 Z M248.77878,0.8805294 C247.49589,0.8805294 246.47661,1.255609 245.71611,2.007201 C244.95651,2.757022 244.5742,3.770514 244.5742,5.047689 C244.5742,5.986294 244.75663,6.868176 245.11467,7.695991 C245.47359,8.523806 246.08627,9.559004 246.95781,10.801613 C248.42904,12.8809 249.16404,14.629504 249.16404,16.041399 C249.16404,16.910869 248.9399,17.586361 248.49746,18.060536 C248.10389,18.470898 247.64203,18.67584 247.11164,18.67584 C246.4311,18.67584 245.85619,18.538232 245.39599,18.267024 L244.44809,20.185 C245.16416,20.644995 246.05263,20.876523 247.11164,20.876523 C248.39541,20.876523 249.47811,20.475741 250.36831,19.673633 C251.37845,18.754525 251.87886,17.457491 251.87886,15.785021 C251.87886,14.630157 251.65788,13.512974 251.21366,12.439651 C250.83875,11.568409 250.20668,10.494296 249.31647,9.216235 C248.58264,8.176592 248.08625,7.391356 247.82949,6.863113 C247.43769,6.113295 247.24052,5.418306 247.24052,4.767755 C247.24052,4.239512 247.38155,3.816753 247.66319,3.503886 C247.94571,3.18836 248.30823,3.02855 248.75245,3.02855 C249.178,3.02855 249.58948,3.11653 249.98306,3.284927 L250.90324,1.393281 C250.37641,1.052059 249.66898,0.8805384 248.77878,0.8805384 L248.77878,0.8805294 Z M60.36688,1.009385 L60.36688,20.744849 L62.97916,20.744844 L62.97916,10.214004 L64.72251,15.403899 L65.89908,15.403899 L67.64107,10.214004 L67.64107,20.744849 L70.2852,20.744849 L70.2852,1.009385 L68.97559,1.009396 L65.30871,11.28802 L61.67371,1.009396 L60.36688,1.009385 Z M83.48098,1.009385 L83.48098,20.744849 L86.09601,20.744844 L86.09601,9.498922 L90.52924,20.744849 L91.83746,20.744849 L91.83746,1.009385 L89.19608,1.009396 L89.19608,12.3357 L84.78918,1.009396 L83.48098,1.009385 Z M95.27013,1.009385 L95.27013,20.744849 L97.88656,20.744844 L97.88656,9.498922 L102.3198,20.744849 L103.62664,20.744849 L103.62664,1.009385 L100.98526,1.009396 L100.98526,12.3357 L96.57834,1.009396 L95.27013,1.009385 Z M107.05792,1.009385 L107.05792,20.744844 L109.77828,20.744844 L109.77828,1.009385 L107.05792,1.009385 Z M113.18464,1.009385 L113.18464,20.744849 L115.79828,20.744844 L115.79828,9.498922 L120.23429,20.744849 L121.54112,20.744849 L121.54112,1.009385 L118.89974,1.009396 L118.89974,12.3357 L114.49145,1.009396 L113.18464,1.009385 Z M173.5149,1.009385 L173.5149,20.744844 L179.89523,20.744844 L179.89523,18.574651 L176.23111,18.574651 L176.23111,1.00939 L173.5149,1.009385 Z M182.25111,1.009385 L182.25111,20.744844 L184.97009,20.744844 L184.97009,1.009385 L182.25111,1.009385 Z M216.36307,1.009385 L216.36307,20.744844 L219.08204,20.744844 L219.08204,1.009385 L216.36307,1.009385 Z M233.6193,1.009385 L233.6193,20.744849 L236.23018,20.744844 L236.23018,9.498922 L240.6648,20.744849 L241.97163,20.744849 L241.97163,1.009385 L239.33026,1.009396 L239.33026,12.3357 L234.92335,1.009396 L233.6193,1.009385 Z M75.56101,1.010785 L72.56208,20.74486 L74.97341,20.74486 L75.43489,17.244279 L78.14972,17.244279 L78.63753,20.74486 L81.17497,20.74486 L78.17883,1.010785 L75.56101,1.010785 Z M140.93984,1.010785 L140.93984,20.746244 L143.65881,20.746244 L143.65881,14.407515 C144.68316,14.137189 145.65566,13.530584 146.57872,12.589321 C147.97889,11.144634 148.67825,9.283737 148.67824,7.018325 C148.67824,4.921312 148.09843,3.353497 146.93903,2.312083 C145.94666,1.441722 144.63932,1.010796 143.01438,1.010796 L140.93984,1.010785 Z M151.13947,1.010776 L151.13947,15.891718 C151.13947,17.526077 151.55055,18.796412 152.37146,19.701337 C153.10352,20.48395 154.02663,20.876513 155.13893,20.876513 C156.26722,20.876513 157.19534,20.48395 157.93274,19.701337 C158.76874,18.796412 159.18832,17.526077 159.1883,15.891718 L159.1883,1.010776 L156.47209,1.010776 L156.47209,16.425249 C156.47209,17.160887 156.33502,17.721042 156.0605,18.114563 C155.78864,18.503655 155.48097,18.703536 155.13893,18.703536 C154.796,18.703536 154.49767,18.503655 154.24093,18.114563 C153.98595,17.721042 153.85705,17.160887 153.85705,16.425249 L153.85705,1.010776 L151.13947,1.010776 Z M162.54614,1.010785 L162.54614,20.744864 L164.67477,20.744864 C166.34766,20.744864 167.68892,20.31305 168.6964,19.443579 C169.96154,18.337462 170.59358,16.59735 170.59358,14.227352 C170.59358,12.950177 170.33442,11.789476 169.82447,10.748946 C169.4309,9.998239 168.98654,9.430094 168.48992,9.037458 C169.4823,8.271683 169.97691,7.1192 169.97691,5.586766 C169.97691,4.052561 169.41363,2.875649 168.28621,2.05847 C167.32761,1.360056 166.14208,1.010789 164.72327,1.010789 L162.54614,1.010785 Z M199.16782,1.010785 L196.17029,20.74486 L198.57883,20.74486 L199.04032,17.244279 L201.75929,17.244279 L202.24295,20.74486 L204.78039,20.74486 L201.78146,1.010785 L199.16782,1.010785 Z M206.01099,1.010785 L206.01099,3.183754 L208.6496,3.183754 L208.6496,20.744864 L211.36441,20.744864 L211.36441,3.183779 L214.00579,3.183779 L214.00579,1.010785 L206.01099,1.010785 Z M226.56409,3.056256 C227.74392,3.056256 228.33378,5.662765 228.33378,10.877823 C228.33378,16.09288 227.74392,18.702162 226.56409,18.702162 C225.38604,18.702162 224.79578,16.09288 224.79578,10.877823 C224.79578,5.662765 225.38604,3.056256 226.56409,3.056256 Z M165.26097,3.183754 C166.61315,3.234274 167.28565,4.034835 167.28565,5.586766 C167.28565,7.137812 166.61315,7.930264 165.26097,7.964834 L165.26097,3.183754 Z M143.65881,3.207314 C145.17712,3.207314 145.93571,4.470931 145.93571,6.993374 C145.93571,8.545308 145.62086,9.797048 144.9892,10.748945 C144.52722,11.451793 144.08436,11.833706 143.65881,11.901948 L143.65881,3.207314 Z M76.79162,6.814603 L77.86979,15.069933 L75.71622,15.069933 L76.79162,6.814603 Z M200.39842,6.814603 L201.4752,15.069933 L199.32163,15.069933 L200.39842,6.814603 Z M166.36407,10.035248 C167.33779,11.007532 167.8261,12.40421 167.8261,14.227353 C167.8261,15.779285 167.54174,16.930998 166.97938,17.680816 C166.53516,18.276419 165.9637,18.57467 165.26097,18.57467 L165.26097,10.215414 C165.63587,10.215414 166.0034,10.154034 166.36407,10.035261 L166.36407,10.035248 Z" id="path13458-5" fill-rule="nonzero"></path>
            <path d="M6.61563,1.002556 L27.0313,1.002556 L27.0313,22.424801 C28.20094,15.36534 29.20502,8.143628 30.29188,1.002556 L50.70852,1.002556 L50.70852,36.002556 L31.44205,36.002556 L31.44205,5.975074 C29.86921,15.91428 28.35287,25.913724 26.93586,36.002556 L7.76872,36.002556 L7.76872,4.730487 C5.69433,15.069982 3.84784,25.626138 1.8202,36.002556 L0,36.002556 C2.18346,24.44276 4.35524,12.870337 6.51825,1.290142 C6.50925,1.151207 6.50365,1.019072 6.61565,1.002556" id="path13502-8"></path>
        </g>
    </g>
</svg>