<svg height="39" viewBox="0 0 253 39" width="253" xmlns="http://www.w3.org/2000/svg"><g fill="#333" fill-rule="evenodd"><g fill-rule="nonzero" transform="translate(59 27)"><path d="m1.989689 4.869102c0 .50388333.06871133.95623333.206134 1.35705.13742333.39699933.33210567.73483067.584047 1.013494.25575933.274846.56305233.48670633.921879.635581.358826.14505733.757734.217586 1.196724.217586.44280667 0 .84362333-.07252867 1.20245-.217586.358826-.14887467.66421-.360735.916152-.635581.251942-.27866333.44662433-.61649467.584047-1.013494.13742267-.40081667.206134-.85316667.206134-1.35705 0-.503884-.06871133-.95623433-.206134-1.357051s-.332105-.73864767-.584047-1.013493c-.251942-.27866333-.557326-.49243233-.916152-.641307-.35882667-.14887467-.75964333-.223312-1.20245-.223312-.43899 0-.837898.07443733-1.196724.223312-.35882667.14887467-.66611967.36264367-.921879.641307-.25194133.27484533-.44662367.61267633-.584047 1.013493-.13742267.40081667-.206134.853167-.206134 1.357051zm7.334945 5.794663h-.916153c-.13742267 0-.25957633-.0190867-.366461-.05726-.106884-.0381733-.204225-.104976-.292023-.200408l-1.437214-1.568911c-.43517267.14505733-.90660933.217586-1.41431.217586-.603134 0-1.15282567-.10115867-1.649075-.303476-.49624867-.206134-.92187767-.49434-1.276887-.864618-.35500867-.37027867-.62985433-.811177-.824537-1.322695-.19468267-.515336-.292024-1.08029667-.292024-1.694882 0-.614586.09734133-1.177638.292024-1.689156.19468267-.515336.46952833-.958143.824537-1.328421.35500933-.37409533.78063833-.66421033 1.276887-.870345.49624933-.206134 1.045941-.309201 1.649075-.309201.60313333 0 1.15282467.103067 1.649074.309201.50006667.20613467.92760433.49624967 1.282613.870345.35500933.370278.629855.813085.824537 1.328421.19468267.511518.292024 1.07457.292024 1.689156 0 .38554733-.04008167.75200833-.120245 1.099383-.076346.347374-.18895633.67184433-.337831.973411-.14887467.29775-.33019667.56877867-.543966.813086-.21376867.24430733-.45425867.45616733-.72147.63558z"/><path d="m14.970065 3.168494v5.80039h-.606951c-.1450573 0-.2366727-.07062033-.274846-.211861l-.08016-.624128c-.251942.27866267-.5344223.50388333-.847441.675662-.3130187.16796133-.671845.251942-1.076479.251942-.316836 0-.5974077-.05153367-.841715-.154601-.24049-.10688467-.442807-.25575933-.606951-.446624-.164144-.19086533-.2882063-.421812-.372187-.69284-.0801633-.27102867-.120245-.570687-.120245-.898975v-3.698965h1.019219v3.698965c0 .43899.09925.77873.29775 1.01922.2023167.24049.5096093.360735.921878.360735.3015667 0 .5821383-.07062033.841715-.211861.263394-.14505733.5057927-.343557.727196-.595499v-4.27156z"/><path d="m19.718492 6.357849c-.469531.01526667-.8703477.05343967-1.202453.114519-.328288.05726-.5974077.133606-.807359.229038-.2061347.09543267-.3569183.20804333-.452351.337832-.0916147.129788-.137422.27484533-.137422.435172 0 .152692.0248133.284389.07444.395091.0496267.11070133.1164293.20231633.200408.274845.087798.068712.1889567.12024567.303476.154601.118336.03054.244307.04581.377913.04581.1794127 0 .3435567-.01717667.492432-.05153.1488747-.03817333.288206-.09161533.417994-.160326.1336053-.068712.2595763-.150784.377913-.246216.1221533-.09543267.2404897-.204226.355009-.32638zm-3.292426-2.370544c.3206533-.30920133.6661193-.540148 1.036398-.69284.370278-.152692.7806377-.229038 1.231079-.229038.3244707 0 .612677.05344233.864619.160327.251942.106884.4638023.25575867.635581.446624.1717787.19086467.301567.42181133.389365.69284s.131697.56877833.131697.893249v3.710417h-.452351c-.0992493 0-.1755953-.01527-.229038-.04581-.05344-.03435333-.0954303-.09924733-.125971-.194682l-.114519-.549692c-.152692.14124-.3015667.267211-.446624.377913-.1450573.10688467-.2977493.1985-.458076.274846-.1603267.07252867-.3321053.12787933-.515336.166052-.1794133.04199333-.3798217.06299-.601225.06299-.2252207 0-.4370807-.03053667-.63558-.09161-.1985-.06489333-.3721873-.160326-.521062-.286298-.1450573-.12597133-.261485-.28438933-.349283-.475254-.0839807-.19468267-.125971-.42372067-.125971-.687114 0-.22903867.0629853-.44853367.188956-.658485.1259713-.21376867.330197-.402725.612677-.566869.2824807-.164144.6508503-.29774967 1.105109-.400817.4542587-.106884 1.0115847-.16796067 1.671978-.18323v-.45235c0-.450442-.0973413-.790182-.292024-1.01922-.194682-.23285533-.479071-.349283-.853167-.349283-.2519413 0-.4638013.03244667-.63558.09734-.1679613.06107333-.3149277.13169333-.440899.21186-.1221533.076346-.2290377.14696633-.320653.211861-.087798.06107333-.175596.09161-.263394.09161-.0687113 0-.1278793-.01717667-.177504-.05153-.0496267-.03817333-.091617-.083981-.125971-.137423z"/><path d="m23.309735.534556v8.434328h-1.019219v-8.434328z"/><path d="m26.039047 3.168494v5.80039h-1.01922v-5.80039zm.217586-1.820853c0 .09925-.0209933.192774-.06298.280572-.0381733.08398067-.0916157.16032667-.160327.229038-.0648933.06489333-.143148.116427-.234764.154601-.087798.03817333-.181322.05726-.280572.05726s-.1927737-.01908667-.280571-.05726c-.0839807-.03817333-.1584183-.089707-.223313-.154601-.0648933-.06871133-.1164267-.14505733-.1546-.229038-.0381733-.087798-.05726-.181322-.05726-.280572s.0190867-.19277367.05726-.280571c.0381733-.09161533.0897067-.16987.1546-.234764.0648933-.068712.139331-.12215433.223313-.160327.0877973-.03817333.181321-.05726.280571-.05726s.192774.01908667.280572.05726c.0916153.03817333.16987.09161567.234764.160327.0687113.06489333.1221537.143148.160327.234764.0419867.08779733.06298.181321.06298.280571z"/><path d="m29.49448 9.060499c-.4580767 0-.8111773-.12787967-1.059302-.383639-.2443073-.25575933-.366461-.624129-.366461-1.105109v-3.55009h-.698566c-.06108 0-.1126133-.01717667-.1546-.05153-.0419933-.03817333-.06299-.09543267-.06299-.171778v-.406543l.950508-.120245.234764-1.792223c.0114533-.05726.0362667-.10306767.07444-.137423.0419933-.03817333.0954353-.05726.160326-.05726h.515336v1.998357h1.677704v.738648h-1.677704v3.481379c0 .24430733.059168.425629.177504.543965.1183367.11833667.271029.177505.458077.177505.106884 0 .198499-.01336.274845-.04008.0801633-.03054.148875-.06298667.206135-.09734s.104976-.06489.143148-.09161c.0419933-.03054.078258-.04581.108794-.04581.05344 0 .101156.03244667.143148.09734l.29775.486706c-.175596.164144-.3874563.29393233-.635581.389365-.2481247.09161533-.5038837.137423-.767277.137423z"/><path d="m36.833719 3.168493-3.235163 7.51245c-.0343533.076346-.0782523.137423-.131697.183231-.0496267.0458067-.1278813.06871-.234764.06871h-.755826l1.059301-2.301833-2.393448-5.462558h.881797c.087798 0 .1565093.02290333.206134.06871.05344.04199333.0897043.08970967.108793.143149l1.551733 3.653158c.06108.16032667.1126137.32828767.154601.503883.05344-.17941267.1106997-.34928233.171779-.509609l1.505925-3.647432c.0229067-.06107333.0610797-.11069833.114519-.148875.05726-.04198667.1202453-.06298.188956-.06298z"/><path d="m41.44991 3.168494v5.80039h-1.019221v-5.80039zm.21758-1.820853c0 .09925-.021.192774-.063.280572-.0382.08398067-.0916433.16032667-.16033.229038-.0648667.06489333-.14312.116427-.23476.154601-.0878.03817333-.1813243.05726-.280573.05726-.09925 0-.1927737-.01908667-.280571-.05726-.0839807-.03817333-.1584183-.089707-.223313-.154601-.0648933-.06871133-.1164267-.14505733-.1546-.229038-.0381733-.087798-.05726-.181322-.05726-.280572s.0190867-.19277367.05726-.280571c.0381733-.09161533.0897067-.16987.1546-.234764.0648933-.068712.139331-.12215433.223313-.160327.0877973-.03817333.181321-.05726.280571-.05726.0992487 0 .192773.01908667.280573.05726.0916133.03817333.1698667.09161567.23476.160327.0687133.06489333.1221567.143148.16033.234764.042.08779733.063.181321.063.280571z"/><path d="m46.50288 4.124728c-.0458.08398067-.11642.125971-.21186.125971-.0572667 0-.12216-.02099667-.19468-.06299-.0725267-.04199333-.1622333-.08780067-.26912-.137422-.1030667-.05344-.22713-.10115633-.37219-.143149-.1450533-.04580667-.31683-.06871-.51533-.06871-.17178 0-.32638.02290333-.4638.06871-.1374267.04198667-.2557633.10115467-.35501.177504-.0954333.076346-.1698733.16605267-.22332.26912-.0496.09925-.0744.208043-.0744.326379 0 .14887467.04199.272937.12597.372187.0877933.09925.20231.18513933.34355.257668s.3015667.13742267.48098.194682c.1794133.05344.3626467.11260833.5497.177505.19086.06108.3759967.12979133.55541.206134.1794133.076346.33974.17177867.48098.286298.14124.11451867.25385.25575867.33783.42372.0878.164144.1317.36264367.1317.595499 0 .26721133-.0477167.515336-.14315.744374-.0954333.22522067-.2366733.42181167-.42372.589773-.1870467.164144-.4160833.29393233-.68711.389365s-.5840467.143149-.93906.143149c-.4046333 0-.7710933-.06489433-1.09938-.194683-.3282867-.13360533-.60695-.303475-.83599-.509609l.24049-.389365c.0305333-.04962667.0667967-.08779967.10879-.114519.042-.02672.0954433-.04008.16033-.04008.0687133 0 .1412433.02672.21759.08016.07634.05344.1679533.112608.27484.177504.1107.06489333.2443067.12406167.40082.177505.1565067.05344.35119.08016.58405.08016.1984933 0 .37218-.02481333.52106-.07444.1488733-.05344.2729333-.12406.37218-.21186.0992533-.087798.1717833-.18895633.21759-.303475.0496-.11451933.0744-.236673.0744-.366461 0-.16032667-.0439-.29202367-.1317-.395091-.08398-.106884-.19659-.19659067-.33783-.26912-.14124-.076346-.3034767-.14124-.48671-.194682-.1794133-.05726-.36455-.116428-.55541-.177504-.1870533-.06108-.3721933-.12979167-.55542-.206135-.1794133-.08016333-.33974-.179413-.48098-.297749-.14124-.11833667-.25576-.26339433-.34356-.435173-.08398-.17559533-.12597-.38745533-.12597-.63558 0-.221404.0458067-.43326433.13742-.635581.09162-.206134.2252267-.38554733.40082-.53824.1755933-.15650933.39127-.28057133.64703-.372186.25576-.09161533.5477833-.137423.87607-.137423.3817333 0 .7233833.06107667 1.02495.18323.3053867.11833667.56878.28248067.79018.492432z"/><path d="m51.02012 8.96889v-5.800396h.61268c.14506 0 .2347667.07062.26912.21186l.0744.595499c.2137667-.26339333.4542567-.47907067.72147-.647032.2672067-.16796133.5764067-.251942.9276-.251942.3893667 0 .7042933.108793.94478.326379.2443133.217586.41991.51151833.52679.881797.08398-.209952.1908667-.391274.32066-.543966.1336-.152692.2824733-.278663.44662-.377913.1641467-.09924933.3378333-.171778.52106-.217586.1870467-.04580667.3760033-.06871.56687-.06871.3053867 0 .5764167.049625.81309.148875.2404867.095432.4428033.236672.60695.42372.16796.187048.29584.41799467.38364.69284.0877933.27102867.13169.58213867.13169.93333v3.693245l-1.02494-.000005v-3.69324c0-.45425867-.09925-.79781567-.29775-1.030671-.1985-.23667267-.4848-.355009-.8589-.355009-.16796 0-.3282867.03054-.48098.09162-.1488733.05726-.28057.14314933-.39509.257668-.1145133.11451933-.2061267.25957667-.27484.435172-.0648667.17177867-.0973.372187-.0973.601225v3.69324h-1.02495v-3.69324c0-.46571067-.0935233-.813085-.28057-1.042123s-.4599833-.343557-.81881-.343557c-.25194 0-.4847967.06871133-.69857.206134-.2137667.133606-.4103567.31683667-.58977.549692v4.323094z"/><path d="m63.58018 6.357849c-.4695267.01526667-.8703433.05343967-1.20245.114519-.3282867.05726-.5974067.133606-.80736.229038-.2061333.09543267-.3569167.20804333-.45235.337832-.0916133.129788-.13742.27484533-.13742.435172 0 .152692.0248.284389.0744.395091.0496.11070133.1164033.20231633.20041.274845.0878.068712.18896.12024567.30348.154601.1183333.03054.2443033.04581.37791.04581.1794133 0 .3435567-.01717667.49243-.05153.14888-.03817333.2882133-.09161533.418-.160326.1336067-.068712.2595767-.150784.37791-.246216.1221533-.09543267.24049-.204226.35501-.32638zm-3.29242-2.370544c.3206533-.30920133.6661167-.540148 1.03639-.69284.37028-.152692.78064-.229038 1.23108-.229038.3244733 0 .61268.05344233.86462.160327.2519467.106884.4638067.25575867.63558.446624.17178.19086467.30157.42181133.38937.69284s.1317.56877833.1317.893249v3.710417h-.45236c-.0992467 0-.17559-.01527-.22903-.04581-.0534667-.03435333-.0954567-.09924733-.12597-.194682l-.11452-.549692c-.1526933.14124-.30157.267211-.44663.377913-.1450533.10688467-.2977433.1985-.45807.274846-.1603267.07252867-.3321067.12787933-.51534.166052-.1794133.04199333-.37982.06299-.60122.06299-.2252267 0-.4370867-.03053667-.63558-.09161-.1985-.06489333-.37219-.160326-.52107-.286298-.1450533-.12597133-.26148-.28438933-.34928-.475254-.08398-.19468267-.12597-.42372067-.12597-.687114 0-.22903867.0629867-.44853367.18896-.658485.1259667-.21376867.33019-.402725.61267-.566869s.65085-.29774967 1.10511-.400817c.45426-.106884 1.0115867-.16796067 1.67198-.18323v-.45235c0-.450442-.09734-.790182-.29202-1.01922-.1946867-.23285533-.4790767-.349283-.85317-.349283-.25194 0-.4638.03244667-.63558.09734-.16796.06107333-.3149267.13169333-.4409.21186-.1221533.076346-.2290367.14696633-.32065.211861-.0878.06107333-.1756.09161-.2634.09161-.0687067 0-.1278733-.01717667-.1775-.05153-.0496-.03817333-.09159-.083981-.12597-.137423z"/><path d="m67.07981 4.010209c.1259733-.14124.25958-.26911967.40082-.383639.14124-.11451867.2901133-.21185967.44662-.292023.1603267-.08398067.3282867-.14696633.50388-.188957.1794133-.04580667.3721867-.06871.57832-.06871.31684 0 .5955033.053442.83599.160326.2443067.10306733.4466233.25194233.60695.446625.1641467.19086467.28821.42181133.37219.69284.08398.271028.12597.570686.12597.898974v3.69324h-1.02494v-3.69324c0-.43898933-.10116-.778729-.30348-1.019219-.1985-.24430733-.5019733-.366461-.91042-.366461-.3015667 0-.58405.07252867-.84745.217586-.2595733.14505733-.5000633.34164833-.72147.589773v4.271561h-1.02494v-5.80039h.61268c.1450533 0 .23476.07062.26912.21186z"/><path d="m77.38509 3.168493-3.23517 7.51245c-.0343333.076346-.07823.137423-.13169.183231-.0496.0458067-.1278567.06871-.23477.06871h-.75582l1.0593-2.301833-2.39345-5.462558h.8818c.0877933 0 .1565033.02290333.20613.06871.0534667.04199333.08973.08970967.10879.143149l1.55174 3.653158c.0610667.16032667.1126.32828767.1546.503883.0534667-.17941267.1107267-.34928233.17178-.509609l1.50592-3.647432c.0229333-.06107333.0611067-.11069833.11452-.148875.0572667-.04198667.1202533-.06298.18896-.06298z"/><path d="m84.30311 4.124728c-.0458.08398067-.11642.125971-.21186.125971-.0572667 0-.12216-.02099667-.19468-.06299-.0725267-.04199333-.1622333-.08780067-.26912-.137422-.1030667-.05344-.22713-.10115633-.37219-.143149-.1450533-.04580667-.31683-.06871-.51533-.06871-.17178 0-.32638.02290333-.4638.06871-.1374267.04198667-.2557633.10115467-.35501.177504-.0954333.076346-.16987.16605267-.22331.26912-.0496.09925-.0744.208043-.0744.326379 0 .14887467.04199.272937.12597.372187.0878.09925.20232.18513933.34356.257668s.3015667.13742267.48098.194682c.1794133.05344.3626433.11260833.54969.177505.1908667.06108.3760067.12979133.55542.206134.1794133.076346.33974.17177867.48098.286298.14124.11451867.25385.25575867.33783.42372.0877933.164144.13169.36264367.13169.595499 0 .26721133-.0477167.515336-.14315.744374-.0954267.22522067-.2366667.42181167-.42372.589773-.1870467.164144-.4160833.29393233-.68711.389365s-.5840467.143149-.93906.143149c-.4046333 0-.7710933-.06489433-1.09938-.194683-.3282867-.13360533-.60695-.303475-.83599-.509609l.24049-.389365c.0305333-.04962667.0667967-.08779967.10879-.114519.042-.02672.0954433-.04008.16033-.04008.0687133 0 .1412433.02672.21759.08016s.16796.112608.27484.177504c.1107067.06489333.2443133.12406167.40082.177505.1565067.05344.35119.08016.58405.08016.1985 0 .3721867-.02481333.52106-.07444.1488733-.05344.2729367-.12406.37219-.21186.0992467-.087798.1717733-.18895633.21758-.303475.0496-.11451933.0744-.236673.0744-.366461 0-.16032667-.0439-.29202367-.1317-.395091-.08398-.106884-.19659-.19659067-.33783-.26912-.14124-.076346-.3034733-.14124-.4867-.194682-.1794133-.05726-.3645533-.116428-.55542-.177504-.1870467-.06108-.3721867-.12979167-.55542-.206135-.1794133-.08016333-.33974-.179413-.48098-.297749-.14124-.11833667-.25576-.26339433-.34356-.435173-.08398-.17559533-.12597-.38745533-.12597-.63558 0-.221404.04581-.43326433.13743-.635581.0916133-.206134.2252167-.38554733.40081-.53824.1756-.15650933.3912767-.28057133.64703-.372186.25576-.09161533.5477867-.137423.87608-.137423.3817267 0 .7233733.06107667 1.02494.18323.3053867.11833667.56878.28248067.79018.492432z"/><path d="m85.89028 8.96889v-5.800396h.61268c.1450533 0 .23476.07062.26912.21186l.0744.595499c.2137733-.26339333.4542633-.47907067.72147-.647032.2672133-.16796133.5764167-.251942.92761-.251942.38936 0 .7042867.108793.94478.326379.2443067.217586.4199033.51151833.52679.881797.08398-.209952.1908633-.391274.32065-.543966.1336067-.152692.28248-.278663.44662-.377913.1641467-.09924933.3378367-.171778.52107-.217586.1870467-.04580667.3760033-.06871.56687-.06871.30538 0 .5764067.049625.81308.148875.2404933.095432.44281.236672.60695.42372.16796.187048.29584.41799467.38364.69284.0878.27102867.1317.58213867.1317.93333v3.693245l-1.02495-.000005v-3.69324c0-.45425867-.09925-.79781567-.29775-1.030671-.1985-.23667267-.4847967-.355009-.85889-.355009-.16796 0-.3282867.03054-.48098.09162-.1488733.05726-.28057.14314933-.39509.257668-.11452.11451933-.2061367.25957667-.27485.435172-.0648667.17177867-.0973.372187-.0973.601225v3.69324h-1.02494v-3.69324c0-.46571067-.0935233-.813085-.28057-1.042123-.1870533-.229038-.4599933-.343557-.81882-.343557-.25194 0-.4847933.06871133-.69856.206134-.2137733.133606-.4103667.31683667-.58978.549692v4.323094z"/><path d="m98.45033 6.357849c-.4695267.01526667-.8703433.05343967-1.20245.114519-.3282867.05726-.5974067.133606-.80736.229038-.2061333.09543267-.3569167.20804333-.45235.337832-.0916133.129788-.13742.27484533-.13742.435172 0 .152692.0248.284389.0744.395091.0496.11070133.1164.20231633.2004.274845.0878.068712.18896.12024567.30348.154601.1183333.03054.2443033.04581.37791.04581.1794133 0 .3435567-.01717667.49243-.05153.14888-.03817333.2882133-.09161533.418-.160326.1336067-.068712.2595767-.150784.37791-.246216.1221533-.09543267.24049-.204226.35501-.32638zm-3.29242-2.370544c.3206533-.30920133.66612-.540148 1.0364-.69284.3702733-.152692.7806333-.229038 1.23108-.229038.3244667 0 .61267.05344233.86461.160327.2519467.106884.4638067.25575867.63558.446624.17178.19086467.30157.42181133.38937.69284s.1317.56877833.1317.893249v3.710417h-.45235c-.0992533 0-.1756-.01527-.22904-.04581-.0534667-.03435333-.0954567-.09924733-.12597-.194682l-.11452-.549692c-.1526933.14124-.30157.267211-.44663.377913-.1450533.10688467-.2977433.1985-.45807.274846-.1603267.07252867-.3321067.12787933-.51534.166052-.1794133.04199333-.37982.06299-.60122.06299-.22522 0-.43708-.03053667-.63558-.09161-.1985-.06489333-.37219-.160326-.52107-.286298-.1450533-.12597133-.26148-.28438933-.34928-.475254-.08398-.19468267-.12597-.42372067-.12597-.687114 0-.22903867.0629867-.44853367.18896-.658485.1259667-.21376867.33019-.402725.61267-.566869s.65085-.29774967 1.10511-.400817c.45426-.106884 1.0115867-.16796067 1.67198-.18323v-.45235c0-.450442-.09734-.790182-.29202-1.01922-.1946867-.23285533-.4790767-.349283-.85317-.349283-.25194 0-.4638.03244667-.63558.09734-.16796.06107333-.3149267.13169333-.4409.21186-.1221533.076346-.2290367.14696633-.32065.211861-.0878.06107333-.1756.09161-.2634.09161-.0687067 0-.1278733-.01717667-.1775-.05153-.0496-.03817333-.09159-.083981-.12597-.137423z"/><path d="m102.04158.534556v8.434328h-1.01922v-8.434328z"/><path d="m104.74799.534556v8.434328h-1.01922v-8.434328z"/><path d="m111.11166 9.060499c-.458073 0-.811173-.12787967-1.0593-.383639-.244307-.25575933-.36646-.624129-.36646-1.105109v-3.55009h-.69857c-.061067 0-.1126-.01717667-.1546-.05153-.042-.03817333-.063-.09543267-.063-.171778v-.406543l.95051-.120245.23476-1.792223c.011467-.05726.036267-.10306767.0744-.137423.042-.03817333.09544-.05726.16032-.05726h.51534v1.998357h1.6777v.738648h-1.6777v3.481379c0 .24430733.05917.425629.17751.543965.118333.11833667.271023.177505.45807.177505.106887 0 .198503-.01336.27485-.04008.08016-.03054.14887-.06298667.20613-.09734.057267-.03435333.104983-.06489.14315-.09161.042-.03054.078263-.04581.10879-.04581.053467 0 .101183.03244667.14315.09734l.29775.486706c-.175593.164144-.387453.29393233-.63558.389365-.248127.09161533-.503887.137423-.76728.137423z"/><path d="m114.47137 3.941498c.248127-.263394.522973-.47334567.82454-.629855s.64894-.234764 1.04212-.234764c.316833 0 .595497.053442.83599.160326.244307.10306733.446623.25194233.60695.446625.164147.19086467.28821.42181133.37219.69284.08398.271028.12597.570686.12597.898974v3.69324h-1.02495v-3.69324c0-.43898933-.101157-.778729-.30347-1.019219-.1985-.24430733-.501977-.366461-.91043-.366461-.301567 0-.584047.07252867-.84744.217586-.25958.14505733-.50007.34164833-.72147.589773v4.271561h-1.02495v-8.434328h1.02495z"/><path d="m120.91986 3.168494v5.80039h-1.01922v-5.80039zm.21759-1.820853c0 .09925-.021.192774-.063.280572-.0382.08398067-.091643.16032667-.16033.229038-.064867.06489333-.14312.116427-.23476.154601-.0878.03817333-.181323.05726-.28057.05726-.099253 0-.192777-.01908667-.28057-.05726-.08398-.03817333-.158417-.089707-.22331-.154601-.064933-.06871133-.11647-.14505733-.15461-.229038-.0382-.087798-.0573-.181322-.0573-.280572s.0191-.19277367.0573-.280571c.0382-.09161533.089737-.16987.15461-.234764.064867-.068712.139303-.12215433.22331-.160327.087793-.03817333.181317-.05726.28057-.05726.099247 0 .19277.01908667.28057.05726.091613.03817333.169867.09161567.23476.160327.068713.06489333.122157.143148.16033.234764.042.08779733.063.181321.063.280571z"/><path d="m123.55649 4.010209c.125967-.14124.25957-.26911967.40081-.383639.14124-.11451867.290117-.21185967.44663-.292023.160327-.08398067.328287-.14696633.50388-.188957.179413-.04580667.372187-.06871.57832-.06871.31684 0 .595503.053442.83599.160326.244307.10306733.446623.25194233.60695.446625.164147.19086467.28821.42181133.37219.69284.08398.271028.12597.570686.12597.898974v3.69324h-1.02495v-3.69324c0-.43898933-.101157-.778729-.30347-1.019219-.1985-.24430733-.501977-.366461-.91043-.366461-.301567 0-.584047.07252867-.84744.217586-.259573.14505733-.500063.34164833-.72147.589773v4.271561h-1.02494v-5.80039h.61267c.14506 0 .234767.07062.26912.21186z"/><path d="m131.01275 6.134537c.206133 0 .387457-.02863.54397-.08589.156507-.05726.288203-.13742333.39509-.24049.10688-.10306733.187043-.225221.24049-.366461.053467-.14505733.0802-.30347533.0802-.475254 0-.35500933-.108793-.63748967-.32638-.847441-.213767-.20995133-.524877-.314927-.93333-.314927-.412267 0-.727193.10497567-.94478.314927-.213767.20995133-.32065.49243167-.32065.847441 0 .17177867.026733.33019667.0802.475254.057267.14124.13934.26339367.24622.366461s.238577.18323067.39509.24049c.156507.05726.337827.08589.54396.08589zm1.83803 3.149274c0-.14124-.04008-.255759-.12024-.343557-.080167-.087798-.18896-.15650967-.32638-.206135-.133607-.04962667-.290117-.08398233-.46953-.103067-.179413-.0229-.370277-.04007667-.57259-.05153-.1985-.01145333-.40082-.02290667-.60696-.03436-.206133-.01145333-.40463-.03054-.59549-.05726-.213773.09924933-.38937.22522-.52679.377912-.133607.14887533-.20041.32447133-.20041.526788 0 .129788.032433.250033.0973.360735.068713.11451933.17178.21186067.3092.292024.137427.08398.309207.148874.51534.194682.209947.0496267.456163.07444.73865.07444.27484 0 .521053-.0248133.73864-.07444s.400817-.1202467.54969-.21186c.152693-.09161533.269123-.20040867.34929-.32638.08016-.12597067.12024-.265302.12024-.417994zm1.0364-5.886279v.377913c0 .12597067-.080163.206134-.24049.24049l-.65848.08589c.129787.251942.19468.530605.19468.835989 0 .28248067-.05535.54014867-.16605.773004-.106887.229038-.255763.425629-.44663.589773s-.419903.290115-.68711.377913c-.267213.087798-.55733.131697-.87035.131697-.271027 0-.526787-.03244667-.76728-.09734-.122153.076346-.215677.158418-.28057.246216-.064867.08398067-.0973.16987-.0973.257668 0 .13742267.05535.24239867.16605.314928.11452.06871133.263397.118336.44663.148874.183227.03054.39127.04962667.62413.05726.236673.00763333.477163.02099333.72147.04008.24812.01526667.48861.04389667.72147.08589.236673.04199333.446623.11070467.62985.206134.183233.09543267.3302.22712967.4409.395091.11452.16796133.17178.38554733.17178.652758 0 .24812467-.062987.48861467-.18896.72147-.122153.2328553-.299657.4389897-.53251.618403-.232853.1832307-.51915.328288-.85889.435172-.335927.110702-.71575.166053-1.13947.166053s-.793997-.0419903-1.11083-.125971c-.31684-.0839807-.580233-.196591-.79018-.337831-.209953-.14124-.368373-.305384-.47526-.492432-.103067-.18323067-.1546-.37600433-.1546-.578321 0-.286298.089707-.52869667.26912-.727196.179413-.1985.42563-.356918.73865-.475254-.17178-.076346-.309203-.17750467-.41227-.303476-.099253-.129788-.14888-.303475-.14888-.521061 0-.08398067.015267-.16987.0458-.257668.030533-.09161533.076343-.181322.13743-.26912.064867-.09161533.14312-.17750467.23476-.257668.091613-.08016333.198497-.15078333.32065-.21186-.286293-.16032667-.509603-.372187-.66993-.635581-.160327-.26721067-.24049-.576412-.24049-.927604 0-.28248.05344-.538239.16032-.767277.110707-.23285533.2634-.42944633.45808-.589773.19468-.164144.425627-.290115.69284-.377913.271027-.087798.566867-.131697.88752-.131697.25194 0 .486703.02863.70429.08589.217587.05344.416087.13360333.5955.24049z"/><path d="m138.31942 4.124728c-.0458.08398067-.11642.125971-.21186.125971-.057267 0-.12216-.02099667-.19468-.06299-.072533-.04199333-.16224-.08780067-.26912-.137422-.103067-.05344-.22713-.10115633-.37219-.143149-.14506-.04580667-.31684-.06871-.51534-.06871-.171773 0-.326373.02290333-.4638.06871-.13742.04198667-.255757.10115467-.35501.177504-.095433.076346-.16987.16605267-.22331.26912-.0496.09925-.0744.208043-.0744.326379 0 .14887467.04199.272937.12597.372187.0878.09925.20232.18513933.34356.257668s.301567.13742267.48098.194682c.179413.05344.362643.11260833.54969.177505.190867.06108.376007.12979133.55542.206134.179413.076346.33974.17177867.48098.286298.14124.11451867.25385.25575867.33783.42372.0878.164144.1317.36264367.1317.595499 0 .26721133-.047717.515336-.14315.744374-.095433.22522067-.236673.42181167-.42372.589773-.187047.164144-.416087.29393233-.68712.389365-.271027.09543267-.584043.143149-.93905.143149-.404633 0-.771097-.06489433-1.09939-.194683-.328287-.13360533-.606947-.303475-.83598-.509609l.24049-.389365c.030533-.04962667.066797-.08779967.10879-.114519.042-.02672.095443-.04008.16033-.04008.068707 0 .141233.02672.21758.08016s.167963.112608.27485.177504c.1107.06489333.244303.12406167.40081.177505.156513.05344.351197.08016.58405.08016.1985 0 .372187-.02481333.52106-.07444.14888-.05344.272943-.12406.37219-.21186.099247-.087798.171777-.18895633.21759-.303475.0496-.11451933.0744-.236673.0744-.366461 0-.16032667-.043897-.29202367-.13169-.395091-.08398-.106884-.19659-.19659067-.33783-.26912-.14124-.076346-.303477-.14124-.48671-.194682-.179413-.05726-.364553-.116428-.55542-.177504-.187047-.06108-.372187-.12979167-.55542-.206135-.179413-.08016333-.33974-.179413-.48098-.297749-.14124-.11833667-.255757-.26339433-.34355-.435173-.08398-.17559533-.12597-.38745533-.12597-.63558 0-.221404.045807-.43326433.13742-.635581.091613-.206134.22522-.38554733.40082-.53824.175593-.15650933.39127-.28057133.64703-.372186.25576-.09161533.547783-.137423.87607-.137423.381727 0 .723373.06107667 1.02494.18323.305387.11833667.568783.28248067.79019.492432z"/><path d="m146.61579 4.548448c-.190867-.25575867-.397-.433263-.6184-.532513-.221407-.10306733-.469533-.154601-.74438-.154601-.53824 0-.952417.19277367-1.24253.578321-.290113.385548-.43517.93523967-.43517 1.649075 0 .37791267.032433.702383.0973.973411.064867.26721133.1603.488615.2863.664211.125967.17177867.280567.29774967.4638.377913.183227.08016333.39127.120245.62413.120245.33592 0 .627943-.076346.87607-.229038.25194-.152692.482887-.36836967.69284-.647033zm1.01922-4.013892v8.434328h-.60695c-.14506 0-.236677-.07062033-.27485-.211861l-.0916-.704292c-.248127.29774933-.530607.53823933-.84744.72147-.31684.18323067-.683303.274846-1.09939.274846-.332107 0-.633673-.06298567-.9047-.188957-.271027-.129788-.501973-.31874433-.69284-.566869s-.337833-.557326-.4409-.927604-.1546-.795907-.1546-1.276887c0-.427538.05726-.82453733.17178-1.190998.11452-.37027867.278663-.690932.49243-.96196.213773-.27102867.47526-.482889.78446-.635581.31302-.15650933.66421-.234764 1.05357-.234764.355013 0 .65849.06107667.91043.18323.25576.11833667.48289.28438933.68139.498158v-3.212259z"/><path d="m151.70097 3.076879c.42372 0 .80545.07062 1.14519.21186s.629853.34164833.87034.601225c.240493.25957667.423723.574504.54969.944782.129793.36646067.19469.77682067.19469 1.23108 0 .458076-.064897.87034433-.19469 1.236805-.125967.36646133-.309197.67948033-.54969.939057-.240487.259576-.5306.45998433-.87034.601225-.33974.13742267-.72147.206134-1.14519.206134-.42754 0-.813087-.06871133-1.15664-.206134-.33974-.14124067-.629857-.341649-.87035-.601225-.240487-.25957667-.425627-.57259567-.55542-.939057-.125967-.36646067-.18895-.778729-.18895-1.236805 0-.45425933.062983-.86461933.18895-1.23108.129793-.370278.314933-.68520533.55542-.944782.240493-.25957667.53061-.459985.87035-.601225.343553-.14124.7291-.21186 1.15664-.21186zm0 5.17626c.572593 0 1.00013-.190865 1.28261-.572595.28248-.38554733.42372-.921878.42372-1.608992 0-.690932-.14124-1.22917167-.42372-1.614719s-.710017-.578321-1.28261-.578321c-.290113 0-.543963.049625-.76155.148875-.213773.09925-.393187.24239867-.53824.429446-.14124.187048-.248127.41799467-.32066.69284-.068707.27102867-.10306.57832167-.10306.921879 0 .687114.14124 1.22344467.42372 1.608992.286293.38173.719557.572595 1.29979.572595z"/><path d="m156.70438 4.010209c.125973-.14124.25958-.26911967.40082-.383639.14124-.11451867.290113-.21185967.44662-.292023.160327-.08398067.32829-.14696633.50389-.188957.179413-.04580667.372187-.06871.57832-.06871.316833 0 .595497.053442.83599.160326.244307.10306733.446623.25194233.60695.446625.16414.19086467.2882.42181133.37218.69284.083987.271028.12598.570686.12598.898974v3.69324h-1.02495v-3.69324c0-.43898933-.10116-.778729-.30348-1.019219-.1985-.24430733-.501973-.366461-.91042-.366461-.301567 0-.584047.07252867-.84744.217586-.25958.14505733-.50007.34164833-.72147.589773v4.271561h-1.02495v-5.80039h.61268c.145053 0 .23476.07062.26912.21186z"/><path d="m166.02157 5.435971c0-.23667267-.034353-.45235033-.10306-.647033-.064867-.19849933-.16221-.368369-.29203-.509609-.125967-.14505733-.280567-.25575933-.4638-.332106-.183227-.08016333-.39127-.120245-.62413-.120245-.488613 0-.87607.143149-1.16237.429447-.28248.28248-.458073.675662-.52678 1.179546zm.82454 2.719827c-.125967.152692-.27675.28629767-.45235.400817-.175593.110702-.36455.20231733-.56687.274846-.1985.07252867-.404633.12597067-.6184.160326-.213767.03817333-.425627.05726-.63558.05726-.40082 0-.7711-.06680267-1.11084-.200408-.33592-.13742333-.627943-.33592333-.87607-.5955-.244307-.26339333-.43517-.58786367-.57259-.973411-.137427-.385548-.20614-.828355-.20614-1.328421 0-.404634.061077-.782547.18323-1.133739.125973-.35119133.305387-.65466667.53824-.910426.23286-.25957667.51725-.46189367.85317-.606951.33592-.14887467.713833-.223312 1.13374-.223312.347373 0 .668027.059168.96196.177504.297747.11451933.553507.28248067.76728.503884.217587.217586.387457.48861433.50961.813085.122153.32065333.18323.68711433.18323 1.099383 0 .16032667-.017167.267211-.0515.320653-.034333.05344-.099227.08016-.19468.08016h-3.87647c.011467.36646067.061093.68520533.14888.956234.091613.271028.217583.49815733.37791.681388.160327.17941333.35119.31492767.57259.406543.221407.087798.469533.131697.74438.131697.25576 0 .475253-.02863.65848-.08589.187047-.06107333.347373-.12596733.48098-.194682.133607-.06871133.24431-.131697.33211-.188957.091613-.06107333.169867-.09161.23476-.09161.08398 0 .148873.03244667.19468.09734z"/><path d="m172.07624 4.330862c.183233-.39699933.408453-.70620067.67566-.927604.267213-.22522067.593593-.337831.97914-.337831.122153 0 .238583.01336.34929.04008.114513.02672.21567.06871.30347.12597l-.0744.761552c-.022867.09543267-.080127.143149-.17178.143149-.053467 0-.13172-.01145333-.23476-.03436-.103067-.02290667-.219493-.03436-.34928-.03436-.183233 0-.347377.02672-.49243.08016-.14124.05344-.26912.13360333-.38364.24049-.110707.10306733-.211867.23285567-.30348.389365-.0878.152692-.167963.32828767-.24049.526787v3.66461h-1.02494v-5.80039h.58404c.110707 0 .187053.02099333.22904.06298.042.04199333.070633.11452233.0859.217587z"/><path d="m176.3453 3.168494v5.80039h-1.01922v-5.80039zm.21758-1.820853c0 .09925-.021.192774-.063.280572-.0382.08398067-.091643.16032667-.16033.229038-.064867.06489333-.14312.116427-.23476.154601-.0878.03817333-.181323.05726-.28057.05726-.099253 0-.192777-.01908667-.28057-.05726-.083987-.03817333-.158427-.089707-.22332-.154601-.064867-.06871133-.1164-.14505733-.1546-.229038-.0382-.087798-.0573-.181322-.0573-.280572s.0191-.19277367.0573-.280571c.0382-.09161533.089733-.16987.1546-.234764.064867-.068712.139307-.12215433.22332-.160327.087793-.03817333.181317-.05726.28057-.05726.099247 0 .19277.01908667.28057.05726.091613.03817333.169867.09161567.23476.160327.068713.06489333.122157.143148.16033.234764.042.08779733.063.181321.063.280571z"/><path d="m180.04121 6.134537c.206133 0 .387457-.02863.54397-.08589.156507-.05726.288203-.13742333.39509-.24049.10688-.10306733.187043-.225221.24049-.366461.053467-.14505733.0802-.30347533.0802-.475254 0-.35500933-.108793-.63748967-.32638-.847441-.213767-.20995133-.524877-.314927-.93333-.314927-.412267 0-.727193.10497567-.94478.314927-.213773.20995133-.32066.49243167-.32066.847441 0 .17177867.026733.33019667.0802.475254.057267.14124.139337.26339367.24621.366461.106887.10306733.238583.18323067.39509.24049.156513.05726.337837.08589.54397.08589zm1.83803 3.149274c0-.14124-.04008-.255759-.12024-.343557-.080167-.087798-.18896-.15650967-.32638-.206135-.133607-.04962667-.290117-.08398233-.46953-.103067-.179413-.0229-.37028-.04007667-.5726-.05153-.1985-.01145333-.400817-.02290667-.60695-.03436s-.404633-.03054-.5955-.05726c-.213767.09924933-.38936.22522-.52678.377912-.133607.14887533-.20041.32447133-.20041.526788 0 .129788.032433.250033.0973.360735.068713.11451933.17178.21186067.3092.292024.13742.08398.3092.148874.51534.194682.209947.0496267.45616.07444.73864.07444.274847 0 .521063-.0248133.73865-.07444s.400817-.1202467.54969-.21186c.152693-.09161533.269123-.20040867.34929-.32638.08016-.12597067.12024-.265302.12024-.417994zm1.0364-5.886279v.377913c0 .12597067-.080163.206134-.24049.24049l-.65849.08589c.129793.251942.19469.530605.19469.835989 0 .28248067-.055353.54014867-.16606.773004-.10688.229038-.255753.425629-.44662.589773s-.419907.290115-.68712.377913c-.267207.087798-.55732.131697-.87034.131697-.271027 0-.526787-.03244667-.76728-.09734-.122153.076346-.215677.158418-.28057.246216-.064867.08398067-.0973.16987-.0973.257668 0 .13742267.05535.24239867.16605.314928.11452.06871133.263397.118336.44663.148874.183227.03054.391267.04962667.62412.05726.236673.00763333.477163.02099333.72147.04008.248127.01526667.488617.04389667.72147.08589.236673.04199333.446627.11070467.62986.206134.183233.09543267.3302.22712967.4409.395091.11452.16796133.17178.38554733.17178.652758 0 .24812467-.062987.48861467-.18896.72147-.122153.2328553-.299657.4389897-.53251.618403-.23286.1832307-.51916.328288-.8589.435172-.33592.110702-.71574.166053-1.13946.166053s-.794-.0419903-1.11084-.125971c-.316833-.0839807-.580227-.196591-.79018-.337831-.209947-.14124-.368363-.305384-.47525-.492432-.103067-.18323067-.1546-.37600433-.1546-.578321 0-.286298.089707-.52869667.26912-.727196.179413-.1985.42563-.356918.73865-.475254-.17178-.076346-.309203-.17750467-.41227-.303476-.099253-.129788-.14888-.303475-.14888-.521061 0-.08398067.015267-.16987.0458-.257668.030533-.09161533.07634-.181322.13742-.26912.064867-.09161533.143123-.17750467.23477-.257668.091613-.08016333.198497-.15078333.32065-.21186-.2863-.16032667-.509613-.372187-.66994-.635581-.160327-.26721067-.24049-.576412-.24049-.927604 0-.28248.053443-.538239.16033-.767277.1107-.23285533.263393-.42944633.45808-.589773.19468-.164144.425627-.290115.69284-.377913.271027-.087798.566867-.131697.88752-.131697.25194 0 .486703.02863.70429.08589.217587.05344.416087.13360333.5955.24049z"/><path d="m184.99452 3.941498c.248127-.263394.522973-.47334567.82454-.629855s.648943-.234764 1.04213-.234764c.316833 0 .595493.053442.83598.160326.244313.10306733.446633.25194233.60696.446625.16414.19086467.2882.42181133.37218.69284.08398.271028.12597.570686.12597.898974v3.69324h-1.02494v-3.69324c0-.43898933-.10116-.778729-.30348-1.019219-.1985-.24430733-.501973-.366461-.91042-.366461-.301567 0-.58405.07252867-.84745.217586-.259573.14505733-.500063.34164833-.72147.589773v4.271561h-1.02494v-8.434328h1.02494z"/><path d="m192.05785 9.060499c-.45808 0-.811183-.12787967-1.05931-.383639-.244307-.25575933-.36646-.624129-.36646-1.105109v-3.55009h-.69856c-.061067 0-.1126-.01717667-.1546-.05153-.042-.03817333-.063-.09543267-.063-.171778v-.406543l.95051-.120245.23476-1.792223c.011467-.05726.036267-.10306767.0744-.137423.042-.03817333.095443-.05726.16033-.05726h.51533v1.998357h1.67771v.738648h-1.67771v3.481379c0 .24430733.05917.425629.17751.543965.118333.11833667.271023.177505.45807.177505.106887 0 .198503-.01336.27485-.04008.08016-.03054.14887-.06298667.20613-.09734.057267-.03435333.104983-.06489.14315-.09161.042-.03054.078267-.04581.1088-.04581.053467 0 .10118.03244667.14314.09734l.29775.486706c-.175593.164144-.387453.29393233-.63558.389365-.24812.09161533-.503877.137423-.76727.137423z"/></g><path d="m129.99601.8791294c-3.62121 0-5.43241 3.3255216-5.43241 9.9737456 0 6.68013 1.91145 10.023632 5.74144 10.023632 1.17984 0 2.15242-.239631 2.92271-.716469v-5.343722c0-3.240353-1.09345-4.858684-3.28163-4.858684-.30918 0-.60701.02659-.89663.07622v2.148021c.0844-.01591.23042-.02495.43654-.02495.40777 0 .69922.144332.86891.432375.2221.359845.33398 1.027728.33398 1.99558v4.090941c-.0676.0178-.15961.02634-.28133.02634-2.06647 0-3.10008-2.618272-3.10008-7.849284 0-5.199105 1.06508-7.79662 3.20265-7.79662.32338 0 .72539.0509 1.20426.151051v-2.095361c-.54461-.1551026-1.11962-.2328176-1.71841-.2328156zm63.37908.0014c-3.62299 0-5.4338 3.3255206-5.4338 9.9737436 0 6.680132 1.81081 10.02225 5.4338 10.02225.47885 0 .9232-.0605 1.33454-.180153v-2.09536c-.37669.06559-.66912.101163-.87169.101163-2.102 0-3.15134-2.616888-3.15134-7.8479 0-5.199988 1.03361-7.798006 3.10007-7.798006.1528 0 .461.04241.92296.127498v-2.123071c-.41134-.1187696-.85569-.1801526-1.33454-.1801526zm33.189 0c-1.33264 0-2.35818.5997746-3.07514 1.7918646-.95595 1.599793-1.43432 4.33669-1.43432 8.20544 0 3.870522.47837 6.606644 1.43432 8.208209.71696 1.191206 1.7425 1.79048 3.07514 1.79048s2.34922-.599277 3.05018-1.79048c.95861-1.601565 1.43571-4.337687 1.43571-8.208209 0-3.86875-.4771-6.605647-1.43571-8.20544-.70096-1.19209-1.71754-1.7918646-3.05018-1.7918646zm22.21469 0c-1.28289 0-2.30217.3750796-3.06267 1.1266716-.7596.749821-1.14191 1.763313-1.14191 3.040488 0 .938605.18243 1.820487.54047 2.648302.35892.827815.9716 1.863013 1.84314 3.105622 1.47123 2.079287 2.20623 3.827891 2.20623 5.239786 0 .86947-.22414 1.544962-.66658 2.019137-.39357.410362-.85543.615304-1.38582.615304-.68054 0-1.25545-.137608-1.71565-.408816l-.9479 1.917976c.71607.459995 1.60454.691523 2.66355.691523 1.28377 0 2.36647-.400782 3.25667-1.20289 1.01014-.919108 1.51055-2.216142 1.51055-3.888612 0-1.154864-.22098-2.272047-.6652-3.34537-.37491-.871242-1.00698-1.945355-1.89719-3.223416-.73383-1.039643-1.23022-1.824879-1.48698-2.353122-.3918-.749818-.58897-1.444807-.58897-2.095358 0-.528243.14103-.951002.42267-1.263869.28252-.315526.64504-.475336 1.08926-.475336.42555 0 .83703.08798 1.23061.256377l.92018-1.891646c-.52683-.341222-1.23426-.5127426-2.12446-.5127426zm-188.4119.1288556v19.735464l2.61228-.000005v-10.53084l1.74335 5.189895h1.17657l1.74199-5.189895v10.530845h2.64413v-19.735464l-1.30961.000011-3.66688 10.278624-3.635-10.278624zm23.1141 0v19.735464l2.61503-.000005v-11.245922l4.43323 11.245927h1.30822v-19.735464l-2.64138.000011v11.326304l-4.4069-11.326304zm11.78915 0v19.735464l2.61643-.000005v-11.245922l4.43324 11.245927h1.30684v-19.735464l-2.64138.000011v11.326304l-4.40692-11.326304zm11.78779 0v19.735459h2.72036v-19.735459zm6.12672 0v19.735464l2.61364-.000005v-11.245922l4.43601 11.245927h1.30683v-19.735464l-2.64138.000011v11.326304l-4.40829-11.326304zm60.33026 0v19.735459h6.38033v-2.170193h-3.66412v-17.565261zm8.73621 0v19.735459h2.71898v-19.735459zm34.11196 0v19.735459h2.71897v-19.735459zm17.25623 0v19.735464l2.61088-.000005v-11.245922l4.43462 11.245927h1.30683v-19.735464l-2.64137.000011v11.326304l-4.40691-11.326304zm-158.05829.0014-2.99893 19.734075h2.41133l.46148-3.500581h2.71483l.48781 3.500581h2.53744l-2.99614-19.734075zm65.37883 0v19.735459h2.71897v-6.338729c1.02435-.270326 1.99685-.876931 2.91991-1.818194 1.40017-1.444687 2.09953-3.305584 2.09952-5.570996 0-2.097013-.57981-3.664828-1.73921-4.706242-.99237-.870361-2.29971-1.301287-3.92465-1.301287zm10.19963-.000009v14.880942c0 1.634359.41108 2.904694 1.23199 3.809619.73206.782613 1.65517 1.175176 2.76747 1.175176 1.12829 0 2.05641-.392563 2.79381-1.175176.836-.904925 1.25558-2.17526 1.25556-3.809619v-14.880942h-2.71621v15.414473c0 .735638-.13707 1.295793-.41159 1.689314-.27186.389092-.57953.588973-.92157.588973-.34293 0-.64126-.199881-.898-.588973-.25498-.393521-.38388-.953676-.38388-1.689314v-15.414473zm11.40667.000009v19.734079h2.12863c1.67289 0 3.01415-.431814 4.02163-1.301285 1.26514-1.106117 1.89718-2.846229 1.89718-5.216227 0-1.277175-.25916-2.437876-.76911-3.478406-.39357-.750707-.83793-1.318852-1.33455-1.711488.99238-.765775 1.48699-1.918258 1.48699-3.450692 0-1.534205-.56328-2.711117-1.6907-3.528296-.9586-.698414-2.14413-1.047681-3.56294-1.047681zm36.62168 0-2.99753 19.734075h2.40854l.46149-3.500581h2.71897l.48366 3.500581h2.53744l-2.99893-19.734075zm6.84317 0v2.172969h2.63861v17.56111h2.71481v-17.561085h2.64138v-2.172994zm20.5531 2.045471c1.17983 0 1.76969 2.606509 1.76969 7.821567 0 5.215057-.58986 7.824339-1.76969 7.824339-1.17805 0-1.76831-2.609282-1.76831-7.824339 0-5.215058.59026-7.821567 1.76831-7.821567zm-61.30312.127498c1.35218.05052 2.02468.851081 2.02468 2.403012 0 1.551046-.6725 2.343498-2.02468 2.378068zm-21.60216.02356c1.51831 0 2.2769 1.263617 2.2769 3.78606 0 1.551934-.31485 2.803674-.94651 3.755571-.46198.702848-.90484 1.084761-1.33039 1.153003zm-66.86719 3.607289 1.07817 8.25533h-2.15357zm123.6068 0 1.07678 8.25533h-2.15357zm-34.03435 3.220645c.97372.972284 1.46203 2.368962 1.46203 4.192105 0 1.551932-.28436 2.703645-.84672 3.453463-.44422.595603-1.01568.893854-1.71841.893854v-8.359256c.3749 0 .74243-.06138 1.1031-.180153z" fill-rule="nonzero"/><path d="m6.61563 1.002556h20.41567v21.422245c1.16964-7.059461 2.17372-14.281173 3.26058-21.422245h20.41664v35h-19.26647v-30.027482c-1.57284 9.939206-3.08918 19.93865-4.50619 30.027482h-19.16714v-31.272069c-2.07439 10.339495-3.92088 20.895651-5.94852 31.272069h-1.8202c2.18346-11.559796 4.35524-23.132219 6.51825-34.712414-.009-.138935-.0146-.27107.0974-.287586"/></g></svg>