<svg fill="none" height="41" viewBox="0 0 172 41" width="172" xmlns="http://www.w3.org/2000/svg"><g clip-rule="evenodd" fill="#e54b4d" fill-rule="evenodd"><path d="m109.827 29.4535c4.587 0 6.611-2.4599 6.611-5.3042 0-6.3548-9.942-4.3817-9.942-7.5848 0-1.2555 1.128-2.1268 2.87-2.1268 1.794 0 3.613.615 4.971 1.9731l1.691-2.2293c-1.563-1.5375-3.741-2.4087-6.38-2.4087-3.767 0-6.227 2.1781-6.227 5.0224 0 6.2779 9.942 4.0486 9.942 7.636 0 1.153-.948 2.3574-3.408 2.3574-2.383 0-4.253-1.1275-5.406-2.3831l-1.692 2.3318c1.538 1.5887 3.818 2.7162 6.97 2.7162zm10.634-14.1957c.923 0 1.666-.7431 1.666-1.6656s-.743-1.6656-1.666-1.6656c-.922 0-1.665.7431-1.665 1.6656s.743 1.6656 1.665 1.6656zm1.333 13.8882v-12.3765h-2.691v12.3765zm8.532 5.0224c-2.101 0-3.664-.4612-5.201-1.8449l1.255-1.9474c1.025 1.1531 2.307 1.5887 3.946 1.5887 1.769 0 3.665-.82 3.665-3.4593v-1.4093c-.948 1.2556-2.358 2.0755-3.972 2.0755-3.152 0-5.484-2.2805-5.484-6.3548 0-4.0229 2.281-6.3547 5.484-6.3547 1.563 0 2.972.6918 3.972 2.0243v-1.7169h2.69v11.7359c0 4.4586-3.331 5.6629-6.355 5.6629zm.487-7.4054c1.256 0 2.563-.7431 3.178-1.64v-4.6379c-.615-.8969-1.922-1.64-3.178-1.64-2.152 0-3.51 1.5887-3.51 3.9718 0 2.383 1.358 3.9461 3.51 3.9461zm20.423 2.3831v-8.7122c0-2.5368-1.333-3.9717-3.998-3.9717-1.947 0-3.561.9993-4.381 1.973v-1.6656h-2.691v12.3765h2.691v-8.661c.64-.8199 1.819-1.6399 3.177-1.6399 1.512 0 2.511.615 2.511 2.5624v7.7385zm13.76 0h-2.691v-1.3581c-.922 1.0762-2.383 1.6656-4.023 1.6656-1.998 0-4.279-1.3837-4.279-4.0999 0-2.8699 2.255-4.0486 4.279-4.0486 1.692 0 3.101.5381 4.023 1.5887v-1.8449c0-1.435-1.204-2.3062-2.895-2.3062-1.384 0-2.614.5125-3.664 1.5887l-1.128-1.8706c1.435-1.3837 3.229-1.9986 5.202-1.9986 2.767 0 5.176 1.153 5.176 4.4586zm-5.637-1.5376c1.153 0 2.306-.4356 2.946-1.2812v-1.8962c-.64-.8456-1.793-1.2812-2.946-1.2812-1.512 0-2.665.8968-2.665 2.2293 0 1.3581 1.153 2.2293 2.665 2.2293zm11.812 1.5374v-17.0913h-2.69v17.0913z"/><path d="m62.7677 29.4535c-5.0479 0-8.4816-3.7924-8.4816-8.8403 0-5.048 3.4337-8.8404 8.4816-8.8404 5.048 0 8.5072 3.7924 8.5072 8.8404 0 5.0479-3.4592 8.8403-8.5072 8.8403zm.0001-1.8963c3.818 0 6.3035-2.9724 6.3035-6.9441 0-3.9974-2.4855-6.9442-6.3035-6.9442-3.8437 0-6.278 2.9468-6.278 6.9442 0 3.9717 2.4343 6.9441 6.278 6.9441zm21.4287 1.5889v-8.6866c0-2.6905-1.3581-3.9973-3.9205-3.9973-1.8706 0-3.5618 1.0505-4.433 2.1011v-1.7937h-1.9218v12.3765h1.9218v-9.0453c.7431-.9994 2.1524-1.9218 3.6643-1.9218 1.6655 0 2.793.6662 2.793 2.8699v8.0972zm8.8986.3075c-3.6899 0-6.3292-2.6393-6.3292-6.5085 0-3.5874 2.5624-6.4829 6.0985-6.4829 3.7412 0 5.9448 2.9211 5.9448 6.6366v.4869h-9.9934c.1538 2.3318 1.7681 4.2792 4.433 4.2792 1.435 0 2.8443-.5637 3.8436-1.5887l.9225 1.2556c-1.2556 1.2299-2.9212 1.9218-4.9198 1.9218zm3.818-7.303c-.0257-1.8193-1.2556-4.0999-4.0743-4.0999-2.6393 0-3.9461 2.2293-4.0486 4.0999z"/><path d="m26.1622 33.5149c4.8412-1.7 8.3243-6.26 8.3243-11.6247 0-6.8118-5.6011-12.35297-12.4865-12.35297s-12.48647 5.54117-12.48647 12.35297c0 5.7964 4.06227 10.6564 9.51347 11.98v1.2117c-6.1207-1.3435-10.70266-6.7317-10.70266-13.1917 0-7.4718 6.12316-13.52944 13.67566-13.52944 7.5526 0 13.6757 6.05764 13.6757 13.52944 0 6.0341-3.9981 11.1364-9.5135 12.8788zm-4.1621-18.0952c-3.6069 0-6.5406 2.9023-6.5406 6.4705 0 2.5059 1.4568 4.6671 3.5676 5.74v1.3083c-2.791-1.1518-4.7568-3.8694-4.7568-7.0483 0-4.2235 3.4606-7.647 7.7298-7.647 4.2691 0 7.7297 3.4235 7.7297 7.647 0 2.7036-1.427 5.0683-3.5676 6.4271v-1.4635c1.4461-1.1871 2.3784-2.9636 2.3784-4.9636 0-3.5682-2.9337-6.4705-6.5405-6.4705zm-22.0001 6.4705c0 7.6423 3.98854 14.3518 10.0118 18.2353.3639-.2353.7373-.4565 1.1143-.6706.2699-.1518.5422-.2965.8193-.4376.3306-.1683.666-.3283 1.0061-.48.3389-.1518.6814-.293 1.0298-.4283.283-.1094.5684-.2117.8574-.3106.4031-.1376.8122-.2635 1.2272-.3788.3116-.0859.6256-.1671.9431-.24.3211-.0741.6433-.1435.9704-.2035.3472-.0636.6956-.1235 1.0476-.1718.3948-.04.7885-.087 1.1892-.1188v-1.3941-1.1894-4.7777-1.2141-4.4553h-1.1892v-2.3529h1.1892 3.5676 1.1892v6.3447 1.3023 4.9259 1.2141 1.7141c3.2916.4553 6.3514 1.6047 9.0128 3.3212 6.0257-3.8823 10.0142-10.5918 10.0142-18.2341 0-12.02001-9.8501-21.764712-22-21.764712-12.14995 0-22 9.744702-22 21.764712z"/></g></svg>