<svg fill="none" height="80" viewBox="0 0 443 80" width="443" xmlns="http://www.w3.org/2000/svg"><g fill="#2b2b2b"><path d="m0 80 19.7143-80 76.2857 20.6742-14.6129 59.2987-49.5791-32.3324z"/><path d="m139.824 60.672c-2.539 0-4.835-.4293-6.888-1.288-2.016-.896-3.752-2.184-5.208-3.864-1.419-1.7173-2.52-3.8267-3.304-6.328-.784-2.5387-1.176-5.4507-1.176-8.736s.392-6.1787 1.176-8.68 1.885-4.6107 3.304-6.328c1.456-1.7173 3.192-3.0053 5.208-3.864 2.053-.896 4.349-1.344 6.888-1.344 2.501 0 4.779.448 6.832 1.344 2.053.8587 3.789 2.1467 5.208 3.864 1.456 1.7173 2.576 3.8267 3.36 6.328s1.176 5.3947 1.176 8.68-.392 6.1973-1.176 8.736c-.784 2.5013-1.904 4.6107-3.36 6.328-1.419 1.68-3.155 2.968-5.208 3.864-2.053.8587-4.331 1.288-6.832 1.288zm0-4.2c1.68 0 3.229-.2987 4.648-.896s2.632-1.456 3.64-2.576c1.045-1.12 1.848-2.464 2.408-4.032s.84-3.3227.84-5.264v-6.496c0-1.9413-.28-3.696-.84-5.264s-1.363-2.912-2.408-4.032c-1.008-1.12-2.221-1.9787-3.64-2.576s-2.968-.896-4.648-.896-3.229.2987-4.648.896-2.651 1.456-3.696 2.576c-1.008 1.12-1.792 2.464-2.352 4.032s-.84 3.3227-.84 5.264v6.496c0 1.9413.28 3.696.84 5.264s1.344 2.912 2.352 4.032c1.045 1.12 2.277 1.9787 3.696 2.576s2.968.896 4.648.896zm29.844 3.528c-1.568 0-2.762-.4293-3.584-1.288-.784-.896-1.176-2.016-1.176-3.36v-36.792h4.48v37.52h4.256v3.92zm31.998 0c-1.68 0-2.893-.448-3.64-1.344-.709-.896-1.157-2.016-1.344-3.36h-.28c-.634 1.792-1.68 3.136-3.136 4.032s-3.192 1.344-5.208 1.344c-3.061 0-5.45-.784-7.168-2.352-1.68-1.568-2.52-3.696-2.52-6.384 0-2.7253.99-4.816 2.968-6.272 2.016-1.456 5.134-2.184 9.352-2.184h5.712v-2.856c0-2.0533-.56-3.6213-1.68-4.704s-2.837-1.624-5.152-1.624c-1.754 0-3.229.392-4.424 1.176-1.157.784-2.128 1.8293-2.912 3.136l-2.688-2.52c.784-1.568 2.035-2.8933 3.752-3.976 1.718-1.12 3.883-1.68 6.496-1.68 3.51 0 6.235.8587 8.176 2.576 1.942 1.7173 2.912 4.1067 2.912 7.168v15.904h3.304v3.92zm-12.88-3.136c1.12 0 2.147-.1307 3.08-.392.934-.2613 1.736-.6347 2.408-1.12s1.195-1.0453 1.568-1.68c.374-.6347.56-1.3253.56-2.072v-4.76h-5.936c-2.576 0-4.461.3733-5.656 1.12-1.157.7467-1.736 1.8293-1.736 3.248v1.176c0 1.4187.504 2.52 1.512 3.304 1.046.784 2.446 1.176 4.2 1.176zm28.241 3.136-10.136-28.896h4.48l5.04 14.336 3.136 9.856h.28l3.136-9.856 5.152-14.336h4.312l-10.192 28.896zm30.358.672c-2.688 0-4.946-.504-6.776-1.512-1.792-1.0453-3.341-2.4267-4.648-4.144l3.192-2.576c1.12 1.4187 2.371 2.52 3.752 3.304 1.382.7467 2.987 1.12 4.816 1.12 1.904 0 3.379-.4107 4.424-1.232 1.083-.8213 1.624-1.9787 1.624-3.472 0-1.12-.373-2.072-1.12-2.856-.709-.8213-2.016-1.3813-3.92-1.68l-2.296-.336c-1.344-.1867-2.576-.4667-3.696-.84-1.12-.4107-2.109-.9333-2.968-1.568-.821-.672-1.474-1.4933-1.96-2.464-.448-.9707-.672-2.128-.672-3.472 0-1.4187.262-2.6507.784-3.696.523-1.0827 1.232-1.9787 2.128-2.688.934-.7093 2.035-1.232 3.304-1.568 1.27-.3733 2.632-.56 4.088-.56 2.352 0 4.312.4107 5.88 1.232 1.606.8213 3.006 1.96 4.2 3.416l-2.968 2.688c-.634-.896-1.568-1.6987-2.8-2.408-1.232-.7467-2.781-1.12-4.648-1.12-1.866 0-3.285.4107-4.256 1.232-.933.784-1.4 1.8667-1.4 3.248 0 1.4187.467 2.4453 1.4 3.08.971.6347 2.352 1.1013 4.144 1.4l2.24.336c3.211.4853 5.488 1.4187 6.832 2.8 1.344 1.344 2.016 3.1173 2.016 5.32 0 2.8-.952 5.0027-2.856 6.608s-4.517 2.408-7.84 2.408zm25.111-.672c-1.568 0-2.763-.4293-3.584-1.288-.784-.896-1.176-2.0533-1.176-3.472v-20.216h-4.76v-3.92h2.688c.97 0 1.624-.1867 1.96-.56.373-.4107.56-1.1013.56-2.072v-5.376h4.032v8.008h6.328v3.92h-6.328v21.056h5.88v3.92zm24.45.672c-1.942 0-3.715-.3547-5.32-1.064-1.606-.7093-2.987-1.7173-4.144-3.024-1.12-1.344-1.998-2.9307-2.632-4.76-.635-1.8667-.952-3.9573-.952-6.272 0-2.2773.317-4.3493.952-6.216.634-1.8667 1.512-3.4533 2.632-4.76 1.157-1.344 2.538-2.3707 4.144-3.08 1.605-.7093 3.378-1.064 5.32-1.064 1.941 0 3.696.3547 5.264 1.064 1.605.7093 2.986 1.736 4.144 3.08 1.157 1.3067 2.053 2.8933 2.688 4.76.634 1.8667.952 3.9387.952 6.216 0 2.3147-.318 4.4053-.952 6.272-.635 1.8293-1.531 3.416-2.688 4.76-1.158 1.3067-2.539 2.3147-4.144 3.024-1.568.7093-3.323 1.064-5.264 1.064zm0-3.976c2.426 0 4.405-.7467 5.936-2.24 1.53-1.4933 2.296-3.7707 2.296-6.832v-4.144c0-3.0613-.766-5.3387-2.296-6.832-1.531-1.4933-3.51-2.24-5.936-2.24-2.427 0-4.406.7467-5.936 2.24-1.531 1.4933-2.296 3.7707-2.296 6.832v4.144c0 3.0613.765 5.3387 2.296 6.832 1.53 1.4933 3.509 2.24 5.936 2.24zm20.916-25.592h4.48v4.704h.224c.746-1.8293 1.829-3.1733 3.248-4.032 1.456-.896 3.192-1.344 5.208-1.344 1.792 0 3.416.3547 4.872 1.064s2.688 1.7173 3.696 3.024c1.045 1.3067 1.829 2.8933 2.352 4.76.56 1.8667.84 3.9573.84 6.272s-.28 4.4053-.84 6.272c-.523 1.8667-1.307 3.4533-2.352 4.76-1.008 1.3067-2.24 2.3147-3.696 3.024s-3.08 1.064-4.872 1.064c-3.92 0-6.739-1.792-8.456-5.376h-.224v15.904h-4.48zm11.928 25.536c2.538 0 4.536-.784 5.992-2.352 1.456-1.6053 2.184-3.696 2.184-6.272v-4.928c0-2.576-.728-4.648-2.184-6.216-1.456-1.6053-3.454-2.408-5.992-2.408-1.008 0-1.979.1493-2.912.448-.896.2613-1.68.6347-2.352 1.12s-1.214 1.0827-1.624 1.792c-.374.672-.56 1.4-.56 2.184v10.752c0 .9333.186 1.7733.56 2.52.41.7093.952 1.3253 1.624 1.848.672.4853 1.456.8587 2.352 1.12.933.2613 1.904.392 2.912.392zm21.056-25.536h4.48v4.704h.224c.747-1.8293 1.829-3.1733 3.248-4.032 1.456-.896 3.192-1.344 5.208-1.344 1.792 0 3.416.3547 4.872 1.064s2.688 1.7173 3.696 3.024c1.045 1.3067 1.829 2.8933 2.352 4.76.56 1.8667.84 3.9573.84 6.272s-.28 4.4053-.84 6.272c-.523 1.8667-1.307 3.4533-2.352 4.76-1.008 1.3067-2.24 2.3147-3.696 3.024s-3.08 1.064-4.872 1.064c-3.92 0-6.739-1.792-8.456-5.376h-.224v15.904h-4.48zm11.928 25.536c2.539 0 4.536-.784 5.992-2.352 1.456-1.6053 2.184-3.696 2.184-6.272v-4.928c0-2.576-.728-4.648-2.184-6.216-1.456-1.6053-3.453-2.408-5.992-2.408-1.008 0-1.979.1493-2.912.448-.896.2613-1.68.6347-2.352 1.12s-1.213 1.0827-1.624 1.792c-.373.672-.56 1.4-.56 2.184v10.752c0 .9333.187 1.7733.56 2.52.411.7093.952 1.3253 1.624 1.848.672.4853 1.456.8587 2.352 1.12.933.2613 1.904.392 2.912.392zm31.92 4.032c-1.978 0-3.77-.3547-5.376-1.064-1.568-.7093-2.93-1.7173-4.088-3.024-1.12-1.344-1.997-2.9307-2.632-4.76-.597-1.8667-.896-3.9573-.896-6.272 0-2.2773.299-4.3493.896-6.216.635-1.8667 1.512-3.4533 2.632-4.76 1.158-1.344 2.52-2.3707 4.088-3.08 1.606-.7093 3.398-1.064 5.376-1.064 1.942 0 3.678.3547 5.208 1.064 1.531.7093 2.838 1.6987 3.92 2.968 1.083 1.232 1.904 2.7067 2.464 4.424.598 1.7173.896 3.6027.896 5.656v2.128h-20.776v1.344c0 1.232.187 2.3893.56 3.472.411 1.0453.971 1.96 1.68 2.744.747.784 1.643 1.4 2.688 1.848 1.083.448 2.296.672 3.64.672 1.83 0 3.416-.4293 4.76-1.288 1.382-.8587 2.446-2.0907 3.192-3.696l3.192 2.296c-.933 1.9787-2.389 3.584-4.368 4.816-1.978 1.1947-4.33 1.792-7.056 1.792zm0-26.488c-1.232 0-2.352.224-3.36.672-1.008.4107-1.885 1.008-2.632 1.792-.709.784-1.269 1.7173-1.68 2.8-.41 1.0453-.616 2.2027-.616 3.472v.392h15.96v-.616c0-2.576-.709-4.6293-2.128-6.16-1.381-1.568-3.229-2.352-5.544-2.352zm20.371 25.816v-28.896h4.48v4.704h.224c.709-1.6427 1.698-2.9493 2.968-3.92 1.306-.9707 3.042-1.456 5.208-1.456 2.986 0 5.338.9707 7.056 2.912 1.754 1.904 2.632 4.6107 2.632 8.12v18.536h-4.48v-17.752c0-5.1893-2.184-7.784-6.552-7.784-.896 0-1.774.112-2.632.336-.822.224-1.568.56-2.24 1.008s-1.214 1.0267-1.624 1.736c-.374.672-.56 1.4747-.56 2.408v20.048z"/></g></svg>