<?xml version="1.0" encoding="UTF-8" standalone="no"?>
<!DOCTYPE svg PUBLIC "-//W3C//DTD SVG 1.1//EN" "http://www.w3.org/Graphics/SVG/1.1/DTD/svg11.dtd">
<svg width="100%" height="100%" viewBox="0 0 275 111" version="1.1" xmlns="http://www.w3.org/2000/svg" xmlns:xlink="http://www.w3.org/1999/xlink" xml:space="preserve" xmlns:serif="http://www.serif.com/" style="fill-rule:evenodd;clip-rule:evenodd;stroke-linejoin:round;stroke-miterlimit:2;">
    <g transform="matrix(1,0,0,1,-139.595,-819.979)">
        <g transform="matrix(1.69405,0,0,1.69405,129.99,759.977)">
            <path d="M164.037,56.694L149.322,56.694L142.409,36.6L128.452,36.6L126.293,42.028L101.11,42.028L98.972,47.456L71.652,47.456L69.526,52.884L43.81,52.884L41.705,58.311L12.246,58.311L6.85,71.982L16.454,99.641L133.483,99.641L166.771,65.337L164.037,56.694Z" style="fill:rgb(20,19,50);fill-rule:nonzero;"/>
            <path d="M165.163,56.338C165.007,55.847 164.552,55.513 164.037,55.513L150.164,55.513C150.164,55.513 143.525,36.216 143.525,36.216C143.361,35.739 142.913,35.42 142.409,35.42L128.452,35.42C127.968,35.42 127.533,35.715 127.355,36.164L125.492,40.847C125.492,40.847 101.11,40.847 101.11,40.847C100.625,40.847 100.189,41.144 100.011,41.595L98.168,46.275C98.168,46.275 71.652,46.275 71.652,46.275C71.166,46.275 70.73,46.573 70.552,47.025L68.721,51.703C68.721,51.703 43.81,51.703 43.81,51.703C43.323,51.703 42.886,52.002 42.71,52.457L40.897,57.131C40.897,57.131 12.246,57.131 12.246,57.131C11.761,57.131 11.326,57.427 11.148,57.878L5.752,71.549C5.648,71.811 5.642,72.103 5.735,72.369L15.339,100.029C15.504,100.504 15.952,100.822 16.454,100.822L133.483,100.822C133.803,100.822 134.108,100.693 134.331,100.464L167.618,66.159C167.92,65.847 168.027,65.395 167.896,64.98L165.163,56.338ZM164.037,56.694L149.322,56.694L142.409,36.6L128.452,36.6L126.293,42.028L101.11,42.028L98.972,47.456L71.652,47.456L69.526,52.884L43.81,52.884L41.705,58.311L12.246,58.311L6.85,71.982L16.454,99.641L133.483,99.641L166.771,65.337L164.037,56.694Z" style="fill:white;"/>
        </g>
        <g transform="matrix(1.69405,0,0,1.69405,127.99,821.979)">
            <path d="M140.04,3.349L146.855,23.442L161.569,23.442L163.446,28.86L141.127,28.86L132.337,3.349L140.04,3.349Z" style="fill:rgb(251,82,93);fill-rule:nonzero;"/>
        </g>
        <g transform="matrix(1.69405,0,0,1.69405,128.99,806.479)">
            <path d="M126.707,17.926L128.485,23.048L113.572,23.048L115.251,27.776L127.793,27.776L129.571,33.095L117.029,33.095L118.806,38.217L134.311,38.217L136.089,43.438L112.98,43.438L104.289,17.926L126.707,17.926Z" style="fill:rgb(251,82,93);fill-rule:nonzero;"/>
        </g>
        <g transform="matrix(1.69405,0,0,1.69405,127.99,790.978)">
            <path d="M101.524,44.719C104.685,45.901 107.252,47.871 108.042,50.333C109.524,54.569 106.265,58.016 99.747,58.016L84.242,58.016L75.551,32.505L90.068,32.505C96.191,32.505 101.722,35.558 103.104,39.794C103.796,41.665 103.104,43.438 101.524,44.719ZM97.179,53.19C99.747,53.19 101.03,51.909 100.537,50.235C99.944,48.462 97.772,47.28 95.204,47.28L87.797,47.28L89.772,53.091L97.179,53.091L97.179,53.19ZM84.34,37.331L86.217,42.749L93.031,42.749C95.105,42.749 96.29,41.665 95.698,40.089C95.105,38.513 93.229,37.43 91.155,37.43L84.34,37.43" style="fill:rgb(251,82,93);fill-rule:nonzero;"/>
        </g>
        <g transform="matrix(1.69405,0,0,1.69405,127.99,775.477)">
            <path d="M69.822,47.083L71.6,52.205L56.687,52.205L58.366,56.834L70.908,56.834L72.785,62.153L60.242,62.153L61.921,67.176L77.525,67.176L79.303,72.298L56.193,72.298L47.404,47.083L69.822,47.083Z" style="fill:rgb(251,82,93);fill-rule:nonzero;"/>
        </g>
        <g transform="matrix(1.69405,0,0,1.69405,129.99,759.977)">
            <path d="M39.996,77.617L51.155,87.171L42.07,87.171L32.688,78.897L28.145,78.897L31.009,87.171L23.404,87.171L14.615,61.66L27.947,61.66C35.354,61.66 41.872,65.304 43.551,70.131C44.637,73.184 43.057,75.942 39.996,77.617ZM32.194,74.169C35.255,74.169 36.737,72.495 36.045,70.525C35.354,68.555 32.786,66.88 29.725,66.88L24.096,66.88L26.565,74.169L32.194,74.169Z" style="fill:rgb(251,82,93);fill-rule:nonzero;"/>
        </g>
        <g transform="matrix(2.29611,0,0,2.29611,232.953,818.215)">
            <g transform="matrix(0.327867,0,0,0.327867,15.2677,5.5161)">
                <path d="M136.878,78.208C142.013,78.208 144.779,80.769 143.594,84.216C142.408,87.664 137.767,90.619 132.335,90.619L128.78,90.619L127.002,95.839L121.669,95.839L127.693,78.208L136.878,78.208ZM133.718,87.073C135.792,87.073 137.668,85.792 138.162,84.413C138.656,82.936 137.668,81.754 135.594,81.754L131.841,81.754L130.064,87.073L133.718,87.073Z" style="fill:white;fill-rule:nonzero;"/>
            </g>
            <g transform="matrix(0.327867,0,0,0.327867,15.2677,5.5161)">
                <path d="M117.424,78.208C122.559,78.208 125.324,80.769 124.139,84.216C122.954,87.664 118.312,90.619 112.881,90.619L109.325,90.619L107.548,95.839L102.215,95.839L108.239,78.208L117.424,78.208ZM114.263,87.073C116.337,87.073 118.214,85.792 118.707,84.413C119.201,82.936 118.214,81.754 116.14,81.754L112.387,81.754L110.609,87.073L114.263,87.073Z" style="fill:white;fill-rule:nonzero;"/>
            </g>
            <g transform="matrix(0.327867,0,0,0.327867,15.2677,5.5161)">
                <path d="M98.165,78.208L100.832,95.839L95.104,95.839L94.709,92.293L85.524,92.293L82.66,95.839L77.031,95.839L91.746,78.208L98.165,78.208ZM87.993,88.846L94.511,88.846L93.524,82.246L87.993,88.846Z" style="fill:white;fill-rule:nonzero;"/>
            </g>
        </g>
        <g transform="matrix(2.29611,0,0,2.29611,218.68,818.438)">
            <g transform="matrix(0.327867,0,0,0.327867,15.2677,5.5161)">
                <path d="M32.59,99.779C34.763,99.779 37.133,100.173 38.713,100.764L37.33,104.803C35.948,104.015 33.874,103.424 31.899,103.424C29.43,103.424 27.553,104.113 27.158,105C26.269,107.462 38.417,106.182 36.343,112.19C35.256,115.441 30.812,117.903 25.479,117.903C21.727,117.903 19.653,117.214 18.171,116.623L19.653,112.486C21.233,113.372 23.109,114.16 26.072,114.16C27.85,114.16 30.417,113.766 30.812,112.584C31.701,110.122 19.85,111.304 21.825,105.394C22.912,102.143 27.257,99.779 32.59,99.779Z" style="fill:white;fill-rule:nonzero;"/>
            </g>
            <g transform="matrix(0.327867,0,0,0.327867,15.2677,5.5161)">
                <path d="M58.07,100.075L56.786,103.818L50.466,103.818L45.725,117.706L40.392,117.706L45.133,103.818L38.911,103.818L40.096,100.075L58.07,100.075Z" style="fill:white;fill-rule:nonzero;"/>
            </g>
            <g transform="matrix(0.327867,0,0,0.327867,15.2677,5.5161)">
                <path d="M91.746,100.075C98.461,100.075 102.806,103.522 100.93,108.94C99.054,114.456 92.437,117.706 85.623,117.706L77.722,117.706L83.746,100.075L91.746,100.075ZM86.906,113.963C90.758,113.963 94.412,112.289 95.597,108.841C96.782,105.492 94.313,103.818 90.462,103.818L87.894,103.818L84.438,113.963L86.906,113.963Z" style="fill:white;fill-rule:nonzero;"/>
            </g>
            <g transform="matrix(0.327867,0,0,0.327867,15.2677,5.5161)">
                <path d="M80.487,100.075L77.03,110.122C75.055,115.835 70.018,118.1 64.093,118.1C58.167,118.1 54.612,115.835 56.587,110.122L60.044,100.075L65.377,100.075L62.019,109.925C60.834,113.372 62.908,114.456 65.377,114.456C67.846,114.456 70.71,113.372 71.796,109.925L75.154,100.075L80.487,100.075Z" style="fill:white;fill-rule:nonzero;"/>
            </g>
            <g transform="matrix(0.327867,0,0,0.327867,15.2677,5.5161)">
                <path d="M111.1,100.075L105.076,117.706L99.743,117.706L105.768,100.075L111.1,100.075Z" style="fill:white;fill-rule:nonzero;"/>
            </g>
            <g transform="matrix(0.327867,0,0,0.327867,15.2677,5.5161)">
                <path d="M125.716,99.779C132.531,99.779 136.58,103.916 134.802,108.94C133.024,114.062 126.111,118.1 119.396,118.1C112.582,118.1 108.532,113.963 110.31,108.94C112.088,103.818 119.001,99.779 125.716,99.779ZM120.778,114.259C124.63,114.259 128.482,111.895 129.469,108.94C130.457,105.985 128.284,103.621 124.433,103.621C120.581,103.621 116.729,105.985 115.742,108.94C114.754,111.895 116.927,114.259 120.778,114.259Z" style="fill:white;fill-rule:nonzero;"/>
            </g>
        </g>
    </g>
</svg>
