<svg clip-rule="evenodd" fill-rule="evenodd" stroke-linejoin="round" stroke-miterlimit="2" viewBox="0 0 275 111" xmlns="http://www.w3.org/2000/svg"><g transform="matrix(1.69405 0 0 1.69405 -9.605 -60.002)"><path d="m164.037 56.694h-14.715l-6.913-20.094h-13.957l-2.159 5.428h-25.183l-2.138 5.428h-27.32l-2.126 5.428h-25.716l-2.105 5.427h-29.459l-5.396 13.671 9.604 27.659h117.029l33.288-34.304z" fill="#141332" fill-rule="nonzero"/><path d="m165.163 56.338c-.156-.491-.611-.825-1.126-.825h-13.873s-6.639-19.297-6.639-19.297c-.164-.477-.612-.796-1.116-.796h-13.957c-.484 0-.919.295-1.097.744l-1.863 4.683h-24.382c-.485 0-.921.297-1.099.748l-1.843 4.68h-26.516c-.486 0-.922.298-1.1.75l-1.831 4.678h-24.911c-.487 0-.924.299-1.1.754l-1.813 4.674h-28.651c-.485 0-.92.296-1.098.747l-5.396 13.671c-.104.262-.11.554-.017.82l9.604 27.66c.165.475.613.793 1.115.793h117.029c.32 0 .625-.129.848-.358l33.287-34.305c.302-.312.409-.764.278-1.179zm-1.126.356h-14.715l-6.913-20.094h-13.957l-2.159 5.428h-25.183l-2.138 5.428h-27.32l-2.126 5.428h-25.716l-2.105 5.427h-29.459l-5.396 13.671 9.604 27.659h117.029l33.288-34.304z" fill="#fff"/></g><g fill-rule="nonzero"><path d="m140.04 3.349 6.815 20.093h14.714l1.877 5.418h-22.319l-8.79-25.511z" fill="#fb525d" transform="matrix(1.69405 0 0 1.69405 -11.605 2)"/><path d="m126.707 17.926 1.778 5.122h-14.913l1.679 4.728h12.542l1.778 5.319h-12.542l1.777 5.122h15.505l1.778 5.221h-23.109l-8.691-25.512z" fill="#fb525d" transform="matrix(1.69405 0 0 1.69405 -10.605 -13.5)"/><path d="m101.524 44.719c3.161 1.182 5.728 3.152 6.518 5.614 1.482 4.236-1.777 7.683-8.295 7.683h-15.505l-8.691-25.511h14.517c6.123 0 11.654 3.053 13.036 7.289.692 1.871 0 3.644-1.58 4.925zm-4.345 8.471c2.568 0 3.851-1.281 3.358-2.955-.593-1.773-2.765-2.955-5.333-2.955h-7.407l1.975 5.811h7.407zm-12.839-15.859 1.877 5.418h6.814c2.074 0 3.259-1.084 2.667-2.66-.593-1.576-2.469-2.659-4.543-2.659h-6.815" fill="#fb525d" transform="matrix(1.69405 0 0 1.69405 -11.605 -29.001)"/><path d="m69.822 47.083 1.778 5.122h-14.913l1.679 4.629h12.542l1.877 5.319h-12.543l1.679 5.023h15.604l1.778 5.122h-23.11l-8.789-25.215z" fill="#fb525d" transform="matrix(1.69405 0 0 1.69405 -11.605 -44.502)"/><path d="m39.996 77.617 11.159 9.554h-9.085l-9.382-8.274h-4.543l2.864 8.274h-7.605l-8.789-25.511h13.332c7.407 0 13.925 3.644 15.604 8.471 1.086 3.053-.494 5.811-3.555 7.486zm-7.802-3.448c3.061 0 4.543-1.674 3.851-3.644-.691-1.97-3.259-3.645-6.32-3.645h-5.629l2.469 7.289z" fill="#fb525d" transform="matrix(1.69405 0 0 1.69405 -9.605 -60.002)"/><path d="m136.878 78.208c5.135 0 7.901 2.561 6.716 6.008-1.186 3.448-5.827 6.403-11.259 6.403h-3.555l-1.778 5.22h-5.333l6.024-17.631zm-3.16 8.865c2.074 0 3.95-1.281 4.444-2.66.494-1.477-.494-2.659-2.568-2.659h-3.753l-1.777 5.319z" fill="#fff" transform="matrix(.75281869737 0 0 .75281869737 128.414318647 10.901572371)"/><path d="m117.424 78.208c5.135 0 7.9 2.561 6.715 6.008-1.185 3.448-5.827 6.403-11.258 6.403h-3.556l-1.777 5.22h-5.333l6.024-17.631zm-3.161 8.865c2.074 0 3.951-1.281 4.444-2.66.494-1.477-.493-2.659-2.567-2.659h-3.753l-1.778 5.319z" fill="#fff" transform="matrix(.75281869737 0 0 .75281869737 128.414318647 10.901572371)"/><path d="m98.165 78.208 2.667 17.631h-5.728l-.395-3.546h-9.185l-2.864 3.546h-5.629l14.715-17.631zm-10.172 10.638h6.518l-.987-6.6z" fill="#fff" transform="matrix(.75281869737 0 0 .75281869737 128.414318647 10.901572371)"/><path d="m32.59 99.779c2.173 0 4.543.394 6.123.985l-1.383 4.039c-1.382-.788-3.456-1.379-5.431-1.379-2.469 0-4.346.689-4.741 1.576-.889 2.462 11.259 1.182 9.185 7.19-1.087 3.251-5.531 5.713-10.864 5.713-3.752 0-5.826-.689-7.308-1.28l1.482-4.137c1.58.886 3.456 1.674 6.419 1.674 1.778 0 4.345-.394 4.74-1.576.889-2.462-10.962-1.28-8.987-7.19 1.087-3.251 5.432-5.615 10.765-5.615z" fill="#fff" transform="matrix(.75281869737 0 0 .75281869737 114.141318647 11.124572371)"/><path d="m58.07 100.075-1.284 3.743h-6.32l-4.741 13.888h-5.333l4.741-13.888h-6.222l1.185-3.743z" fill="#fff" transform="matrix(.75281869737 0 0 .75281869737 114.141318647 11.124572371)"/><path d="m91.746 100.075c6.715 0 11.06 3.447 9.184 8.865-1.876 5.516-8.493 8.766-15.307 8.766h-7.901l6.024-17.631zm-4.84 13.888c3.852 0 7.506-1.674 8.691-5.122 1.185-3.349-1.284-5.023-5.135-5.023h-2.568l-3.456 10.145z" fill="#fff" transform="matrix(.75281869737 0 0 .75281869737 114.141318647 11.124572371)"/><path d="m80.487 100.075-3.457 10.047c-1.975 5.713-7.012 7.978-12.937 7.978-5.926 0-9.481-2.265-7.506-7.978l3.457-10.047h5.333l-3.358 9.85c-1.185 3.447.889 4.531 3.358 4.531s5.333-1.084 6.419-4.531l3.358-9.85z" fill="#fff" transform="matrix(.75281869737 0 0 .75281869737 114.141318647 11.124572371)"/><path d="m111.1 100.075-6.024 17.631h-5.333l6.025-17.631z" fill="#fff" transform="matrix(.75281869737 0 0 .75281869737 114.141318647 11.124572371)"/><path d="m125.716 99.779c6.815 0 10.864 4.137 9.086 9.161-1.778 5.122-8.691 9.16-15.406 9.16-6.814 0-10.864-4.137-9.086-9.16 1.778-5.122 8.691-9.161 15.406-9.161zm-4.938 14.48c3.852 0 7.704-2.364 8.691-5.319.988-2.955-1.185-5.319-5.036-5.319-3.852 0-7.704 2.364-8.691 5.319-.988 2.955 1.185 5.319 5.036 5.319z" fill="#fff" transform="matrix(.75281869737 0 0 .75281869737 114.141318647 11.124572371)"/></g></svg>