<svg height="143" viewBox="0 0 857 143" width="857" xmlns="http://www.w3.org/2000/svg"><g fill="none" fill-rule="evenodd"><g transform="translate(401 -9)"><g fill="#c8d3e0" font-family="Helvetica"><text font-size="22" transform="translate(1 126)"><tspan x="0" y="21">The art of software can code your dream world</tspan></text><text font-size="77" transform="translate(0 31)"><tspan x="0" y="74">SOFT</tspan></text><text font-size="77" transform="translate(232 31)"><tspan x="0" y="74">WARE</tspan></text></g><path d="m226 51h-20v54h20z" fill="#f5be58" fill-rule="nonzero" stroke="#f5be58"/><g fill="#f5be58" fill-rule="nonzero" transform="matrix(.8480481 -.52991926 .52991926 .8480481 188.386513 20.059612)"><path d="m17.6532782 20.2612717-17.23956682 9.7098109 17.23956682 9.8916126 17.2230667-9.8007117z" transform="matrix(-.99939083 -.0348995 .0348995 -.99939083 34.230159 60.721456)"/><path d="m18.2171542.9876234v19.4501641l17.1672598 9.9020518v-19.5185999z" transform="matrix(-.99939083 -.0348995 .0348995 -.99939083 53.038585 32.253254)"/><path d="m.9042903 10.1689595 17.1672598-9.78595879v19.62159499l-17.15904044 9.5883695z" transform="matrix(-.99939083 -.0348995 .0348995 -.99939083 18.446987 30.297959)"/></g></g><g fill-rule="nonzero" transform="translate(1 1)"><g fill="#c8d3e0"><g stroke="#c8d3e0" stroke-linejoin="round" transform="translate(0 11.006693)"><path d="m75.194977 31.121835v-30.57445121l-75.194977 40.24609251v25.9000846l4.76436777 5.1800169z"/><path d="m75.5579323 78.780267-41.0624258-24.1734123-29.73113873 17.2667231 70.79356453 37.9867902z"/></g><g stroke="#c8d3e0" stroke-linejoin="round" transform="matrix(-1 0 0 -1 240.870787 121.513721)"><path d="m76.4212684 78.780267-75.55793225-37.5568088-.44768701 28.490093 76.00561926 40.1468168z"/><path d="m76.0583131 31.121835v-30.57445121l-75.19497695 40.24609251-.44768701 28.9200749 5.02783706 2.5900085z"/></g><g stroke="#fff" stroke-linejoin="bevel" transform="translate(79.747305)"><path d="m80.4175705 11.0066928-6.043353-11.0066928h-29.9339047l7.2283325 11.22337z"/><path d="m44.4403128.60787633-44.31300444 120.25918467 8.33574662 10.360034 43.20559032-120.003725z"/><path d="m80.4175705 11.0066928h-28.7489252l-43.20559032 120.2204022h28.78770792z"/></g></g><g transform="translate(255.984013)"><path d="m0 0h31.0801015l37.9867907 65.6135476-37.9867907 65.6135474h-31.0801015l37.9867907-65.6135474z" fill="#e5a03e" stroke="#e5a03e"/><path d="m34.5334461 0h31.0801015l37.9867904 65.6135476-37.9867904 65.6135474h-31.0801015l37.9867907-65.6135474z" fill="#f5be58" stroke="#f5be58"/></g></g></g></svg>