<svg viewBox="0 0 1518.32 552.32" xmlns="http://www.w3.org/2000/svg" xmlns:xlink="http://www.w3.org/1999/xlink"><clipPath id="a"><path d="m245.4 81.56-8.46 4.93-134 77.94c-.7.4-1.31.87-2 1.31a37.87 37.87 0 0 0 19.06 37.26l82.14 46.64a19.06 19.06 0 0 1 .39-32.73l36.22-21 110-63.84a7.63 7.63 0 0 0 0-13.22l-65.2-37.39a38.22 38.22 0 0 0 -38.15.1"/></clipPath><linearGradient id="b" gradientTransform="matrix(11.34 0 0 -11.34 -38784.38 14640.25)" gradientUnits="userSpaceOnUse" x1="3432.65" x2="3448.84" y1="1276.55" y2="1276.55"><stop offset="0" stop-color="#29218c"/><stop offset=".04" stop-color="#27319c"/><stop offset=".15" stop-color="#205ac4"/><stop offset=".2" stop-color="#1e6ad3"/><stop offset="1" stop-color="#1681e3"/></linearGradient><clipPath id="c"><path d="m86.26 184.5a37.64 37.64 0 0 0 -2.18 10.84v46.93l.23 76c.09 29.36 31.93 47.62 57.31 32.86l109.43-63.65a19.28 19.28 0 0 1 17.35.26l-15.4-8.81-41.84-24.09-8.56-4.93c-.15-.1-.29-.21-.44-.29l-82.16-46.62a37.87 37.87 0 0 1 -19-37.26 38.08 38.08 0 0 0 -14.7 18.76"/></clipPath><linearGradient id="d" gradientTransform="matrix(11.39 0 0 -11.39 -36644.03 11759.36)" gradientUnits="userSpaceOnUse" x1="3224.98" x2="3241.17" y1="1009.21" y2="1009.21"><stop offset="0" stop-color="#0ba1fa"/><stop offset=".66" stop-color="#1d6bd4"/><stop offset=".76" stop-color="#225cc9"/><stop offset=".96" stop-color="#3034ad"/><stop offset="1" stop-color="#332ba6"/></linearGradient><clipPath id="e"><path d="m293.9 335.42-36.21 21-110 63.84a7.62 7.62 0 0 0 0 13.21l65.15 37.37a38.13 38.13 0 0 0 38.15-.13l8.47-4.93 134-77.92c.7-.41 1.3-.89 1.95-1.31a37.9 37.9 0 0 0 -19.07-37.25l-82.04-46.59a19.06 19.06 0 0 1 -.4 32.71"/></clipPath><linearGradient id="f" gradientTransform="matrix(-8.2 0 0 8.2 31619.74 -4424.59)" gradientUnits="userSpaceOnUse" x1="3814.7" x2="3830.89" y1="587.45" y2="587.45"><stop offset="0" stop-color="#29218c"/><stop offset=".11" stop-color="#3c2ea1"/><stop offset=".27" stop-color="#4e3ab5"/><stop offset=".44" stop-color="#5b43c3"/><stop offset=".65" stop-color="#6348cb"/><stop offset="1" stop-color="#654ace"/></linearGradient><clipPath id="g"><path d="m354.84 201.12-109.45 63.66a19.22 19.22 0 0 1 -17.35-.27l15.37 8.87 41.84 24.08 8.56 4.94c.16.1.29.21.45.31l82.13 46.61a37.9 37.9 0 0 1 19.07 37.25 38.05 38.05 0 0 0 14.69-18.76 37.32 37.32 0 0 0 2.23-10.81v-47l-.23-76a38.08 38.08 0 0 0 -57.31-32.88"/></clipPath><linearGradient id="h" gradientTransform="matrix(0 11.79 11.79 0 -9520.45 -38409.97)" gradientUnits="userSpaceOnUse" x1="3280.02" x2="3296.2" y1="834.43" y2="834.43"><stop offset="0" stop-color="#9769f6"/><stop offset="1" stop-color="#332ba6"/></linearGradient><g fill="#003ba8"><path d="m645.87 245c-3.13-13.94-12.43-24.51-27.5-31.36-6.73-3.24-21-7.65-46.36-14.31-20.15-5.31-28.74-9.39-32.29-11.8-3.9-2.77-5.57-5.87-5.57-10.39 0-20.67 23.86-22.9 34.12-22.9 18.24 0 39.55 5.75 55.59 15l6.18 3.57 14.65-25.2-5.75-3.7c-18.27-11.76-44.07-18.79-69-18.79-42.23 0-68.46 20.66-68.46 53.91 0 13.51 5.41 24.52 15.64 31.83 9 6.46 24.14 12.41 46.12 18.18a54.54 54.54 0 0 0 5.85 1.68c1.24.3 2.4.58 3.36.9l11.8 3 9.34 2.87c6.66 1.82 8.14 2.66 12.51 5.16l.84.48c3.27 1.71 3.82 2.7 5.67 6l.35.55c1.37 2 1.6 4.63 1.6 9.78 0 7.21-3 12.29-9.33 16-7.58 4.42-17.13 6.66-28.37 6.66-22.09 0-46.49-6.79-63.67-17.73l-6.19-3.87-15.2 24.88 5.58 3.84c20.05 13.79 49.13 22 77.77 22 43.62 0 71.81-21.07 71.81-53.68a58.55 58.55 0 0 0 -1.09-12.56"/><path d="m735.74 172.89c-19.81 0-36.88 6.78-50.76 20.13s-21 29.94-21 49.06 7.08 35.61 21 49 30.95 20.14 50.76 20.14 36.89-6.78 50.77-20.14c14.11-13.58 21.27-30.08 21.27-49s-7.16-35.47-21.27-49.06c-13.88-13.35-31-20.13-50.77-20.13m-29.6 40.19a42.12 42.12 0 0 1 59 .06 40.11 40.11 0 0 1 -.07 57.93 40.23 40.23 0 0 1 -29.36 12c-23 0-41.75-18.41-41.75-41a38.6 38.6 0 0 1 12.15-29"/><path d="m997.44 172.89c-19.08 0-36.88 6-53 17.8-8.7-11.54-22.36-17.8-39.31-17.8-15.73 0-29.29 4.1-43.43 13.4v-11h-30.53v133.58h30.52v-93.94c13.43-10.74 23.39-14.61 37-14.61 16.61 0 25.77 10.34 25.77 29.11v79.44h30.29v-78a81.92 81.92 0 0 0 -1.78-17 60.93 60.93 0 0 1 38.76-13.58c16.38 0 25.77 10.61 25.77 29.11v79.44h30.29v-83.5c0-31.87-19.76-52.48-50.34-52.48"/><path d="m1153.93 172.89a89.92 89.92 0 0 0 -48.43 13.87v-11.48h-30.5v133.59h30.53v-93c12.22-10.49 26.3-15.6 43-15.6 17.08 0 26.48 10.34 26.48 29.11v79.44h30.53v-83.5c0-31.87-20.22-52.48-51.53-52.48"/><path d="m1235.52 175.28h30.29v133.59h-30.29z"/><path d="m1413 193c-13.88-13.35-31-20.13-50.77-20.13s-36.88 6.78-50.76 20.13-21 29.94-21 49.06 7.08 35.61 21 49 31 20.14 50.76 20.14 36.89-6.78 50.77-20.14c14.12-13.59 21.28-30.09 21.28-49s-7.2-35.45-21.28-49.06m-80.37 20.06a42.12 42.12 0 0 1 59 .06c8.3 7.89 12.33 17.36 12.33 28.94a38.08 38.08 0 0 1 -12.39 29 40.27 40.27 0 0 1 -29.37 12c-23 0-41.75-18.41-41.75-41a38.64 38.64 0 0 1 12.15-29"/><path d="m539.44 363.1-2.72 4.67a44.54 44.54 0 0 0 -21.08-5.69c-7.91 0-14.71 3.14-14.71 10.71a6.68 6.68 0 0 0 3.06 5.78c2.12 1.44 6.21 3 12.32 4.59 8.42 2.21 13.77 3.82 16.07 4.93q7 3.2 8.42 9.44a18.92 18.92 0 0 1 .34 3.91c0 11.05-10.37 16.57-23 16.57-9.61 0-19.46-2.72-26.26-7.39l2.8-4.59a47 47 0 0 0 24.06 6.71 22.26 22.26 0 0 0 11.34-2.74 8.6 8.6 0 0 0 4.6-7.9c0-2-.09-3.57-1-4.93a6.48 6.48 0 0 0 -3.08-3.17 17.43 17.43 0 0 0 -5.27-2.21l-3.32-1-4.08-1c-1-.34-2.21-.51-3.32-.93-7.48-2-12.74-4-15.72-6.12a10.78 10.78 0 0 1 -4.51-9.27c0-11.56 9.95-16.66 21.85-16.66 8.25 0 17 2.29 23.21 6.29"/><path d="m518.1 418.86c-9.87 0-19.87-2.82-26.74-7.55l-.66-.45 3.67-6 .73.46a46.34 46.34 0 0 0 23.6 6.58 21.55 21.55 0 0 0 11-2.61 7.74 7.74 0 0 0 4.17-7.17c0-1.87-.06-3.28-.87-4.46a5.74 5.74 0 0 0 -2.75-2.87l-.24-.13a15.71 15.71 0 0 0 -4.86-2l-3.35-1-4-1c-.48-.16-.93-.26-1.39-.38a15.09 15.09 0 0 1 -2-.59c-7.61-2-12.84-4-15.91-6.22a11.67 11.67 0 0 1 -4.86-9.95c0-10.8 8.69-17.5 22.69-17.5 8.58 0 17.42 2.4 23.66 6.42l.68.44-3.55 6.1-.72-.42a43.78 43.78 0 0 0 -20.66-5.59c-3.26 0-13.87.72-13.87 9.87a5.82 5.82 0 0 0 2.71 5.09c2 1.39 6.09 2.89 12 4.47 8.79 2.3 14 3.89 16.22 5 4.88 2.22 7.87 5.59 8.87 10a19.2 19.2 0 0 1 .36 4.1c-.03 10.5-9.42 17.36-23.93 17.36zm-25.1-8.49c6.57 4.27 15.89 6.8 25.12 6.8 10.24 0 22.19-4.12 22.19-15.73a17.76 17.76 0 0 0 -.32-3.74c-.88-3.92-3.48-6.81-7.94-8.84-2.18-1.05-7.24-2.6-15.93-4.88-6.23-1.65-10.34-3.19-12.58-4.71a7.5 7.5 0 0 1 -3.44-6.48c0-7.23 5.82-11.55 15.56-11.55a45.79 45.79 0 0 1 20.77 5.39l1.89-3.25c-5.94-3.59-14.12-5.73-22.07-5.73-13.15 0-21 5.92-21 15.82a9.93 9.93 0 0 0 4.15 8.58c2.86 2.05 8.06 4.06 15.45 6a14.13 14.13 0 0 0 1.91.55c.5.13 1 .25 1.46.4l4 1 3.37 1a17.41 17.41 0 0 1 5.23 2.16l.21.12a7.2 7.2 0 0 1 3.37 3.46c1.05 1.51 1.13 3.25 1.13 5.35a9.42 9.42 0 0 1 -5 8.63 23.2 23.2 0 0 1 -11.81 2.84 47.72 47.72 0 0 1 -23.78-6.4z"/><path d="m671.74 372a29.91 29.91 0 0 1 0 30.77 31.07 31.07 0 0 1 -27 15.21c-16.91.43-31.79-14-31.36-30.6 0-16.91 14-30.6 31.36-30.6a31.06 31.06 0 0 1 27 15.22m-52 15.38a24.95 24.95 0 1 0 25-24.82c-13.68-.26-25.24 11.3-25 24.82"/><path d="m644 418.87a31.85 31.85 0 0 1 -22.35-9.48 30.36 30.36 0 0 1 -9.13-22c-.02-17.32 14.48-31.39 32.19-31.39a31.71 31.71 0 0 1 27.76 15.63 30.8 30.8 0 0 1 0 31.63 31.75 31.75 0 0 1 -27.76 15.63zm.73-61.22c-16.83 0-30.52 13.35-30.52 29.76a28.67 28.67 0 0 0 8.63 20.78 30.95 30.95 0 0 0 48.2-5.82 29.14 29.14 0 0 0 0-29.91 30.07 30.07 0 0 0 -26.33-14.81zm-.08 55.43a25.69 25.69 0 0 1 -18.28-43.8 25.54 25.54 0 0 1 17.93-7.54h.45a25.67 25.67 0 1 1 -.1 51.34zm-.33-49.65a23.82 23.82 0 0 0 -16.76 7.05 23.47 23.47 0 0 0 -7 16.91 24.1 24.1 0 0 0 48.2 0 22.87 22.87 0 0 0 -7.06-16.91 23.25 23.25 0 0 0 -17-7.07z"/><path d="m794.53 363.19h-35.87v22.78h32.81v5.27h-32.81v25.92h-6.12v-59.5h41.99z"/><path d="m759.5 418h-7.81v-61.18h43.68v7.18h-35.87v21.09h32.82v7h-32.82zm-6.12-1.69h4.43v-25.92h32.82v-3.58h-32.82v-24.47h35.88v-3.83h-40.31z"/><path d="m910.01 362.93h-20.74v54.23h-6.13v-54.23h-20.74v-5.27h47.61z"/><path d="m890.11 418h-7.81v-54.22h-20.74v-7h49.29v7h-20.74zm-6.11-1.68h4.43v-54.23h20.75v-3.58h-45.93v3.58h20.75z"/><path d="m1043.34 417.16h-6.63l-16.58-50.41-16.57 50.41h-6.72l-20.4-59.5h6.8l17.17 50.41 16.49-50.41h6.46l16.41 50.41 17.17-50.41h6.8z"/><path d="m1043.94 418h-7.84l-16-48.56-16 48.56h-7.93l-21-61.19h8.58l16.55 48.58 15.9-48.58h7.8l15.81 48.58 16.55-48.58h8.58zm-6.62-1.69h5.41l19.83-57.81h-5l-17.79 52.23-17-52.23h-5.24l-17.08 52.22-17.8-52.22h-5l19.82 57.81h5.5l17.19-52.27z"/><path d="m1185.16 417.16h-7.23l-7-15.72h-32.73l-7.05 15.72h-7.32l26.7-59.5h8zm-45.31-20.74h29.24l-14.62-32.05z"/><path d="m1186.46 418h-9.07l-7.06-15.73h-31.64l-7 15.73h-9.16l27.45-61.19h9.02zm-8-1.69h5.37l-25.93-57.81h-6.9l-25.93 57.81h5.46l7-15.73h33.82zm-8.08-19.05h-31.86l15.93-34.93zm-29.24-1.69h26.62l-13.31-29.17z"/><path d="m1258.05 357.66h25.33c17.25 0 24.22 5.52 24.22 18.44 0 10.12-4.33 15.47-14.28 17.43l16.5 23.63h-7.15l-15.67-22.78c-1.45.09-3.06.17-4.85.17h-17.93v22.61h-6.12zm6.12 5.52v26.53h19.46c12.67 0 17.6-3.83 17.6-13.26s-4.93-13.27-17.6-13.27z"/><path d="m1311.44 418h-9.21l-15.71-22.76c-1.34.08-2.8.14-4.42.14h-17.1v22.62h-7.81v-61.18h26.18c17.57 0 25.07 5.77 25.07 19.28 0 10.16-4.24 15.75-13.71 18zm-8.32-1.69h5.08l-16.31-23.31 1.27-.25c9.53-1.87 13.6-6.84 13.6-16.6 0-12.5-6.78-17.59-23.38-17.59h-24.49v57.81h4.43v-22.66h18.78c1.77 0 3.35-.08 4.8-.17h.47zm-19.49-25.77h-20.31v-28.2h20.31c13.1 0 18.44 4.09 18.44 14.11s-5.34 14.1-18.44 14.1zm-18.63-1.68h18.62c12.06 0 16.75-3.48 16.75-12.41s-4.68-12.45-16.74-12.45h-18.63z"/><path d="m1426.82 363.19h-38v21.25h35.02v5.27h-35.02v21.93h38.85v5.52h-44.97v-59.5h44.12z"/><path d="m1428.51 418h-46.65v-61.18h45.8v7.18h-38v19.56h35v7h-35v20.24h38.84zm-45-1.69h43.27v-3.84h-38.78v-23.61h35v-3.58h-35v-22.94h38v-3.83h-42.42z"/></g><g clip-path="url(#a)"><path d="m86.52 9.34h280.25v307.35h-280.25z" fill="url(#b)" transform="matrix(.52011551 -.85409593 .85409593 .52011551 -30.47 271.79)"/></g><g clip-path="url(#c)"><path d="m84.08 165.74h184.33v200.19h-184.33z" fill="url(#d)"/></g><g clip-path="url(#e)"><path d="m121.06 236.52h297.51v307.3h-297.51z" fill="url(#f)" transform="matrix(.64278761 -.76604444 .76604444 .64278761 -202.51 346.06)"/></g><g clip-path="url(#g)"><path d="m190.56 162.6h259.3v257.28h-259.3z" fill="url(#h)" transform="matrix(.52888278 -.84869488 .84869488 .52888278 -96.32 408.96)"/></g></svg>