<svg viewBox="0 0 1518.32 552.32" xmlns="http://www.w3.org/2000/svg"><g fill="#fff"><path d="m420.34 234.32a44.54 44.54 0 0 0 -66.93-38.32l-108.11 62.84a12.31 12.31 0 0 1 -11.12-.15l-.08.14-25.36-14.49.14-.24a12.08 12.08 0 0 1 -5.81-10.53 11.92 11.92 0 0 1 6.07-10.38l145-84.16a14.28 14.28 0 0 0 -.06-24.74l-64.63-37a44.64 44.64 0 0 0 -44.54.13l-131.83 76.58.1-.88-9.82 6.54c-.49.3-1 .67-1.81 1.21l-.27.18-.06.05-2.57 1.71v.33a44 44 0 0 0 -14.54 19.86 45.21 45.21 0 0 0 -2.57 13l.23 122a44.44 44.44 0 0 0 66.93 38.37l108.12-62.89a12.32 12.32 0 0 1 11.11.16l.08-.14 25.36 14.5-.14.24a12.08 12.08 0 0 1 5.77 10.52 11.92 11.92 0 0 1 -6 10.37l-145 84.16a14.28 14.28 0 0 0 .08 24.74l64.62 37.05a44.65 44.65 0 0 0 44.54-.14l131.76-76.64-.1.89 9.79-6.54c.47-.28 1-.64 1.76-1.17l.35-.23.08-.07 2.54-1.7v-.32a43.76 43.76 0 0 0 17.08-32.85zm-168.71-145.32a31.22 31.22 0 0 1 31.11-.1l64.63 37.05a.77.77 0 0 1 .42.73.81.81 0 0 1 -.43.75l-145 84.15a25.41 25.41 0 0 0 -12.75 21.61l-61.14-34.7-1.28-.73a31.65 31.65 0 0 1 -3.72-2.48c-.34-.26-.64-.57-1-.84a27.8 27.8 0 0 1 -2.27-2.05c-.39-.39-.72-.82-1.09-1.23-.58-.66-1.16-1.32-1.69-2-.34-.48-.65-1-1-1.46-.46-.7-.9-1.41-1.3-2.14-.29-.53-.54-1.08-.79-1.63q-.53-1.11-1-2.25c-.21-.58-.4-1.17-.58-1.76-.24-.78-.44-1.56-.61-2.36q-.21-.92-.36-1.86c-.12-.81-.2-1.62-.27-2.45-.05-.64-.09-1.28-.11-1.93 0-.28 0-.57 0-.85zm-109.63 255.75a31.11 31.11 0 0 1 -46.8-26.75l-.2-121.62a30.88 30.88 0 0 1 1.78-8.85 32 32 0 0 1 2.69-5.63c.22.84.51 1.66.77 2.48.13.41.23.83.37 1.23a43.18 43.18 0 0 0 2.16 5.09c.2.41.43.79.65 1.19a41.18 41.18 0 0 0 2.32 3.81c.28.42.56.85.86 1.26a44.66 44.66 0 0 0 3.54 4.26c.25.27.55.52.81.79 1.09 1.08 2.24 2.12 3.45 3.1.47.38.93.75 1.42 1.11a47.57 47.57 0 0 0 4.44 3c.13.08.25.18.39.26l81.45 46.23 46.72 27zm108.48 118.58a31.17 31.17 0 0 1 -31.11.09l-64.63-37.05a.77.77 0 0 1 -.42-.73.78.78 0 0 1 .42-.74l145-84.16a25.37 25.37 0 0 0 12.75-21.6l62.42 35.43c.27.15.5.34.76.5a31 31 0 0 1 2.93 1.95c.42.32.78.68 1.17 1 .72.61 1.44 1.22 2.1 1.88.39.41.74.84 1.11 1.26.58.66 1.15 1.32 1.67 2 .35.47.65 1 1 1.45.46.7.91 1.42 1.31 2.16.28.52.53 1.06.78 1.6.35.75.68 1.5 1 2.28.22.57.41 1.16.58 1.74.24.78.44 1.56.62 2.36.13.62.26 1.25.35 1.88.13.79.21 1.6.27 2.4s.1 1.33.11 2v.82zm154.89-98.55a30.35 30.35 0 0 1 -2.69 5.63c-.22-.86-.51-1.69-.78-2.53-.12-.38-.22-.77-.35-1.16a43.48 43.48 0 0 0 -2.18-5.12c-.19-.39-.41-.76-.61-1.13a45.07 45.07 0 0 0 -2.36-3.88c-.28-.4-.54-.81-.84-1.21a42.73 42.73 0 0 0 -3.56-4.3c-.23-.24-.48-.45-.71-.69q-1.71-1.69-3.61-3.24c-.42-.33-.83-.67-1.27-1a45.37 45.37 0 0 0 -4.9-3.27l-81.18-46.07-47-27.13 106.84-62.12a31.11 31.11 0 0 1 46.75 26.8l.23 121.64a30.74 30.74 0 0 1 -1.78 8.78z"/><path d="m653 244c-3.11-13.86-12.35-24.37-27.33-31.18-6.71-3.22-20.92-7.61-46.1-14.22-20-5.28-28.57-9.34-32.1-11.74-3.88-2.74-5.54-5.83-5.54-10.33 0-20.55 23.73-22.76 33.93-22.76 18.13 0 39.31 5.72 55.26 14.93l6.14 3.54 14.57-25.05-5.71-3.67c-18.17-11.7-43.82-18.69-68.61-18.69-42 0-68.06 20.54-68.06 53.6 0 13.44 5.37 24.38 15.55 31.65 9 6.43 24 12.34 45.85 18.07a52.37 52.37 0 0 0 5.82 1.67c1.22.3 2.39.58 3.34.9l11.73 2.95 9.29 2.86c6.63 1.8 8.09 2.64 12.43 5.12l.84.48c3.25 1.71 3.8 2.69 5.64 6l.34.54c1.37 2 1.59 4.6 1.59 9.73 0 7.16-2.94 12.22-9.28 15.92-7.53 4.39-17 6.61-28.2 6.61-22 0-46.22-6.75-63.31-17.62l-6.1-3.89-15.12 24.74 5.55 3.82c19.94 13.7 48.85 21.88 77.32 21.88 43.37 0 71.39-20.94 71.39-53.36a57.92 57.92 0 0 0 -1.12-12.5"/><path d="m742.31 172.27c-19.7 0-36.67 6.74-50.47 20s-20.92 29.76-20.92 48.77 7 35.41 20.92 48.76 30.77 20 50.47 20 36.67-6.74 50.47-20c14-13.51 21.15-29.91 21.15-48.76s-7.11-35.26-21.15-48.77c-13.8-13.28-30.78-20-50.47-20m-29.43 40a41.86 41.86 0 0 1 58.68.05 39.88 39.88 0 0 1 -.06 57.61 40.05 40.05 0 0 1 -29.19 12c-22.9 0-41.51-18.31-41.51-40.8a38.37 38.37 0 0 1 12.08-28.83"/><path d="m1002.5 172.27c-19 0-36.67 5.95-52.7 17.69-8.65-11.47-22.25-17.69-39.1-17.69-15.63 0-29.11 4.08-43.17 13.33v-10.95h-30.35v132.81h30.35v-93.4c13.35-10.67 23.26-14.52 36.77-14.52 16.53 0 25.63 10.28 25.63 28.94v79h30.07v-77.58a80.71 80.71 0 0 0 -1.76-16.85 60.56 60.56 0 0 1 38.54-13.51c16.28 0 25.62 10.54 25.62 28.94v79h30.11v-83c0-31.69-19.64-52.18-50-52.18"/><path d="m1158.08 172.27a89.52 89.52 0 0 0 -48.15 13.78v-11.4h-30.35v132.81h30.35v-92.41c12.14-10.43 26.14-15.51 42.7-15.51 17 0 26.33 10.28 26.33 28.94v79h30.36v-83c0-31.69-20.11-52.18-51.24-52.18"/><path d="m1239.2 174.65h30.11v132.81h-30.11z"/><path d="m1415.61 192.29c-13.8-13.28-30.78-20-50.47-20s-36.67 6.74-50.47 20-20.92 29.76-20.92 48.77 7 35.41 20.92 48.76 30.78 20 50.47 20 36.67-6.74 50.47-20c14-13.51 21.16-29.92 21.16-48.76s-7.12-35.26-21.16-48.77m-79.9 19.94a41.87 41.87 0 0 1 58.69.05 39.89 39.89 0 0 1 -.06 57.6 40.06 40.06 0 0 1 -29.2 12c-22.88 0-41.51-18.31-41.51-40.8a38.37 38.37 0 0 1 12.08-28.83"/><g stroke="#fff" stroke-miterlimit="10" stroke-width=".25"><path d="m547.14 361.38-2.7 4.65a44.2 44.2 0 0 0 -21-5.66c-7.86 0-14.62 3.12-14.62 10.65a6.65 6.65 0 0 0 3 5.74c2.1 1.44 6.17 3 12.25 4.57 8.37 2.19 13.68 3.79 16 4.89 4.65 2.12 7.44 5.24 8.37 9.39a18.06 18.06 0 0 1 .34 3.89c0 11-10.31 16.48-22.91 16.48-9.55 0-19.35-2.71-26.11-7.36l2.79-4.56a46.64 46.64 0 0 0 23.92 6.68 22.12 22.12 0 0 0 11.36-2.74 8.56 8.56 0 0 0 4.58-7.86c0-2-.09-3.55-1-4.9a6.45 6.45 0 0 0 -3-3.13 17.34 17.34 0 0 0 -5.24-2.2l-3.29-1-4.06-1c-1-.33-2.2-.5-3.3-.92-7.44-1.95-12.68-4-15.63-6.09a10.68 10.68 0 0 1 -4.49-9.21c0-11.5 9.89-16.56 21.72-16.56 8.2 0 16.91 2.27 23.08 6.25"/><path d="m678.68 370.26a29.77 29.77 0 0 1 0 30.59 30.89 30.89 0 0 1 -26.88 15.15c-16.82.41-31.6-14-31.18-30.43 0-16.82 14-30.42 31.18-30.42a30.87 30.87 0 0 1 26.88 15.13m-51.68 15.27a24.8 24.8 0 1 0 24.84-24.68c-13.6-.25-25.1 11.25-24.84 24.68"/><path d="m800.76 361.46h-35.66v22.66h32.61v5.23h-32.61v25.78h-6.09v-59.16h41.75z"/><path d="m915.57 361.21h-20.62v53.92h-6.09v-53.92h-20.62v-5.23h47.33z"/><path d="m1048.13 415.13h-6.59l-16.48-50.12-16.48 50.12h-6.68l-20.29-59.16h6.77l17.06 50.12 16.41-50.12h6.42l16.31 50.12 17.07-50.12h6.76z"/><path d="m1189.13 415.13h-7.13l-7-15.64h-32.54l-7 15.64h-7.28l26.47-59.13h7.94zm-45.05-20.62h29.07l-14.54-31.87z"/><path d="m1261.6 356h25.18c17.15 0 24.08 5.49 24.08 18.34 0 10.05-4.3 15.38-14.19 17.33l16.39 23.49h-7.06l-15.63-22.65c-1.44.09-3.06.17-4.83.17h-17.83v22.48h-6.08zm6.08 5.49v26.37h19.32c12.59 0 17.5-3.8 17.5-13.18s-4.91-13.19-17.5-13.19z"/><path d="m1429.39 361.46h-37.77v21.14h34.82v5.23h-34.82v21.81h38.61v5.49h-44.7v-59.16h43.86z"/></g></g></svg>