<svg viewBox="0 0 1243.07 1220.67" xmlns="http://www.w3.org/2000/svg" xmlns:xlink="http://www.w3.org/1999/xlink"><clipPath id="a"><path d="m618.12 131.11-12.3 7.18-194.82 113.27c-1 .59-1.91 1.27-2.85 1.91a55.05 55.05 0 0 0 27.75 54.13l119.39 67.78c-17.79-10.92-17.65-37 .56-47.57l52.65-30.56 159.83-92.78a11.1 11.1 0 0 0 0-19.22l-94.76-54.25a55.57 55.57 0 0 0 -55.45.14"/></clipPath><linearGradient id="b" gradientTransform="matrix(11.34 0 0 -11.34 -18700.08 13167.49)" gradientUnits="userSpaceOnUse" x1="1690.56" x2="1714.09" y1="1139.06" y2="1139.06"><stop offset="0" stop-color="#29218c"/><stop offset=".04" stop-color="#27319c"/><stop offset=".15" stop-color="#205ac4"/><stop offset=".2" stop-color="#1e6ad3"/><stop offset="1" stop-color="#1681e3"/></linearGradient><clipPath id="c"><path d="m386.82 280.74a54.52 54.52 0 0 0 -3.17 15.76v68.2l.35 110.52c.14 42.68 46.41 69.21 83.3 47.76l159.05-92.51a28 28 0 0 1 25.22.38l-22.34-12.85h-.05l-60.81-35-12.45-7.18c-.21-.14-.42-.3-.63-.42l-119.39-67.8a55.05 55.05 0 0 1 -27.72-54.13 55.32 55.32 0 0 0 -21.36 27.27"/></clipPath><linearGradient id="d" gradientTransform="matrix(11.39 0 0 -11.39 -17575.42 12140.04)" gradientUnits="userSpaceOnUse" x1="1576.93" x2="1600.45" y1="1030.95" y2="1030.95"><stop offset="0" stop-color="#0ba1fa"/><stop offset=".66" stop-color="#1d6bd4"/><stop offset=".76" stop-color="#225cc9"/><stop offset=".96" stop-color="#3034ad"/><stop offset="1" stop-color="#332ba6"/></linearGradient><clipPath id="e"><path d="m688.61 500.09-52.61 30.56-159.88 92.78a11.08 11.08 0 0 0 .08 19.2l94.69 54.37a55.46 55.46 0 0 0 55.44-.19l12.31-7.18 194.81-113.3c1-.59 1.88-1.29 2.83-1.9a55.07 55.07 0 0 0 -27.72-54.14l-119.37-67.75a27.71 27.71 0 0 1 -.58 47.55"/></clipPath><linearGradient id="f" gradientTransform="matrix(-8.2 0 0 8.2 15654.65 -6289.1)" gradientUnits="userSpaceOnUse" x1="1815.27" x2="1838.79" y1="838.06" y2="838.06"><stop offset="0" stop-color="#29218c"/><stop offset=".11" stop-color="#3c2ea1"/><stop offset=".27" stop-color="#4e3ab5"/><stop offset=".44" stop-color="#5b43c3"/><stop offset=".65" stop-color="#6348cb"/><stop offset="1" stop-color="#654ace"/></linearGradient><clipPath id="g"><path d="m777.18 304.9-159.08 92.52a27.92 27.92 0 0 1 -25.22-.4l22.35 12.89 60.81 35 12.45 7.17c.23.15.42.31.65.45l119.37 67.75a55.07 55.07 0 0 1 27.72 54.14 55.36 55.36 0 0 0 21.36-27.27 54.52 54.52 0 0 0 3.17-15.74v-68.21l-.33-110.52c-.09-32.33-26.65-55.36-55.52-55.36a55.21 55.21 0 0 0 -27.78 7.58"/></clipPath><linearGradient id="h" gradientTransform="matrix(0 11.79 11.79 0 -10565.37 -18581.71)" gradientUnits="userSpaceOnUse" x1="1610.21" x2="1633.74" y1="957.52" y2="957.52"><stop offset="0" stop-color="#9769f6"/><stop offset="1" stop-color="#332ba6"/></linearGradient><g fill="#003ba8"><path d="m281.33 899.19c-3.36-15-13.35-26.34-29.55-33.7-7.24-3.49-22.61-8.23-49.83-15.38-21.66-5.71-30.89-10.1-34.7-12.69-4.2-3-6-6.31-6-11.16 0-22.22 25.65-24.62 36.67-24.62 19.61 0 42.5 6.19 59.75 16.15l6.64 3.83 15.75-27.08-6.18-4c-19.64-12.65-47.37-20.2-74.16-20.2-45.39 0-73.59 22.21-73.59 57.95 0 14.52 5.82 26.35 16.81 34.21 9.73 6.94 26 13.34 49.58 19.54a56.92 56.92 0 0 0 6.28 1.8c1.33.32 2.58.63 3.61 1l12.69 3.16 10 3.08c7.17 1.95 8.75 2.86 13.45 5.55l.91.51c3.5 1.84 4.1 2.91 6.09 6.45l.37.59c1.48 2.14 1.72 5 1.72 10.51 0 7.75-3.18 13.22-10 17.21-8.14 4.75-18.4 7.16-30.49 7.16-23.74 0-50-7.3-68.44-19.06l-6.6-4.2-16.34 26.74 6 4.13c21.55 14.81 52.8 23.66 83.59 23.66 46.88 0 77.18-22.65 77.18-57.69a62.19 62.19 0 0 0 -1.22-13.48"/><path d="m377.93 821.65c-21.29 0-39.64 7.28-54.56 21.63s-22.62 32.18-22.62 52.72 7.61 38.28 22.62 52.72 33.27 21.64 54.56 21.64 39.65-7.28 54.56-21.64c15.18-14.6 22.87-32.34 22.87-52.72s-7.69-38.11-22.87-52.72c-14.91-14.35-33.27-21.63-54.56-21.63m-31.81 43.19c8.93-8.71 19.25-12.94 31.55-12.94a43.67 43.67 0 0 1 31.89 13c8.92 8.49 13.25 18.66 13.25 31.1s-4.33 22.62-13.32 31.17a43.28 43.28 0 0 1 -31.56 12.94c-24.75 0-44.88-19.78-44.88-44.11a41.51 41.51 0 0 1 13.07-31.16"/><path d="m659.21 821.65c-20.51 0-39.64 6.43-57 19.12-9.35-12.4-24-19.12-42.26-19.12-16.9 0-31.48 4.4-46.67 14.4v-11.84h-32.78v143.59h32.81v-101c14.42-11.53 25.14-15.69 39.75-15.69 17.86 0 27.69 11.11 27.69 31.28v85.41h32.56v-83.8a87.86 87.86 0 0 0 -1.91-18.23 65.47 65.47 0 0 1 41.66-14.59c17.6 0 27.7 11.4 27.7 31.28v85.34h32.55v-89.75c0-34.26-21.23-56.4-54.1-56.4"/><path d="m827.41 821.65a96.66 96.66 0 0 0 -52.06 14.9v-12.34h-32.81v143.59h32.81v-99.9c13.13-11.28 28.27-16.77 46.17-16.77 18.35 0 28.46 11.11 28.46 31.28v85.39h32.82v-89.75c0-34.26-21.74-56.4-55.39-56.4"/><path d="m915.1 824.21h32.56v143.58h-32.56z"/><path d="m1105.82 843.28c-14.92-14.35-33.28-21.63-54.56-21.63s-39.65 7.28-54.57 21.63-22.61 32.18-22.61 52.72 7.61 38.28 22.61 52.72 33.28 21.64 54.57 21.64 39.64-7.28 54.56-21.64c15.17-14.6 22.87-32.34 22.87-52.72s-7.7-38.11-22.87-52.72m-86.38 21.56a45.27 45.27 0 0 1 63.44.06c8.92 8.49 13.25 18.66 13.25 31.1s-4.33 22.62-13.32 31.17c-8.93 8.71-19.25 12.94-31.55 12.94-24.75 0-44.88-19.78-44.88-44.11 0-12.39 4.27-22.59 13.06-31.16"/><path d="m166.94 1037-2.92 5a47.88 47.88 0 0 0 -22.66-6.12c-8.5 0-15.81 3.38-15.81 11.52a7.2 7.2 0 0 0 3.29 6.21c2.28 1.55 6.67 3.2 13.25 4.93 9 2.38 14.8 4.11 17.27 5.3q7.53 3.42 9 10.14a19.64 19.64 0 0 1 .37 4.21c0 11.88-11.15 17.81-24.76 17.81-10.33 0-20.92-2.92-28.23-8l3-4.93a50.38 50.38 0 0 0 25.86 7.22 24 24 0 0 0 12.24-2.93 9.25 9.25 0 0 0 4.94-8.49c0-2.2-.1-3.84-1.1-5.3a6.91 6.91 0 0 0 -3.29-3.38 18.37 18.37 0 0 0 -5.66-2.38l-3.57-1.09-4.38-1.1c-1.1-.36-2.38-.55-3.57-1-8-2.1-13.7-4.29-16.9-6.57a11.6 11.6 0 0 1 -4.85-10c0-12.43 10.7-17.91 23.49-17.91 8.86 0 18.27 2.46 24.94 6.76"/><path d="m144 1097c-10.64 0-21.41-3-28.82-8.13l-.81-.56 4.08-6.67.89.57a49.73 49.73 0 0 0 25.3 7 23 23 0 0 0 11.71-2.78 8.22 8.22 0 0 0 4.43-7.6c0-2.29-.14-3.58-.92-4.72a6 6 0 0 0 -2.91-3l-.25-.14a17.13 17.13 0 0 0 -5.21-2.16l-3.6-1.1-4.32-1.09c-.53-.17-1-.28-1.49-.4a16.72 16.72 0 0 1 -2.21-.64c-8.17-2.13-13.81-4.33-17.13-6.7a12.69 12.69 0 0 1 -5.27-10.81c0-11.68 9.39-18.94 24.52-18.94 9.24 0 18.77 2.59 25.5 6.93l.83.54-3.94 6.77-.89-.52a47 47 0 0 0 -22.14-6c-3.47 0-14.77.76-14.77 10.48a6.13 6.13 0 0 0 2.85 5.36c2.18 1.48 6.53 3.1 12.91 4.78 9.47 2.49 15 4.19 17.45 5.37 5.3 2.4 8.53 6 9.62 10.85a21.55 21.55 0 0 1 .39 4.43c.01 11.51-10.12 18.88-25.8 18.88zm-26.82-9.3c7 4.54 17 7.23 26.82 7.23 10.94 0 23.72-4.4 23.72-16.78a19.37 19.37 0 0 0 -.34-4c-.94-4.17-3.71-7.26-8.46-9.42-2.35-1.12-7.77-2.78-17.1-5.23-6.71-1.77-11.15-3.43-13.57-5.08a8.18 8.18 0 0 1 -3.75-7.07c0-7.74 6.46-12.55 16.85-12.55a49.36 49.36 0 0 1 22.27 5.75l1.9-3.27c-6.35-3.81-15.05-6.07-23.53-6.07-14.06 0-22.45 6.3-22.45 16.86a10.55 10.55 0 0 0 4.41 9.12c3.06 2.19 8.64 4.35 16.56 6.42a17.57 17.57 0 0 0 2.06.6c.54.13 1.07.26 1.57.42l4.31 1.08 3.62 1.11a19.19 19.19 0 0 1 5.67 2.35 8.12 8.12 0 0 1 3.88 3.89c1.14 1.65 1.23 3.53 1.23 5.81a10.27 10.27 0 0 1 -5.45 9.39 25 25 0 0 1 -12.76 3.07 51.52 51.52 0 0 1 -25.52-6.83z"/><path d="m309.15 1046.57a32.2 32.2 0 0 1 0 33.07 33.41 33.41 0 0 1 -29.06 16.36c-18.18.46-34.17-15.07-33.71-32.89 0-18.18 15.07-32.89 33.71-32.89a33.4 33.4 0 0 1 29.06 16.36m-55.92 16.53a26.81 26.81 0 1 0 26.86-26.68c-14.71-.27-27.13 12.15-26.86 26.68"/><path d="m279.3 1097a34.36 34.36 0 0 1 -24.11-10.23 32.74 32.74 0 0 1 -9.85-23.74c0-18.68 15.59-33.9 34.75-33.9a34.24 34.24 0 0 1 29.91 16.87 33.24 33.24 0 0 1 0 34.13 34.22 34.22 0 0 1 -29.91 16.87zm.79-65.79c-18 0-32.68 14.29-32.68 31.85a30.73 30.73 0 0 0 9.25 22.25 33.14 33.14 0 0 0 51.59-6.24 31.16 31.16 0 0 0 0-32 32.16 32.16 0 0 0 -28.16-15.82zm-.09 59.57a27.74 27.74 0 0 1 -19.74-47.3 27.89 27.89 0 0 1 19.86-8.14 27.72 27.72 0 1 1 -.12 55.44zm-.35-53.37a25.5 25.5 0 0 0 -17.92 7.54 25.1 25.1 0 0 0 -7.46 18.09 24.55 24.55 0 0 0 7.46 18.18 25 25 0 0 0 18.27 7.46 24.63 24.63 0 0 0 18.27-7.46 24.89 24.89 0 0 0 7.55-18.18 24.47 24.47 0 0 0 -7.55-18.09 25.38 25.38 0 0 0 -18.62-7.5z"/><path d="m441.12 1037.06h-38.56v24.49h35.27v5.66h-35.27v27.87h-6.57v-63.95h45.13z"/><path d="m403.6 1096.12h-8.6v-66h47.21v8h-38.61v22.41h35.27v7.74h-35.27zm-6.6-2.12h4.5v-27.87h35.27v-3.58h-35.25v-26.55h38.56v-3.87h-43.08z"/><path d="m565.24 1036.79h-22.3v58.29h-6.58v-58.29h-22.29v-5.66h51.17z"/><path d="m544 1096.12h-8.65v-58.29h-22.35v-7.74h53.24v7.74h-22.24zm-6.6-2.12h4.5v-58.29h22.3v-3.59h-49.09v3.59h22.29z"/><path d="m708.54 1095.08h-7.12l-17.82-54.18-17.82 54.18h-7.21l-21.93-63.96h7.31l18.45 54.18 17.73-54.18h6.94l17.63 54.18 18.46-54.18h7.31z"/><path d="m709.28 1096.12h-8.62l-17.06-51.9-17.07 51.9h-8.7l-22.64-66h9.5l17.69 51.88 17-51.93h8.46l.23.71 16.66 51.22 17.69-51.93h9.5zm-7.12-2.08h5.64l21.2-61.88h-5.1l-19.22 56.42-18.36-56.42h-5.44l-18.46 56.42-19.21-56.42h-5.12l21.22 61.84h5.69l18.57-56.46z"/><path d="m861 1095.08h-7.76l-7.59-16.9h-35.2l-7.58 16.9h-7.87l28.69-64h8.58zm-48.69-22.29h31.39l-15.7-34.45z"/><path d="m862.57 1096.12h-10l-7.57-16.91h-33.88l-7.58 16.91h-10.14l.66-1.47 29-64.56h9.94zm-8.69-2.08h5.49l-27.76-61.88h-7.24l-27.76 61.84h5.58l7.58-16.9h36.53zm-8.56-20.22h-34.66l17.33-38zm-31.43-2.07h28.2l-14.09-30.91z"/><path d="m939.32 1031.12h27.22c18.55 0 26 5.94 26 19.83 0 10.87-4.66 16.62-15.35 18.73l17.73 25.4h-7.68l-16.9-24.49c-1.55.1-3.29.18-5.21.18h-19.24v24.31h-6.57zm6.57 5.94v28.51h20.92c13.62 0 18.92-4.11 18.92-14.26s-5.3-14.25-18.92-14.25z"/><path d="m997 1096.12h-10.26l-.32-.45-16.56-24c-1.42.08-3 .15-4.69.15h-18.24v24.31h-8.65v-66h28.26c19 0 27.08 6.23 27.08 20.86 0 10.91-4.54 17-14.65 19.41zm-9.13-2.08h5.13l-17.53-25.04 1.56-.31c10.17-2 14.51-7.3 14.51-17.71 0-13.35-7.24-18.79-25-18.79h-26.19v61.81h4.5v-24.3h20.32c1.89 0 3.61-.09 5.15-.18h.58zm-21-27.43h-22v-30.61h22c14.17 0 20 4.42 20 15.28s-5.87 15.33-20.06 15.33zm-19.88-2.08h19.88c13 0 17.88-3.58 17.88-13.22s-4.85-13.21-17.88-13.21h-19.94z"/><path d="m1120.71 1037.06h-40.83v22.84h37.64v5.67h-37.64v23.57h41.75v5.94h-48.33v-63.95h47.41z"/><path d="m1122.66 1096.12h-50.4v-66h49.49v8h-40.84v20.77h37.65v7.74h-37.65v21.49h41.75zm-48.33-2.08h46.26v-3.86h-41.75v-25.65h37.64v-3.59h-37.64v-24.94h40.83v-3.87h-45.34z"/></g><g clip-path="url(#a)"><path d="m387.2 26.15h407.32v446.72h-407.32z" fill="url(#b)" transform="matrix(.52011551 -.85409593 .85409593 .52011551 70.43 624.36)"/></g><g clip-path="url(#c)"><path d="m383.65 253.47h267.91v290.96h-267.91z" fill="url(#d)"/></g><g clip-path="url(#e)"><path d="m437.39 356.34h432.41v446.65h-432.41z" fill="url(#f)" transform="matrix(.64278761 -.76604444 .76604444 .64278761 -210.57 707.75)"/></g><g clip-path="url(#g)"><path d="m538.41 248.9h376.88v373.95h-376.88z" fill="url(#h)" transform="matrix(.52888278 -.84869488 .84869488 .52888278 -27.5 822.21)"/></g></svg>