<svg viewBox="0 0 117 21" xmlns="http://www.w3.org/2000/svg"><g fill="none" fill-rule="evenodd"><path d="m48.812 16.8999705c.1680008-.1493341.3173327-.3173324.448-.504s.196-.4013322.196-.644c0-.2986682-.1073323-.5506657-.322-.756-.2146677-.2053344-.4759985-.3779993-.784-.518s-.6299983-.247333-.966-.322c-.3360017-.0746671-.6159989-.1399998-.84-.196-.6160031-.1493341-1.194664-.3313323-1.736-.546-.541336-.2146678-1.0126647-.4759985-1.414-.784-.4013353-.3080016-.7186655-.6719979-.952-1.092s-.35-.9193305-.35-1.498c0-.54133607.1306654-1.04999765.392-1.52600003s.6113311-.89599818 1.05-1.26.9519971-.65333226 1.54-.868 1.2086634-.322 1.862-.322c.5786696 0 1.1293307.08399916 1.652.252s.9939979.39666522 1.414.686.7746652.63933128 1.064 1.05.4806662.86799748.574 1.372l-2.436.58800003c-.1120006-.44800227-.3546648-.82133187-.728-1.12000003s-.8866634-.448-1.54-.448c-.2240011 0-.4573321.03266634-.7.098s-.4666656.16333268-.672.294-.3779993.2893324-.518.476-.21.40133212-.21.644c0 .26133463.0793325.48533243.238.67200003s.3499989.340666.574.462c.2240011.1213339.4666654.2193329.728.294.2613346.074667.5039989.1399997.728.196.9893383.2426678 1.8106634.5039986 2.464.784s1.175998.5879983 1.568.924c.392002.3360016.6673325.7046646.826 1.106.1586675.4013353.238.8539974.238 1.358 0 .5973363-.135332 1.1573307-.406 1.68-.270668.5226692-.6439976.9753314-1.12 1.358-.4760024.3826685-1.04533.6813322-1.708.896-.66267.2146677-1.3766628.322-2.142.322-1.1573391 0-2.1886621-.2846639-3.094-.854-.9053379-.5693362-1.5166651-1.3299953-1.834-2.282l2.296-1.036c.2986682.6533366.681331 1.0966655 1.148 1.33s.9986637.35 1.596.35c.7466704 0 1.3719975-.2053313 1.876-.616zm12.276 2.772c-.7653372.2613346-1.5213296.4199997-2.268.476-.7466704.0560002-1.4186637-.051332-2.016-.322-.5973363-.2706681-1.0826648-.7466633-1.456-1.428-.3733352-.6813368-.56-1.6379939-.56-2.87l.0000001-6.21476856h-2.2256222v-2.95684795s.1959839.00000019.6081543.00000019c.727356 0 1.3763245-.17770401 1.8342896-.91619873.1942122-.31317817.2194749-.63353392.243042-1.50189228v-1.02539063h2.3317871v3.44348145h2.7489013v2.95684795h-2.7489013l-.0756509 6.63476856c0 .4480022.0513328.8026653.154 1.064.1026672.2613346.2753321.4573326.518.588.2426679.1306673.559998.196.952.196.3920019 0 .8679972-.037333 1.428-.112zm8.588-10.89200003c-.1306673-.05600028-.2613327-.11199972-.392-.168-.1120006-.03733352-.2426659-.07466648-.392-.112s-.3079992-.056-.476-.056c-.5413361 0-1.045331.08866578-1.512.266s-.8679983.41533184-1.204.714-.601999.64866463-.798 1.05000003c-.196001.4013353-.294.8259977-.294 1.274l-.028 8.2520295h-2.716v-13.71202953h2.156l.56 1.484c.3733352-.54133604.8633303-.9753317 1.47-1.302s1.3673287-.49 2.282-.49c.5973363 0 1.2786628.08399916 2.044.252zm7.048 11.25600003c-.9706716 0-1.8806625-.1819982-2.73-.546-.8493376-.3640019-1.5913302-.8633302-2.226-1.498-.6346699-.6346699-1.1339982-1.3813291-1.498-2.24-.3640019-.858671-.546-1.7733285-.546-2.744 0-.9706716.1726649-1.8853291.518-2.744.345335-.85867099.811997-1.60533019 1.4-2.24000003.5880029-.63466984 1.273996-1.13399818 2.058-1.498.7840039-.36400182 1.6239955-.546 2.52-.546.9146712 0 1.7593294.15866508 2.534.476.7746705.31733492 1.4466638.81199664 2.016 1.484.5693361.67200336 1.012665 1.52599482 1.33 2.56200003.3173349 1.0360051.476 2.2726594.476 3.71h-9.968c.1306673.4853357.3359986.9379979.616 1.358s.6113314.7839984.994 1.092c.3826685.3080015.8119976.5459991 1.288.714.4760023.1680008.9753307.252 1.498.252.7093368 0 1.3673303-.1306654 1.974-.392.6066697-.2613347 1.1246645-.6066646 1.554-1.036l1.68 1.68c-.6533366.6533366-1.4513287 1.175998-2.394 1.568-.9426714.3920019-1.9739944.588-3.094.588zm-.504-11.59200003c-.4293355 0-.8353315.08399916-1.218.252-.3826686.16800084-.7373317.40133184-1.064.7s-.6066655.65333123-.84 1.06400003c-.2333345.4106687-.4059995.8586642-.518 1.344h7.084c-.0373336-.4480023-.1399992-.8773313-.308-1.288-.1680009-.4106688-.4013319-.76999849-.7-1.07800003-.2986682-.30800154-.6486647-.55066578-1.05-.728-.4013354-.17733422-.8633308-.266-1.386-.266zm20.9-2.156v13.71202953h-2.296l-.42-1.8400295c-.466669.616003-1.0639964 1.082665-1.792 1.4-.7280037.3173349-1.4653296.476-2.212.476-.933338 0-1.805996-.1819982-2.618-.546-.8120041-.3640019-1.5213303-.8633302-2.128-1.498-.6066697-.6346699-1.0873316-1.3813291-1.442-2.24-.3546685-.858671-.532-1.7733285-.532-2.744 0-.9706716.1773315-1.8853291.532-2.744.3546684-.85867099.8353303-1.60533019 1.442-2.24000003s1.3159959-1.13399818 2.128-1.498c.812004-.36400182 1.684662-.546 2.618-.546.7466704 0 1.4653298.14466522 2.156.434.6906701.28933478 1.3066639.74199692 1.848 1.358l.42-1.484zm-6.72 11.34000003c.541336 0 1.0546642-.1213322 1.54-.364.4853357-.2426679.9053315-.5739979 1.26-.994.3546684-.4200021.6346656-.9099972.84-1.47.2053343-.5600028.308-1.1573302.308-1.792 0-.6346699-.1026657-1.2319972-.308-1.792-.2053344-.5600028-.4853316-1.0499979-.84-1.47000003-.3546685-.4200021-.7746643-.75133212-1.26-.994-.4853358-.24266788-.998664-.364-1.54-.364-.5413361 0-1.0546643.12133212-1.54.364-.4853358.24266788-.9053316.5739979-1.26.994-.3546685.42000213-.6346657.90999723-.84 1.47000003-.2053344.5600028-.308 1.1573301-.308 1.792 0 .6346698.1026656 1.2319972.308 1.792.2053343.5600028.4853315 1.0499979.84 1.47.3546684.4200021.7746642.7513321 1.26.994.4853357.2426678.9986639.364 1.54.364zm11.408 2.3720295h-2.7160001v-13.71202953h2.1560001l.56 1.148c.336002-.39200196.737331-.73266522 1.204-1.022s1.035997-.434 1.708-.434c.261335 0 .555332.03266634.882.098s.662665.17733254 1.008.336.676665.37333198.994.644.587999.62066452.812 1.05c.317335-.57866956.797997-1.0779979 1.442-1.498s1.329996-.63 2.058-.63c.485336 0 .998664.07466592 1.54.224s1.045331.42933128 1.512.84.849332.97999636 1.148 1.708.448 1.67066083.448 2.82800003v8.4200295h-2.548v-8.4480295c0-1.1573392-.237998-1.96466441-.714-2.42200003s-1.105996-.686-1.89-.686c-.597336 0-1.119998.25199748-1.568.756s-.672 1.29732793-.672 2.38000003v8.4200295h-2.548v-8.4480295c0-1.1573392-.237998-1.96466441-.714-2.42200003s-1.105996-.686-1.89-.686c-.560003 0-1.049998.21466452-1.47.644s-.667333 1.10132873-.742 2.01600003z" fill="#fff"/><path d="m26.1491984 6.42806971 12.8031-.9076c.8451-.0599 1.3772.8925.8831 1.5807l-8.9563 12.47519999c-.1878.2616-.4902.4168-.8123.4168h-20.08449998c-.3216 0-.6236-.1547-.8116-.4158l-8.9801-12.47519999c-.49530001-.6881.0368-1.6418.8826-1.5817l12.76409998.9077 5.4517-6.0949c.3995-.4466 1.0995-.444 1.4957.0057zm2.6812 11.58720369-8.3091-3.1053v3.1053zm-9.3091 0v-3.1053l-8.3091 3.1053zm-.9588-3.8471037-8.4895 3.169-6.24559998-8.68159999zm2.9003 0 8.4895 3.169 6.2456-8.68159999zm-1.9335-.7246v-10.44879999l-6.9414 7.83579999zm.992 0v-10.44749999l6.9415 7.83449999zm-9.969-3.3353 1.5971-1.79459999-7.80269998-.5592zm18.8626 0-1.597-1.79459999 7.8027-.5592z" fill="#2f7deb"/></g></svg>