<svg viewBox="0 0 143 34" xmlns="http://www.w3.org/2000/svg"><g fill="none" fill-rule="evenodd"><path d="m65.2617842 11.7293c.7868-1.4673 1.9817-2.67533 3.4403-3.4781 1.4734-.81839 3.1795-1.22758 5.1182-1.22758 1.9646 0 3.696.38393 5.1941 1.1518 1.4551.72861 2.6735 1.85528 3.5135 3.24908.8419 1.3977 1.2764 3.0409 1.3034523 4.9297.0024477.4843-.0282523.9681-.0918523 1.4482-.0138.1016-.0641.1947-.1416.2618s-.1769.1037-.2794.1028h-13.7307v.1515c.1257 1.4106.579 2.5186 1.3598 3.3241.7808.8054 1.8509 1.2085 3.2104 1.209 1.0827 0 1.9831-.2329 2.701-.6988.6381-.4144 1.1097-1.0404 1.332-1.7681.0267-.0849.0796-.1592.1511-.2122.0716-.0529.1581-.0818.2471-.0825h4.4262c.0633-.0002.1259.0139.183.0412.0571.0274.1073.0673.1469.1167.0396.0495.0675.1072.0816.1689.0142.0617.0143.1259.0002.1876-.2374 1.078-.7063 2.0915-1.3741 2.9705-.7808 1.0333-1.8133 1.8455-3.0975 2.4366-1.2843.591-2.7575.8869-4.4195.8874-2.1666 0-4.0366-.403-5.61-1.209-1.5292-.7634-2.7929-1.9699-3.6263-3.4622-.8419-1.4975-1.2629053-3.2415-1.2629053-5.2319-.0016947-2.0129.4066053-3.7683 1.2250053-5.2665zm13.2407 2.9654c-.1768-1.1838-.6618-2.0967-1.4549-2.7389-.7932-.6421-1.794-.9632-3.0025-.9632-1.1585 0-2.1343.3337-2.9274 1.0011-.7932.6674-1.2655 1.5677-1.4171 2.701z"/><path d="m40.2875842 7.25262h-4.4842c-.1117 0-.2188.04436-.2977.12331-.079.07895-.1233.18602-.1233.29767v9.1361c0 1.7883-.3649 3.1798-1.0946 4.1744-.7297.9947-1.7625 1.4934-3.0984 1.4962-1.2837 0-2.2343-.4471-2.8517-1.3412-.6174-.8942-.9262-2.2225-.9262-3.985v-9.4805c0-.11165-.0443-.21872-.1233-.29767-.0789-.07895-.186-.12331-.2976-.12331h-4.4835c-.1116 0-.2187.04436-.2976.12331-.079.07895-.1233.18602-.1233.29767v10.1187c0 3.2735.7176 5.6091 2.1528 7.0068 1.4353 1.3976 3.2862 2.0964 5.5528 2.0964 1.3095 0 2.4175-.2265 3.324-.6794.8628-.4342 1.6327-1.0325 2.2666-1.7614v1.7934c0 .1116.0443.2187.1233.2976.0789.079.186.1233.2977.1233h4.4842c.1117 0 .2188-.0443.2977-.1233.079-.0789.1233-.186.1233-.2976v-18.5745c0-.11165-.0443-.21872-.1233-.29767-.0789-.07895-.186-.12331-.2977-.12331z"/><path d="m96.1903842 7.25262c-1.4353 0-2.5812.24558-3.4378.73672-.8565.49114-1.5741 1.21495-2.1528 2.17146v-2.4872c0-.11165-.0444-.21872-.1234-.29767-.0789-.07895-.186-.12331-.2976-.12331h-4.4843c-.1116 0-.2187.04436-.2977.12331-.0789.07895-.1233.18602-.1233.29767v18.5745c0 .1116.0444.2187.1233.2976.079.079.1861.1233.2977.1233h4.4843c.1116 0 .2187-.0443.2976-.1233.079-.0789.1234-.186.1234-.2976v-9.1134c0-1.5543.3525-2.7832 1.0575-3.6869s1.813-1.357 3.324-1.3598h1.6949c.1116 0 .2187-.0444.2977-.1233.0789-.079.1233-.186.1233-.2977v-3.9934c0-.11165-.0444-.21872-.1233-.29767-.079-.07895-.1861-.12331-.2977-.12331z"/><path d="m19.6889842 14.4868c-.7503-1-1.7639-1.7716-2.9275-2.2287-1.209-.4912-2.6965-.9004-4.4623-1.2276-1.7367-.3272-3.02099001-.6107-3.85285001-.8504-.83186-.23965-1.47259-.55426-1.92219-.94381-.45298-.39291-.67975-.94075-.68031-1.6435 0-.98229.37776-1.73781 1.13328-2.26656s1.76306-.79312 3.02267-.79312c1.35970001 0 2.43150001.37467 3.28360001 1.03898 1.0786.83775 1.5829 1.66623 1.8001 2.131.047.09892.1308.17563.2334.21383.1027.0382.2162.03488.3164-.00924l3.9067-1.72181c.1012-.04347.1812-.12485.2231-.22668s.0422-.21601.0009-.31806c-.223-.56685-.5148-1.10412-.8689-1.59973-.8942-1.25901-2.1156-2.24718-3.6642-2.96453-1.5487-.717353-3.2924-1.07630869-5.23110001-1.07687-1.88939 0-3.58313.346326-5.08126 1.03898-1.49813.69265-2.66901 1.64322-3.51265 2.85171-.84196299 1.20906-1.26294299 2.58145-1.26294299 4.11718 0 1.68841.371304 3.04233 1.11391299 4.06163.73679 1.0154 1.73554 1.8116 2.8896 2.3036 1.1838.517 2.6446.9379 4.3824 1.2629 1.76194001.3525 3.06504001.6486 3.90924001.8883s1.497.5692 1.9584.9885c.4664.4159.6994.9772.6988 1.6839 0 1.007-.421 1.7928-1.2629 2.3575-.842.5646-1.9309.8478-3.2668.8495-1.61239001 0-2.88796001-.4159-3.87305001-1.1897-1.01035-.7914-1.67803-1.9643-1.97187-2.5528-.04805-.0973-.13179-.1722-.23375-.2092s-.21427-.0333-.31352.0105l-3.92184999 1.726c-.096915.0426-.17421741.1202-.21650391.2172-.0422866.0971-.04645232.2065-.0116671.3065.23688101.6506.55544601 1.2685.94804601 1.8388.93120499 1.3595 2.22221499 2.4235 3.87301499 3.1919s3.53342 1.1524 5.64785001 1.1518007c1.9646 0 3.7327-.3648007 5.3044-1.0945007 1.5716-.7297 2.7995-1.7308 3.6835-3.0033.8807-1.2714 1.3213-2.7131 1.3219007-4.3252.0005993-1.662-.3705007-2.9903-1.1131007-3.9849z"/><path d="m61.6539842 11.7479c-.7684-1.5116-1.8262-2.67719-3.1733-3.4967s-2.8907-1.2287-4.6308-1.22758229c-1.3353 0-2.5127.26438229-3.532.79313229-.9125.46487-1.716 1.11801-2.3575 1.9163v-2.06533c0-.11165-.0443-.21873-.1233-.29768-.0789-.07894-.186-.1233-.2977-.1233h-4.4842c-.1117 0-.2188.04436-.2977.1233-.079.07895-.1233.18603-.1233.29768v25.91048c0 .0699.0175.1386.0507.2001.0333.0615.0813.1137.1398.1519.0585.0383.1255.0614.1952.0673.0696.0058.1396-.0058.2037-.0337l4.4842-1.9761c.0751-.0327.1389-.0867.1838-.1551.0449-.0685.0688-.1486.0688-.2305v-7.3882c1.4106 1.7883 3.3622 2.6822 5.855 2.6816 1.7401 0 3.289-.4091 4.6468-1.2275s2.4217-1.9705 3.1918-3.4563c.7696-1.4863 1.1544-3.2241 1.1544-5.2134s-.3848-3.7394-1.1544-5.2504zm-5.572 9.2362c-.8819 1.0446-2.0404 1.5672-3.4756 1.5678004-1.4353.0004996-2.5812-.5159004-3.4378-1.5492004-.8554-1.0323-1.2834-2.392-1.284-4.0793 0-1.662.4283-3.0033 1.2849-4.0237.8565-1.0205 2.0022-1.5316 3.4369-1.5333 1.4352 0 2.5937.51 3.4756 1.5299.8818 1.0199 1.3224 2.3622 1.3218006 4.0271 0 1.662-.4406006 3.0156-1.3218006 4.0607z"/><path d="m109.008184.452972c-.723 0-.814 0-1.094.01684-.223.00351-.442.045382-.65.123768-.178.066435-.339.171053-.472.306473-.135.133277-.24.294457-.307.472337-.078.2067-.12.42507-.124.64578-.013.28459-.016.37468-.016 1.09876 0 .72409 0 .81333.016 1.09455.004.22072.046.43908.124.64578.067.17794.172.33968.306.47472s.295.24037.473.30915c.207.07794.425.12008.646.12461.284.01262.375.01599 1.095.01599s.814 0 1.094-.01599c.221-.00462.44-.04675.647-.12461.177-.06823.338-.17278.472-.30691.134-.13414.239-.2949.307-.47191.077-.20681.119-.42511.124-.64578.012-.28458.016-.37467.016-1.09455 0-.71987 0-.81417-.016-1.09875-.005-.22068-.047-.43897-.124-.64579-.067-.17788-.172-.33906-.308-.472335-.133-.13523-.293-.239818-.471-.306474-.207-.077861-.426-.119722-.647-.123768-.277-.018523-.368-.021891-1.091-.021891z"/><path d="m106.337184 9.87786v16.37024c0 .1116.045.2187.124.2977.079.0789.186.1233.297.1233h4.485c.111 0 .218-.0444.297-.1233.079-.079.124-.1861.124-.2977v-18.34632c0-.06988-.018-.13866-.051-.20012s-.081-.11368-.14-.15194c-.058-.03826-.125-.06136-.195-.06722s-.14.00571-.204.03366l-4.484 1.97608c-.075.03275-.139.08667-.184.15517-.045.06849-.069.14857-.069.23045z"/><path d="m98.8340842 2.84835v23.39975c0 .1116.0444.2187.1233.2977.079.0789.186.1233.2977.1233h4.4840998c.112 0 .219-.0444.298-.1233.079-.079.123-.1861.123-.2977v-25.37583c0-.069882-.017-.138656-.051-.200119-.033-.061462-.081-.113679-.139-.15194-.059-.038261-.126-.061363-.196-.067221-.069-.005859-.139.00571-.203.033663l-4.4844998 1.976077c-.075.03275-.1389.08667-.1838.15517-.0448.06849-.0687.14857-.0688.23045z"/><path d="m139.773184 22.1738c-.68 0-1.165-.1509-1.454-.4529s-.434-.7932-.434-1.4735v-8.4995h3.998c.112 0 .219-.0444.298-.1233.079-.079.123-.1861.123-.2977v-3.65328c0-.11165-.044-.21873-.123-.29768-.079-.07894-.186-.1233-.298-.1233h-3.998v-4.79411c0-.06981-.018-.13849-.051-.19984-.034-.06135-.082-.11345-.14-.15161-.058-.03817-.125-.06119-.195-.06701s-.14.00576-.204.03368l-4.485 1.97608c-.075.03269-.139.08648-.184.15481s-.069.14823-.069.22996v16.6817c0 3.7047 1.852 5.5556 5.557 5.5528032h3.998c.112 0 .219-.0444032.298-.1233032.079-.079.123-.1861.123-.2977v-3.6533c0-.1116-.044-.2187-.123-.2977-.079-.0789-.186-.1233-.298-.1233z"/><path d="m129.084184 16.3753c-1.398-.8173-3.406-1.3786-6.025-1.6839-1.235-.1263-2.117-.2386-2.645-.3368-.528-.0983-.956-.2619-1.284-.4909-.327-.2273-.492-.5666-.492-1.0204 0-.6293.309-1.1328.927-1.5105.617-.3778 1.429-.5667 2.435-.5667.935-.0104 1.855.231 2.664.6989.842.4816 1.303.9766 1.528 1.2738.057.0756.138.1296.229.1535.092.0238.189.016.276-.0221l3.328-1.4667c.053-.0231.1-.0569.14-.0991.039-.0423.069-.0921.088-.1465.02-.0544.027-.1122.023-.1697-.004-.0576-.02-.1137-.046-.1648-.441-.84983-1.1-1.57419-1.978-2.17311-1.624-1.10801-3.757-1.67465-6.399-1.69991-1.637 0-3.085.26437-4.344.79312-1.258.52875-2.234 1.2781-2.928 2.24803-.693.96997-1.039 2.08417-1.038002 3.34257 0 1.2585.340002 2.266 1.020002 3.0226.68.7556 1.586 1.3096 2.719 1.6621s2.556.6421 4.269.8689c1.256.1498 2.163.2809 2.72.3932.554.1128.983.2963 1.285.5472s.453.6298.453 1.1333c0 .6803-.327 1.2029-.982 1.5677-.654.3649-1.548.5476-2.682.5482-1.184 0-2.124-.309-2.908-.7932-.927-.5733-1.425-1.172-1.657-1.5155-.056-.0814-.138-.141-.232-.1682-.095-.0272-.196-.0204-.286.0192l-3.347 1.4709c-.051.0226-.098.0553-.136.0962-.039.0408-.069.089-.089.1417-.019.0526-.028.1087-.026.1649s.016.1113.04.1621c.446.9543 1.146 1.7696 2.1 2.4459 1.684 1.1962 3.874 1.7943 6.572 1.7943 1.74 0 3.27-.2583 4.589-.7747 1.32-.5164 2.353-1.2528 3.101-2.2093.742-.9575 1.114-2.0656 1.114-3.324 0-1.9893-.699-3.3934-2.096-4.2123z"/></g></svg>