<svg fill="none" height="164" viewBox="0 0 360 164" width="360" xmlns="http://www.w3.org/2000/svg" xmlns:xlink="http://www.w3.org/1999/xlink"><linearGradient id="a"><stop offset="0" stop-color="#242d43"/><stop offset="1" stop-color="#191b24"/></linearGradient><linearGradient id="b" gradientUnits="userSpaceOnUse" x1="95.8816" x2="116.305" xlink:href="#a" y1="38.0854" y2="123.194"/><linearGradient id="c" gradientUnits="userSpaceOnUse" x1="35" x2="54.364" y1="72.3479" y2="93.0833"><stop offset="0" stop-color="#1dfeef"/><stop offset="1" stop-color="#fded52"/></linearGradient><linearGradient id="d" gradientUnits="userSpaceOnUse" x1="85.555" x2="91.832" xlink:href="#a" y1="113.58" y2="162.576"/><path clip-rule="evenodd" d="m96.2816 44.6807v14.0328h-13.7963v14.2228c0 2.1427.3145 3.5672.9465 4.2765.6276.7093 1.6202 1.0624 2.9747 1.0624 1.0401 0 2.4718-.2359 4.2996-.7078l4.1587 11.7656c-1.8279 1.1663-3.813 2.0789-5.9539 2.7407s-4.8648.9927-8.1748.9927c-2.3308 0-4.4094-.3146-6.2358-.9453-1.8248-.6306-3.4568-1.6144-4.89-2.9528-1.4332-1.34-2.5282-3.1666-3.2833-5.4814-.7567-2.3163-1.1335-5.0644-1.1335-8.2458v-16.7276h-11.3395v-14.0328zm24.7094-.993c4.914 0 9.01 1.8904 12.284 5.6713h.141v-4.6786h17.34v47.393h-16.395v-4.4412h-.142c-2.834 3.6221-6.898 5.4339-12.188 5.4339-3.212 0-6.181-.6054-8.905-1.8192-2.727-1.2124-5.049-2.8906-6.972-5.0318-1.919-2.1427-3.424-4.7498-4.511-7.8214-1.086-3.0701-1.629-6.4177-1.629-10.0413 0-3.5598.535-6.8807 1.605-9.9686 1.073-3.0879 2.546-5.7025 4.418-7.8437 1.874-2.1427 4.102-3.8194 6.685-5.0332 2.583-1.2123 5.339-1.8192 8.269-1.8192zm81.122.0009c2.518 0 4.858.2359 7.016.7078 2.158.4733 4.126 1.1262 5.905 1.9616 1.781.8354 3.647 1.9454 5.599 3.3313l-7.984 11.4821c-1.512-1.5121-3.167-2.7006-4.962-3.5672s-3.464-1.2999-5.007-1.2999c-.819 0-1.521.1662-2.102.4971-.583.3309-.874.8102-.874 1.4409 0 .5045.409 1.0001 1.228 1.4883s2.362 1.0951 4.629 1.8192c2.331.7567 4.276 1.4556 5.835 2.1011 1.56.6455 3.033 1.4097 4.419 2.2926 1.385.8814 2.471 1.8429 3.259 2.8816.788 1.0402 1.402 2.2689 1.843 3.6859.44 1.4186.662 3.0405.662 4.8671 0 2.3311-.419 4.4501-1.253 6.3554-.835 1.9067-2.063 3.5598-3.685 4.962-1.622 1.4023-3.717 2.481-6.283 3.2363-2.568.7568-5.49 1.1352-8.766 1.1352-7.59 0-14.047-2.3638-19.37-7.0884l7.843-10.6794c4.126 3.591 8.079 5.3864 11.858 5.3864 2.331 0 3.497-.6454 3.497-1.9364 0-.4422-.126-.8117-.378-1.1114-.252-.2983-.859-.6692-1.819-1.1099-.96-.4408-2.386-.9289-4.276-1.4646-1.7-.5045-3.252-1.0476-4.654-1.6308-1.401-.5831-2.764-1.3147-4.086-2.1976-1.323-.8814-2.433-1.8578-3.331-2.9291-.897-1.0714-1.614-2.3475-2.15-3.8269-.535-1.4809-.804-3.1027-.804-4.867 0-2.5196.481-4.8033 1.442-6.851.96-2.0478 2.276-3.7245 3.945-5.0318 1.669-1.3088 3.598-2.3089 5.788-3.0018 2.188-.693 4.527-1.0387 7.016-1.0387zm47.813-.0003c3.371 0 6.537.6069 9.498 1.8192 2.96 1.2123 5.486 2.8742 7.581 4.9857 2.095 2.1101 3.748 4.6846 4.962 7.725 1.212 3.0404 1.817 6.3079 1.817 9.8039 0 1.7954-.157 3.3238-.472 4.5836h-31.088c.38 2.205 1.457 3.8907 3.237 5.0555 1.781 1.1663 3.977 1.7495 6.591 1.7495 3.937 0 7.575-1.7495 10.913-5.2454l8.93 9.829c-2.14 2.6769-5.094 4.8582-8.858 6.5439-3.764 1.6856-8.04 2.5285-12.826 2.5285-4.693 0-8.932-1.0313-12.711-3.0954-3.78-2.0625-6.749-4.9857-8.906-8.7651-2.157-3.7809-3.236-8.0648-3.236-12.8532 0-4.7246 1.048-8.9611 3.141-12.7093 2.095-3.7497 5.018-6.6788 8.764-8.7889 3.749-2.1115 7.97-3.1665 12.663-3.1665zm54.143-.0006c4.063 0 7.948.8428 11.648 2.5285 3.702 1.6841 6.716 4.1028 9.047 7.2531l-11.482 9.7801c-2.391-2.8342-5.323-4.2513-8.787-4.2513-2.708 0-4.891.8651-6.543 2.5983-1.653 1.7316-2.481 3.953-2.481 6.661 0 2.7733.858 5.0407 2.576 6.805 1.716 1.7643 3.93 2.6457 6.636 2.6457 3.466 0 6.317-1.2909 8.553-3.8743l11.764 10.2534c-2.172 2.6784-5.157 4.8448-8.954 6.4979-3.793 1.6545-8.166 2.481-13.111 2.481-4.692 0-8.927-1.0313-12.707-3.0954-3.782-2.064-6.751-4.9768-8.908-8.7414-2.156-3.7645-3.236-8.041-3.236-12.8294 0-4.8196 1.097-9.1035 3.284-12.8517 2.191-3.7483 5.259-6.6611 9.213-8.7415 3.952-2.0789 8.451-3.119 13.488-3.119zm-127.328-15.6877v64.0745h-17.244v-62.279zm-50.882 30.9032c-2.457 0-4.475.8829-6.048 2.6472-1.577 1.7628-2.365 4.0465-2.365 6.8495 0 2.8668.788 5.1742 2.365 6.9237 1.573 1.7479 3.591 2.6219 6.048 2.6219 2.362 0 4.338-.8829 5.927-2.6457 1.59-1.7643 2.385-4.0643 2.385-6.8999 0-2.7719-.795-5.0481-2.385-6.8258-1.589-1.7806-3.565-2.6709-5.927-2.6709zm123.972-2.0309c-1.922 0-3.565.558-4.936 1.6768s-2.245 2.6695-2.623 4.6534h14.741c-.221-.9749-.544-1.8578-.969-2.6457-.426-.7865-.937-1.4557-1.535-2.0077-.6-.5505-1.3-.9689-2.103-1.2524-.804-.2834-1.661-.4244-2.575-.4244z" fill="url(#b)" fill-rule="evenodd"/><path clip-rule="evenodd" d="m37.764 90.349c-1.8427-1.8118-2.764-4.0079-2.764-6.5913 0-2.5211.9288-4.686 2.7878-6.4978 1.8575-1.8118 4.0785-2.717 6.6615-2.717s4.7951.9052 6.6378 2.717 2.7641 3.9767 2.7641 6.4978c0 2.5834-.9214 4.7795-2.7641 6.5913s-4.0548 2.717-6.6378 2.717c-2.6142 0-4.8426-.9052-6.6853-2.717z" fill="url(#c)" fill-rule="evenodd"/><path d="m44.028 115.592h12.194v2.86h-8.918v4.68h8.45v2.756h-8.45v5.2h9.386v2.912h-12.662zm13.5365 5.928h3.406l3.276 9.1h.052l3.302-9.1h3.302l-4.966 12.48h-3.328zm15.254 0h3.12v12.48h-3.12zm-.442-4.238c0-.503.182-.936.546-1.3.3814-.381.858-.572 1.43-.572s1.0487.182 1.43.546c.3987.347.598.789.598 1.326s-.1993.988-.598 1.352c-.3813.347-.858.52-1.43.52s-1.0486-.182-1.43-.546c-.364-.381-.546-.823-.546-1.326zm20.0351 16.718h-2.964v-1.872h-.052c-.4334.728-1.04 1.283-1.82 1.664-.7627.381-1.586.572-2.47.572-.9534 0-1.8114-.173-2.574-.52-.7454-.364-1.3867-.841-1.924-1.43-.52-.607-.9274-1.309-1.222-2.106-.2774-.815-.416-1.681-.416-2.6s.1473-1.777.442-2.574c.2946-.797.7106-1.491 1.248-2.08.5373-.589 1.1786-1.049 1.924-1.378.7453-.347 1.56-.52 2.444-.52.572 0 1.0833.069 1.534.208.4506.121.8406.277 1.17.468.3466.191.6413.399.884.624.2426.225.442.442.598.65h.078v-8.762h3.12zm-10.27-6.292c0 .485.0693.971.208 1.456.156.485.3813.919.676 1.3.2946.381.6673.693 1.118.936.4506.243.9793.364 1.586.364.572 0 1.0833-.113 1.534-.338.4506-.243.832-.555 1.144-.936.3293-.381.572-.806.728-1.274.1733-.485.26-.971.26-1.456s-.0867-.971-.26-1.456c-.156-.485-.3987-.919-.728-1.3-.312-.381-.6934-.693-1.144-.936-.4507-.243-.962-.364-1.534-.364-.6067 0-1.1354.121-1.586.364-.4507.225-.8234.529-1.118.91-.2947.381-.52.815-.676 1.3-.1387.468-.208.945-.208 1.43zm22.8484-1.196c0-.399-.061-.78-.182-1.144-.104-.364-.277-.685-.52-.962s-.555-.494-.936-.65c-.364-.173-.797-.26-1.3-.26-.936 0-1.733.286-2.3919.858-.6414.555-.9967 1.274-1.066 2.158zm3.12 1.404v.416c0 .139-.009.277-.026.416h-9.4899c.0346.451.1473.867.338 1.248.208.364.4766.685.806.962.3289.26.7019.468 1.1179.624s.849.234 1.3.234c.78 0 1.439-.139 1.976-.416.537-.295.979-.693 1.326-1.196l2.08 1.664c-1.231 1.664-3.016 2.496-5.356 2.496-.971 0-1.863-.147-2.6779-.442-.8147-.312-1.5254-.745-2.132-1.3-.5894-.555-1.0574-1.231-1.404-2.028-.3294-.815-.494-1.733-.494-2.756 0-1.005.1646-1.915.494-2.73.3466-.832.8146-1.534 1.404-2.106.5893-.589 1.2826-1.04 2.08-1.352.8149-.329 1.6899-.494 2.6259-.494.867 0 1.664.147 2.392.442.745.277 1.387.702 1.924 1.274.537.555.953 1.257 1.248 2.106.312.832.468 1.811.468 2.938zm3.022-6.396h2.964v2.002h.052c.277-.624.754-1.17 1.43-1.638.693-.485 1.508-.728 2.444-.728.814 0 1.508.147 2.08.442.589.277 1.066.65 1.43 1.118.381.468.658 1.005.832 1.612.173.607.26 1.231.26 1.872v7.8h-3.12v-6.916c0-.364-.026-.745-.078-1.144s-.165-.754-.338-1.066c-.174-.329-.416-.598-.728-.806-.295-.208-.694-.312-1.196-.312-.503 0-.936.104-1.3.312-.364.191-.668.442-.91.754-.226.312-.399.676-.52 1.092-.122.399-.182.806-.182 1.222v6.864h-3.12zm23.661 3.458c-.243-.347-.607-.633-1.092-.858-.486-.243-.98-.364-1.482-.364-.572 0-1.075.121-1.508.364-.434.225-.798.529-1.092.91-.278.381-.486.815-.624 1.3-.139.468-.208.945-.208 1.43s.069.971.208 1.456c.156.468.381.893.676 1.274.294.381.658.693 1.092.936.45.225.97.338 1.56.338.485 0 .97-.095 1.456-.286.485-.191.875-.468 1.17-.832l1.95 1.976c-.52.555-1.188.988-2.002 1.3-.798.295-1.664.442-2.6.442-.919 0-1.794-.147-2.626-.442-.815-.295-1.534-.728-2.158-1.3-.607-.572-1.092-1.265-1.456-2.08-.347-.815-.52-1.742-.52-2.782 0-1.005.173-1.915.52-2.73.364-.815.849-1.508 1.456-2.08.606-.572 1.308-1.014 2.106-1.326.814-.312 1.681-.468 2.6-.468.918 0 1.802.173 2.652.52.866.347 1.551.823 2.054 1.43zm12.955 1.534c0-.399-.061-.78-.182-1.144-.104-.364-.277-.685-.52-.962s-.555-.494-.936-.65c-.364-.173-.797-.26-1.3-.26-.936 0-1.733.286-2.392.858-.641.555-.997 1.274-1.066 2.158zm3.12 1.404v.416c0 .139-.009.277-.026.416h-9.49c.035.451.147.867.338 1.248.208.364.477.685.806.962.329.26.702.468 1.118.624s.849.234 1.3.234c.78 0 1.439-.139 1.976-.416.537-.295.979-.693 1.326-1.196l2.08 1.664c-1.231 1.664-3.016 2.496-5.356 2.496-.971 0-1.863-.147-2.678-.442-.815-.312-1.525-.745-2.132-1.3-.589-.555-1.057-1.231-1.404-2.028-.329-.815-.494-1.733-.494-2.756 0-1.005.165-1.915.494-2.73.347-.832.815-1.534 1.404-2.106.589-.589 1.283-1.04 2.08-1.352.815-.329 1.69-.494 2.626-.494.867 0 1.664.147 2.392.442.745.277 1.387.702 1.924 1.274.537.555.953 1.257 1.248 2.106.312.832.468 1.811.468 2.938zm8.794-.208c0-.988.173-1.881.52-2.678.364-.815.849-1.508 1.456-2.08.606-.572 1.326-1.014 2.158-1.326s1.716-.468 2.652-.468 1.82.156 2.652.468 1.551.754 2.158 1.326c.606.572 1.083 1.265 1.43 2.08.364.797.546 1.69.546 2.678s-.182 1.889-.546 2.704c-.347.815-.824 1.517-1.43 2.106-.607.572-1.326 1.023-2.158 1.352s-1.716.494-2.652.494-1.82-.165-2.652-.494-1.552-.78-2.158-1.352c-.607-.589-1.092-1.291-1.456-2.106-.347-.815-.52-1.716-.52-2.704zm3.172 0c0 .485.069.971.208 1.456.156.485.381.919.676 1.3.294.381.667.693 1.118.936.45.243.988.364 1.612.364s1.161-.121 1.612-.364c.45-.243.823-.555 1.118-.936.294-.381.511-.815.65-1.3.156-.485.234-.971.234-1.456s-.078-.962-.234-1.43c-.139-.485-.356-.919-.65-1.3-.295-.381-.668-.685-1.118-.91-.451-.243-.988-.364-1.612-.364s-1.162.121-1.612.364c-.451.225-.824.529-1.118.91-.295.381-.52.815-.676 1.3-.139.468-.208.945-.208 1.43zm13.919-3.692h-2.366v-2.496h2.366v-1.846c0-.745.078-1.456.234-2.132.173-.693.45-1.3.832-1.82.398-.52.918-.927 1.56-1.222.641-.312 1.447-.468 2.418-.468.346 0 .632.017.858.052.242.017.485.061.728.13l-.208 2.652c-.174-.052-.364-.095-.572-.13-.191-.035-.399-.052-.624-.052-.451 0-.815.087-1.092.26-.278.173-.494.399-.65.676-.139.277-.234.581-.286.91s-.078.65-.078.962v2.028h2.886v2.496h-2.886v9.984h-3.12zm20.541-8.424h2.834l7.93 18.408h-3.744l-1.716-4.212h-7.982l-1.664 4.212h-3.666zm4.16 11.388-2.834-7.488-2.886 7.488zm11.26-5.46v1.742h.078c.156-.243.355-.485.598-.728.26-.26.572-.485.936-.676.364-.208.771-.373 1.222-.494.468-.139.988-.208 1.56-.208.884 0 1.698.173 2.444.52.745.329 1.386.789 1.924 1.378.537.589.953 1.283 1.248 2.08.294.797.442 1.655.442 2.574s-.148 1.785-.442 2.6c-.278.797-.685 1.499-1.222 2.106-.52.589-1.162 1.066-1.924 1.43-.746.347-1.595.52-2.548.52-.884 0-1.699-.182-2.444-.546-.728-.364-1.292-.858-1.69-1.482h-.052v7.904h-3.12v-18.72zm7.28 6.188c0-.485-.078-.962-.234-1.43-.139-.485-.356-.919-.65-1.3-.295-.381-.668-.685-1.118-.91-.451-.243-.98-.364-1.586-.364-.572 0-1.084.121-1.534.364-.451.243-.841.555-1.17.936-.312.381-.555.815-.728 1.3-.156.485-.234.971-.234 1.456s.078.971.234 1.456c.173.468.416.893.728 1.274.329.381.719.693 1.17.936.45.225.962.338 1.534.338.606 0 1.135-.121 1.586-.364.45-.243.823-.555 1.118-.936.294-.381.511-.815.65-1.3.156-.485.234-.971.234-1.456zm9.173-6.188v1.742h.078c.156-.243.355-.485.598-.728.26-.26.572-.485.936-.676.364-.208.771-.373 1.222-.494.468-.139.988-.208 1.56-.208.884 0 1.698.173 2.444.52.745.329 1.386.789 1.924 1.378.537.589.953 1.283 1.248 2.08.294.797.442 1.655.442 2.574s-.148 1.785-.442 2.6c-.278.797-.685 1.499-1.222 2.106-.52.589-1.162 1.066-1.924 1.43-.746.347-1.595.52-2.548.52-.884 0-1.699-.182-2.444-.546-.728-.364-1.292-.858-1.69-1.482h-.052v7.904h-3.12v-18.72zm7.28 6.188c0-.485-.078-.962-.234-1.43-.139-.485-.356-.919-.65-1.3-.295-.381-.668-.685-1.118-.91-.451-.243-.98-.364-1.586-.364-.572 0-1.084.121-1.534.364-.451.243-.841.555-1.17.936-.312.381-.555.815-.728 1.3-.156.485-.234.971-.234 1.456s.078.971.234 1.456c.173.468.416.893.728 1.274.329.381.719.693 1.17.936.45.225.962.338 1.534.338.606 0 1.135-.121 1.586-.364.45-.243.823-.555 1.118-.936.294-.381.511-.815.65-1.3.156-.485.234-.971.234-1.456zm22.225-8.268c-.347-.451-.841-.823-1.482-1.118-.624-.312-1.257-.468-1.898-.468-.382 0-.763.052-1.144.156-.382.087-.728.234-1.04.442-.312.191-.572.451-.78.78-.191.312-.286.693-.286 1.144 0 .416.086.771.26 1.066.173.295.407.546.702.754.312.208.684.39 1.118.546.433.156.91.312 1.43.468.589.191 1.196.407 1.82.65.641.243 1.222.563 1.742.962.537.399.97.901 1.3 1.508.346.607.52 1.361.52 2.262 0 .988-.182 1.855-.546 2.6-.364.728-.85 1.335-1.456 1.82-.607.485-1.318.849-2.132 1.092-.815.243-1.673.364-2.574.364-1.196 0-2.366-.217-3.51-.65-1.144-.451-2.08-1.109-2.808-1.976l2.34-2.184c.45.624 1.048 1.118 1.794 1.482.762.364 1.508.546 2.236.546.381 0 .771-.043 1.17-.13.398-.104.754-.269 1.066-.494.329-.225.589-.503.78-.832.208-.347.312-.771.312-1.274 0-.485-.113-.884-.338-1.196-.226-.329-.529-.607-.91-.832-.382-.243-.832-.451-1.352-.624s-1.066-.355-1.638-.546c-.555-.173-1.11-.381-1.664-.624-.555-.243-1.058-.563-1.508-.962-.434-.399-.789-.884-1.066-1.456-.278-.589-.416-1.317-.416-2.184 0-.936.19-1.742.572-2.418.398-.676.91-1.231 1.534-1.664.641-.451 1.36-.78 2.158-.988.814-.225 1.638-.338 2.47-.338.936 0 1.88.165 2.834.494.97.329 1.811.823 2.522 1.482zm13.136 12.974h-.078c-.312.555-.815 1.014-1.508 1.378-.694.347-1.482.52-2.366.52-.503 0-1.032-.069-1.586-.208-.538-.121-1.04-.329-1.508-.624-.451-.312-.832-.711-1.144-1.196-.295-.503-.442-1.118-.442-1.846 0-.936.26-1.681.78-2.236.537-.555 1.222-.979 2.053-1.274.833-.295 1.751-.485 2.757-.572 1.022-.104 2.019-.156 2.99-.156v-.312c0-.78-.286-1.352-.858-1.716-.555-.381-1.222-.572-2.002-.572-.659 0-1.292.139-1.898.416-.607.277-1.11.615-1.508 1.014l-1.612-1.898c.71-.659 1.525-1.153 2.444-1.482.936-.329 1.88-.494 2.834-.494 1.109 0 2.019.156 2.73.468.728.312 1.3.719 1.716 1.222s.702 1.066.858 1.69c.173.624.26 1.248.26 1.872v7.592h-2.912zm-.052-4.108h-.702c-.503 0-1.032.026-1.586.078-.555.035-1.066.13-1.534.286-.468.139-.858.347-1.17.624-.312.26-.468.624-.468 1.092 0 .295.06.546.182.754.138.191.312.347.52.468s.442.208.702.26.52.078.78.078c1.074 0 1.889-.286 2.444-.858.554-.572.832-1.352.832-2.34zm7.092-4.29h-2.366v-2.496h2.366v-1.846c0-.745.078-1.456.234-2.132.174-.693.451-1.3.832-1.82.399-.52.919-.927 1.56-1.222.642-.312 1.448-.468 2.418-.468.347 0 .633.017.858.052.243.017.486.061.728.13l-.208 2.652c-.173-.052-.364-.095-.572-.13-.19-.035-.398-.052-.624-.052-.45 0-.814.087-1.092.26-.277.173-.494.399-.65.676-.138.277-.234.581-.286.91s-.078.65-.078.962v2.028h2.886v2.496h-2.886v9.984h-3.12zm16.724 2.496c0-.399-.061-.78-.182-1.144-.104-.364-.277-.685-.52-.962s-.555-.494-.936-.65c-.364-.173-.797-.26-1.3-.26-.936 0-1.733.286-2.392.858-.641.555-.997 1.274-1.066 2.158zm3.12 1.404v.416c0 .139-.009.277-.026.416h-9.49c.035.451.147.867.338 1.248.208.364.477.685.806.962.329.26.702.468 1.118.624s.849.234 1.3.234c.78 0 1.439-.139 1.976-.416.537-.295.979-.693 1.326-1.196l2.08 1.664c-1.231 1.664-3.016 2.496-5.356 2.496-.971 0-1.863-.147-2.678-.442-.815-.312-1.525-.745-2.132-1.3-.589-.555-1.057-1.231-1.404-2.028-.329-.815-.494-1.733-.494-2.756 0-1.005.165-1.915.494-2.73.347-.832.815-1.534 1.404-2.106.589-.589 1.283-1.04 2.08-1.352.815-.329 1.69-.494 2.626-.494.867 0 1.664.147 2.392.442.745.277 1.387.702 1.924 1.274.537.555.953 1.257 1.248 2.106.312.832.468 1.811.468 2.938zm1.228-3.9v-2.496h2.184v-3.614h3.068v3.614h3.12v2.496h-3.12v5.798c0 .555.095 1.014.286 1.378.208.364.658.546 1.352.546.208 0 .433-.017.676-.052.242-.052.459-.121.65-.208l.104 2.444c-.278.104-.607.182-.988.234-.382.069-.746.104-1.092.104-.832 0-1.508-.113-2.028-.338-.52-.243-.936-.563-1.248-.962-.295-.416-.503-.884-.624-1.404-.104-.537-.156-1.109-.156-1.716v-5.824zm8.758-2.496h3.458l3.484 9.074h.052l3.094-9.074h3.25l-5.902 15.158c-.226.572-.468 1.075-.728 1.508-.26.451-.572.823-.936 1.118-.364.312-.798.546-1.3.702-.486.156-1.075.234-1.768.234-.26 0-.529-.017-.806-.052-.26-.017-.529-.061-.806-.13l.26-2.704c.208.069.407.113.598.13.208.035.398.052.572.052.329 0 .606-.043.832-.13.225-.069.416-.191.572-.364.156-.156.294-.355.416-.598.121-.243.251-.529.39-.858l.624-1.586z" fill="url(#d)"/></svg>