<svg xmlns="http://www.w3.org/2000/svg" viewBox="0 0 511.87 214.2"><defs><style>.cls-1{fill:#1929d6;}</style></defs><g id="Layer_2" data-name="Layer 2"><g id="Layer_1-2" data-name="Layer 1"><path class="cls-1" d="M170.63,24.58A24.36,24.36,0,1,1,146.28,0,24.28,24.28,0,0,1,170.63,24.58Z"/><path class="cls-1" d="M103.93,60.14V96.58H62V157c0,13.43,6.09,18.72,19.82,18.72h22.24V210.6H79c-39.5,0-57.35-17.86-57.35-51.58V96.58H0V60.14A21.6,21.6,0,0,0,21.52,38.42v-17H61.88V60.14Z"/><path class="cls-1" d="M166.38,60.14H126V210.59h40.36Z"/><path class="cls-1" d="M303.58,199.6c-10.48,8.29-26.76,13.14-43.61,13.14-40.64,0-75.33-33.14-75.33-76.58S219.19,58.72,260,58.72c16.85,0,33.13,5.29,43.61,13.43V9.71h40.36v201H303.58Zm.57-63.44a40.43,40.43,0,0,0-40.64-40.43c-22.09,0-39.23,18.14-39.23,40.43,0,22.58,17.14,40.44,39.23,40.44C286.73,176.6,304.15,158.74,304.15,136.16Z"/><path class="cls-1" d="M436,214.2c-47.72,0-78.44-33.72-78.44-78.3,0-43.44,32-78.59,78.73-78.59,47.15,0,75.61,32.87,75.61,76.59,0,5.86-.57,13.43-.57,14.43h-114c4.39,19,18.55,31.43,39.5,31.43,18,0,31.16-7.85,39.51-20l30.3,18.72C492.19,200.48,469.11,214.2,436,214.2ZM398.73,118h72.36C466.7,99.89,452.26,90.75,436,90.75,417.14,90.75,404,101,398.73,118Z"/></g></g></svg>