<svg fill="none" height="603" viewBox="0 0 2746 603" width="2746" xmlns="http://www.w3.org/2000/svg"><g fill="#fff"><path d="m347.485 3.80535c.152-.83543.593-1.59104 1.245-2.13512s1.474-.842105 2.323-.842105 1.671.298025 2.323.842105 1.092 1.29969 1.244 2.13512l15.322 80.93755s-24.913-4.7955-27.837-20.3514zm-7.719 86.90255c1.781 1.8974 3.74 3.6207 5.848 5.1463 4.684 3.576 10.002 6.2348 15.673 7.8368 3.278.998 6.648 1.664 10.059 1.988h2.456l13.1 43.51c-8.178.028-16.228-2.024-23.393-5.965-8.333-3.626-15.616-9.298-21.17-16.492-1.305-1.807-2.515-3.681-3.626-5.614l-1.403-2.573c0-.819-.819-1.638-1.17-2.339zm-7.953 70.9961 1.988-18.012 3.743 4.561 4.327 4.562c6.7 6.442 14.666 11.421 23.393 14.62 5.011 1.862 10.238 3.08 15.556 3.626 1.791.12 3.588.12 5.38 0h5.731l15.205 54.504c.034.216-.001.437-.098.632-.098.196-.254.356-.447.459s-.413.143-.629.115c-.217-.028-.42-.122-.58-.271-3.358-4.2-7.296-7.902-11.697-10.994-1.871-1.403-3.976-2.69-6.082-3.977l-28.889-15.556-29.007-16.023zm-35.089 67.954 15.79-27.486 63.51 35.089c3.831 2.162 7.185 5.076 9.861 8.567s4.619 7.486 5.711 11.747c1.093 4.261 1.312 8.699.646 13.046-.666 4.348-2.204 8.517-4.522 12.255l-5.38 8.772c-5.828 9.68-15.257 16.655-26.219 19.396-10.962 2.74-22.564 1.023-32.262-4.776l-7.719-5.029c-11.887-7.091-20.51-18.569-24.011-31.959-3.501-13.391-1.598-27.621 5.297-39.622zm40.001 69.359h3.275 1.637c7.557-.032 14.955-2.173 21.361-6.181 6.406-4.009 11.566-9.727 14.897-16.51.639-1.374.97-2.871.97-4.386s-.331-3.012-.97-4.386c-.593-1.357-1.46-2.577-2.547-3.583s-2.37-1.777-3.768-2.265c-2.449-.744-5.081-.6-7.434.406-2.354 1.005-4.277 2.808-5.432 5.091-1.564 3.147-3.961 5.803-6.931 7.68s-6.399 2.902-9.912 2.964h-.818c-4.283-.044-8.417-1.574-11.697-4.328-1.937-1.609-4.382-2.48-6.9-2.456-2.649-.006-5.201.998-7.135 2.807-1.087 1.011-1.943 2.245-2.508 3.618s-.827 2.852-.767 4.335c.052 1.505.424 2.982 1.089 4.333s1.61 2.545 2.771 3.504c5.933 5.14 13.262 8.397 21.053 9.357zm-130.646-93.57 14.503-25.029c2.563-4.39 6.352-7.936 10.903-10.201s9.664-3.15 14.712-2.548c3.396.403 6.688 1.434 9.707 3.041l52.048 29.24zm126.435 387.144c-18.831-.029-37.609-2.028-56.024-5.965-13.61-2.886-26.981-6.796-40.001-11.697l65.148-112.751c8.773 2.1 17.951 1.784 26.559-.914s16.325-7.676 22.331-14.408c1.959-1.753 3.154-4.203 3.329-6.827.175-2.623-.685-5.21-2.394-7.208-6.667-9.006-16.959 0-16.959 0-4.715 3.513-10.217 5.818-16.028 6.715-5.81.897-11.752.359-17.306-1.569-23.918-4.982-46.417-15.252-65.85-30.059l-11.696-8.538c-10.37-7.943-21.45-14.912-33.1-20.819l-4.211-2.106c-18.509-8.974-38.2-15.275-58.481-18.713l-108.4232-18.246c-2.8165-.198-5.5624-.972-8.0668-2.276-2.50444-1.304-4.71394-3.109-6.49107-5.303-1.77714-2.194-3.08394-4.73-3.83915-7.45-.75521-2.721-.9426686-5.568-.550755-8.364l1.754395-8.187c25.30338 8.407 51.34618 14.399 77.77958 17.895l9.123 1.404 15.322 1.988c15.521 1.919 31.145 2.896 46.785 2.924 3.291-.145 6.551-.695 9.708-1.638l7.017-2.222c7.726-2.262 14.503-6.985 19.299-13.45 3.671-4.889 6.046-10.627 6.905-16.679.859-6.053.174-12.225-1.993-17.942-2.359-6.143-6.311-11.548-11.45-15.659s-11.279-6.78-17.79-7.733c-16.96-.585-110.529-15.673-144.097-29.709l1.8714-5.614c3.7042-8.526 10.458-15.363 18.9386-19.17 8.4807-3.808 18.0772-4.312 26.9104-1.415l4.0937 1.403c1.298.385 2.6884.317 3.9424-.193 1.2541-.511 2.2974-1.432 2.9583-2.614l1.9883-3.742c2.5921-4.827 6.1879-9.043 10.5454-12.363 4.3575-3.321 9.3758-5.67 14.7175-6.889 5.341-1.219 10.881-1.28 16.248-.178 5.367 1.101 10.435 3.339 14.865 6.564 2.148 1.565 4.145 3.327 5.965 5.263l1.169 1.287 1.404 1.52 24.796 29.358c2.019 2.379 4.553 4.269 7.41 5.525 2.857 1.257 5.963 1.847 9.081 1.726l89.476-3.977c-8.112 16.845-9.584 36.127-4.122 54.008s17.456 33.049 33.597 42.486l8.889 5.146c7.565 4.44 15.968 7.267 24.678 8.304 12.232 1.432 24.619-.658 35.704-6.024s20.407-13.786 26.871-24.269l68.891-115.09-8.539 135.091 52.984 197.314c-49.326 46.014-114.186 71.741-181.642 72.049zm-296.2637-301.645 9.357-32.983c13.2166 3.041 29.8252 6.784 46.7847 10.176l9.24 1.754c33.1 6.199 59.533 8.422 59.416 8.422 2.605.428 5.052 1.527 7.103 3.188s3.634 3.827 4.594 6.285c1.534 3.748 1.534 7.949 0 11.697-1.053 3.041-3.86 9.824-17.311 10.643-40.346-1.667-80.3522-8.105-119.1837-19.182z"/><path d="m816.856 180.651-48.539-122.9269-78.833-.1169 99.301 237.0818 55.674.117 100.353-236.731-78.832-.1169z"/><path d="m1124.69 121.466.12-63.6274-141.171-.1169-.351 237.0813h141.172v-63.627l-68.66-.117.12-23.626 64.8.117.11-63.628h-64.79v-22.573z"/><path d="m1340.63 179.769c9.59-13.224 14.45-29.291 13.8-45.615.22-9.892-1.29-19.746-4.44-29.123-3.37-9.0568-8.54-17.334-15.21-24.3281-7.13-7.338-15.8-13.0093-25.38-16.6086-11.21-4.2108-23.11-6.2741-35.09-6.082h-97.31v237.1987h72.52v-68.189l43.62 68.072h90.77l-72.29-94.505c11.44-4.064 21.5-11.282 29.01-20.82zm-66.43-27.953c-6.43 4.238-14.1 6.176-21.76 5.497h-3.51v-40.118h3.63c7.62-.572 15.21 1.358 21.64 5.497 2.16 1.74 3.86 3.981 4.96 6.529 1.1 2.547 1.57 5.325 1.35 8.091.23 2.751-.23 5.515-1.33 8.046-1.11 2.53-2.82 4.749-4.98 6.458z"/><path d="m1531.72 57.8411-37.07 54.9719-37.31-55.0889-87.02-.1169 87.72 125.3828-.24 111.699 72.52.117.12-111.699 88.3-125.032z"/><path d="m820.713 479.369-48.422-122.81-78.832-.117 99.184 237.082 55.79.117 100.237-236.848-78.833-.117z"/><path d="m1121.07 420.657v-63.627l-141.058-.234-.351 236.964 141.059.234.11-63.627-68.65-.117v-23.626l64.91.117.12-63.627-64.92-.117v-22.457z"/><path d="m1167.62 594.114 72.52.117.23-121.991 95.56 122.108 68.42.117.35-236.964-72.16-.117-.24 121.991-95.55-122.108-68.66-.117z"/><path d="m1562.72 594.7.23-173.338 47.49.117.11-63.627-167.37-.234-.12 63.627h47.49l-.23 173.338z"/><path d="m1788.92 486.276c0 6.433 0 12.866-.7 19.416-.35 5.499-1.7 10.889-3.98 15.907-1.96 4.214-5.09 7.783-9 10.292-5.54 3.04-11.83 4.421-18.13 3.977-6.37.368-12.72-1.007-18.36-3.977-3.96-2.457-7.1-6.041-9.01-10.292-2.15-5.05-3.41-10.43-3.74-15.907 0-6.667-.7-13.1-.7-19.416v-128.658h-72.52v136.495c0 36.375 8.65 63.627 25.85 80.937 17.19 17.31 43.51 26.083 78.25 26.199 34.5 0 60.7-8.772 77.89-25.965 17.2-17.193 25.85-44.445 25.97-80.821v-136.143h-72.17z"/><path d="m2075.25 480.307c9.59-13.224 14.45-29.292 13.8-45.615.07-9.92-1.59-19.777-4.91-29.124-3.33-9.051-8.46-17.329-15.09-24.328-7.2-7.339-15.9-13.043-25.5-16.725-11.22-4.171-23.12-6.195-35.09-5.965h-97.19v236.964h72.51v-67.838l43.63 67.955h90.76l-72.16-94.505c11.49-4.081 21.62-11.292 29.24-20.819zm-66.44-27.954c-6.42 4.139-14.02 6.069-21.64 5.497h-3.62v-39.65h3.62c7.66-.455 15.27 1.509 21.76 5.614 2.13 1.759 3.81 4.007 4.89 6.552s1.53 5.313 1.31 8.069c.17 2.615-.26 5.234-1.28 7.651-1.01 2.416-2.58 4.562-4.57 6.267z"/><path d="m2147.64 595.633 141.18.234.11-63.627-68.65-.117v-23.626l64.79.117.12-63.627h-64.8v-22.574l68.66.117.12-63.627-141.17-.234z"/><path d="m2451.62 446.274c-4.79-1.637-9.7-3.158-14.62-4.561-4.02-1.138-7.93-2.625-11.69-4.445-2.68-1.199-5.11-2.907-7.14-5.029-.56-.635-.98-1.377-1.24-2.182s-.36-1.654-.28-2.496c-.03-1.579.32-3.141 1.04-4.549.71-1.408 1.76-2.617 3.06-3.522 4.55-2.368 9.6-3.604 14.73-3.604s10.19 1.236 14.74 3.604c6.15 2.537 11.87 6.009 16.96 10.293l7.02 5.731 30.41-59.534-6.32-3.391c-11.4-6.216-23.55-10.971-36.14-14.153-11.92-3.107-24.18-4.718-36.49-4.795-11.67-.156-23.27 1.744-34.27 5.614-9.96 3.616-19.07 9.228-26.79 16.491-7.37 7.246-13.18 15.923-17.07 25.498-4.08 10.389-6.11 21.471-5.97 32.632-.4 10.44 1.55 20.836 5.73 30.411 3.67 7.791 8.93 14.724 15.44 20.351 6.34 5.319 13.48 9.584 21.17 12.632 7.37 2.924 14.86 5.614 22.34 7.953 7.49 2.339 11.7 3.977 15.68 5.731 3.22 1.188 6.26 2.843 9 4.913 1.58 1.022 2.87 2.431 3.74 4.093.78 1.685 1.14 3.529 1.06 5.381-.05 1.823-.5 3.614-1.3 5.249-.81 1.636-1.96 3.077-3.38 4.224-4.62 3.394-10.32 4.976-16.02 4.445-7.65-.069-15.19-1.785-22.11-5.029-8.56-4.087-16.45-9.45-23.39-15.907l-6.9-6.199-32.29 60.586 5.27 3.626c23.88 17.121 52.49 26.399 81.87 26.55 13.09.149 26.12-1.786 38.6-5.731 10.94-3.535 21.05-9.266 29.71-16.842 8.16-7.227 14.57-16.23 18.71-26.317 4.32-10.743 6.5-22.224 6.43-33.802.83-16.726-4.36-33.196-14.62-46.434-12.05-13.136-27.52-22.654-44.68-27.486z"/><path d="m2201.8 226.029c6.62-15.44 9.97-32.089 9.82-48.89.17-16.868-3.13-33.59-9.71-49.124-6.21-14.916-15.41-28.4078-27.02-39.65-11.81-11.5127-25.81-20.5407-41.17-26.5503-16.66-6.4731-34.4-9.7275-52.28-9.5909-17.83-.1847-35.53 3.0307-52.16 9.474-15.35 5.972-29.35 14.9601-41.17 26.4333-11.56 11.2412-20.75 24.6829-27.02 39.5329-9.84 23.009-12.54 48.44-7.77 73.004 4.78 24.563 16.81 47.128 34.55 64.777 11.67 11.417 25.46 20.437 40.59 26.55 16.71 6.439 34.49 9.692 52.4 9.591 17.79.12 35.44-3.094 52.05-9.474 15.47-5.858 29.65-14.678 41.75-25.965 11.66-11.406 20.89-25.053 27.14-40.118zm-70.18-27.603c-2.76 6.395-6.73 12.195-11.7 17.076-5.15 4.968-11.18 8.935-17.78 11.697-6.73 2.676-13.92 4.027-21.17 3.976-7.35.34-14.69-1.063-21.4-4.093-6.53-2.759-12.49-6.727-17.54-11.697-4.92-4.969-8.88-10.797-11.7-17.193-2.89-6.805-4.36-14.128-4.33-21.521-.06-7.37 1.45-14.669 4.45-21.404 2.79-6.449 6.83-12.281 11.89-17.159s11.04-8.706 17.58-11.263c6.77-2.725 13.99-4.116 21.29-4.093 7.29-.032 14.52 1.359 21.29 4.093 6.6 2.762 12.62 6.729 17.77 11.697 4.95 4.945 8.92 10.778 11.7 17.193 2.91 6.798 4.39 14.125 4.33 21.521.1 7.275-1.33 14.489-4.21 21.17z"/><path d="m2368.58 302.055c17.8.169 35.46-3.046 52.05-9.474 15.44-5.998 29.55-14.98 41.52-26.434 11.58-11.246 20.8-24.685 27.14-39.533 12.96-31.426 12.96-66.705 0-98.131-6.26-14.893-15.45-28.376-27.02-39.6497-11.92-11.4872-25.99-20.5096-41.41-26.5503-16.66-6.4731-34.4-9.7276-52.28-9.5909-17.83-.1847-35.53 3.0306-52.16 9.4739-15.21 5.8666-29.08 14.7291-40.79 26.0611-11.72 11.332-21.03 24.9029-27.4 39.9049-6.62 15.485-9.96 32.169-9.83 49.007-.15 16.817 3.11 33.489 9.59 49.007 6.29 15.075 15.56 28.721 27.26 40.118s25.58 20.309 40.82 26.2c16.71 6.439 34.48 9.692 52.4 9.591zm-38.95-86.084c-4.94-4.95-8.9-10.782-11.69-17.194-2.95-6.787-4.42-14.122-4.33-21.521-.06-7.37 1.45-14.668 4.44-21.404 2.8-6.449 6.84-12.28 11.9-17.159 5.06-4.878 11.03-8.706 17.58-11.262 6.73-2.714 13.91-4.104 21.17-4.094 7.29-.022 14.52 1.368 21.29 4.094 6.6 2.762 12.63 6.728 17.77 11.696 4.95 4.946 8.92 10.778 11.7 17.193 2.9 6.801 4.38 14.127 4.33 21.521.06 7.37-1.45 14.669-4.45 21.404-2.75 6.396-6.73 12.195-11.69 17.077-5.12 5.007-11.16 8.979-17.78 11.696-6.74 2.677-13.92 4.027-21.17 3.976-7.29.06-14.52-1.29-21.29-3.976-6.66-2.813-12.7-6.907-17.78-12.047z"/><path d="m2711.28 95.1572c-10.55-10.879-23.05-19.6859-36.84-25.9655-14.31-6.5467-29.88-9.8992-45.62-9.8248h-92.86v236.9641h92.75c15.81.079 31.45-3.273 45.84-9.824 13.9-6.223 26.48-15.035 37.08-25.966 10.63-10.872 19.05-23.702 24.8-37.779 6.04-14.16 9.14-29.4 9.12-44.796.04-15.51-3.07-30.867-9.12-45.147-5.88-14.058-14.42-26.847-25.15-37.6618zm-44.91 105.2658c-2.32 6.365-5.99 12.152-10.76 16.959-4.92 5.087-10.86 9.073-17.43 11.696-7.73 2.764-15.89 4.149-24.09 4.094h-5.97v-109.71h5.85c7.99-.019 15.91 1.407 23.39 4.211 6.48 2.472 12.35 6.312 17.22 11.256 4.86 4.945 8.6 10.879 10.97 17.399 2.71 7.052 4.06 14.553 3.98 22.106.24 7.382-.83 14.748-3.16 21.755z"/><path d="m1923.19 195.975c1.09-10.921 1.59-21.892 1.52-32.866v-7.369h-130.18v51.931h49.36c-2.08 8.755-7.12 16.522-14.27 21.989-3.57 2.335-7.53 3.999-11.69 4.912-12.37 3.042-25.37 2.142-37.2-2.573-6.05-2.587-11.39-6.6-15.55-11.696-4.42-5.422-7.72-11.662-9.71-18.363-2.26-7.828-3.37-15.946-3.28-24.094-.15-8.818 1.2-17.597 3.98-25.965 2.2-7.041 5.74-13.593 10.41-19.299 4.24-5.018 9.56-9.015 15.56-11.696 6.43-2.873 13.42-4.31 20.46-4.211 8.3-.072 16.43 2.287 23.4 6.784 4.35 3.149 8.05 7.123 10.87 11.696l67.37-29.708c-9.15-15.3432-22.02-28.1342-37.42-37.1941-19.72-10.991-42-16.5603-64.57-16.1407-17.53-.287-34.95 2.7695-51.34 9.006-14.87 5.6296-28.4 14.2706-39.77 25.3807-11.23 11.1065-19.93 24.5131-25.5 39.2991-6.12 16.053-9.17 33.113-9 50.294-.3 17.266 2.76 34.426 9 50.527 5.66 14.78 14.3 28.236 25.38 39.533 11.1 11.247 24.46 20.016 39.19 25.732 15.91 6.221 32.86 9.356 49.94 9.24 12.72.055 25.38-1.597 37.66-4.913 11.75-3.209 22.98-8.094 33.33-14.503 10.23-6.462 19.28-14.608 26.79-24.094 7.77-9.891 13.85-20.995 18.01-32.866 3.6-9.254 6.04-18.919 7.25-28.773z"/><path d="m321.871 56.9099c-1.286 11.6962-2.222 19.1817-2.339 19.1817l-4.21 27.7204-7.486 64.445-38.363-21.52c-6.128-3.461-12.891-5.649-19.884-6.433-10.322-1.23-20.779.597-30.072 5.254-9.294 4.657-17.016 11.94-22.21 20.945l-16.141 28.071s-27.603-39.065-55.439-42.808c24.27-28.616 54.259-51.8383 88.039-68.1743 33.78-16.3361 70.604-25.4246 108.105-26.6818z" opacity=".6"/><path d="m210.992 563.702c-37.421-19.029-69.87-46.553-94.749-80.368-24.8793-33.816-41.4989-72.985-48.5291-114.374l30.41 5.732c29.5511 5.658 57.8901 16.424 83.7441 31.813 12.632 7.252 23.393 13.919 25.732 15.439l9.942 7.603c16.172 12.277 34.443 21.511 53.919 27.252 0 0-34.153 60.82-60.469 106.903z" opacity=".6"/><path d="m593.806 380.535c-8.774 41.479-27.342 80.258-54.153 113.102l-3.743 5.029c0-1.287-49.241-178.133-49.241-177.899l7.953-153.921c-.525-4.33-2.42-8.378-5.408-11.555-2.987-3.176-6.911-5.316-11.2-6.107h-1.638c-3.989-.51-8.04.173-11.641 1.963-3.601 1.791-6.591 4.608-8.593 8.096l-29.474 49.592-41.639-146.6702h2.807c34.432 7.3743 67.074 21.4599 96.061 41.4522 28.987 19.992 53.751 45.499 72.878 75.064s32.242 62.608 38.596 97.243 5.822 70.182-1.565 104.611z" opacity=".6"/></g></svg>