<?xml version="1.0" encoding="UTF-8" standalone="no"?>
<svg width="1369px" height="612px" viewBox="0 0 1369 612" version="1.1" xmlns="http://www.w3.org/2000/svg" xmlns:xlink="http://www.w3.org/1999/xlink" xmlns:sketch="http://www.bohemiancoding.com/sketch/ns">
    <!-- Generator: Sketch 3.2.2 (9983) - http://www.bohemiancoding.com/sketch -->
    <title>clouds-1</title>
    <desc>Created with Sketch.</desc>
    <defs></defs>
    <g id="The-view" stroke="none" stroke-width="1" fill="none" fill-rule="evenodd" sketch:type="MSPage">
        <g id="DAY" sketch:type="MSArtboardGroup" transform="translate(-71.000000, -52.000000)" fill="#FFFFFF">
            <g id="clouds-1" sketch:type="MSLayerGroup" transform="translate(71.000000, 52.000000)">
                <g id="Rectangle-54-+-Rectangle-52-+-Rectangle-60" transform="translate(868.000000, 588.000000)" sketch:type="MSShapeGroup">
                    <path d="M0.174204799,23.5124568 C0.174204799,21.2547001 1.72959212,18.4794258 3.74689084,17.4697688 C3.74689084,17.4697688 5.40446833,15.7915928 10.6347312,15.7915928 C15.8649942,15.7915928 17.5225713,17.4697688 17.5225713,17.4697688 C19.4957111,18.5492966 21.0952569,21.2448327 21.0952569,23.5124568 L21.0952569,23.9643607 L0.174204799,23.9643607 L0.174204799,23.5124568 Z" id="Rectangle-54"></path>
                    <path d="M15.3932858,10.4527368 C20.3279459,4.19421511 25.9075089,0.473749029 30.5665581,0.473749029 C35.131784,0.473749029 40.4185485,4.87056084 44.8199299,10.4527368 C49.2213113,16.0349128 49.0882139,23.9643607 49.0882139,23.9643607 L12.0449024,23.9643607 C12.0449024,23.9643607 10.4586257,16.7112585 15.3932858,10.4527368 Z" id="Rectangle-52"></path>
                    <path d="M41.3365161,15.3474391 C43.1315658,11.9794801 45.1102675,8.1987305 51.7401784,8.1987305 C58.3700894,8.1987305 61.5103299,12.8794859 62.9874623,16.0815457 C64.4645947,19.2836055 65,23.9643607 65,23.9643607 L38.4803565,23.9643607 C38.4803565,23.9643607 39.5414665,18.715398 41.3365161,15.3474391 Z" id="Rectangle-53"></path>
                </g>
                <g id="Rectangle-54-+-Rectangle-52-+-Rectangle-92" transform="translate(1144.000000, 500.000000)" sketch:type="MSShapeGroup">
                    <path d="M0.174204799,25.4631696 C0.174204799,22.9771698 1.85089744,19.8476213 4.03582932,18.6697811 C4.03582932,18.6697811 5.40446833,16.9617811 10.6347312,16.9617811 C15.8649942,16.9617811 17.2336328,18.6697811 17.2336328,18.6697811 C19.3663489,19.9356662 21.0952569,22.9806992 21.0952569,25.4631696 L21.0952569,25.9607579 L0.174204799,25.9607579 L0.174204799,25.4631696 Z" id="Rectangle-54"></path>
                    <path d="M15.3932858,11.0832047 C20.3279459,4.19199096 25.9075089,0.0954121821 30.5665581,0.0954121821 C35.131784,0.0954121821 40.4185485,4.93671044 44.8199299,11.0832047 C49.2213113,17.229699 49.0882139,25.9607579 49.0882139,25.9607579 L12.0449024,25.9607579 C12.0449024,25.9607579 10.4586257,17.9744185 15.3932858,11.0832047 Z" id="Rectangle-52"></path>
                    <path d="M41.3365161,16.4727266 C43.1315658,12.764291 45.1102675,8.6013344 51.7401784,8.6013344 C58.3700894,8.6013344 61.5103299,13.7552809 62.9874623,17.2810462 C64.4645947,20.8068115 65,25.9607579 65,25.9607579 L38.4803565,25.9607579 C38.4803565,25.9607579 39.5414665,20.1811623 41.3365161,16.4727266 Z" id="Rectangle-53"></path>
                </g>
                <g id="Rectangle-54-+-Rectangle-52-+-Rectangle-67" transform="translate(200.000000, 438.000000)" sketch:type="MSShapeGroup">
                    <path d="M0.101842806,13.7155998 C0.101842806,12.3985751 1.02113842,10.774133 2.19049003,10.1906985 C2.19049003,10.1906985 3.15953533,9.21176246 6.2172275,9.21176246 C9.27491966,9.21176246 10.2439647,10.1906985 10.2439647,10.1906985 C11.3974926,10.820423 12.3326117,12.4080785 12.3326117,13.7155998 L12.3326117,13.9792104 L0.101842806,13.9792104 L0.101842806,13.7155998 Z" id="Rectangle-54"></path>
                    <path d="M8.99915168,6.0974298 C11.8840299,2.44662548 15.1459283,0.2763536 17.8696801,0.2763536 C20.5385814,0.2763536 23.6293053,2.84116049 26.2024205,6.0974298 C28.7755358,9.35369911 28.6977251,13.9792104 28.6977251,13.9792104 L7.04163523,13.9792104 C7.04163523,13.9792104 6.11427346,9.74823412 8.99915168,6.0974298 Z" id="Rectangle-52"></path>
                    <path d="M24.1659633,8.9526728 C25.2153769,6.98803008 26.3721564,4.78259279 30.2481043,4.78259279 C34.1240522,4.78259279 35.9598852,7.51303343 36.8234395,9.38090164 C37.6869938,11.2487699 38,13.9792104 38,13.9792104 L22.4962084,13.9792104 C22.4962084,13.9792104 23.1165497,10.9173155 24.1659633,8.9526728 Z" id="Rectangle-53"></path>
                </g>
                <g id="Rectangle-54-+-Rectangle-52-+-Rectangle-83" transform="translate(1289.408026, 115.651042)" sketch:type="MSShapeGroup">
                    <path d="M0.0938025843,12.7359141 C0.0938025843,11.5129626 0.940522226,10.0045521 2.03035653,9.45704248 C2.03035653,9.45704248 2.91009833,8.55377943 5.72639375,8.55377943 C8.54268916,8.55377943 9.42243076,9.45704248 9.42243076,9.45704248 C10.4919598,10.0449617 11.3589845,11.5217872 11.3589845,12.7359141 L11.3589845,12.9806954 L0.0938025843,12.9806954 L0.0938025843,12.7359141 Z" id="Rectangle-54"></path>
                    <path d="M8.28869233,5.6618991 C10.945817,2.27186652 13.9501971,0.256614057 16.4589159,0.256614057 C18.9171144,0.256614057 21.7638338,2.63822046 24.1338084,5.6618991 C26.503783,8.68557774 26.4321152,12.9806954 26.4321152,12.9806954 L6.48571666,12.9806954 C6.48571666,12.9806954 5.63156766,9.05193168 8.28869233,5.6618991 Z" id="Rectangle-52"></path>
                    <path d="M22.2581241,8.31319617 C23.2246893,6.48888507 24.290144,4.44097902 27.8600961,4.44097902 C31.4300481,4.44097902 33.1209469,6.97638818 33.9163258,8.71083724 C34.7117048,10.4452863 35,12.9806954 35,12.9806954 L20.720192,12.9806954 C20.720192,12.9806954 21.2915589,10.1375073 22.2581241,8.31319617 Z" id="Rectangle-53"></path>
                </g>
                <g id="Rectangle-54-+-Rectangle-52-+-Rectangle-76" transform="translate(1124.440571, 115.651042)" sketch:type="MSShapeGroup">
                    <path d="M0.174204799,23.5124568 C0.174204799,21.2547001 1.72959212,18.4794258 3.74689084,17.4697688 C3.74689084,17.4697688 5.40446833,15.7915928 10.6347312,15.7915928 C15.8649942,15.7915928 17.5225713,17.4697688 17.5225713,17.4697688 C19.4957111,18.5492966 21.0952569,21.2448327 21.0952569,23.5124568 L21.0952569,23.9643607 L0.174204799,23.9643607 L0.174204799,23.5124568 Z" id="Rectangle-54"></path>
                    <path d="M15.3932858,10.4527368 C20.3279459,4.19421511 25.9075089,0.473749029 30.5665581,0.473749029 C35.131784,0.473749029 40.4185485,4.87056084 44.8199299,10.4527368 C49.2213113,16.0349128 49.0882139,23.9643607 49.0882139,23.9643607 L12.0449024,23.9643607 C12.0449024,23.9643607 10.4586257,16.7112585 15.3932858,10.4527368 Z" id="Rectangle-52"></path>
                    <path d="M41.3365161,15.3474391 C43.1315658,11.9794801 45.1102675,8.1987305 51.7401784,8.1987305 C58.3700894,8.1987305 61.5103299,12.8794859 62.9874623,16.0815457 C64.4645947,19.2836055 65,23.9643607 65,23.9643607 L38.4803565,23.9643607 C38.4803565,23.9643607 39.5414665,18.715398 41.3365161,15.3474391 Z" id="Rectangle-53"></path>
                </g>
                <g id="Rectangle-54-+-Rectangle-52-+-Rectangle-66" transform="translate(1304.000000, 308.000000)" sketch:type="MSShapeGroup">
                    <path d="M0.174204799,23.5124568 C0.174204799,21.2547001 1.72959212,18.4794258 3.74689084,17.4697688 C3.74689084,17.4697688 5.40446833,15.7915928 10.6347312,15.7915928 C15.8649942,15.7915928 17.5225713,17.4697688 17.5225713,17.4697688 C19.4957111,18.5492966 21.0952569,21.2448327 21.0952569,23.5124568 L21.0952569,23.9643607 L0.174204799,23.9643607 L0.174204799,23.5124568 Z" id="Rectangle-54"></path>
                    <path d="M15.3932858,10.4527368 C20.3279459,4.19421511 25.9075089,0.473749029 30.5665581,0.473749029 C35.131784,0.473749029 40.4185485,4.87056084 44.8199299,10.4527368 C49.2213113,16.0349128 49.0882139,23.9643607 49.0882139,23.9643607 L12.0449024,23.9643607 C12.0449024,23.9643607 10.4586257,16.7112585 15.3932858,10.4527368 Z" id="Rectangle-52"></path>
                    <path d="M41.3365161,15.3474391 C43.1315658,11.9794801 45.1102675,8.1987305 51.7401784,8.1987305 C58.3700894,8.1987305 61.5103299,12.8794859 62.9874623,16.0815457 C64.4645947,19.2836055 65,23.9643607 65,23.9643607 L38.4803565,23.9643607 C38.4803565,23.9643607 39.5414665,18.715398 41.3365161,15.3474391 Z" id="Rectangle-53"></path>
                </g>
                <g id="Rectangle-54-+-Rectangle-52-+-Rectangle-79" transform="translate(854.022026, 204.651042)" sketch:type="MSShapeGroup">
                    <path d="M0.0938025843,12.7359141 C0.0938025843,11.5129626 0.940522226,10.0045521 2.03035653,9.45704248 C2.03035653,9.45704248 2.91009833,8.55377943 5.72639375,8.55377943 C8.54268916,8.55377943 9.42243076,9.45704248 9.42243076,9.45704248 C10.4919598,10.0449617 11.3589845,11.5217872 11.3589845,12.7359141 L11.3589845,12.9806954 L0.0938025843,12.9806954 L0.0938025843,12.7359141 Z" id="Rectangle-54"></path>
                    <path d="M8.28869233,5.6618991 C10.945817,2.27186652 13.9501971,0.256614057 16.4589159,0.256614057 C18.9171144,0.256614057 21.7638338,2.63822046 24.1338084,5.6618991 C26.503783,8.68557774 26.4321152,12.9806954 26.4321152,12.9806954 L6.48571666,12.9806954 C6.48571666,12.9806954 5.63156766,9.05193168 8.28869233,5.6618991 Z" id="Rectangle-52"></path>
                    <path d="M22.2581241,8.31319617 C23.2246893,6.48888507 24.290144,4.44097902 27.8600961,4.44097902 C31.4300481,4.44097902 33.1209469,6.97638818 33.9163258,8.71083724 C34.7117048,10.4452863 35,12.9806954 35,12.9806954 L20.720192,12.9806954 C20.720192,12.9806954 21.2915589,10.1375073 22.2581241,8.31319617 Z" id="Rectangle-53"></path>
                </g>
                <g id="Rectangle-54-+-Rectangle-52-+-Rectangle-77" transform="translate(47.000000, 230.694255)" sketch:type="MSShapeGroup">
                    <path d="M0.186868695,26.5361841 C0.186868695,23.9880775 1.92917433,20.8129044 4.18609675,19.6386422 C4.18609675,19.6386422 5.79734857,17.8224087 11.4078278,17.8224087 C17.018307,17.8224087 18.6295584,19.6386422 18.6295584,19.6386422 C20.8382708,20.8999428 22.628786,23.9916951 22.628786,26.5361841 L22.628786,27.0462034 L0.186868695,27.0462034 L0.186868695,26.5361841 Z" id="Rectangle-54"></path>
                    <path d="M16.5123075,11.79697 C21.8056949,4.7335957 27.7908668,0.534673665 32.7886077,0.534673665 C37.6857046,0.534673665 43.3567929,5.49692022 48.0781346,11.79697 C52.7994764,18.0970198 52.6567035,27.0462034 52.6567035,27.0462034 L12.9205119,27.0462034 C12.9205119,27.0462034 11.2189201,18.8603444 16.5123075,11.79697 Z" id="Rectangle-52"></path>
                    <path d="M44.3414926,17.3211363 C46.2670341,13.5200542 48.3895784,9.25309609 55.5014537,9.25309609 C62.613329,9.25309609 65.9818507,14.5358017 67.5663639,18.1496498 C69.1508771,21.763498 69.7252039,27.0462034 69.7252039,27.0462034 L41.2777032,27.0462034 C41.2777032,27.0462034 42.415951,21.1222184 44.3414926,17.3211363 Z" id="Rectangle-53"></path>
                </g>
                <g id="Rectangle-54-+-Rectangle-52-+-Rectangle-70" transform="translate(541.204447, 56.151042)" sketch:type="MSShapeGroup">
                    <path d="M0.0938025843,12.7359141 C0.0938025843,11.5129626 0.940522226,10.0045521 2.03035653,9.45704248 C2.03035653,9.45704248 2.91009833,8.55377943 5.72639375,8.55377943 C8.54268916,8.55377943 9.42243076,9.45704248 9.42243076,9.45704248 C10.4919598,10.0449617 11.3589845,11.5217872 11.3589845,12.7359141 L11.3589845,12.9806954 L0.0938025843,12.9806954 L0.0938025843,12.7359141 Z" id="Rectangle-54"></path>
                    <path d="M8.28869233,5.6618991 C10.945817,2.27186652 13.9501971,0.256614057 16.4589159,0.256614057 C18.9171144,0.256614057 21.7638338,2.63822046 24.1338084,5.6618991 C26.503783,8.68557774 26.4321152,12.9806954 26.4321152,12.9806954 L6.48571666,12.9806954 C6.48571666,12.9806954 5.63156766,9.05193168 8.28869233,5.6618991 Z" id="Rectangle-52"></path>
                    <path d="M22.2581241,8.31319617 C23.2246893,6.48888507 24.290144,4.44097902 27.8600961,4.44097902 C31.4300481,4.44097902 33.1209469,6.97638818 33.9163258,8.71083724 C34.7117048,10.4452863 35,12.9806954 35,12.9806954 L20.720192,12.9806954 C20.720192,12.9806954 21.2915589,10.1375073 22.2581241,8.31319617 Z" id="Rectangle-53"></path>
                </g>
                <g id="Rectangle-54-+-Rectangle-52-+-Rectangle-87" transform="translate(1024.000000, 0.000000)" sketch:type="MSShapeGroup">
                    <path d="M0.0938025843,12.7359141 C0.0938025843,11.5129626 0.940522226,10.0045521 2.03035653,9.45704248 C2.03035653,9.45704248 2.91009833,8.55377943 5.72639375,8.55377943 C8.54268916,8.55377943 9.42243076,9.45704248 9.42243076,9.45704248 C10.4919598,10.0449617 11.3589845,11.5217872 11.3589845,12.7359141 L11.3589845,12.9806954 L0.0938025843,12.9806954 L0.0938025843,12.7359141 Z" id="Rectangle-54"></path>
                    <path d="M8.28869233,5.6618991 C10.945817,2.27186652 13.9501971,0.256614057 16.4589159,0.256614057 C18.9171144,0.256614057 21.7638338,2.63822046 24.1338084,5.6618991 C26.503783,8.68557774 26.4321152,12.9806954 26.4321152,12.9806954 L6.48571666,12.9806954 C6.48571666,12.9806954 5.63156766,9.05193168 8.28869233,5.6618991 Z" id="Rectangle-52"></path>
                    <path d="M22.2581241,8.31319617 C23.2246893,6.48888507 24.290144,4.44097902 27.8600961,4.44097902 C31.4300481,4.44097902 33.1209469,6.97638818 33.9163258,8.71083724 C34.7117048,10.4452863 35,12.9806954 35,12.9806954 L20.720192,12.9806954 C20.720192,12.9806954 21.2915589,10.1375073 22.2581241,8.31319617 Z" id="Rectangle-53"></path>
                </g>
                <g id="Rectangle-54-+-Rectangle-52-+-Rectangle-75" transform="translate(0.000000, 93.151042)" sketch:type="MSShapeGroup">
                    <path d="M0.101842806,13.7155998 C0.101842806,12.3985751 1.02113842,10.774133 2.19049003,10.1906985 C2.19049003,10.1906985 3.15953533,9.21176246 6.2172275,9.21176246 C9.27491966,9.21176246 10.2439647,10.1906985 10.2439647,10.1906985 C11.3974926,10.820423 12.3326117,12.4080785 12.3326117,13.7155998 L12.3326117,13.9792104 L0.101842806,13.9792104 L0.101842806,13.7155998 Z" id="Rectangle-54"></path>
                    <path d="M8.99915168,6.0974298 C11.8840299,2.44662548 15.1459283,0.2763536 17.8696801,0.2763536 C20.5385814,0.2763536 23.6293053,2.84116049 26.2024205,6.0974298 C28.7755358,9.35369911 28.6977251,13.9792104 28.6977251,13.9792104 L7.04163523,13.9792104 C7.04163523,13.9792104 6.11427346,9.74823412 8.99915168,6.0974298 Z" id="Rectangle-52"></path>
                    <path d="M24.1659633,8.9526728 C25.2153769,6.98803008 26.3721564,4.78259279 30.2481043,4.78259279 C34.1240522,4.78259279 35.9598852,7.51303343 36.8234395,9.38090164 C37.6869938,11.2487699 38,13.9792104 38,13.9792104 L22.4962084,13.9792104 C22.4962084,13.9792104 23.1165497,10.9173155 24.1659633,8.9526728 Z" id="Rectangle-53"></path>
                </g>
            </g>
        </g>
    </g>
</svg>