<?xml version="1.0" encoding="UTF-8" standalone="no"?>
<svg width="1440px" height="908px" viewBox="0 0 1440 908" version="1.1" xmlns="http://www.w3.org/2000/svg" xmlns:xlink="http://www.w3.org/1999/xlink" xmlns:sketch="http://www.bohemiancoding.com/sketch/ns">
    <!-- Generator: Sketch 3.2.2 (9983) - http://www.bohemiancoding.com/sketch -->
    <title>background-mountains 3</title>
    <desc>Created with Sketch.</desc>
    <defs>
        <rect id="path-1" x="0" y="0" width="1500" height="968"></rect>
    </defs>
    <g id="The-view" stroke="none" stroke-width="1" fill="none" fill-rule="evenodd" sketch:type="MSPage">
        <g id="DAY" sketch:type="MSArtboardGroup" transform="translate(0.000000, -5165.000000)">
            <g id="background-mountains-3" sketch:type="MSLayerGroup" transform="translate(-36.000000, 5105.000000)">
                <mask id="mask-2" sketch:name="Mask" fill="white">
                    <use xlink:href="#path-1"></use>
                </mask>
                <use id="Mask" sketch:type="MSShapeGroup" xlink:href="#path-1"></use>
                <g id="background-mountains" mask="url(#mask-2)" sketch:type="MSShapeGroup">
                    <g transform="translate(-213.000000, 60.000000)">
                        <path d="M1024,578.873786 L1153,468.08932 L1307.79687,251.046738 L1374.77734,134.843128 L1429.10156,92.4139563 L1502.28906,0.768037015 L1602.87109,62.3357555 L1664.95702,152.82767 L1768.84765,217.45584 L1831.86327,288.477822 L1984.83984,521.5946 L1806,638.757282 L1526,675.685437 L1222,660.714563 L1024,578.873786 Z" id="Rectangle-31" fill="#BFEADC"></path>
                        <path d="M1633.76952,107.018356 L1585.4414,99.5875 L1555.33984,88.0045661 L1523.42577,118.566201 L1479.16797,123.712439 L1419.08594,145.942627 L1374.77734,134.843128 L1429.10156,92.4139563 L1502.28906,0.768037015 L1602.87109,62.3357555 L1633.76952,107.018356 Z" id="Rectangle-33" fill="#F3FCF9"></path>
                        <path d="M525.205078,477.44525 L739.001953,378.785633 L805.982422,262.582022 L860.30664,220.15285 L868.372401,210.049805 L933.49414,128.506931 L1034.07617,190.07465 L1096.16211,280.566564 L1200.05273,345.194735 L1263.06836,416.216716 L1416.04492,649.333494 L925.482422,738.051515 L688.205078,668.206931 L525.205078,477.44525 Z" id="Rectangle-32" fill="#BFEADC"></path>
                        <path d="M1047.64843,210.172268 L1034.07617,229.288595 L993.289062,210.172268 L954.582032,224.883104 L926.445313,205.163656 L902.222656,219.810941 L868.369995,210.049805 L885.317239,188.834397 L933.49414,128.506931 L1034.07617,190.07465 L1047.64843,210.172268 Z" id="Rectangle-34" fill="#F3FCF9"></path>
                        <path d="M0.2050778,495.682144 L214.001953,397.022526 L280.982422,280.818915 L335.30664,238.389744 L344.440002,226.959961 L408.49414,146.743824 L509.076172,208.311543 L571.162109,298.803457 L675.052734,363.431628 L738.068359,434.453609 L891.044922,667.570387 L400.482422,756.288409 L163.205078,686.443824 L0.2050778,495.682144 Z" id="Rectangle-36" fill="#BFEADC"></path>
                        <path d="M522.648431,228.409161 L509.076165,247.525488 L468.289062,228.409161 L429.582032,243.119997 L401.445313,223.400549 L377.222656,238.047834 L344.440002,226.959961 L360.317239,207.071291 L408.49414,146.743824 L509.076172,208.311543 L522.648431,228.409161 Z" id="Rectangle-35" fill="#F3FCF9"></path>
                        <path d="M1581.1337,221.11894 C1707.53929,221.11894 1810,987.001942 1810,987.001942 L1357,987.001942 C1357,987.001942 1454.72811,221.11894 1581.1337,221.11894 Z" id="Rectangle-101" fill="#C8EBD0"></path>
                        <path d="M378.777349,271.947785 C522.000006,361.219417 519.812506,358.311013 525.000006,292.353398 C530.187506,226.395783 597.424094,98.7300971 638.866299,98.7300971 C794.514797,98.7300971 876.000006,986.003883 876.000006,986.003883 L177.769543,986.003879 C177.769543,986.003879 216.71801,170.935123 378.777349,271.947785 Z" id="Rectangle-104" fill="#C8EBD0"></path>
                        <path d="M910.647656,272.071829 C1002.74163,241.753451 1042.17577,447.025138 1066.86718,402.751901 C1091.55858,358.478664 1101.23159,104.43591 1216.83207,187.260587 C1332.43255,270.085264 1493,987.142473 1493,987.142473 L776.714292,987.142466 C776.714292,987.142466 798.67891,308.933204 910.647656,272.071829 Z" id="Rectangle-106" fill="#C8EBD0"></path>
                        <path d="M925.845296,265.737314 C979.020893,265.737314 1015.77656,345.959323 1015.77656,345.959323 C1015.77656,345.959323 978.512382,362.872798 956.719406,340.755755 C934.92643,318.638712 909.684164,301.244932 896.965504,319.375392 C865.051439,364.868914 846.660957,383.384705 846.660957,383.384705 C846.660957,383.384705 872.669698,265.737314 925.845296,265.737314 Z" id="Rectangle-105" fill="#F3FFF7"></path>
                        <path d="M1173.4609,168.367335 C1226.6365,168.367335 1251.32735,227.993762 1251.32735,227.993762 C1251.32735,227.993762 1235.08516,236.371749 1235.08516,274.847675 C1235.08516,313.3236 1183.06664,264.357221 1161.72578,251.019034 C1133.78047,233.553014 1096.27656,288.010842 1096.27656,288.010842 C1096.27656,288.010842 1120.28531,168.367335 1173.4609,168.367335 Z" id="Rectangle-107" fill="#F3FFF7"></path>
                        <path d="M633.771929,95.7359223 C697.22731,95.7359223 724.000001,193.545631 724.000001,193.545631 C724.000001,193.545631 696.048371,133.611453 665.410149,156.621374 C634.771928,179.631296 644.071397,167.026911 606.000001,180.570874 C567.928605,194.114836 542.000001,228.47767 542.000001,228.47767 C542.000001,228.47767 570.316548,95.7359223 633.771929,95.7359223 Z" id="Rectangle-103" fill="#F3FFF7"></path>
                        <path d="M1579.35618,221.11894 C1630.8897,221.11894 1654,300.337864 1654,300.337864 C1654,300.337864 1628.8263,290.76297 1604.0826,287.494201 C1584.5349,284.911848 1585.56329,299.51802 1573.82303,297.587703 C1571.68081,297.235481 1552.36048,275.810782 1550.16322,276.646197 C1520.68131,287.855425 1496,332.275728 1496,332.275728 C1496,332.275728 1527.82266,221.11894 1579.35618,221.11894 Z" id="Rectangle-102" fill="#F3FFF7"></path>
                        <path d="M340.128143,258.617481 C393.30374,258.617481 464.171877,325.254233 464.171877,325.254233 C464.171877,325.254233 431.096675,315.965511 409.796877,317.441175 C388.49708,318.916839 378.620705,352.340556 368.953127,342.529218 C347.160151,320.412175 323.967011,294.125099 311.248351,312.255559 C279.334286,357.749081 267,377.999996 267,377.999996 C267,377.999996 286.952545,258.617481 340.128143,258.617481 Z" id="Rectangle-108" fill="#F3FFF7"></path>
                    </g>
                </g>
            </g>
        </g>
    </g>
</svg>