<?xml version="1.0" encoding="UTF-8" standalone="no"?>
<svg width="1290px" height="535px" viewBox="0 0 1290 535" version="1.1" xmlns="http://www.w3.org/2000/svg" xmlns:xlink="http://www.w3.org/1999/xlink" xmlns:sketch="http://www.bohemiancoding.com/sketch/ns">
    <!-- Generator: Sketch 3.2.2 (9983) - http://www.bohemiancoding.com/sketch -->
    <title>clouds-2</title>
    <desc>Created with Sketch.</desc>
    <defs></defs>
    <g id="The-view" stroke="none" stroke-width="1" fill="none" fill-rule="evenodd" sketch:type="MSPage">
        <g id="DAY" sketch:type="MSArtboardGroup" transform="translate(-71.000000, -65.000000)" fill="#FFFFFF">
            <g id="clouds-2" sketch:type="MSLayerGroup" transform="translate(71.000000, 65.000000)">
                <g id="Rectangle-54-+-Rectangle-52-+-Rectangle-54" transform="translate(465.000000, 321.000000)" sketch:type="MSShapeGroup">
                    <path d="M0.174204799,23.5124568 C0.174204799,21.2547001 1.72959212,18.4794258 3.74689084,17.4697688 C3.74689084,17.4697688 5.40446833,15.7915928 10.6347312,15.7915928 C15.8649942,15.7915928 17.5225713,17.4697688 17.5225713,17.4697688 C19.4957111,18.5492966 21.0952569,21.2448327 21.0952569,23.5124568 L21.0952569,23.9643607 L0.174204799,23.9643607 L0.174204799,23.5124568 Z" id="Rectangle-54"></path>
                    <path d="M15.3932858,10.4527368 C20.3279459,4.19421511 25.9075089,0.473749029 30.5665581,0.473749029 C35.131784,0.473749029 40.4185485,4.87056084 44.8199299,10.4527368 C49.2213113,16.0349128 49.0882139,23.9643607 49.0882139,23.9643607 L12.0449024,23.9643607 C12.0449024,23.9643607 10.4586257,16.7112585 15.3932858,10.4527368 Z" id="Rectangle-52"></path>
                    <path d="M41.3365161,15.3474391 C43.1315658,11.9794801 45.1102675,8.1987305 51.7401784,8.1987305 C58.3700894,8.1987305 61.5103299,12.8794859 62.9874623,16.0815457 C64.4645947,19.2836055 65,23.9643607 65,23.9643607 L38.4803565,23.9643607 C38.4803565,23.9643607 39.5414665,18.715398 41.3365161,15.3474391 Z" id="Rectangle-53"></path>
                </g>
                <g id="Rectangle-54-+-Rectangle-52-+-Rectangle-85" transform="translate(68.569231, 487.000000)" sketch:type="MSShapeGroup">
                    <path d="M0.174204799,25.4631696 C0.174204799,22.9771698 1.85089744,19.8476213 4.03582932,18.6697811 C4.03582932,18.6697811 5.40446833,16.9617811 10.6347312,16.9617811 C15.8649942,16.9617811 17.2336328,18.6697811 17.2336328,18.6697811 C19.3663489,19.9356662 21.0952569,22.9806992 21.0952569,25.4631696 L21.0952569,25.9607579 L0.174204799,25.9607579 L0.174204799,25.4631696 Z" id="Rectangle-54"></path>
                    <path d="M15.3932858,11.0832047 C20.3279459,4.19199096 25.9075089,0.0954121821 30.5665581,0.0954121821 C35.131784,0.0954121821 40.4185485,4.93671044 44.8199299,11.0832047 C49.2213113,17.229699 49.0882139,25.9607579 49.0882139,25.9607579 L12.0449024,25.9607579 C12.0449024,25.9607579 10.4586257,17.9744185 15.3932858,11.0832047 Z" id="Rectangle-52"></path>
                    <path d="M41.3365161,16.4727266 C43.1315658,12.764291 45.1102675,8.6013344 51.7401784,8.6013344 C58.3700894,8.6013344 61.5103299,13.7552809 62.9874623,17.2810462 C64.4645947,20.8068115 65,25.9607579 65,25.9607579 L38.4803565,25.9607579 C38.4803565,25.9607579 39.5414665,20.1811623 41.3365161,16.4727266 Z" id="Rectangle-53"></path>
                </g>
                <g id="Rectangle-54-+-Rectangle-52-+-Rectangle-57" transform="translate(225.000000, 347.000000)" sketch:type="MSShapeGroup">
                    <path d="M0.203685612,27.4311996 C0.203685612,24.7971501 2.02229233,21.5593302 4.38098006,20.3813969 C4.38098006,20.3813969 6.31907067,18.4235249 12.434455,18.4235249 C18.5498393,18.4235249 20.4879295,20.3813969 20.4879295,20.3813969 C22.7949852,21.640846 24.6652234,24.8008897 24.6652234,27.4311996 L24.6652234,27.9584208 L0.203685612,27.9584208 L0.203685612,27.4311996 Z" id="Rectangle-54"></path>
                    <path d="M17.9983034,12.1948596 C23.7680598,4.89325096 30.2918566,0.5527072 35.7393603,0.5527072 C41.0771628,0.5527072 47.2586105,5.68232098 52.4048411,12.1948596 C57.5510717,18.7073982 57.3954501,27.9584208 57.3954501,27.9584208 L14.0832705,27.9584208 C14.0832705,27.9584208 12.2285469,19.4964682 17.9983034,12.1948596 Z" id="Rectangle-52"></path>
                    <path d="M48.3319266,17.9053456 C50.4307538,13.9760602 52.7443127,9.56518558 60.4962086,9.56518558 C68.2481045,9.56518558 71.9197703,15.0260669 73.646879,18.7618033 C75.3739876,22.4975397 76,27.9584208 76,27.9584208 L44.9924168,27.9584208 C44.9924168,27.9584208 46.2330993,21.8346311 48.3319266,17.9053456 Z" id="Rectangle-53"></path>
                </g>
                <g id="Rectangle-54-+-Rectangle-52-+-Rectangle-80" transform="translate(405.000000, 487.000000)" sketch:type="MSShapeGroup">
                    <path d="M0.32160886,47.0089286 C0.32160886,42.4193904 3.41704142,36.6417625 7.45076182,34.4672882 C7.45076182,34.4672882 9.97748,31.3140575 19.63335,31.3140575 C29.28922,31.3140575 31.8159375,34.4672882 31.8159375,34.4672882 C35.7532595,36.8043068 38.9450896,42.4259062 38.9450896,47.0089286 L38.9450896,47.927553 L0.32160886,47.927553 L0.32160886,47.0089286 Z" id="Rectangle-54"></path>
                    <path d="M28.4183737,20.461301 C37.5285154,7.73906023 47.8292473,0.176145567 56.4305689,0.176145567 C64.8586781,0.176145567 74.6188587,9.11392696 82.7444859,20.461301 C90.8701132,31.8086751 90.6243949,47.927553 90.6243949,47.927553 L22.2367428,47.927553 C22.2367428,47.927553 19.308232,33.1835418 28.4183737,20.461301 Z" id="Rectangle-52"></path>
                    <path d="M76.3135683,30.4111877 C79.627506,23.5648449 83.2804938,15.8793866 95.5203294,15.8793866 C107.760165,15.8793866 113.557532,25.3943647 116.284546,31.9034699 C119.011559,38.4125751 120,47.927553 120,47.927553 L71.0406582,47.927553 C71.0406582,47.927553 72.9996305,37.2575305 76.3135683,30.4111877 Z" id="Rectangle-53"></path>
                </g>
                <g id="Rectangle-54-+-Rectangle-52-+-Rectangle-90" transform="translate(854.937146, 405.000000)" sketch:type="MSShapeGroup">
                    <path d="M0.261307199,38.1947545 C0.261307199,34.4657547 2.77634615,29.771432 6.05374397,28.0046717 C6.05374397,28.0046717 8.1067025,25.4426717 15.9520969,25.4426717 C23.7974912,25.4426717 25.8504492,28.0046717 25.8504492,28.0046717 C29.0495234,29.9034993 31.6428853,34.4710488 31.6428853,38.1947545 L31.6428853,38.9411368 L0.261307199,38.9411368 L0.261307199,38.1947545 Z" id="Rectangle-54"></path>
                    <path d="M23.0899286,16.6248071 C30.4919188,6.28798643 38.8612634,0.143118273 45.8498372,0.143118273 C52.697676,0.143118273 60.6278227,7.40506565 67.2298948,16.6248071 C73.8319669,25.8445485 73.6323209,38.9411368 73.6323209,38.9411368 L18.0673535,38.9411368 C18.0673535,38.9411368 15.6879385,26.9616278 23.0899286,16.6248071 Z" id="Rectangle-52"></path>
                    <path d="M62.0047742,24.70909 C64.6973486,19.1464364 67.6654012,12.9020016 77.6102676,12.9020016 C87.5551341,12.9020016 92.2654948,20.6329213 94.4811934,25.9215693 C96.696892,31.2102172 97.5,38.9411368 97.5,38.9411368 L57.7205348,38.9411368 C57.7205348,38.9411368 59.3121998,30.2717435 62.0047742,24.70909 Z" id="Rectangle-53"></path>
                </g>
                <g id="Rectangle-54-+-Rectangle-52-+-Rectangle-64" transform="translate(0.000000, 365.000000)" sketch:type="MSShapeGroup">
                    <path d="M0.101842806,13.7155998 C0.101842806,12.3985751 1.02113842,10.774133 2.19049003,10.1906985 C2.19049003,10.1906985 3.15953533,9.21176246 6.2172275,9.21176246 C9.27491966,9.21176246 10.2439647,10.1906985 10.2439647,10.1906985 C11.3974926,10.820423 12.3326117,12.4080785 12.3326117,13.7155998 L12.3326117,13.9792104 L0.101842806,13.9792104 L0.101842806,13.7155998 Z" id="Rectangle-54"></path>
                    <path d="M8.99915168,6.0974298 C11.8840299,2.44662548 15.1459283,0.2763536 17.8696801,0.2763536 C20.5385814,0.2763536 23.6293053,2.84116049 26.2024205,6.0974298 C28.7755358,9.35369911 28.6977251,13.9792104 28.6977251,13.9792104 L7.04163523,13.9792104 C7.04163523,13.9792104 6.11427346,9.74823412 8.99915168,6.0974298 Z" id="Rectangle-52"></path>
                    <path d="M24.1659633,8.9526728 C25.2153769,6.98803008 26.3721564,4.78259279 30.2481043,4.78259279 C34.1240522,4.78259279 35.9598852,7.51303343 36.8234395,9.38090164 C37.6869938,11.2487699 38,13.9792104 38,13.9792104 L22.4962084,13.9792104 C22.4962084,13.9792104 23.1165497,10.9173155 24.1659633,8.9526728 Z" id="Rectangle-53"></path>
                </g>
                <g id="Rectangle-54-+-Rectangle-52-+-Rectangle-82" transform="translate(721.000000, 264.000000)" sketch:type="MSShapeGroup">
                    <path d="M0.0938025843,12.7359141 C0.0938025843,11.5129626 0.940522226,10.0045521 2.03035653,9.45704248 C2.03035653,9.45704248 2.91009833,8.55377943 5.72639375,8.55377943 C8.54268916,8.55377943 9.42243076,9.45704248 9.42243076,9.45704248 C10.4919598,10.0449617 11.3589845,11.5217872 11.3589845,12.7359141 L11.3589845,12.9806954 L0.0938025843,12.9806954 L0.0938025843,12.7359141 Z" id="Rectangle-54"></path>
                    <path d="M8.28869233,5.6618991 C10.945817,2.27186652 13.9501971,0.256614057 16.4589159,0.256614057 C18.9171144,0.256614057 21.7638338,2.63822046 24.1338084,5.6618991 C26.503783,8.68557774 26.4321152,12.9806954 26.4321152,12.9806954 L6.48571666,12.9806954 C6.48571666,12.9806954 5.63156766,9.05193168 8.28869233,5.6618991 Z" id="Rectangle-52"></path>
                    <path d="M22.2581241,8.31319617 C23.2246893,6.48888507 24.290144,4.44097902 27.8600961,4.44097902 C31.4300481,4.44097902 33.1209469,6.97638818 33.9163258,8.71083724 C34.7117048,10.4452863 35,12.9806954 35,12.9806954 L20.720192,12.9806954 C20.720192,12.9806954 21.2915589,10.1375073 22.2581241,8.31319617 Z" id="Rectangle-53"></path>
                </g>
                <g id="Rectangle-54-+-Rectangle-52-+-Rectangle-81" transform="translate(322.051049, 159.348308)" sketch:type="MSShapeGroup">
                    <path d="M0.115243175,15.6749712 C0.115243175,14.1698001 1.15549873,12.3132949 2.49443802,11.6394369 C2.49443802,11.6394369 3.57526367,10.5277285 7.03528375,10.5277285 C10.4953038,10.5277285 11.5761292,11.6394369 11.5761292,11.6394369 C12.8901221,12.3630298 13.9553238,14.1632218 13.9553238,15.6749712 L13.9553238,15.9762405 L0.115243175,15.9762405 L0.115243175,15.6749712 Z" id="Rectangle-54"></path>
                    <path d="M10.1832506,6.9684912 C13.447718,2.79614341 17.1388136,0.315832686 20.2209538,0.315832686 C23.2410263,0.315832686 26.7384244,3.24704056 29.6501075,6.9684912 C32.5617905,10.6899418 32.4737415,15.9762405 32.4737415,15.9762405 L7.96816618,15.9762405 C7.96816618,15.9762405 6.91878313,11.140839 10.1832506,6.9684912 Z" id="Rectangle-52"></path>
                    <path d="M27.3456953,10.2316261 C28.5331897,7.98632009 29.8421769,5.46582033 34.228118,5.46582033 C38.6140591,5.46582033 40.691449,8.58632392 41.6686289,10.7210304 C42.6458088,12.855737 43,15.9762405 43,15.9762405 L25.4562358,15.9762405 C25.4562358,15.9762405 26.1582009,12.476932 27.3456953,10.2316261 Z" id="Rectangle-53"></path>
                </g>
                <g id="Rectangle-54-+-Rectangle-52-+-Rectangle-91" transform="translate(432.051049, 219.348308)" sketch:type="MSShapeGroup">
                    <path d="M0.115243175,15.6749712 C0.115243175,14.1698001 1.15549873,12.3132949 2.49443802,11.6394369 C2.49443802,11.6394369 3.57526367,10.5277285 7.03528375,10.5277285 C10.4953038,10.5277285 11.5761292,11.6394369 11.5761292,11.6394369 C12.8901221,12.3630298 13.9553238,14.1632218 13.9553238,15.6749712 L13.9553238,15.9762405 L0.115243175,15.9762405 L0.115243175,15.6749712 Z" id="Rectangle-54"></path>
                    <path d="M10.1832506,6.9684912 C13.447718,2.79614341 17.1388136,0.315832686 20.2209538,0.315832686 C23.2410263,0.315832686 26.7384244,3.24704056 29.6501075,6.9684912 C32.5617905,10.6899418 32.4737415,15.9762405 32.4737415,15.9762405 L7.96816618,15.9762405 C7.96816618,15.9762405 6.91878313,11.140839 10.1832506,6.9684912 Z" id="Rectangle-52"></path>
                    <path d="M27.3456953,10.2316261 C28.5331897,7.98632009 29.8421769,5.46582033 34.228118,5.46582033 C38.6140591,5.46582033 40.691449,8.58632392 41.6686289,10.7210304 C42.6458088,12.855737 43,15.9762405 43,15.9762405 L25.4562358,15.9762405 C25.4562358,15.9762405 26.1582009,12.476932 27.3456953,10.2316261 Z" id="Rectangle-53"></path>
                </g>
                <g id="Rectangle-54-+-Rectangle-52-+-Rectangle-86" transform="translate(1004.000000, 159.000000)" sketch:type="MSShapeGroup">
                    <path d="M0.0938025843,12.7359141 C0.0938025843,11.5129626 0.940522226,10.0045521 2.03035653,9.45704248 C2.03035653,9.45704248 2.91009833,8.55377943 5.72639375,8.55377943 C8.54268916,8.55377943 9.42243076,9.45704248 9.42243076,9.45704248 C10.4919598,10.0449617 11.3589845,11.5217872 11.3589845,12.7359141 L11.3589845,12.9806954 L0.0938025843,12.9806954 L0.0938025843,12.7359141 Z" id="Rectangle-54"></path>
                    <path d="M8.28869233,5.6618991 C10.945817,2.27186652 13.9501971,0.256614057 16.4589159,0.256614057 C18.9171144,0.256614057 21.7638338,2.63822046 24.1338084,5.6618991 C26.503783,8.68557774 26.4321152,12.9806954 26.4321152,12.9806954 L6.48571666,12.9806954 C6.48571666,12.9806954 5.63156766,9.05193168 8.28869233,5.6618991 Z" id="Rectangle-52"></path>
                    <path d="M22.2581241,8.31319617 C23.2246893,6.48888507 24.290144,4.44097902 27.8600961,4.44097902 C31.4300481,4.44097902 33.1209469,6.97638818 33.9163258,8.71083724 C34.7117048,10.4452863 35,12.9806954 35,12.9806954 L20.720192,12.9806954 C20.720192,12.9806954 21.2915589,10.1375073 22.2581241,8.31319617 Z" id="Rectangle-53"></path>
                </g>
                <g id="Rectangle-54-+-Rectangle-52-+-Rectangle-89" transform="translate(1254.408026, 197.000000)" sketch:type="MSShapeGroup">
                    <path d="M0.0938025843,12.7359141 C0.0938025843,11.5129626 0.940522226,10.0045521 2.03035653,9.45704248 C2.03035653,9.45704248 2.91009833,8.55377943 5.72639375,8.55377943 C8.54268916,8.55377943 9.42243076,9.45704248 9.42243076,9.45704248 C10.4919598,10.0449617 11.3589845,11.5217872 11.3589845,12.7359141 L11.3589845,12.9806954 L0.0938025843,12.9806954 L0.0938025843,12.7359141 Z" id="Rectangle-54"></path>
                    <path d="M8.28869233,5.6618991 C10.945817,2.27186652 13.9501971,0.256614057 16.4589159,0.256614057 C18.9171144,0.256614057 21.7638338,2.63822046 24.1338084,5.6618991 C26.503783,8.68557774 26.4321152,12.9806954 26.4321152,12.9806954 L6.48571666,12.9806954 C6.48571666,12.9806954 5.63156766,9.05193168 8.28869233,5.6618991 Z" id="Rectangle-52"></path>
                    <path d="M22.2581241,8.31319617 C23.2246893,6.48888507 24.290144,4.44097902 27.8600961,4.44097902 C31.4300481,4.44097902 33.1209469,6.97638818 33.9163258,8.71083724 C34.7117048,10.4452863 35,12.9806954 35,12.9806954 L20.720192,12.9806954 C20.720192,12.9806954 21.2915589,10.1375073 22.2581241,8.31319617 Z" id="Rectangle-53"></path>
                </g>
                <g id="Rectangle-54-+-Rectangle-52-+-Rectangle-88" transform="translate(1089.500000, 270.500000)" sketch:type="MSShapeGroup">
                    <path d="M0.174204799,23.5124568 C0.174204799,21.2547001 1.72959212,18.4794258 3.74689084,17.4697688 C3.74689084,17.4697688 5.40446833,15.7915928 10.6347312,15.7915928 C15.8649942,15.7915928 17.5225713,17.4697688 17.5225713,17.4697688 C19.4957111,18.5492966 21.0952569,21.2448327 21.0952569,23.5124568 L21.0952569,23.9643607 L0.174204799,23.9643607 L0.174204799,23.5124568 Z" id="Rectangle-54"></path>
                    <path d="M15.3932858,10.4527368 C20.3279459,4.19421511 25.9075089,0.473749029 30.5665581,0.473749029 C35.131784,0.473749029 40.4185485,4.87056084 44.8199299,10.4527368 C49.2213113,16.0349128 49.0882139,23.9643607 49.0882139,23.9643607 L12.0449024,23.9643607 C12.0449024,23.9643607 10.4586257,16.7112585 15.3932858,10.4527368 Z" id="Rectangle-52"></path>
                    <path d="M41.3365161,15.3474391 C43.1315658,11.9794801 45.1102675,8.1987305 51.7401784,8.1987305 C58.3700894,8.1987305 61.5103299,12.8794859 62.9874623,16.0815457 C64.4645947,19.2836055 65,23.9643607 65,23.9643607 L38.4803565,23.9643607 C38.4803565,23.9643607 39.5414665,18.715398 41.3365161,15.3474391 Z" id="Rectangle-53"></path>
                </g>
                <g id="Rectangle-54-+-Rectangle-52-+-Rectangle-62" transform="translate(1216.940571, 10.000000)" sketch:type="MSShapeGroup">
                    <path d="M0.101842806,13.7155998 C0.101842806,12.3985751 1.02113842,10.774133 2.19049003,10.1906985 C2.19049003,10.1906985 3.15953533,9.21176246 6.2172275,9.21176246 C9.27491966,9.21176246 10.2439647,10.1906985 10.2439647,10.1906985 C11.3974926,10.820423 12.3326117,12.4080785 12.3326117,13.7155998 L12.3326117,13.9792104 L0.101842806,13.9792104 L0.101842806,13.7155998 Z" id="Rectangle-54"></path>
                    <path d="M8.99915168,6.0974298 C11.8840299,2.44662548 15.1459283,0.2763536 17.8696801,0.2763536 C20.5385814,0.2763536 23.6293053,2.84116049 26.2024205,6.0974298 C28.7755358,9.35369911 28.6977251,13.9792104 28.6977251,13.9792104 L7.04163523,13.9792104 C7.04163523,13.9792104 6.11427346,9.74823412 8.99915168,6.0974298 Z" id="Rectangle-52"></path>
                    <path d="M24.1659633,8.9526728 C25.2153769,6.98803008 26.3721564,4.78259279 30.2481043,4.78259279 C34.1240522,4.78259279 35.9598852,7.51303343 36.8234395,9.38090164 C37.6869938,11.2487699 38,13.9792104 38,13.9792104 L22.4962084,13.9792104 C22.4962084,13.9792104 23.1165497,10.9173155 24.1659633,8.9526728 Z" id="Rectangle-53"></path>
                </g>
                <g id="Rectangle-54-+-Rectangle-52-+-Rectangle-71" transform="translate(335.000000, 30.151042)" sketch:type="MSShapeGroup">
                    <path d="M0.174204799,23.5124568 C0.174204799,21.2547001 1.72959212,18.4794258 3.74689084,17.4697688 C3.74689084,17.4697688 5.40446833,15.7915928 10.6347312,15.7915928 C15.8649942,15.7915928 17.5225713,17.4697688 17.5225713,17.4697688 C19.4957111,18.5492966 21.0952569,21.2448327 21.0952569,23.5124568 L21.0952569,23.9643607 L0.174204799,23.9643607 L0.174204799,23.5124568 Z" id="Rectangle-54"></path>
                    <path d="M15.3932858,10.4527368 C20.3279459,4.19421511 25.9075089,0.473749029 30.5665581,0.473749029 C35.131784,0.473749029 40.4185485,4.87056084 44.8199299,10.4527368 C49.2213113,16.0349128 49.0882139,23.9643607 49.0882139,23.9643607 L12.0449024,23.9643607 C12.0449024,23.9643607 10.4586257,16.7112585 15.3932858,10.4527368 Z" id="Rectangle-52"></path>
                    <path d="M41.3365161,15.3474391 C43.1315658,11.9794801 45.1102675,8.1987305 51.7401784,8.1987305 C58.3700894,8.1987305 61.5103299,12.8794859 62.9874623,16.0815457 C64.4645947,19.2836055 65,23.9643607 65,23.9643607 L38.4803565,23.9643607 C38.4803565,23.9643607 39.5414665,18.715398 41.3365161,15.3474391 Z" id="Rectangle-53"></path>
                </g>
                <g id="Rectangle-54-+-Rectangle-52-+-Rectangle-84" transform="translate(679.700000, 0.000000)" sketch:type="MSShapeGroup">
                    <path d="M0.174204799,23.5124568 C0.174204799,21.2547001 1.72959212,18.4794258 3.74689084,17.4697688 C3.74689084,17.4697688 5.40446833,15.7915928 10.6347312,15.7915928 C15.8649942,15.7915928 17.5225713,17.4697688 17.5225713,17.4697688 C19.4957111,18.5492966 21.0952569,21.2448327 21.0952569,23.5124568 L21.0952569,23.9643607 L0.174204799,23.9643607 L0.174204799,23.5124568 Z" id="Rectangle-54"></path>
                    <path d="M15.3932858,10.4527368 C20.3279459,4.19421511 25.9075089,0.473749029 30.5665581,0.473749029 C35.131784,0.473749029 40.4185485,4.87056084 44.8199299,10.4527368 C49.2213113,16.0349128 49.0882139,23.9643607 49.0882139,23.9643607 L12.0449024,23.9643607 C12.0449024,23.9643607 10.4586257,16.7112585 15.3932858,10.4527368 Z" id="Rectangle-52"></path>
                    <path d="M41.3365161,15.3474391 C43.1315658,11.9794801 45.1102675,8.1987305 51.7401784,8.1987305 C58.3700894,8.1987305 61.5103299,12.8794859 62.9874623,16.0815457 C64.4645947,19.2836055 65,23.9643607 65,23.9643607 L38.4803565,23.9643607 C38.4803565,23.9643607 39.5414665,18.715398 41.3365161,15.3474391 Z" id="Rectangle-53"></path>
                </g>
                <g id="Rectangle-54-+-Rectangle-52-+-Rectangle-74" transform="translate(95.569231, 68.203344)" sketch:type="MSShapeGroup">
                    <path d="M0.203685612,27.4311996 C0.203685612,24.7971501 2.02229233,21.5593302 4.38098006,20.3813969 C4.38098006,20.3813969 6.31907067,18.4235249 12.434455,18.4235249 C18.5498393,18.4235249 20.4879295,20.3813969 20.4879295,20.3813969 C22.7949852,21.640846 24.6652234,24.8008897 24.6652234,27.4311996 L24.6652234,27.9584208 L0.203685612,27.9584208 L0.203685612,27.4311996 Z" id="Rectangle-54"></path>
                    <path d="M17.9983034,12.1948596 C23.7680598,4.89325096 30.2918566,0.5527072 35.7393603,0.5527072 C41.0771628,0.5527072 47.2586105,5.68232098 52.4048411,12.1948596 C57.5510717,18.7073982 57.3954501,27.9584208 57.3954501,27.9584208 L14.0832705,27.9584208 C14.0832705,27.9584208 12.2285469,19.4964682 17.9983034,12.1948596 Z" id="Rectangle-52"></path>
                    <path d="M48.3319266,17.9053456 C50.4307538,13.9760602 52.7443127,9.56518558 60.4962086,9.56518558 C68.2481045,9.56518558 71.9197703,15.0260669 73.646879,18.7618033 C75.3739876,22.4975397 76,27.9584208 76,27.9584208 L44.9924168,27.9584208 C44.9924168,27.9584208 46.2330993,21.8346311 48.3319266,17.9053456 Z" id="Rectangle-53"></path>
                </g>
            </g>
        </g>
    </g>
</svg>