<svg width="121" height="182" viewBox="0 0 121 182" xmlns="http://www.w3.org/2000/svg"><title>Gandalf</title><defs><filter x="-50%" y="-50%" width="200%" height="200%" filterUnits="objectBoundingBox" id="a"><feGaussianBlur stdDeviation="8.429" in="SourceGraphic" result="blur"/></filter></defs><g fill="none" fill-rule="evenodd"><path d="M80.674 153.695c-4.325-1.727-33.256-14.906-33.256-14.906s32.394 42.49 20.355 27.69c-12.04-14.8-35.74-33.26-37.882-35.47-10.03-10.33 40.36 15.5 29.85-11.87-12.53-32.62 50.16 29.86 59.54 55.32 7.73 20.97-17.64-12.43-38.6-20.8z" fill="#66A57A"/><g transform="translate(21)"><ellipse fill-opacity=".2" fill="#ED9191" filter="url(#a)" cx="10.86" cy="44.234" rx="10.43" ry="11.995"/><path d="M35.562 122.92c5.104.12 10.8 2.914 10.8 2.914s.852 3.45-2.997 4.572c-3.85 1.122-8.134.687-11.38-.38-3.248-1.07-4.11-2.552-3.823-4.62.29-2.067 2.297-2.606 7.4-2.486z" fill="#B09978"/><path d="M35.562 123.667c5.104.12 10.8 2.952 10.8 2.952s.852 3.49-2.997 4.63c-3.85 1.13-8.134.69-11.38-.39-3.248-1.08-4.11-2.59-3.823-4.68.29-2.1 2.297-2.64 7.4-2.52z" fill="#C3A77F"/><path d="M48.462 120.157c5.104.122 10.8 2.952 10.8 2.952s.852 3.49-2.997 4.63c-3.85 1.13-8.134.69-11.38-.39-3.248-1.08-4.11-2.59-3.823-4.68.29-2.1 2.297-2.64 7.4-2.52z" fill="#B09978"/><path d="M48.462 119.28c5.104.12 10.8 2.952 10.8 2.952s.852 3.494-2.997 4.63c-3.85 1.137-8.134.696-11.38-.385-3.248-1.082-4.11-2.584-3.823-4.678.29-2.1 2.297-2.65 7.4-2.52z" fill="#C3A77F"/><path d="M49.16 89.087h10.32v30.987s-1.384 2.166-4.087 2.583c-2.702.416-4.513-.86-4.513-.86l-1.72-32.71z" fill="#999"/><path d="M56.62 110.675c-.225-7.196-3.254-21.588-3.254-21.588h6.114v30.987s-.82 2.166-2.42 2.583c-1.602.416-2.675-.86-2.675-.86s2.35-7.415 2.234-11.122z" fill="#818181"/><path d="M36.26 94.25l11.18-2.58-.86 31.847s-2.244 3.027-4.947 3.443c-2.702.416-4.513-.86-4.513-.86l-.86-31.85z" fill="#999"/><path d="M47.44 91.67l-.86 31.847s-2.244 3.027-4.947 3.443c-2.702.416 5.807-35.29 5.807-35.29z" fill="#CFCFCF"/><path d="M15.722 41.493l1.276 6.537-8.175 9.037-4.796-11.174 3.588-5.735 8.107 1.335z" fill="#DD7373"/><path d="M15.722 41.493l1.276 6.537-12.97-2.137 3.587-5.735 8.107 1.335z" fill="#ED8181"/><path d="M15.722 41.493l1.276 6.537-1.985.064-4.327-6.424 5.036-.177z" fill="#E67A7A"/><path d="M5.563 119.105l.138-14.4 2.56-13.207-.61-8.972 1.39-16.1-2.67-6.902-.41-11.65 3.15 5.72 2.07-5.01.77 5.405 3.8-5.59-.92 9.91-3.44 2.63-1.21 21.75.92 8.45-2.14 12.96-1.38 14.98 1.2 8.3-1.52.79-1.67-9.09z" fill="#BFA88D"/><path d="M9.46 73.832c1.694.88 2.22-.157 3.298-2.316 1.078-2.158 2.3-4.622.607-5.502-1.692-.88-3.747-1.948-5.877 2.316-2.13 4.264.28 4.622 1.973 5.502z" fill="#EFDDB2"/><path d="M11.123 68.966c1.675-2.304 3.362-1.433 3.362-1.433l7.41 5.48 12.94-2.59v8.772h-12.94L11.122 72.5s-1.676-1.23 0-3.534z" fill="#999"/><path d="M11.123 71.548l10.77 5.345 12.942-1.722v4.03h-12.94l-10.773-6.7v-.95z" fill="#919191"/><path d="M33.68 61.543c3.8 0 6.88-5.203 6.88-11.62 0-6.418-3.08-11.62-6.88-11.62-2.208 0-5.098 5.76-5.098 5.76s-2.253 4.165-2.502 5.446c-.222 1.14 2.502 1.86 2.502 3.12 0 6.41 1.298 8.9 5.098 8.9z" fill="#EFDDB2"/><path d="M29.3 51.703s-3.084-2.89-3.22-2.194c-.104.53 2.502 3.12 2.502 3.12l.718-.94z" fill="#DDCCA1"/><path d="M28.475 57.73c1.304-4.55 6.36-4.112 5.736-8.1-.62-3.988-7.26-10.28-5.73-10.28 5.07 0 15.53 4.117 15.53 4.117s8.85-3.695 11.78 0c2.94 3.694 1.83 17.588 1.83 17.588L44 63.265s-7.615 12.107-9.79 10.88c-2.174-1.228-7.04-11.862-5.735-16.414z" fill="#E5E5E5"/><path d="M38.355 49.146c8.83 4.2 17.923 2.007 19.113-2.463 1.19-4.47-2.66-11.008-12.347-15.616-9.68-4.608-19-5.14-20.8-1.186-1.8 3.96 4.36 14.66 14.04 19.27z" fill="#E6E6E6"/><path d="M36.827 46.455c9.686 4.608 19.893 3.188 21.7-.765 1.807-3.953-4.58-10.892-14.266-15.5-9.68-4.608-19-5.14-20.8-1.187-1.8 3.953 3.69 12.844 13.38 17.452z" fill="#A0A0A0"/><path d="M48.45 40.896c-1.658 4.008-16.32 3.324-11.623 5.56 9.686 4.607 19.893 3.187 21.7-.766 1.807-3.953-4.58-10.892-14.266-15.5-4.98-2.374 5.96 6.45 4.19 10.706z" fill="#9A9A9A"/><path d="M54.116 42.332c2.116-1.67-3.308-7.724-3.308-7.724s-3.85-2.956-6.627-4.278c-6.45-3.072-9.22-3.426-10.43-.79-1.2 2.634.22 5.943 6.68 9.015C45.82 41.12 52 44 54.12 42.332z" fill="#8E8E8E"/><path d="M58.718 3.94C72.648.77 72.44.51 72.44.51s-3.61 4.616-13.47 13.947c-5.766 5.457-7.582 22.57-7.582 22.57s-8.435 1.285-11.545-.743c-3.11-2.027-7.25-6.778-4.893-9.973 2.357-3.19 9.837-19.2 23.768-22.37z" fill="#989898"/><path d="M57.42 10.83C65 3.287 70.14 3.287 70.14 3.287s-9.727 6.785-11.86 9.197c-6.28 7.106-7.75 22.6-7.75 22.6s-2.565 1.06-5.323.755c-1.98-.22-4.062-1.6-5.362-2.45-.716-.47 4.157.4 7.334-3.95 3.52-4.82 5.84-14.25 10.24-18.62z" fill="#8E8E8E"/><path d="M33.14 91.58c2.878-15.058-.29-27.538 1.093-31.433 2.942-8.283 20.56-10.27 20.56-10.27s-.315-2.796 5.727 14.215c6.043 17.01 26.207 41.92 26.207 41.92s-15.858-4.46-22.87 0c-7.014 4.462-7.065 17.635-15.976 19.167-19.89 3.41-25.02-5.52-25.02-5.52s7.41-13.03 10.28-28.08z" fill="#A0A0A0"/><path d="M33.905 90.625c2.465-14.168.597-28.335.597-28.335s7.795 20.91 2.942 31.418c-4.852 10.508-7.126 15.442-7.01 23.42.067 4.722 1.906 4.417 3.47 6.962 2.255 3.666-10.096-3.584-10.096-3.584s7.633-15.713 10.097-29.88z" fill="#AEAEAE"/><path d="M66.148 88.627c-3.156-5.125-10.072-9.497-15.46-14.892-6.292-6.3-10.68-14.155-9.883-16.39.174-.487 3.634 1 7.18 0s5.897-5.354 5.897-5.354 1.728.92 6.636 15.41 23.965 37.57 23.965 37.57-11.022-4.63-18.335 0c-3.788 2.4 7.345-4.4 0-16.33z" fill="#919191"/></g></g></svg>